<svg width="462" height="310" viewBox="0 0 462 310" fill="none" xmlns="http://www.w3.org/2000/svg">
<g clip-path="url(#clip0_535_3070)">
<rect width="462" height="310" rx="155" fill="white"/>
<path opacity="0.5" d="M26.7784 227.268L185.811 9.42804L306.207 284.365L26.7784 227.268Z" fill="#A89B7B"/>
<path opacity="0.5" d="M127.289 146.563L400.37 47.9632L351.156 293.107L127.289 146.563Z" fill="#A89B7B"/>
<path d="M114.381 159.455L118.166 170.903H118.315L122.094 159.455H124.991L119.864 174H116.611L111.49 159.455H114.381ZM130.38 174.213C129.315 174.213 128.392 173.979 127.61 173.51C126.829 173.041 126.223 172.385 125.792 171.543C125.366 170.7 125.153 169.715 125.153 168.588C125.153 167.461 125.366 166.474 125.792 165.626C126.223 164.779 126.829 164.121 127.61 163.652C128.392 163.183 129.315 162.949 130.38 162.949C131.446 162.949 132.369 163.183 133.15 163.652C133.931 164.121 134.535 164.779 134.961 165.626C135.392 166.474 135.608 167.461 135.608 168.588C135.608 169.715 135.392 170.7 134.961 171.543C134.535 172.385 133.931 173.041 133.15 173.51C132.369 173.979 131.446 174.213 130.38 174.213ZM130.395 172.153C130.972 172.153 131.455 171.995 131.843 171.678C132.232 171.356 132.52 170.925 132.71 170.385C132.904 169.845 133.001 169.244 133.001 168.581C133.001 167.913 132.904 167.31 132.71 166.77C132.52 166.225 132.232 165.792 131.843 165.47C131.455 165.148 130.972 164.987 130.395 164.987C129.803 164.987 129.31 165.148 128.917 165.47C128.529 165.792 128.238 166.225 128.044 166.77C127.854 167.31 127.76 167.913 127.76 168.581C127.76 169.244 127.854 169.845 128.044 170.385C128.238 170.925 128.529 171.356 128.917 171.678C129.31 171.995 129.803 172.153 130.395 172.153ZM144.743 169.412V163.091H147.314V174H144.821V172.061H144.707C144.461 172.672 144.056 173.171 143.493 173.56C142.934 173.948 142.245 174.142 141.426 174.142C140.711 174.142 140.079 173.983 139.53 173.666C138.985 173.344 138.559 172.878 138.251 172.267C137.944 171.652 137.79 170.908 137.79 170.037V163.091H140.361V169.639C140.361 170.33 140.55 170.88 140.929 171.287C141.308 171.694 141.805 171.898 142.42 171.898C142.799 171.898 143.166 171.805 143.521 171.621C143.876 171.436 144.168 171.161 144.395 170.797C144.627 170.428 144.743 169.966 144.743 169.412ZM158.58 165.974L156.236 166.23C156.17 165.993 156.054 165.771 155.888 165.562C155.727 165.354 155.509 165.186 155.235 165.058C154.96 164.93 154.624 164.866 154.226 164.866C153.691 164.866 153.241 164.982 152.877 165.214C152.517 165.446 152.339 165.747 152.344 166.116C152.339 166.434 152.455 166.692 152.692 166.891C152.934 167.089 153.331 167.253 153.885 167.381L155.746 167.778C156.778 168.001 157.545 168.354 158.047 168.837C158.554 169.32 158.81 169.952 158.814 170.733C158.81 171.42 158.608 172.026 158.211 172.551C157.818 173.072 157.271 173.479 156.57 173.773C155.869 174.066 155.064 174.213 154.155 174.213C152.82 174.213 151.745 173.934 150.931 173.375C150.116 172.812 149.631 172.028 149.475 171.024L151.982 170.783C152.096 171.275 152.337 171.647 152.706 171.898C153.076 172.149 153.556 172.274 154.148 172.274C154.759 172.274 155.249 172.149 155.618 171.898C155.992 171.647 156.179 171.337 156.179 170.967C156.179 170.655 156.059 170.397 155.817 170.193C155.58 169.99 155.211 169.833 154.709 169.724L152.848 169.334C151.802 169.116 151.028 168.749 150.526 168.233C150.024 167.712 149.775 167.054 149.78 166.259C149.775 165.586 149.958 165.004 150.327 164.511C150.701 164.014 151.22 163.631 151.882 163.361C152.55 163.086 153.319 162.949 154.191 162.949C155.469 162.949 156.475 163.221 157.209 163.766C157.948 164.31 158.405 165.046 158.58 165.974ZM170.725 174.213C169.631 174.213 168.686 173.986 167.891 173.531C167.1 173.072 166.492 172.423 166.066 171.585C165.64 170.742 165.426 169.75 165.426 168.609C165.426 167.487 165.64 166.502 166.066 165.655C166.497 164.803 167.098 164.14 167.87 163.666C168.641 163.188 169.548 162.949 170.59 162.949C171.262 162.949 171.897 163.058 172.493 163.276C173.095 163.489 173.625 163.82 174.084 164.27C174.548 164.72 174.913 165.293 175.178 165.989C175.443 166.68 175.576 167.504 175.576 168.46V169.249H166.634V167.516H173.111C173.106 167.023 173 166.585 172.792 166.202C172.583 165.813 172.292 165.508 171.918 165.286C171.549 165.063 171.118 164.952 170.625 164.952C170.1 164.952 169.638 165.08 169.24 165.335C168.843 165.586 168.533 165.918 168.31 166.33C168.092 166.737 167.981 167.184 167.976 167.672V169.185C167.976 169.819 168.092 170.364 168.324 170.818C168.556 171.268 168.881 171.614 169.297 171.855C169.714 172.092 170.202 172.21 170.76 172.21C171.134 172.21 171.473 172.158 171.776 172.054C172.079 171.945 172.342 171.786 172.564 171.578C172.787 171.37 172.955 171.112 173.069 170.804L175.469 171.074C175.318 171.708 175.029 172.262 174.603 172.736C174.181 173.205 173.641 173.569 172.983 173.83C172.325 174.085 171.572 174.213 170.725 174.213ZM169.532 161.656L171.123 158.411H173.637L171.456 161.656H169.532ZM183.198 163.091V165.08H176.927V163.091H183.198ZM178.475 160.477H181.046V170.719C181.046 171.064 181.098 171.33 181.202 171.514C181.311 171.694 181.453 171.817 181.629 171.884C181.804 171.95 181.998 171.983 182.211 171.983C182.372 171.983 182.519 171.971 182.651 171.947C182.789 171.924 182.893 171.902 182.964 171.884L183.397 173.893C183.26 173.941 183.063 173.993 182.808 174.05C182.557 174.107 182.249 174.14 181.884 174.149C181.24 174.168 180.66 174.071 180.144 173.858C179.628 173.64 179.219 173.304 178.915 172.849C178.617 172.395 178.47 171.827 178.475 171.145V160.477ZM190.061 174.213C188.967 174.213 188.022 173.986 187.227 173.531C186.436 173.072 185.828 172.423 185.402 171.585C184.975 170.742 184.762 169.75 184.762 168.609C184.762 167.487 184.975 166.502 185.402 165.655C185.833 164.803 186.434 164.14 187.206 163.666C187.977 163.188 188.884 162.949 189.926 162.949C190.598 162.949 191.233 163.058 191.829 163.276C192.431 163.489 192.961 163.82 193.42 164.27C193.884 164.72 194.249 165.293 194.514 165.989C194.779 166.68 194.912 167.504 194.912 168.46V169.249H185.97V167.516H192.447C192.442 167.023 192.336 166.585 192.127 166.202C191.919 165.813 191.628 165.508 191.254 165.286C190.885 165.063 190.454 164.952 189.961 164.952C189.436 164.952 188.974 165.08 188.576 165.335C188.179 165.586 187.868 165.918 187.646 166.33C187.428 166.737 187.317 167.184 187.312 167.672V169.185C187.312 169.819 187.428 170.364 187.66 170.818C187.892 171.268 188.217 171.614 188.633 171.855C189.05 172.092 189.538 172.21 190.096 172.21C190.47 172.21 190.809 172.158 191.112 172.054C191.415 171.945 191.678 171.786 191.9 171.578C192.123 171.37 192.291 171.112 192.404 170.804L194.805 171.074C194.654 171.708 194.365 172.262 193.939 172.736C193.517 173.205 192.977 173.569 192.319 173.83C191.661 174.085 190.908 174.213 190.061 174.213ZM205.709 165.974L203.365 166.23C203.299 165.993 203.183 165.771 203.017 165.562C202.856 165.354 202.638 165.186 202.364 165.058C202.089 164.93 201.753 164.866 201.355 164.866C200.82 164.866 200.37 164.982 200.006 165.214C199.646 165.446 199.468 165.747 199.473 166.116C199.468 166.434 199.584 166.692 199.821 166.891C200.063 167.089 200.46 167.253 201.014 167.381L202.875 167.778C203.907 168.001 204.674 168.354 205.176 168.837C205.683 169.32 205.938 169.952 205.943 170.733C205.938 171.42 205.737 172.026 205.339 172.551C204.946 173.072 204.4 173.479 203.699 173.773C202.998 174.066 202.193 174.213 201.284 174.213C199.949 174.213 198.874 173.934 198.06 173.375C197.245 172.812 196.76 172.028 196.604 171.024L199.111 170.783C199.224 171.275 199.466 171.647 199.835 171.898C200.205 172.149 200.685 172.274 201.277 172.274C201.888 172.274 202.378 172.149 202.747 171.898C203.121 171.647 203.308 171.337 203.308 170.967C203.308 170.655 203.188 170.397 202.946 170.193C202.709 169.99 202.34 169.833 201.838 169.724L199.977 169.334C198.931 169.116 198.157 168.749 197.655 168.233C197.153 167.712 196.904 167.054 196.909 166.259C196.904 165.586 197.087 165.004 197.456 164.511C197.83 164.014 198.348 163.631 199.011 163.361C199.679 163.086 200.448 162.949 201.32 162.949C202.598 162.949 203.604 163.221 204.338 163.766C205.077 164.31 205.534 165.046 205.709 165.974ZM213.024 174V163.091H215.595V174H213.024ZM214.317 161.543C213.91 161.543 213.559 161.408 213.266 161.138C212.972 160.863 212.825 160.534 212.825 160.151C212.825 159.762 212.972 159.433 213.266 159.163C213.559 158.889 213.91 158.751 214.317 158.751C214.729 158.751 215.079 158.889 215.368 159.163C215.661 159.433 215.808 159.762 215.808 160.151C215.808 160.534 215.661 160.863 215.368 161.138C215.079 161.408 214.729 161.543 214.317 161.543ZM220.81 167.608V174H218.239V163.091H220.696V164.945H220.824C221.075 164.334 221.475 163.848 222.025 163.489C222.578 163.129 223.263 162.949 224.077 162.949C224.83 162.949 225.486 163.11 226.044 163.432C226.608 163.754 227.043 164.22 227.351 164.831C227.664 165.442 227.818 166.183 227.813 167.054V174H225.242V167.452C225.242 166.723 225.052 166.152 224.674 165.74C224.3 165.328 223.781 165.122 223.118 165.122C222.668 165.122 222.268 165.222 221.918 165.42C221.572 165.615 221.3 165.896 221.101 166.266C220.907 166.635 220.81 167.082 220.81 167.608ZM235.874 163.091V165.08H229.603V163.091H235.874ZM231.151 160.477H233.722V170.719C233.722 171.064 233.774 171.33 233.878 171.514C233.987 171.694 234.129 171.817 234.304 171.884C234.48 171.95 234.674 171.983 234.887 171.983C235.048 171.983 235.194 171.971 235.327 171.947C235.464 171.924 235.569 171.902 235.64 171.884L236.073 173.893C235.935 173.941 235.739 173.993 235.483 174.05C235.232 174.107 234.925 174.14 234.56 174.149C233.916 174.168 233.336 174.071 232.82 173.858C232.304 173.64 231.894 173.304 231.591 172.849C231.293 172.395 231.146 171.827 231.151 171.145V160.477ZM242.737 174.213C241.643 174.213 240.698 173.986 239.903 173.531C239.112 173.072 238.504 172.423 238.077 171.585C237.651 170.742 237.438 169.75 237.438 168.609C237.438 167.487 237.651 166.502 238.077 165.655C238.508 164.803 239.11 164.14 239.881 163.666C240.653 163.188 241.56 162.949 242.602 162.949C243.274 162.949 243.908 163.058 244.505 163.276C245.106 163.489 245.637 163.82 246.096 164.27C246.56 164.72 246.924 165.293 247.19 165.989C247.455 166.68 247.587 167.504 247.587 168.46V169.249H238.646V167.516H245.123C245.118 167.023 245.012 166.585 244.803 166.202C244.595 165.813 244.304 165.508 243.93 165.286C243.56 165.063 243.129 164.952 242.637 164.952C242.112 164.952 241.65 165.08 241.252 165.335C240.854 165.586 240.544 165.918 240.322 166.33C240.104 166.737 239.993 167.184 239.988 167.672V169.185C239.988 169.819 240.104 170.364 240.336 170.818C240.568 171.268 240.892 171.614 241.309 171.855C241.726 172.092 242.213 172.21 242.772 172.21C243.146 172.21 243.485 172.158 243.788 172.054C244.091 171.945 244.353 171.786 244.576 171.578C244.799 171.37 244.967 171.112 245.08 170.804L247.481 171.074C247.329 171.708 247.04 172.262 246.614 172.736C246.193 173.205 245.653 173.569 244.995 173.83C244.337 174.085 243.584 174.213 242.737 174.213ZM249.762 174V163.091H252.255V164.909H252.369C252.568 164.279 252.909 163.794 253.392 163.453C253.879 163.107 254.436 162.935 255.061 162.935C255.203 162.935 255.361 162.942 255.537 162.956C255.717 162.965 255.866 162.982 255.984 163.006V165.371C255.875 165.333 255.702 165.3 255.466 165.271C255.234 165.238 255.009 165.222 254.791 165.222C254.322 165.222 253.901 165.323 253.527 165.527C253.157 165.726 252.866 166.003 252.653 166.358C252.44 166.713 252.333 167.123 252.333 167.587V174H249.762ZM257.692 174V163.091H260.15V164.945H260.277C260.505 164.32 260.881 163.832 261.407 163.482C261.932 163.126 262.56 162.949 263.289 162.949C264.027 162.949 264.65 163.129 265.157 163.489C265.668 163.844 266.028 164.329 266.236 164.945H266.35C266.591 164.339 266.998 163.856 267.571 163.496C268.149 163.131 268.833 162.949 269.624 162.949C270.628 162.949 271.447 163.266 272.081 163.901C272.716 164.535 273.033 165.461 273.033 166.678V174H270.455V167.075C270.455 166.398 270.275 165.903 269.915 165.591C269.555 165.274 269.115 165.115 268.594 165.115C267.974 165.115 267.489 165.309 267.138 165.697C266.792 166.081 266.62 166.58 266.62 167.196V174H264.098V166.969C264.098 166.405 263.928 165.955 263.587 165.619C263.251 165.283 262.81 165.115 262.266 165.115C261.897 165.115 261.56 165.21 261.257 165.399C260.954 165.584 260.713 165.847 260.533 166.188C260.353 166.524 260.263 166.917 260.263 167.366V174H257.692ZM280.471 174.213C279.377 174.213 278.433 173.986 277.637 173.531C276.846 173.072 276.238 172.423 275.812 171.585C275.386 170.742 275.173 169.75 275.173 168.609C275.173 167.487 275.386 166.502 275.812 165.655C276.243 164.803 276.844 164.14 277.616 163.666C278.388 163.188 279.294 162.949 280.336 162.949C281.008 162.949 281.643 163.058 282.239 163.276C282.841 163.489 283.371 163.82 283.83 164.27C284.294 164.72 284.659 165.293 284.924 165.989C285.189 166.68 285.322 167.504 285.322 168.46V169.249H276.38V167.516H282.857C282.853 167.023 282.746 166.585 282.538 166.202C282.329 165.813 282.038 165.508 281.664 165.286C281.295 165.063 280.864 164.952 280.371 164.952C279.846 164.952 279.384 165.08 278.987 165.335C278.589 165.586 278.279 165.918 278.056 166.33C277.838 166.737 277.727 167.184 277.722 167.672V169.185C277.722 169.819 277.838 170.364 278.07 170.818C278.302 171.268 278.627 171.614 279.043 171.855C279.46 172.092 279.948 172.21 280.506 172.21C280.88 172.21 281.219 172.158 281.522 172.054C281.825 171.945 282.088 171.786 282.31 171.578C282.533 171.37 282.701 171.112 282.815 170.804L285.215 171.074C285.064 171.708 284.775 172.262 284.349 172.736C283.927 173.205 283.388 173.569 282.729 173.83C282.071 174.085 281.318 174.213 280.471 174.213ZM279.278 161.656L280.869 158.411H283.383L281.202 161.656H279.278ZM291.545 174.192C290.688 174.192 289.921 173.972 289.244 173.531C288.567 173.091 288.032 172.452 287.639 171.614C287.246 170.776 287.049 169.758 287.049 168.56C287.049 167.348 287.248 166.325 287.646 165.491C288.048 164.653 288.591 164.021 289.272 163.595C289.954 163.164 290.714 162.949 291.552 162.949C292.191 162.949 292.717 163.058 293.129 163.276C293.541 163.489 293.868 163.747 294.109 164.05C294.35 164.348 294.538 164.63 294.67 164.895H294.777V159.455H297.355V174H294.826V172.281H294.67C294.538 172.546 294.346 172.828 294.095 173.126C293.844 173.42 293.512 173.671 293.1 173.879C292.689 174.088 292.17 174.192 291.545 174.192ZM292.262 172.082C292.807 172.082 293.271 171.936 293.654 171.642C294.038 171.344 294.329 170.929 294.528 170.399C294.727 169.869 294.826 169.251 294.826 168.545C294.826 167.84 294.727 167.227 294.528 166.706C294.334 166.185 294.045 165.78 293.662 165.491C293.283 165.203 292.816 165.058 292.262 165.058C291.69 165.058 291.211 165.207 290.828 165.506C290.444 165.804 290.155 166.216 289.961 166.741C289.767 167.267 289.67 167.868 289.67 168.545C289.67 169.227 289.767 169.836 289.961 170.371C290.16 170.901 290.451 171.32 290.835 171.628C291.223 171.931 291.699 172.082 292.262 172.082ZM300.094 174V163.091H302.665V174H300.094ZM301.387 161.543C300.98 161.543 300.629 161.408 300.336 161.138C300.042 160.863 299.896 160.534 299.896 160.151C299.896 159.762 300.042 159.433 300.336 159.163C300.629 158.889 300.98 158.751 301.387 158.751C301.799 158.751 302.149 158.889 302.438 159.163C302.732 159.433 302.879 159.762 302.879 160.151C302.879 160.534 302.732 160.863 302.438 161.138C302.149 161.408 301.799 161.543 301.387 161.543ZM308.449 174.22C307.757 174.22 307.135 174.097 306.581 173.851C306.031 173.6 305.596 173.231 305.274 172.743C304.957 172.255 304.798 171.654 304.798 170.939C304.798 170.323 304.912 169.814 305.139 169.412C305.366 169.009 305.676 168.688 306.069 168.446C306.462 168.205 306.905 168.022 307.397 167.899C307.895 167.771 308.408 167.679 308.939 167.622C309.578 167.556 310.096 167.497 310.494 167.445C310.892 167.388 311.181 167.303 311.36 167.189C311.545 167.071 311.637 166.888 311.637 166.642V166.599C311.637 166.064 311.479 165.65 311.162 165.357C310.844 165.063 310.387 164.916 309.791 164.916C309.161 164.916 308.662 165.054 308.292 165.328C307.928 165.603 307.681 165.927 307.554 166.301L305.153 165.96C305.342 165.297 305.655 164.743 306.091 164.298C306.526 163.848 307.059 163.512 307.689 163.29C308.318 163.062 309.014 162.949 309.777 162.949C310.302 162.949 310.825 163.01 311.346 163.134C311.867 163.257 312.343 163.46 312.774 163.744C313.205 164.024 313.55 164.405 313.811 164.888C314.076 165.371 314.208 165.974 314.208 166.699V174H311.737V172.501H311.652C311.495 172.804 311.275 173.089 310.991 173.354C310.712 173.614 310.359 173.825 309.933 173.986C309.511 174.142 309.017 174.22 308.449 174.22ZM309.116 172.331C309.632 172.331 310.08 172.229 310.458 172.026C310.837 171.817 311.128 171.543 311.332 171.202C311.54 170.861 311.645 170.489 311.645 170.087V168.801C311.564 168.867 311.427 168.929 311.233 168.986C311.043 169.043 310.83 169.092 310.593 169.135C310.357 169.178 310.122 169.215 309.89 169.249C309.658 169.282 309.457 169.31 309.287 169.334C308.903 169.386 308.56 169.471 308.257 169.589C307.954 169.708 307.715 169.874 307.539 170.087C307.364 170.295 307.277 170.565 307.277 170.896C307.277 171.37 307.449 171.727 307.795 171.969C308.141 172.21 308.581 172.331 309.116 172.331ZM316.794 174V163.091H319.365V174H316.794ZM318.086 161.543C317.679 161.543 317.329 161.408 317.035 161.138C316.742 160.863 316.595 160.534 316.595 160.151C316.595 159.762 316.742 159.433 317.035 159.163C317.329 158.889 317.679 158.751 318.086 158.751C318.498 158.751 318.849 158.889 319.137 159.163C319.431 159.433 319.578 159.762 319.578 160.151C319.578 160.534 319.431 160.863 319.137 161.138C318.849 161.408 318.498 161.543 318.086 161.543ZM322.009 174V163.091H324.501V164.909H324.615C324.814 164.279 325.155 163.794 325.638 163.453C326.125 163.107 326.682 162.935 327.307 162.935C327.449 162.935 327.607 162.942 327.783 162.956C327.963 162.965 328.112 162.982 328.23 163.006V165.371C328.121 165.333 327.948 165.3 327.712 165.271C327.48 165.238 327.255 165.222 327.037 165.222C326.568 165.222 326.147 165.323 325.773 165.527C325.403 165.726 325.112 166.003 324.899 166.358C324.686 166.713 324.58 167.123 324.58 167.587V174H322.009ZM334.319 174.213C333.225 174.213 332.28 173.986 331.485 173.531C330.694 173.072 330.086 172.423 329.659 171.585C329.233 170.742 329.02 169.75 329.02 168.609C329.02 167.487 329.233 166.502 329.659 165.655C330.09 164.803 330.692 164.14 331.463 163.666C332.235 163.188 333.142 162.949 334.184 162.949C334.856 162.949 335.49 163.058 336.087 163.276C336.688 163.489 337.219 163.82 337.678 164.27C338.142 164.72 338.507 165.293 338.772 165.989C339.037 166.68 339.169 167.504 339.169 168.46V169.249H330.228V167.516H336.705C336.7 167.023 336.594 166.585 336.385 166.202C336.177 165.813 335.886 165.508 335.512 165.286C335.142 165.063 334.712 164.952 334.219 164.952C333.694 164.952 333.232 165.08 332.834 165.335C332.436 165.586 332.126 165.918 331.904 166.33C331.686 166.737 331.575 167.184 331.57 167.672V169.185C331.57 169.819 331.686 170.364 331.918 170.818C332.15 171.268 332.474 171.614 332.891 171.855C333.308 172.092 333.795 172.21 334.354 172.21C334.728 172.21 335.067 172.158 335.37 172.054C335.673 171.945 335.935 171.786 336.158 171.578C336.381 171.37 336.549 171.112 336.662 170.804L339.063 171.074C338.911 171.708 338.623 172.262 338.196 172.736C337.775 173.205 337.235 173.569 336.577 173.83C335.919 174.085 335.166 174.213 334.319 174.213ZM349.967 165.974L347.623 166.23C347.557 165.993 347.441 165.771 347.275 165.562C347.114 165.354 346.896 165.186 346.621 165.058C346.347 164.93 346.011 164.866 345.613 164.866C345.078 164.866 344.628 164.982 344.263 165.214C343.904 165.446 343.726 165.747 343.731 166.116C343.726 166.434 343.842 166.692 344.079 166.891C344.32 167.089 344.718 167.253 345.272 167.381L347.133 167.778C348.165 168.001 348.932 168.354 349.434 168.837C349.941 169.32 350.196 169.952 350.201 170.733C350.196 171.42 349.995 172.026 349.597 172.551C349.204 173.072 348.657 173.479 347.957 173.773C347.256 174.066 346.451 174.213 345.542 174.213C344.207 174.213 343.132 173.934 342.317 173.375C341.503 172.812 341.018 172.028 340.862 171.024L343.369 170.783C343.482 171.275 343.724 171.647 344.093 171.898C344.462 172.149 344.943 172.274 345.535 172.274C346.146 172.274 346.636 172.149 347.005 171.898C347.379 171.647 347.566 171.337 347.566 170.967C347.566 170.655 347.445 170.397 347.204 170.193C346.967 169.99 346.598 169.833 346.096 169.724L344.235 169.334C343.189 169.116 342.415 168.749 341.913 168.233C341.411 167.712 341.162 167.054 341.167 166.259C341.162 165.586 341.344 165.004 341.714 164.511C342.088 164.014 342.606 163.631 343.269 163.361C343.937 163.086 344.706 162.949 345.577 162.949C346.856 162.949 347.862 163.221 348.596 163.766C349.335 164.31 349.791 165.046 349.967 165.974ZM124.641 188.362H121.985C121.909 187.927 121.769 187.541 121.566 187.205C121.362 186.864 121.109 186.575 120.806 186.338C120.503 186.101 120.157 185.924 119.769 185.805C119.385 185.682 118.971 185.621 118.526 185.621C117.735 185.621 117.034 185.82 116.423 186.217C115.813 186.61 115.334 187.188 114.989 187.95C114.643 188.708 114.47 189.634 114.47 190.727C114.47 191.84 114.643 192.777 114.989 193.54C115.339 194.297 115.817 194.87 116.423 195.259C117.034 195.642 117.733 195.834 118.519 195.834C118.954 195.834 119.361 195.777 119.74 195.663C120.124 195.545 120.467 195.372 120.77 195.145C121.078 194.918 121.336 194.638 121.544 194.307C121.757 193.975 121.904 193.597 121.985 193.17L124.641 193.185C124.541 193.876 124.326 194.525 123.994 195.131C123.668 195.737 123.239 196.272 122.709 196.736C122.179 197.195 121.558 197.555 120.848 197.815C120.138 198.071 119.35 198.199 118.483 198.199C117.205 198.199 116.064 197.903 115.06 197.311C114.056 196.719 113.265 195.865 112.688 194.747C112.11 193.63 111.821 192.29 111.821 190.727C111.821 189.16 112.112 187.82 112.695 186.707C113.277 185.59 114.07 184.735 115.074 184.143C116.078 183.552 117.214 183.256 118.483 183.256C119.293 183.256 120.046 183.369 120.742 183.597C121.438 183.824 122.058 184.158 122.602 184.598C123.147 185.034 123.594 185.569 123.945 186.203C124.3 186.833 124.532 187.553 124.641 188.362ZM130.079 198.22C129.388 198.22 128.765 198.097 128.211 197.851C127.662 197.6 127.227 197.231 126.905 196.743C126.587 196.255 126.429 195.654 126.429 194.939C126.429 194.323 126.542 193.814 126.77 193.412C126.997 193.009 127.307 192.688 127.7 192.446C128.093 192.205 128.536 192.022 129.028 191.899C129.525 191.771 130.039 191.679 130.569 191.622C131.209 191.556 131.727 191.497 132.125 191.445C132.523 191.388 132.811 191.303 132.991 191.189C133.176 191.071 133.268 190.888 133.268 190.642V190.599C133.268 190.064 133.11 189.65 132.792 189.357C132.475 189.063 132.018 188.916 131.422 188.916C130.792 188.916 130.292 189.054 129.923 189.328C129.559 189.603 129.312 189.927 129.184 190.301L126.784 189.96C126.973 189.297 127.286 188.743 127.721 188.298C128.157 187.848 128.69 187.512 129.319 187.29C129.949 187.062 130.645 186.949 131.407 186.949C131.933 186.949 132.456 187.01 132.977 187.134C133.498 187.257 133.974 187.46 134.405 187.744C134.836 188.024 135.181 188.405 135.442 188.888C135.707 189.371 135.839 189.974 135.839 190.699V198H133.368V196.501H133.282C133.126 196.804 132.906 197.089 132.622 197.354C132.343 197.614 131.99 197.825 131.564 197.986C131.142 198.142 130.648 198.22 130.079 198.22ZM130.747 196.331C131.263 196.331 131.711 196.229 132.089 196.026C132.468 195.817 132.759 195.543 132.963 195.202C133.171 194.861 133.275 194.489 133.275 194.087V192.801C133.195 192.867 133.058 192.929 132.863 192.986C132.674 193.043 132.461 193.092 132.224 193.135C131.988 193.178 131.753 193.215 131.521 193.249C131.289 193.282 131.088 193.31 130.917 193.334C130.534 193.386 130.191 193.471 129.888 193.589C129.585 193.708 129.345 193.874 129.17 194.087C128.995 194.295 128.907 194.565 128.907 194.896C128.907 195.37 129.08 195.727 129.426 195.969C129.772 196.21 130.212 196.331 130.747 196.331ZM138.538 198V183.455H141.109V188.895H141.216C141.348 188.63 141.535 188.348 141.777 188.05C142.018 187.747 142.345 187.489 142.757 187.276C143.169 187.058 143.694 186.949 144.334 186.949C145.176 186.949 145.936 187.164 146.613 187.595C147.295 188.021 147.835 188.653 148.233 189.491C148.635 190.325 148.836 191.348 148.836 192.56C148.836 193.758 148.64 194.776 148.247 195.614C147.854 196.452 147.319 197.091 146.642 197.531C145.965 197.972 145.198 198.192 144.341 198.192C143.716 198.192 143.197 198.088 142.785 197.879C142.373 197.671 142.042 197.42 141.791 197.126C141.545 196.828 141.353 196.546 141.216 196.281H141.067V198H138.538ZM141.059 192.545C141.059 193.251 141.159 193.869 141.358 194.399C141.561 194.929 141.853 195.344 142.231 195.642C142.615 195.936 143.079 196.082 143.623 196.082C144.192 196.082 144.667 195.931 145.051 195.628C145.434 195.32 145.723 194.901 145.917 194.371C146.116 193.836 146.216 193.227 146.216 192.545C146.216 191.868 146.119 191.267 145.925 190.741C145.73 190.216 145.442 189.804 145.058 189.506C144.675 189.207 144.196 189.058 143.623 189.058C143.074 189.058 142.608 189.203 142.224 189.491C141.841 189.78 141.55 190.185 141.351 190.706C141.157 191.227 141.059 191.84 141.059 192.545ZM151.022 198V187.091H153.593V198H151.022ZM152.315 185.543C151.908 185.543 151.557 185.408 151.264 185.138C150.97 184.863 150.823 184.534 150.823 184.151C150.823 183.762 150.97 183.433 151.264 183.163C151.557 182.889 151.908 182.751 152.315 182.751C152.727 182.751 153.077 182.889 153.366 183.163C153.66 183.433 153.806 183.762 153.806 184.151C153.806 184.534 153.66 184.863 153.366 185.138C153.077 185.408 152.727 185.543 152.315 185.543ZM158.808 191.608V198H156.237V187.091H158.694V188.945H158.822C159.073 188.334 159.473 187.848 160.023 187.489C160.577 187.129 161.261 186.949 162.075 186.949C162.828 186.949 163.484 187.11 164.042 187.432C164.606 187.754 165.041 188.22 165.349 188.831C165.662 189.442 165.816 190.183 165.811 191.054V198H163.24V191.452C163.24 190.723 163.05 190.152 162.672 189.74C162.298 189.328 161.779 189.122 161.116 189.122C160.666 189.122 160.266 189.222 159.916 189.42C159.57 189.615 159.298 189.896 159.099 190.266C158.905 190.635 158.808 191.082 158.808 191.608ZM173.254 198.213C172.16 198.213 171.216 197.986 170.42 197.531C169.63 197.072 169.021 196.423 168.595 195.585C168.169 194.742 167.956 193.75 167.956 192.609C167.956 191.487 168.169 190.502 168.595 189.655C169.026 188.803 169.627 188.14 170.399 187.666C171.171 187.188 172.077 186.949 173.119 186.949C173.791 186.949 174.426 187.058 175.023 187.276C175.624 187.489 176.154 187.82 176.613 188.27C177.077 188.72 177.442 189.293 177.707 189.989C177.972 190.68 178.105 191.504 178.105 192.46V193.249H169.163V191.516H175.64C175.636 191.023 175.529 190.585 175.321 190.202C175.113 189.813 174.821 189.508 174.447 189.286C174.078 189.063 173.647 188.952 173.155 188.952C172.629 188.952 172.167 189.08 171.77 189.335C171.372 189.586 171.062 189.918 170.839 190.33C170.622 190.737 170.51 191.184 170.506 191.672V193.185C170.506 193.819 170.622 194.364 170.854 194.818C171.086 195.268 171.41 195.614 171.827 195.855C172.243 196.092 172.731 196.21 173.29 196.21C173.664 196.21 174.002 196.158 174.305 196.054C174.608 195.945 174.871 195.786 175.094 195.578C175.316 195.37 175.484 195.112 175.598 194.804L177.998 195.074C177.847 195.708 177.558 196.262 177.132 196.736C176.711 197.205 176.171 197.569 175.513 197.83C174.854 198.085 174.102 198.213 173.254 198.213ZM185.727 187.091V189.08H179.456V187.091H185.727ZM181.004 184.477H183.575V194.719C183.575 195.064 183.628 195.33 183.732 195.514C183.841 195.694 183.983 195.817 184.158 195.884C184.333 195.95 184.527 195.983 184.74 195.983C184.901 195.983 185.048 195.971 185.181 195.947C185.318 195.924 185.422 195.902 185.493 195.884L185.926 197.893C185.789 197.941 185.593 197.993 185.337 198.05C185.086 198.107 184.778 198.14 184.414 198.149C183.77 198.168 183.19 198.071 182.673 197.858C182.157 197.64 181.748 197.304 181.445 196.849C181.146 196.395 181 195.827 181.004 195.145V184.477ZM196.887 198.192C196.03 198.192 195.263 197.972 194.586 197.531C193.909 197.091 193.374 196.452 192.981 195.614C192.588 194.776 192.391 193.758 192.391 192.56C192.391 191.348 192.59 190.325 192.988 189.491C193.39 188.653 193.932 188.021 194.614 187.595C195.296 187.164 196.056 186.949 196.894 186.949C197.533 186.949 198.059 187.058 198.471 187.276C198.883 187.489 199.209 187.747 199.451 188.05C199.692 188.348 199.879 188.63 200.012 188.895H200.118V183.455H202.697V198H200.168V196.281H200.012C199.879 196.546 199.688 196.828 199.437 197.126C199.186 197.42 198.854 197.671 198.442 197.879C198.03 198.088 197.512 198.192 196.887 198.192ZM197.604 196.082C198.149 196.082 198.613 195.936 198.996 195.642C199.38 195.344 199.671 194.929 199.87 194.399C200.069 193.869 200.168 193.251 200.168 192.545C200.168 191.84 200.069 191.227 199.87 190.706C199.676 190.185 199.387 189.78 199.003 189.491C198.625 189.203 198.158 189.058 197.604 189.058C197.031 189.058 196.553 189.207 196.17 189.506C195.786 189.804 195.497 190.216 195.303 190.741C195.109 191.267 195.012 191.868 195.012 192.545C195.012 193.227 195.109 193.836 195.303 194.371C195.502 194.901 195.793 195.32 196.177 195.628C196.565 195.931 197.041 196.082 197.604 196.082ZM210.266 198.213C209.172 198.213 208.227 197.986 207.432 197.531C206.641 197.072 206.033 196.423 205.607 195.585C205.181 194.742 204.968 193.75 204.968 192.609C204.968 191.487 205.181 190.502 205.607 189.655C206.038 188.803 206.639 188.14 207.411 187.666C208.182 187.188 209.089 186.949 210.131 186.949C210.803 186.949 211.438 187.058 212.034 187.276C212.636 187.489 213.166 187.82 213.625 188.27C214.089 188.72 214.454 189.293 214.719 189.989C214.984 190.68 215.117 191.504 215.117 192.46V193.249H206.175V191.516H212.652C212.647 191.023 212.541 190.585 212.333 190.202C212.124 189.813 211.833 189.508 211.459 189.286C211.09 189.063 210.659 188.952 210.166 188.952C209.641 188.952 209.179 189.08 208.781 189.335C208.384 189.586 208.074 189.918 207.851 190.33C207.633 190.737 207.522 191.184 207.517 191.672V193.185C207.517 193.819 207.633 194.364 207.865 194.818C208.097 195.268 208.422 195.614 208.838 195.855C209.255 196.092 209.743 196.21 210.301 196.21C210.675 196.21 211.014 196.158 211.317 196.054C211.62 195.945 211.883 195.786 212.105 195.578C212.328 195.37 212.496 195.112 212.61 194.804L215.01 195.074C214.859 195.708 214.57 196.262 214.144 196.736C213.722 197.205 213.182 197.569 212.524 197.83C211.866 198.085 211.113 198.213 210.266 198.213ZM222.253 198V187.091H224.746V188.909H224.859C225.058 188.279 225.399 187.794 225.882 187.453C226.37 187.107 226.926 186.935 227.551 186.935C227.693 186.935 227.852 186.942 228.027 186.956C228.207 186.965 228.356 186.982 228.474 187.006V189.371C228.365 189.333 228.193 189.3 227.956 189.271C227.724 189.238 227.499 189.222 227.281 189.222C226.812 189.222 226.391 189.323 226.017 189.527C225.648 189.726 225.356 190.003 225.143 190.358C224.93 190.713 224.824 191.123 224.824 191.587V198H222.253ZM234.563 198.213C233.469 198.213 232.524 197.986 231.729 197.531C230.938 197.072 230.33 196.423 229.904 195.585C229.477 194.742 229.264 193.75 229.264 192.609C229.264 191.487 229.477 190.502 229.904 189.655C230.334 188.803 230.936 188.14 231.708 187.666C232.479 187.188 233.386 186.949 234.428 186.949C235.1 186.949 235.735 187.058 236.331 187.276C236.932 187.489 237.463 187.82 237.922 188.27C238.386 188.72 238.751 189.293 239.016 189.989C239.281 190.68 239.414 191.504 239.414 192.46V193.249H230.472V191.516H236.949C236.944 191.023 236.838 190.585 236.629 190.202C236.421 189.813 236.13 189.508 235.756 189.286C235.387 189.063 234.956 188.952 234.463 188.952C233.938 188.952 233.476 189.08 233.078 189.335C232.681 189.586 232.37 189.918 232.148 190.33C231.93 190.737 231.819 191.184 231.814 191.672V193.185C231.814 193.819 231.93 194.364 232.162 194.818C232.394 195.268 232.718 195.614 233.135 195.855C233.552 196.092 234.039 196.21 234.598 196.21C234.972 196.21 235.311 196.158 235.614 196.054C235.917 195.945 236.18 195.786 236.402 195.578C236.625 195.37 236.793 195.112 236.906 194.804L239.307 195.074C239.155 195.708 238.867 196.262 238.441 196.736C238.019 197.205 237.479 197.569 236.821 197.83C236.163 198.085 235.41 198.213 234.563 198.213ZM246.347 198.213C245.258 198.213 244.323 197.974 243.542 197.496C242.765 197.018 242.166 196.357 241.745 195.514C241.328 194.667 241.12 193.691 241.12 192.588C241.12 191.48 241.333 190.502 241.759 189.655C242.185 188.803 242.787 188.14 243.563 187.666C244.344 187.188 245.268 186.949 246.333 186.949C247.218 186.949 248.002 187.112 248.684 187.439C249.37 187.761 249.917 188.218 250.324 188.81C250.732 189.397 250.964 190.083 251.02 190.869H248.563C248.464 190.344 248.227 189.906 247.853 189.555C247.483 189.2 246.989 189.023 246.368 189.023C245.843 189.023 245.381 189.165 244.983 189.449C244.586 189.728 244.276 190.131 244.053 190.656C243.835 191.182 243.726 191.812 243.726 192.545C243.726 193.289 243.835 193.928 244.053 194.463C244.271 194.993 244.576 195.403 244.969 195.692C245.367 195.976 245.833 196.118 246.368 196.118C246.747 196.118 247.086 196.047 247.384 195.905C247.687 195.758 247.94 195.547 248.144 195.273C248.348 194.998 248.487 194.664 248.563 194.271H251.02C250.959 195.043 250.732 195.727 250.339 196.324C249.946 196.916 249.411 197.38 248.733 197.716C248.056 198.047 247.261 198.213 246.347 198.213ZM253.132 198V187.091H255.624V188.909H255.738C255.937 188.279 256.278 187.794 256.761 187.453C257.249 187.107 257.805 186.935 258.43 186.935C258.572 186.935 258.731 186.942 258.906 186.956C259.086 186.965 259.235 186.982 259.353 187.006V189.371C259.244 189.333 259.071 189.3 258.835 189.271C258.603 189.238 258.378 189.222 258.16 189.222C257.691 189.222 257.27 189.323 256.896 189.527C256.526 189.726 256.235 190.003 256.022 190.358C255.809 190.713 255.703 191.123 255.703 191.587V198H253.132ZM268.014 193.412V187.091H270.585V198H268.093V196.061H267.979C267.733 196.672 267.328 197.171 266.764 197.56C266.206 197.948 265.517 198.142 264.698 198.142C263.983 198.142 263.351 197.983 262.801 197.666C262.257 197.344 261.831 196.878 261.523 196.267C261.215 195.652 261.061 194.908 261.061 194.037V187.091H263.632V193.639C263.632 194.33 263.822 194.88 264.2 195.287C264.579 195.694 265.076 195.898 265.692 195.898C266.071 195.898 266.438 195.805 266.793 195.621C267.148 195.436 267.439 195.161 267.666 194.797C267.898 194.428 268.014 193.966 268.014 193.412ZM278.677 187.091V189.08H272.405V187.091H278.677ZM273.954 184.477H276.525V194.719C276.525 195.064 276.577 195.33 276.681 195.514C276.79 195.694 276.932 195.817 277.107 195.884C277.282 195.95 277.476 195.983 277.689 195.983C277.85 195.983 277.997 195.971 278.13 195.947C278.267 195.924 278.371 195.902 278.442 195.884L278.876 197.893C278.738 197.941 278.542 197.993 278.286 198.05C278.035 198.107 277.727 198.14 277.363 198.149C276.719 198.168 276.139 198.071 275.623 197.858C275.107 197.64 274.697 197.304 274.394 196.849C274.096 196.395 273.949 195.827 273.954 195.145V184.477ZM285.539 198.213C284.445 198.213 283.501 197.986 282.705 197.531C281.915 197.072 281.306 196.423 280.88 195.585C280.454 194.742 280.241 193.75 280.241 192.609C280.241 191.487 280.454 190.502 280.88 189.655C281.311 188.803 281.912 188.14 282.684 187.666C283.456 187.188 284.363 186.949 285.404 186.949C286.077 186.949 286.711 187.058 287.308 187.276C287.909 187.489 288.439 187.82 288.899 188.27C289.363 188.72 289.727 189.293 289.992 189.989C290.258 190.68 290.39 191.504 290.39 192.46V193.249H281.448V191.516H287.926C287.921 191.023 287.814 190.585 287.606 190.202C287.398 189.813 287.106 189.508 286.732 189.286C286.363 189.063 285.932 188.952 285.44 188.952C284.914 188.952 284.453 189.08 284.055 189.335C283.657 189.586 283.347 189.918 283.124 190.33C282.907 190.737 282.795 191.184 282.791 191.672V193.185C282.791 193.819 282.907 194.364 283.139 194.818C283.371 195.268 283.695 195.614 284.112 195.855C284.528 196.092 285.016 196.21 285.575 196.21C285.949 196.21 286.287 196.158 286.59 196.054C286.893 195.945 287.156 195.786 287.379 195.578C287.601 195.37 287.769 195.112 287.883 194.804L290.284 195.074C290.132 195.708 289.843 196.262 289.417 196.736C288.996 197.205 288.456 197.569 287.798 197.83C287.14 198.085 286.387 198.213 285.539 198.213ZM292.565 198V187.091H295.023V188.945H295.15C295.378 188.32 295.754 187.832 296.28 187.482C296.805 187.126 297.433 186.949 298.162 186.949C298.9 186.949 299.523 187.129 300.03 187.489C300.541 187.844 300.901 188.329 301.109 188.945H301.223C301.464 188.339 301.872 187.856 302.444 187.496C303.022 187.131 303.706 186.949 304.497 186.949C305.501 186.949 306.32 187.266 306.954 187.901C307.589 188.535 307.906 189.461 307.906 190.678V198H305.328V191.075C305.328 190.398 305.148 189.903 304.788 189.591C304.428 189.274 303.988 189.115 303.467 189.115C302.847 189.115 302.362 189.309 302.011 189.697C301.666 190.081 301.493 190.58 301.493 191.196V198H298.971V190.969C298.971 190.405 298.801 189.955 298.46 189.619C298.124 189.283 297.684 189.115 297.139 189.115C296.77 189.115 296.434 189.21 296.131 189.399C295.827 189.584 295.586 189.847 295.406 190.188C295.226 190.524 295.136 190.917 295.136 191.366V198H292.565ZM315.344 198.213C314.25 198.213 313.306 197.986 312.51 197.531C311.719 197.072 311.111 196.423 310.685 195.585C310.259 194.742 310.046 193.75 310.046 192.609C310.046 191.487 310.259 190.502 310.685 189.655C311.116 188.803 311.717 188.14 312.489 187.666C313.261 187.188 314.167 186.949 315.209 186.949C315.881 186.949 316.516 187.058 317.112 187.276C317.714 187.489 318.244 187.82 318.703 188.27C319.167 188.72 319.532 189.293 319.797 189.989C320.062 190.68 320.195 191.504 320.195 192.46V193.249H311.253V191.516H317.73C317.726 191.023 317.619 190.585 317.411 190.202C317.202 189.813 316.911 189.508 316.537 189.286C316.168 189.063 315.737 188.952 315.244 188.952C314.719 188.952 314.257 189.08 313.86 189.335C313.462 189.586 313.152 189.918 312.929 190.33C312.711 190.737 312.6 191.184 312.595 191.672V193.185C312.595 193.819 312.711 194.364 312.943 194.818C313.175 195.268 313.5 195.614 313.916 195.855C314.333 196.092 314.821 196.21 315.379 196.21C315.753 196.21 316.092 196.158 316.395 196.054C316.698 195.945 316.961 195.786 317.183 195.578C317.406 195.37 317.574 195.112 317.688 194.804L320.088 195.074C319.937 195.708 319.648 196.262 319.222 196.736C318.8 197.205 318.261 197.569 317.602 197.83C316.944 198.085 316.191 198.213 315.344 198.213ZM324.941 191.608V198H322.37V187.091H324.827V188.945H324.955C325.206 188.334 325.606 187.848 326.155 187.489C326.709 187.129 327.394 186.949 328.208 186.949C328.961 186.949 329.617 187.11 330.175 187.432C330.739 187.754 331.174 188.22 331.482 188.831C331.795 189.442 331.948 190.183 331.944 191.054V198H329.373V191.452C329.373 190.723 329.183 190.152 328.805 189.74C328.43 189.328 327.912 189.122 327.249 189.122C326.799 189.122 326.399 189.222 326.049 189.42C325.703 189.615 325.431 189.896 325.232 190.266C325.038 190.635 324.941 191.082 324.941 191.608ZM340.005 187.091V189.08H333.733V187.091H340.005ZM335.282 184.477H337.853V194.719C337.853 195.064 337.905 195.33 338.009 195.514C338.118 195.694 338.26 195.817 338.435 195.884C338.61 195.95 338.805 195.983 339.018 195.983C339.179 195.983 339.325 195.971 339.458 195.947C339.595 195.924 339.699 195.902 339.77 195.884L340.204 197.893C340.066 197.941 339.87 197.993 339.614 198.05C339.363 198.107 339.055 198.14 338.691 198.149C338.047 198.168 337.467 198.071 336.951 197.858C336.435 197.64 336.025 197.304 335.722 196.849C335.424 196.395 335.277 195.827 335.282 195.145V184.477ZM350.134 196.011L350.042 196.793C349.976 197.389 349.857 197.995 349.687 198.611C349.521 199.231 349.346 199.802 349.161 200.322C348.977 200.843 348.828 201.253 348.714 201.551H346.981C347.047 201.262 347.137 200.869 347.251 200.372C347.369 199.875 347.483 199.316 347.592 198.696C347.701 198.076 347.774 197.446 347.812 196.807L347.862 196.011H350.134ZM143.268 226.091V211.091H145.797V212.895H145.946C146.078 212.63 146.265 212.348 146.507 212.05C146.748 211.747 147.075 211.489 147.487 211.276C147.899 211.058 148.425 210.949 149.064 210.949C149.907 210.949 150.666 211.164 151.344 211.595C152.025 212.021 152.565 212.653 152.963 213.491C153.365 214.325 153.567 215.348 153.567 216.56C153.567 217.758 153.37 218.776 152.977 219.614C152.584 220.452 152.049 221.091 151.372 221.531C150.695 221.972 149.928 222.192 149.071 222.192C148.446 222.192 147.927 222.088 147.515 221.879C147.104 221.671 146.772 221.42 146.521 221.126C146.275 220.828 146.083 220.546 145.946 220.281H145.839V226.091H143.268ZM145.79 216.545C145.79 217.251 145.889 217.869 146.088 218.399C146.291 218.929 146.583 219.344 146.961 219.642C147.345 219.936 147.809 220.082 148.354 220.082C148.922 220.082 149.398 219.931 149.781 219.628C150.165 219.32 150.453 218.901 150.648 218.371C150.846 217.836 150.946 217.227 150.946 216.545C150.946 215.868 150.849 215.267 150.655 214.741C150.461 214.216 150.172 213.804 149.788 213.506C149.405 213.207 148.926 213.058 148.354 213.058C147.804 213.058 147.338 213.203 146.954 213.491C146.571 213.78 146.28 214.185 146.081 214.706C145.887 215.227 145.79 215.84 145.79 216.545ZM160.527 222.213C159.461 222.213 158.538 221.979 157.757 221.51C156.976 221.041 156.37 220.385 155.939 219.543C155.513 218.7 155.3 217.715 155.3 216.588C155.3 215.461 155.513 214.474 155.939 213.626C156.37 212.779 156.976 212.121 157.757 211.652C158.538 211.183 159.461 210.949 160.527 210.949C161.592 210.949 162.515 211.183 163.297 211.652C164.078 212.121 164.682 212.779 165.108 213.626C165.539 214.474 165.754 215.461 165.754 216.588C165.754 217.715 165.539 218.7 165.108 219.543C164.682 220.385 164.078 221.041 163.297 221.51C162.515 221.979 161.592 222.213 160.527 222.213ZM160.541 220.153C161.119 220.153 161.602 219.995 161.99 219.678C162.378 219.356 162.667 218.925 162.856 218.385C163.05 217.845 163.148 217.244 163.148 216.581C163.148 215.913 163.05 215.31 162.856 214.77C162.667 214.225 162.378 213.792 161.99 213.47C161.602 213.148 161.119 212.987 160.541 212.987C159.949 212.987 159.457 213.148 159.064 213.47C158.675 213.792 158.384 214.225 158.19 214.77C158.001 215.31 157.906 215.913 157.906 216.581C157.906 217.244 158.001 217.845 158.19 218.385C158.384 218.925 158.675 219.356 159.064 219.678C159.457 219.995 159.949 220.153 160.541 220.153ZM167.936 222V211.091H170.429V212.909H170.543C170.742 212.279 171.083 211.794 171.566 211.453C172.053 211.107 172.61 210.935 173.235 210.935C173.377 210.935 173.535 210.942 173.71 210.956C173.89 210.965 174.039 210.982 174.158 211.006V213.371C174.049 213.333 173.876 213.3 173.639 213.271C173.407 213.238 173.182 213.222 172.965 213.222C172.496 213.222 172.075 213.323 171.7 213.527C171.331 213.726 171.04 214.003 170.827 214.358C170.614 214.713 170.507 215.123 170.507 215.587V222H167.936ZM181.899 211.091V213.08H175.628V211.091H181.899ZM177.176 208.477H179.747V218.719C179.747 219.064 179.799 219.33 179.904 219.514C180.012 219.694 180.155 219.817 180.33 219.884C180.505 219.95 180.699 219.983 180.912 219.983C181.073 219.983 181.22 219.971 181.352 219.947C181.49 219.924 181.594 219.902 181.665 219.884L182.098 221.893C181.961 221.941 181.764 221.993 181.509 222.05C181.258 222.107 180.95 222.14 180.585 222.149C179.941 222.168 179.361 222.071 178.845 221.858C178.329 221.64 177.92 221.304 177.617 220.849C177.318 220.395 177.172 219.827 177.176 219.145V208.477ZM187.189 222.22C186.497 222.22 185.875 222.097 185.321 221.851C184.772 221.6 184.336 221.231 184.014 220.743C183.697 220.255 183.538 219.654 183.538 218.939C183.538 218.323 183.652 217.814 183.879 217.412C184.106 217.009 184.416 216.688 184.809 216.446C185.202 216.205 185.645 216.022 186.138 215.899C186.635 215.771 187.148 215.679 187.679 215.622C188.318 215.556 188.836 215.497 189.234 215.445C189.632 215.388 189.921 215.303 190.101 215.189C190.285 215.071 190.378 214.888 190.378 214.642V214.599C190.378 214.064 190.219 213.65 189.902 213.357C189.585 213.063 189.128 212.916 188.531 212.916C187.901 212.916 187.402 213.054 187.032 213.328C186.668 213.603 186.422 213.927 186.294 214.301L183.893 213.96C184.083 213.297 184.395 212.743 184.831 212.298C185.266 211.848 185.799 211.512 186.429 211.29C187.059 211.062 187.755 210.949 188.517 210.949C189.042 210.949 189.566 211.01 190.086 211.134C190.607 211.257 191.083 211.46 191.514 211.744C191.945 212.024 192.291 212.405 192.551 212.888C192.816 213.371 192.949 213.974 192.949 214.699V222H190.477V220.501H190.392C190.236 220.804 190.015 221.089 189.731 221.354C189.452 221.614 189.099 221.825 188.673 221.986C188.252 222.142 187.757 222.22 187.189 222.22ZM187.856 220.331C188.372 220.331 188.82 220.229 189.199 220.026C189.577 219.817 189.869 219.543 190.072 219.202C190.281 218.861 190.385 218.489 190.385 218.087V216.801C190.304 216.867 190.167 216.929 189.973 216.986C189.783 217.043 189.57 217.092 189.334 217.135C189.097 217.178 188.863 217.215 188.631 217.249C188.398 217.282 188.197 217.31 188.027 217.334C187.643 217.386 187.3 217.471 186.997 217.589C186.694 217.708 186.455 217.874 186.28 218.087C186.104 218.295 186.017 218.565 186.017 218.896C186.017 219.37 186.19 219.727 186.535 219.969C186.881 220.21 187.321 220.331 187.856 220.331ZM200.278 226.318C199.355 226.318 198.562 226.193 197.899 225.942C197.236 225.696 196.703 225.364 196.301 224.947C195.898 224.531 195.619 224.069 195.463 223.562L197.778 223.001C197.882 223.214 198.034 223.425 198.233 223.634C198.432 223.847 198.699 224.022 199.035 224.159C199.376 224.301 199.805 224.372 200.321 224.372C201.05 224.372 201.654 224.195 202.132 223.839C202.61 223.489 202.849 222.911 202.849 222.107V220.04H202.721C202.589 220.305 202.395 220.577 202.139 220.857C201.888 221.136 201.554 221.37 201.138 221.56C200.726 221.749 200.207 221.844 199.582 221.844C198.744 221.844 197.984 221.647 197.302 221.254C196.625 220.857 196.086 220.265 195.683 219.479C195.285 218.688 195.086 217.698 195.086 216.51C195.086 215.312 195.285 214.301 195.683 213.477C196.086 212.649 196.628 212.021 197.309 211.595C197.991 211.164 198.751 210.949 199.589 210.949C200.229 210.949 200.754 211.058 201.166 211.276C201.583 211.489 201.914 211.747 202.16 212.05C202.407 212.348 202.594 212.63 202.721 212.895H202.863V211.091H205.399V222.178C205.399 223.11 205.176 223.882 204.731 224.493C204.286 225.104 203.678 225.561 202.906 225.864C202.134 226.167 201.258 226.318 200.278 226.318ZM200.3 219.827C200.844 219.827 201.308 219.694 201.692 219.429C202.075 219.164 202.366 218.783 202.565 218.286C202.764 217.788 202.863 217.192 202.863 216.496C202.863 215.809 202.764 215.208 202.565 214.692C202.371 214.176 202.082 213.776 201.699 213.491C201.32 213.203 200.854 213.058 200.3 213.058C199.727 213.058 199.248 213.207 198.865 213.506C198.481 213.804 198.193 214.214 197.998 214.734C197.804 215.25 197.707 215.838 197.707 216.496C197.707 217.163 197.804 217.748 197.998 218.25C198.197 218.747 198.488 219.135 198.872 219.415C199.26 219.689 199.736 219.827 200.3 219.827ZM212.863 222.213C211.77 222.213 210.825 221.986 210.03 221.531C209.239 221.072 208.631 220.423 208.204 219.585C207.778 218.742 207.565 217.75 207.565 216.609C207.565 215.487 207.778 214.502 208.204 213.655C208.635 212.803 209.237 212.14 210.008 211.666C210.78 211.188 211.687 210.949 212.729 210.949C213.401 210.949 214.035 211.058 214.632 211.276C215.233 211.489 215.764 211.82 216.223 212.27C216.687 212.72 217.051 213.293 217.317 213.989C217.582 214.68 217.714 215.504 217.714 216.46V217.249H208.773V215.516H215.25C215.245 215.023 215.139 214.585 214.93 214.202C214.722 213.813 214.431 213.508 214.057 213.286C213.687 213.063 213.256 212.952 212.764 212.952C212.238 212.952 211.777 213.08 211.379 213.335C210.981 213.586 210.671 213.918 210.449 214.33C210.231 214.737 210.12 215.184 210.115 215.672V217.185C210.115 217.819 210.231 218.364 210.463 218.818C210.695 219.268 211.019 219.614 211.436 219.855C211.853 220.092 212.34 220.21 212.899 220.21C213.273 220.21 213.612 220.158 213.915 220.054C214.218 219.945 214.48 219.786 214.703 219.578C214.925 219.37 215.094 219.112 215.207 218.804L217.608 219.074C217.456 219.708 217.167 220.262 216.741 220.736C216.32 221.205 215.78 221.569 215.122 221.83C214.464 222.085 213.711 222.213 212.863 222.213ZM227.869 220.011L227.776 220.793C227.71 221.389 227.592 221.995 227.421 222.611C227.256 223.231 227.08 223.802 226.896 224.322C226.711 224.843 226.562 225.253 226.448 225.551H224.715C224.782 225.262 224.872 224.869 224.985 224.372C225.104 223.875 225.217 223.316 225.326 222.696C225.435 222.076 225.508 221.446 225.546 220.807L225.596 220.011H227.869ZM240.019 222.213C238.93 222.213 237.995 221.974 237.214 221.496C236.437 221.018 235.838 220.357 235.417 219.514C235 218.667 234.792 217.691 234.792 216.588C234.792 215.48 235.005 214.502 235.431 213.655C235.857 212.803 236.458 212.14 237.235 211.666C238.016 211.188 238.939 210.949 240.005 210.949C240.89 210.949 241.674 211.112 242.356 211.439C243.042 211.761 243.589 212.218 243.996 212.81C244.403 213.397 244.635 214.083 244.692 214.869H242.235C242.135 214.344 241.899 213.906 241.525 213.555C241.155 213.2 240.661 213.023 240.04 213.023C239.515 213.023 239.053 213.165 238.655 213.449C238.258 213.728 237.948 214.131 237.725 214.656C237.507 215.182 237.398 215.812 237.398 216.545C237.398 217.289 237.507 217.928 237.725 218.463C237.943 218.993 238.248 219.403 238.641 219.692C239.039 219.976 239.505 220.118 240.04 220.118C240.419 220.118 240.758 220.047 241.056 219.905C241.359 219.758 241.612 219.547 241.816 219.273C242.019 218.998 242.159 218.664 242.235 218.271H244.692C244.631 219.043 244.403 219.727 244.01 220.324C243.617 220.916 243.082 221.38 242.405 221.716C241.728 222.047 240.933 222.213 240.019 222.213ZM251.562 222.213C250.497 222.213 249.573 221.979 248.792 221.51C248.011 221.041 247.405 220.385 246.974 219.543C246.548 218.7 246.335 217.715 246.335 216.588C246.335 215.461 246.548 214.474 246.974 213.626C247.405 212.779 248.011 212.121 248.792 211.652C249.573 211.183 250.497 210.949 251.562 210.949C252.627 210.949 253.551 211.183 254.332 211.652C255.113 212.121 255.717 212.779 256.143 213.626C256.574 214.474 256.789 215.461 256.789 216.588C256.789 217.715 256.574 218.7 256.143 219.543C255.717 220.385 255.113 221.041 254.332 221.51C253.551 221.979 252.627 222.213 251.562 222.213ZM251.576 220.153C252.154 220.153 252.637 219.995 253.025 219.678C253.413 219.356 253.702 218.925 253.892 218.385C254.086 217.845 254.183 217.244 254.183 216.581C254.183 215.913 254.086 215.31 253.892 214.77C253.702 214.225 253.413 213.792 253.025 213.47C252.637 213.148 252.154 212.987 251.576 212.987C250.984 212.987 250.492 213.148 250.099 213.47C249.711 213.792 249.419 214.225 249.225 214.77C249.036 215.31 248.941 215.913 248.941 216.581C248.941 217.244 249.036 217.845 249.225 218.385C249.419 218.925 249.711 219.356 250.099 219.678C250.492 219.995 250.984 220.153 251.576 220.153ZM261.542 215.608V222H258.971V211.091H261.429V212.945H261.557C261.808 212.334 262.208 211.848 262.757 211.489C263.311 211.129 263.995 210.949 264.809 210.949C265.562 210.949 266.218 211.11 266.777 211.432C267.34 211.754 267.776 212.22 268.084 212.831C268.396 213.442 268.55 214.183 268.545 215.054V222H265.974V215.452C265.974 214.723 265.785 214.152 265.406 213.74C265.032 213.328 264.514 213.122 263.851 213.122C263.401 213.122 263.001 213.222 262.65 213.42C262.305 213.615 262.032 213.896 261.834 214.266C261.64 214.635 261.542 215.082 261.542 215.608ZM279.781 213.974L277.437 214.23C277.371 213.993 277.255 213.771 277.089 213.562C276.928 213.354 276.711 213.186 276.436 213.058C276.161 212.93 275.825 212.866 275.427 212.866C274.892 212.866 274.443 212.982 274.078 213.214C273.718 213.446 273.541 213.747 273.545 214.116C273.541 214.434 273.657 214.692 273.893 214.891C274.135 215.089 274.532 215.253 275.086 215.381L276.947 215.778C277.979 216.001 278.747 216.354 279.248 216.837C279.755 217.32 280.011 217.952 280.015 218.733C280.011 219.42 279.809 220.026 279.412 220.551C279.019 221.072 278.472 221.479 277.771 221.773C277.07 222.066 276.265 222.213 275.356 222.213C274.021 222.213 272.946 221.934 272.132 221.375C271.318 220.812 270.832 220.028 270.676 219.024L273.183 218.783C273.297 219.275 273.538 219.647 273.907 219.898C274.277 220.149 274.757 220.274 275.349 220.274C275.96 220.274 276.45 220.149 276.819 219.898C277.193 219.647 277.381 219.337 277.381 218.967C277.381 218.655 277.26 218.397 277.018 218.193C276.782 217.99 276.412 217.833 275.91 217.724L274.05 217.334C273.003 217.116 272.229 216.749 271.727 216.233C271.225 215.712 270.977 215.054 270.981 214.259C270.977 213.586 271.159 213.004 271.528 212.511C271.902 212.014 272.421 211.631 273.084 211.361C273.751 211.086 274.521 210.949 275.392 210.949C276.67 210.949 277.676 211.221 278.41 211.766C279.149 212.31 279.606 213.046 279.781 213.974ZM286.965 222.213C285.871 222.213 284.927 221.986 284.131 221.531C283.34 221.072 282.732 220.423 282.306 219.585C281.88 218.742 281.667 217.75 281.667 216.609C281.667 215.487 281.88 214.502 282.306 213.655C282.737 212.803 283.338 212.14 284.11 211.666C284.882 211.188 285.788 210.949 286.83 210.949C287.502 210.949 288.137 211.058 288.733 211.276C289.335 211.489 289.865 211.82 290.324 212.27C290.788 212.72 291.153 213.293 291.418 213.989C291.683 214.68 291.816 215.504 291.816 216.46V217.249H282.874V215.516H289.351C289.347 215.023 289.24 214.585 289.032 214.202C288.823 213.813 288.532 213.508 288.158 213.286C287.789 213.063 287.358 212.952 286.866 212.952C286.34 212.952 285.878 213.08 285.481 213.335C285.083 213.586 284.773 213.918 284.55 214.33C284.332 214.737 284.221 215.184 284.216 215.672V217.185C284.216 217.819 284.332 218.364 284.564 218.818C284.796 219.268 285.121 219.614 285.537 219.855C285.954 220.092 286.442 220.21 287.001 220.21C287.375 220.21 287.713 220.158 288.016 220.054C288.319 219.945 288.582 219.786 288.805 219.578C289.027 219.37 289.195 219.112 289.309 218.804L291.709 219.074C291.558 219.708 291.269 220.262 290.843 220.736C290.421 221.205 289.882 221.569 289.224 221.83C288.565 222.085 287.813 222.213 286.965 222.213ZM293.991 222V211.091H296.562V222H293.991ZM295.284 209.543C294.876 209.543 294.526 209.408 294.232 209.138C293.939 208.863 293.792 208.534 293.792 208.151C293.792 207.762 293.939 207.433 294.232 207.163C294.526 206.889 294.876 206.751 295.284 206.751C295.695 206.751 296.046 206.889 296.335 207.163C296.628 207.433 296.775 207.762 296.775 208.151C296.775 208.534 296.628 208.863 296.335 209.138C296.046 209.408 295.695 209.543 295.284 209.543ZM301.777 207.455V222H299.206V207.455H301.777ZM306.004 222.156C305.574 222.156 305.204 222.005 304.896 221.702C304.589 221.399 304.437 221.029 304.442 220.594C304.437 220.168 304.589 219.803 304.896 219.5C305.204 219.197 305.574 219.045 306.004 219.045C306.421 219.045 306.783 219.197 307.091 219.5C307.404 219.803 307.562 220.168 307.567 220.594C307.562 220.883 307.486 221.145 307.34 221.382C307.198 221.619 307.008 221.808 306.771 221.95C306.539 222.088 306.284 222.156 306.004 222.156ZM311.805 222.156C311.374 222.156 311.005 222.005 310.697 221.702C310.39 221.399 310.238 221.029 310.243 220.594C310.238 220.168 310.39 219.803 310.697 219.5C311.005 219.197 311.374 219.045 311.805 219.045C312.222 219.045 312.584 219.197 312.892 219.5C313.204 219.803 313.363 220.168 313.368 220.594C313.363 220.883 313.287 221.145 313.14 221.382C312.998 221.619 312.809 221.808 312.572 221.95C312.34 222.088 312.085 222.156 311.805 222.156ZM317.606 222.156C317.175 222.156 316.806 222.005 316.498 221.702C316.19 221.399 316.039 221.029 316.044 220.594C316.039 220.168 316.19 219.803 316.498 219.5C316.806 219.197 317.175 219.045 317.606 219.045C318.023 219.045 318.385 219.197 318.693 219.5C319.005 219.803 319.164 220.168 319.169 220.594C319.164 220.883 319.088 221.145 318.941 221.382C318.799 221.619 318.61 221.808 318.373 221.95C318.141 222.088 317.885 222.156 317.606 222.156Z" fill="#3F3F3F"/>
<path d="M151.31 145V123.182H155.263V133.207H155.529L164.041 123.182H168.867L160.43 132.972L168.942 145H164.19L157.681 135.646L155.263 138.501V145H151.31ZM179.398 132.504V135.678H169.575V132.504H179.398ZM183.625 145V123.182H191.806C193.483 123.182 194.889 123.494 196.025 124.119C197.169 124.744 198.032 125.604 198.614 126.697C199.203 127.784 199.498 129.02 199.498 130.405C199.498 131.804 199.203 133.047 198.614 134.134C198.025 135.22 197.154 136.076 196.004 136.701C194.853 137.319 193.436 137.628 191.753 137.628H186.331V134.379H191.221C192.201 134.379 193.003 134.208 193.628 133.867C194.253 133.526 194.715 133.058 195.013 132.461C195.319 131.864 195.471 131.179 195.471 130.405C195.471 129.631 195.319 128.949 195.013 128.359C194.715 127.77 194.25 127.312 193.618 126.985C192.993 126.651 192.186 126.484 191.199 126.484H187.577V145H183.625ZM207.177 145.33C206.14 145.33 205.206 145.146 204.375 144.776C203.551 144.4 202.898 143.846 202.415 143.114C201.939 142.383 201.701 141.481 201.701 140.408C201.701 139.485 201.871 138.722 202.212 138.118C202.553 137.514 203.018 137.031 203.608 136.669C204.197 136.307 204.861 136.033 205.6 135.849C206.346 135.657 207.116 135.518 207.912 135.433C208.871 135.334 209.648 135.245 210.245 135.167C210.841 135.082 211.275 134.954 211.545 134.783C211.822 134.606 211.96 134.332 211.96 133.963V133.899C211.96 133.097 211.722 132.475 211.246 132.035C210.77 131.594 210.085 131.374 209.19 131.374C208.246 131.374 207.496 131.58 206.942 131.992C206.395 132.404 206.026 132.891 205.834 133.452L202.233 132.94C202.518 131.946 202.986 131.115 203.64 130.447C204.293 129.773 205.092 129.268 206.037 128.935C206.981 128.594 208.025 128.423 209.169 128.423C209.957 128.423 210.742 128.516 211.523 128.7C212.305 128.885 213.018 129.19 213.665 129.616C214.311 130.036 214.829 130.607 215.22 131.332C215.618 132.056 215.817 132.962 215.817 134.048V145H212.109V142.752H211.981C211.747 143.207 211.417 143.633 210.991 144.031C210.572 144.421 210.042 144.737 209.403 144.979C208.771 145.213 208.029 145.33 207.177 145.33ZM208.178 142.496C208.952 142.496 209.623 142.344 210.192 142.038C210.76 141.726 211.197 141.314 211.502 140.803C211.814 140.291 211.971 139.734 211.971 139.13V137.202C211.85 137.301 211.644 137.393 211.353 137.479C211.069 137.564 210.749 137.638 210.394 137.702C210.039 137.766 209.687 137.823 209.339 137.873C208.991 137.923 208.689 137.965 208.434 138.001C207.858 138.079 207.344 138.207 206.889 138.384C206.434 138.562 206.076 138.81 205.813 139.13C205.55 139.442 205.419 139.847 205.419 140.344C205.419 141.055 205.678 141.591 206.197 141.953C206.715 142.315 207.376 142.496 208.178 142.496ZM219.694 145V128.636H223.434V131.364H223.604C223.903 130.419 224.414 129.691 225.138 129.18C225.87 128.661 226.704 128.402 227.642 128.402C227.855 128.402 228.093 128.413 228.356 128.434C228.626 128.448 228.849 128.473 229.027 128.509V132.056C228.863 131.999 228.604 131.95 228.249 131.907C227.901 131.857 227.564 131.832 227.237 131.832C226.534 131.832 225.902 131.985 225.341 132.29C224.787 132.589 224.35 133.004 224.03 133.537C223.711 134.07 223.551 134.684 223.551 135.38V145H219.694ZM240.639 128.636V131.619H231.232V128.636H240.639ZM233.555 124.716H237.411V140.078C237.411 140.597 237.489 140.994 237.645 141.271C237.809 141.541 238.022 141.726 238.285 141.825C238.547 141.925 238.839 141.974 239.158 141.974C239.4 141.974 239.62 141.957 239.819 141.921C240.025 141.886 240.181 141.854 240.287 141.825L240.937 144.84C240.731 144.911 240.437 144.989 240.053 145.075C239.677 145.16 239.215 145.21 238.668 145.224C237.702 145.252 236.832 145.107 236.058 144.787C235.284 144.46 234.67 143.956 234.215 143.274C233.768 142.592 233.547 141.74 233.555 140.717V124.716ZM247.721 135.412V145H243.864V128.636H247.55V131.417H247.742C248.119 130.501 248.719 129.773 249.543 129.233C250.374 128.693 251.4 128.423 252.621 128.423C253.751 128.423 254.734 128.665 255.572 129.148C256.418 129.631 257.071 130.33 257.533 131.246C258.001 132.163 258.232 133.274 258.225 134.581V145H254.369V135.178C254.369 134.084 254.085 133.228 253.516 132.61C252.955 131.992 252.178 131.683 251.183 131.683C250.509 131.683 249.908 131.832 249.383 132.131C248.864 132.422 248.456 132.844 248.158 133.398C247.866 133.952 247.721 134.624 247.721 135.412ZM269.39 145.32C267.749 145.32 266.332 144.979 265.139 144.297C263.953 143.608 263.04 142.635 262.401 141.378C261.762 140.114 261.442 138.626 261.442 136.914C261.442 135.231 261.762 133.754 262.401 132.482C263.048 131.204 263.95 130.21 265.107 129.499C266.265 128.782 267.625 128.423 269.188 128.423C270.196 128.423 271.148 128.587 272.043 128.913C272.945 129.233 273.74 129.73 274.429 130.405C275.125 131.08 275.672 131.939 276.07 132.983C276.467 134.02 276.666 135.256 276.666 136.69V137.873H263.254V135.273H272.969C272.962 134.535 272.803 133.878 272.49 133.303C272.178 132.72 271.741 132.262 271.18 131.928C270.626 131.594 269.979 131.428 269.241 131.428C268.452 131.428 267.76 131.619 267.163 132.003C266.567 132.379 266.102 132.876 265.768 133.494C265.441 134.105 265.274 134.776 265.267 135.508V137.777C265.267 138.729 265.441 139.545 265.789 140.227C266.137 140.902 266.624 141.42 267.249 141.783C267.874 142.138 268.605 142.315 269.443 142.315C270.004 142.315 270.512 142.237 270.967 142.081C271.421 141.918 271.815 141.68 272.149 141.367C272.483 141.055 272.735 140.668 272.906 140.206L276.506 140.611C276.279 141.562 275.846 142.393 275.207 143.104C274.575 143.807 273.765 144.354 272.778 144.744C271.79 145.128 270.661 145.32 269.39 145.32ZM279.929 145V128.636H283.668V131.364H283.839C284.137 130.419 284.648 129.691 285.373 129.18C286.104 128.661 286.939 128.402 287.876 128.402C288.089 128.402 288.327 128.413 288.59 128.434C288.86 128.448 289.084 128.473 289.261 128.509V132.056C289.098 131.999 288.839 131.95 288.483 131.907C288.135 131.857 287.798 131.832 287.471 131.832C286.768 131.832 286.136 131.985 285.575 132.29C285.021 132.589 284.584 133.004 284.265 133.537C283.945 134.07 283.785 134.684 283.785 135.38V145H279.929Z" fill="#2C2C2C"/>
</g>
<defs>
<clipPath id="clip0_535_3070">
<rect width="462" height="310" rx="155" fill="white"/>
</clipPath>
</defs>
</svg>
