<svg width="462" height="310" viewBox="0 0 462 310" fill="none"
    xmlns="http://www.w3.org/2000/svg">
    <path opacity="0.5" d="M70 270L210 36.9996L350 270L70 270Z" fill="#A89B7B"/>
    <path opacity="0.4" d="M108.215 252.734L248.215 19.734L388.215 252.734L108.215 252.734Z" fill="#A89B7B"/>
    <path d="M91.4998 181.455L95.2853 192.903H95.4345L99.2129 181.455H102.111L96.9828 196H93.7299L88.6092 181.455H91.4998ZM107.499 196.213C106.434 196.213 105.511 195.979 104.73 195.51C103.948 195.041 103.342 194.385 102.911 193.543C102.485 192.7 102.272 191.715 102.272 190.588C102.272 189.461 102.485 188.474 102.911 187.626C103.342 186.779 103.948 186.121 104.73 185.652C105.511 185.183 106.434 184.949 107.499 184.949C108.565 184.949 109.488 185.183 110.269 185.652C111.051 186.121 111.654 186.779 112.08 187.626C112.511 188.474 112.727 189.461 112.727 190.588C112.727 191.715 112.511 192.7 112.08 193.543C111.654 194.385 111.051 195.041 110.269 195.51C109.488 195.979 108.565 196.213 107.499 196.213ZM107.514 194.153C108.091 194.153 108.574 193.995 108.963 193.678C109.351 193.356 109.64 192.925 109.829 192.385C110.023 191.845 110.12 191.244 110.12 190.581C110.12 189.913 110.023 189.31 109.829 188.77C109.64 188.225 109.351 187.792 108.963 187.47C108.574 187.148 108.091 186.987 107.514 186.987C106.922 186.987 106.429 187.148 106.036 187.47C105.648 187.792 105.357 188.225 105.163 188.77C104.973 189.31 104.879 189.913 104.879 190.581C104.879 191.244 104.973 191.845 105.163 192.385C105.357 192.925 105.648 193.356 106.036 193.678C106.429 193.995 106.922 194.153 107.514 194.153ZM121.862 191.412V185.091H124.433V196H121.94V194.061H121.827C121.58 194.672 121.175 195.171 120.612 195.56C120.053 195.948 119.364 196.142 118.545 196.142C117.83 196.142 117.198 195.983 116.649 195.666C116.104 195.344 115.678 194.878 115.371 194.267C115.063 193.652 114.909 192.908 114.909 192.037V185.091H117.48V191.639C117.48 192.33 117.669 192.88 118.048 193.287C118.427 193.694 118.924 193.898 119.54 193.898C119.918 193.898 120.285 193.805 120.64 193.621C120.996 193.436 121.287 193.161 121.514 192.797C121.746 192.428 121.862 191.966 121.862 191.412ZM135.699 187.974L133.355 188.23C133.289 187.993 133.173 187.771 133.007 187.562C132.846 187.354 132.628 187.186 132.354 187.058C132.079 186.93 131.743 186.866 131.345 186.866C130.81 186.866 130.36 186.982 129.996 187.214C129.636 187.446 129.459 187.747 129.463 188.116C129.459 188.434 129.575 188.692 129.811 188.891C130.053 189.089 130.45 189.253 131.004 189.381L132.865 189.778C133.897 190.001 134.664 190.354 135.166 190.837C135.673 191.32 135.929 191.952 135.933 192.733C135.929 193.42 135.727 194.026 135.33 194.551C134.937 195.072 134.39 195.479 133.689 195.773C132.988 196.066 132.183 196.213 131.274 196.213C129.939 196.213 128.864 195.934 128.05 195.375C127.235 194.812 126.75 194.028 126.594 193.024L129.101 192.783C129.215 193.275 129.456 193.647 129.825 193.898C130.195 194.149 130.675 194.274 131.267 194.274C131.878 194.274 132.368 194.149 132.737 193.898C133.111 193.647 133.298 193.337 133.298 192.967C133.298 192.655 133.178 192.397 132.936 192.193C132.7 191.99 132.33 191.833 131.828 191.724L129.968 191.334C128.921 191.116 128.147 190.749 127.645 190.233C127.143 189.712 126.895 189.054 126.899 188.259C126.895 187.586 127.077 187.004 127.446 186.511C127.82 186.014 128.339 185.631 129.002 185.361C129.669 185.086 130.439 184.949 131.31 184.949C132.588 184.949 133.594 185.221 134.328 185.766C135.067 186.31 135.524 187.046 135.699 187.974ZM147.844 196.213C146.75 196.213 145.806 195.986 145.01 195.531C144.219 195.072 143.611 194.423 143.185 193.585C142.759 192.742 142.546 191.75 142.546 190.609C142.546 189.487 142.759 188.502 143.185 187.655C143.616 186.803 144.217 186.14 144.989 185.666C145.761 185.188 146.667 184.949 147.709 184.949C148.381 184.949 149.016 185.058 149.612 185.276C150.214 185.489 150.744 185.82 151.203 186.27C151.667 186.72 152.032 187.293 152.297 187.989C152.562 188.68 152.695 189.504 152.695 190.46V191.249H143.753V189.516H150.23C150.226 189.023 150.119 188.585 149.911 188.202C149.702 187.813 149.411 187.508 149.037 187.286C148.668 187.063 148.237 186.952 147.744 186.952C147.219 186.952 146.757 187.08 146.36 187.335C145.962 187.586 145.652 187.918 145.429 188.33C145.211 188.737 145.1 189.184 145.095 189.672V191.185C145.095 191.819 145.211 192.364 145.443 192.818C145.675 193.268 146 193.614 146.416 193.855C146.833 194.092 147.321 194.21 147.879 194.21C148.253 194.21 148.592 194.158 148.895 194.054C149.198 193.945 149.461 193.786 149.683 193.578C149.906 193.37 150.074 193.112 150.188 192.804L152.588 193.074C152.437 193.708 152.148 194.262 151.722 194.736C151.3 195.205 150.761 195.569 150.102 195.83C149.444 196.085 148.691 196.213 147.844 196.213ZM146.651 183.656L148.242 180.411H150.756L148.575 183.656H146.651ZM160.317 185.091V187.08H154.046V185.091H160.317ZM155.594 182.477H158.165V192.719C158.165 193.064 158.217 193.33 158.322 193.514C158.43 193.694 158.573 193.817 158.748 193.884C158.923 193.95 159.117 193.983 159.33 193.983C159.491 193.983 159.638 193.971 159.77 193.947C159.908 193.924 160.012 193.902 160.083 193.884L160.516 195.893C160.379 195.941 160.182 195.993 159.927 196.05C159.676 196.107 159.368 196.14 159.003 196.149C158.359 196.168 157.779 196.071 157.263 195.858C156.747 195.64 156.338 195.304 156.035 194.849C155.736 194.395 155.59 193.827 155.594 193.145V182.477ZM167.18 196.213C166.086 196.213 165.142 195.986 164.346 195.531C163.555 195.072 162.947 194.423 162.521 193.585C162.095 192.742 161.882 191.75 161.882 190.609C161.882 189.487 162.095 188.502 162.521 187.655C162.952 186.803 163.553 186.14 164.325 185.666C165.097 185.188 166.003 184.949 167.045 184.949C167.717 184.949 168.352 185.058 168.948 185.276C169.55 185.489 170.08 185.82 170.539 186.27C171.003 186.72 171.368 187.293 171.633 187.989C171.898 188.68 172.031 189.504 172.031 190.46V191.249H163.089V189.516H169.566C169.561 189.023 169.455 188.585 169.247 188.202C169.038 187.813 168.747 187.508 168.373 187.286C168.004 187.063 167.573 186.952 167.08 186.952C166.555 186.952 166.093 187.08 165.695 187.335C165.298 187.586 164.988 187.918 164.765 188.33C164.547 188.737 164.436 189.184 164.431 189.672V191.185C164.431 191.819 164.547 192.364 164.779 192.818C165.011 193.268 165.336 193.614 165.752 193.855C166.169 194.092 166.657 194.21 167.215 194.21C167.589 194.21 167.928 194.158 168.231 194.054C168.534 193.945 168.797 193.786 169.019 193.578C169.242 193.37 169.41 193.112 169.524 192.804L171.924 193.074C171.773 193.708 171.484 194.262 171.058 194.736C170.636 195.205 170.097 195.569 169.438 195.83C168.78 196.085 168.027 196.213 167.18 196.213ZM182.828 187.974L180.484 188.23C180.418 187.993 180.302 187.771 180.136 187.562C179.975 187.354 179.757 187.186 179.483 187.058C179.208 186.93 178.872 186.866 178.474 186.866C177.939 186.866 177.489 186.982 177.125 187.214C176.765 187.446 176.587 187.747 176.592 188.116C176.587 188.434 176.703 188.692 176.94 188.891C177.182 189.089 177.579 189.253 178.133 189.381L179.994 189.778C181.026 190.001 181.793 190.354 182.295 190.837C182.802 191.32 183.058 191.952 183.062 192.733C183.058 193.42 182.856 194.026 182.459 194.551C182.066 195.072 181.519 195.479 180.818 195.773C180.117 196.066 179.312 196.213 178.403 196.213C177.068 196.213 175.993 195.934 175.179 195.375C174.364 194.812 173.879 194.028 173.723 193.024L176.23 192.783C176.344 193.275 176.585 193.647 176.954 193.898C177.324 194.149 177.804 194.274 178.396 194.274C179.007 194.274 179.497 194.149 179.866 193.898C180.24 193.647 180.427 193.337 180.427 192.967C180.427 192.655 180.307 192.397 180.065 192.193C179.828 191.99 179.459 191.833 178.957 191.724L177.096 191.334C176.05 191.116 175.276 190.749 174.774 190.233C174.272 189.712 174.023 189.054 174.028 188.259C174.023 187.586 174.206 187.004 174.575 186.511C174.949 186.014 175.468 185.631 176.131 185.361C176.798 185.086 177.568 184.949 178.439 184.949C179.717 184.949 180.723 185.221 181.457 185.766C182.196 186.31 182.653 187.046 182.828 187.974ZM190.143 196V185.091H192.714V196H190.143ZM191.436 183.543C191.029 183.543 190.678 183.408 190.385 183.138C190.091 182.863 189.944 182.534 189.944 182.151C189.944 181.762 190.091 181.433 190.385 181.163C190.678 180.889 191.029 180.751 191.436 180.751C191.848 180.751 192.198 180.889 192.487 181.163C192.781 181.433 192.927 181.762 192.927 182.151C192.927 182.534 192.781 182.863 192.487 183.138C192.198 183.408 191.848 183.543 191.436 183.543ZM197.929 189.608V196H195.358V185.091H197.816V186.945H197.943C198.194 186.334 198.594 185.848 199.144 185.489C199.698 185.129 200.382 184.949 201.196 184.949C201.949 184.949 202.605 185.11 203.164 185.432C203.727 185.754 204.163 186.22 204.47 186.831C204.783 187.442 204.937 188.183 204.932 189.054V196H202.361V189.452C202.361 188.723 202.172 188.152 201.793 187.74C201.419 187.328 200.9 187.122 200.237 187.122C199.788 187.122 199.387 187.222 199.037 187.42C198.691 187.615 198.419 187.896 198.22 188.266C198.026 188.635 197.929 189.082 197.929 189.608ZM212.993 185.091V187.08H206.722V185.091H212.993ZM208.27 182.477H210.841V192.719C210.841 193.064 210.893 193.33 210.997 193.514C211.106 193.694 211.248 193.817 211.423 193.884C211.599 193.95 211.793 193.983 212.006 193.983C212.167 193.983 212.314 193.971 212.446 193.947C212.584 193.924 212.688 193.902 212.759 193.884L213.192 195.893C213.055 195.941 212.858 195.993 212.602 196.05C212.352 196.107 212.044 196.14 211.679 196.149C211.035 196.168 210.455 196.071 209.939 195.858C209.423 195.64 209.013 195.304 208.71 194.849C208.412 194.395 208.265 193.827 208.27 193.145V182.477ZM219.856 196.213C218.762 196.213 217.817 195.986 217.022 195.531C216.231 195.072 215.623 194.423 215.197 193.585C214.77 192.742 214.557 191.75 214.557 190.609C214.557 189.487 214.77 188.502 215.197 187.655C215.627 186.803 216.229 186.14 217.001 185.666C217.772 185.188 218.679 184.949 219.721 184.949C220.393 184.949 221.028 185.058 221.624 185.276C222.225 185.489 222.756 185.82 223.215 186.27C223.679 186.72 224.044 187.293 224.309 187.989C224.574 188.68 224.706 189.504 224.706 190.46V191.249H215.765V189.516H222.242C222.237 189.023 222.131 188.585 221.922 188.202C221.714 187.813 221.423 187.508 221.049 187.286C220.68 187.063 220.249 186.952 219.756 186.952C219.231 186.952 218.769 187.08 218.371 187.335C217.974 187.586 217.663 187.918 217.441 188.33C217.223 188.737 217.112 189.184 217.107 189.672V191.185C217.107 191.819 217.223 192.364 217.455 192.818C217.687 193.268 218.011 193.614 218.428 193.855C218.845 194.092 219.332 194.21 219.891 194.21C220.265 194.21 220.604 194.158 220.907 194.054C221.21 193.945 221.473 193.786 221.695 193.578C221.918 193.37 222.086 193.112 222.199 192.804L224.6 193.074C224.448 193.708 224.16 194.262 223.733 194.736C223.312 195.205 222.772 195.569 222.114 195.83C221.456 196.085 220.703 196.213 219.856 196.213ZM226.882 196V185.091H229.374V186.909H229.488C229.687 186.279 230.028 185.794 230.511 185.453C230.999 185.107 231.555 184.935 232.18 184.935C232.322 184.935 232.481 184.942 232.656 184.956C232.836 184.965 232.985 184.982 233.103 185.006V187.371C232.994 187.333 232.821 187.3 232.585 187.271C232.353 187.238 232.128 187.222 231.91 187.222C231.441 187.222 231.02 187.323 230.646 187.527C230.276 187.726 229.985 188.003 229.772 188.358C229.559 188.713 229.453 189.123 229.453 189.587V196H226.882ZM234.811 196V185.091H237.269V186.945H237.396C237.624 186.32 238 185.832 238.526 185.482C239.051 185.126 239.679 184.949 240.408 184.949C241.146 184.949 241.769 185.129 242.276 185.489C242.787 185.844 243.147 186.329 243.355 186.945H243.469C243.71 186.339 244.118 185.856 244.691 185.496C245.268 185.131 245.952 184.949 246.743 184.949C247.747 184.949 248.566 185.266 249.2 185.901C249.835 186.535 250.152 187.461 250.152 188.678V196H247.574V189.075C247.574 188.398 247.394 187.903 247.034 187.591C246.674 187.274 246.234 187.115 245.713 187.115C245.093 187.115 244.608 187.309 244.257 187.697C243.912 188.081 243.739 188.58 243.739 189.196V196H241.218V188.969C241.218 188.405 241.047 187.955 240.706 187.619C240.37 187.283 239.93 187.115 239.385 187.115C239.016 187.115 238.68 187.21 238.377 187.399C238.074 187.584 237.832 187.847 237.652 188.188C237.472 188.524 237.382 188.917 237.382 189.366V196H234.811ZM257.59 196.213C256.496 196.213 255.552 195.986 254.756 195.531C253.965 195.072 253.357 194.423 252.931 193.585C252.505 192.742 252.292 191.75 252.292 190.609C252.292 189.487 252.505 188.502 252.931 187.655C253.362 186.803 253.963 186.14 254.735 185.666C255.507 185.188 256.413 184.949 257.455 184.949C258.127 184.949 258.762 185.058 259.358 185.276C259.96 185.489 260.49 185.82 260.949 186.27C261.413 186.72 261.778 187.293 262.043 187.989C262.308 188.68 262.441 189.504 262.441 190.46V191.249H253.499V189.516H259.976C259.972 189.023 259.865 188.585 259.657 188.202C259.448 187.813 259.157 187.508 258.783 187.286C258.414 187.063 257.983 186.952 257.491 186.952C256.965 186.952 256.503 187.08 256.106 187.335C255.708 187.586 255.398 187.918 255.175 188.33C254.957 188.737 254.846 189.184 254.841 189.672V191.185C254.841 191.819 254.957 192.364 255.189 192.818C255.421 193.268 255.746 193.614 256.162 193.855C256.579 194.092 257.067 194.21 257.626 194.21C258 194.21 258.338 194.158 258.641 194.054C258.944 193.945 259.207 193.786 259.43 193.578C259.652 193.37 259.82 193.112 259.934 192.804L262.334 193.074C262.183 193.708 261.894 194.262 261.468 194.736C261.046 195.205 260.507 195.569 259.849 195.83C259.19 196.085 258.438 196.213 257.59 196.213ZM256.397 183.656L257.988 180.411H260.502L258.322 183.656H256.397ZM268.664 196.192C267.807 196.192 267.04 195.972 266.363 195.531C265.686 195.091 265.151 194.452 264.758 193.614C264.365 192.776 264.169 191.758 264.169 190.56C264.169 189.348 264.367 188.325 264.765 187.491C265.168 186.653 265.71 186.021 266.392 185.595C267.073 185.164 267.833 184.949 268.671 184.949C269.311 184.949 269.836 185.058 270.248 185.276C270.66 185.489 270.987 185.747 271.228 186.05C271.47 186.348 271.657 186.63 271.789 186.895H271.896V181.455H274.474V196H271.945V194.281H271.789C271.657 194.546 271.465 194.828 271.214 195.126C270.963 195.42 270.632 195.671 270.22 195.879C269.808 196.088 269.289 196.192 268.664 196.192ZM269.382 194.082C269.926 194.082 270.39 193.936 270.774 193.642C271.157 193.344 271.448 192.929 271.647 192.399C271.846 191.869 271.945 191.251 271.945 190.545C271.945 189.84 271.846 189.227 271.647 188.706C271.453 188.185 271.164 187.78 270.781 187.491C270.402 187.203 269.936 187.058 269.382 187.058C268.809 187.058 268.33 187.207 267.947 187.506C267.563 187.804 267.275 188.216 267.08 188.741C266.886 189.267 266.789 189.868 266.789 190.545C266.789 191.227 266.886 191.836 267.08 192.371C267.279 192.901 267.57 193.32 267.954 193.628C268.342 193.931 268.818 194.082 269.382 194.082ZM277.214 196V185.091H279.785V196H277.214ZM278.506 183.543C278.099 183.543 277.749 183.408 277.455 183.138C277.162 182.863 277.015 182.534 277.015 182.151C277.015 181.762 277.162 181.433 277.455 181.163C277.749 180.889 278.099 180.751 278.506 180.751C278.918 180.751 279.269 180.889 279.557 181.163C279.851 181.433 279.998 181.762 279.998 182.151C279.998 182.534 279.851 182.863 279.557 183.138C279.269 183.408 278.918 183.543 278.506 183.543ZM285.568 196.22C284.876 196.22 284.254 196.097 283.7 195.851C283.151 195.6 282.715 195.231 282.393 194.743C282.076 194.255 281.917 193.654 281.917 192.939C281.917 192.323 282.031 191.814 282.258 191.412C282.485 191.009 282.795 190.688 283.188 190.446C283.581 190.205 284.024 190.022 284.517 189.899C285.014 189.771 285.527 189.679 286.058 189.622C286.697 189.556 287.215 189.497 287.613 189.445C288.011 189.388 288.3 189.303 288.48 189.189C288.664 189.071 288.757 188.888 288.757 188.642V188.599C288.757 188.064 288.598 187.65 288.281 187.357C287.963 187.063 287.507 186.916 286.91 186.916C286.28 186.916 285.781 187.054 285.411 187.328C285.047 187.603 284.801 187.927 284.673 188.301L282.272 187.96C282.462 187.297 282.774 186.743 283.21 186.298C283.645 185.848 284.178 185.512 284.808 185.29C285.437 185.062 286.133 184.949 286.896 184.949C287.421 184.949 287.945 185.01 288.465 185.134C288.986 185.257 289.462 185.46 289.893 185.744C290.324 186.024 290.669 186.405 290.93 186.888C291.195 187.371 291.328 187.974 291.328 188.699V196H288.856V194.501H288.771C288.615 194.804 288.394 195.089 288.11 195.354C287.831 195.614 287.478 195.825 287.052 195.986C286.631 196.142 286.136 196.22 285.568 196.22ZM286.235 194.331C286.751 194.331 287.199 194.229 287.578 194.026C287.956 193.817 288.248 193.543 288.451 193.202C288.66 192.861 288.764 192.489 288.764 192.087V190.801C288.683 190.867 288.546 190.929 288.352 190.986C288.162 191.043 287.949 191.092 287.713 191.135C287.476 191.178 287.241 191.215 287.009 191.249C286.777 191.282 286.576 191.31 286.406 191.334C286.022 191.386 285.679 191.471 285.376 191.589C285.073 191.708 284.834 191.874 284.659 192.087C284.483 192.295 284.396 192.565 284.396 192.896C284.396 193.37 284.569 193.727 284.914 193.969C285.26 194.21 285.7 194.331 286.235 194.331ZM293.913 196V185.091H296.484V196H293.913ZM295.205 183.543C294.798 183.543 294.448 183.408 294.154 183.138C293.861 182.863 293.714 182.534 293.714 182.151C293.714 181.762 293.861 181.433 294.154 181.163C294.448 180.889 294.798 180.751 295.205 180.751C295.617 180.751 295.968 180.889 296.257 181.163C296.55 181.433 296.697 181.762 296.697 182.151C296.697 182.534 296.55 182.863 296.257 183.138C295.968 183.408 295.617 183.543 295.205 183.543ZM299.128 196V185.091H301.621V186.909H301.734C301.933 186.279 302.274 185.794 302.757 185.453C303.245 185.107 303.801 184.935 304.426 184.935C304.568 184.935 304.727 184.942 304.902 184.956C305.082 184.965 305.231 184.982 305.349 185.006V187.371C305.24 187.333 305.068 187.3 304.831 187.271C304.599 187.238 304.374 187.222 304.156 187.222C303.687 187.222 303.266 187.323 302.892 187.527C302.523 187.726 302.231 188.003 302.018 188.358C301.805 188.713 301.699 189.123 301.699 189.587V196H299.128ZM311.438 196.213C310.344 196.213 309.399 195.986 308.604 195.531C307.813 195.072 307.205 194.423 306.779 193.585C306.352 192.742 306.139 191.75 306.139 190.609C306.139 189.487 306.352 188.502 306.779 187.655C307.209 186.803 307.811 186.14 308.583 185.666C309.354 185.188 310.261 184.949 311.303 184.949C311.975 184.949 312.61 185.058 313.206 185.276C313.807 185.489 314.338 185.82 314.797 186.27C315.261 186.72 315.626 187.293 315.891 187.989C316.156 188.68 316.289 189.504 316.289 190.46V191.249H307.347V189.516H313.824C313.819 189.023 313.713 188.585 313.504 188.202C313.296 187.813 313.005 187.508 312.631 187.286C312.262 187.063 311.831 186.952 311.338 186.952C310.813 186.952 310.351 187.08 309.953 187.335C309.556 187.586 309.245 187.918 309.023 188.33C308.805 188.737 308.694 189.184 308.689 189.672V191.185C308.689 191.819 308.805 192.364 309.037 192.818C309.269 193.268 309.593 193.614 310.01 193.855C310.427 194.092 310.914 194.21 311.473 194.21C311.847 194.21 312.186 194.158 312.489 194.054C312.792 193.945 313.055 193.786 313.277 193.578C313.5 193.37 313.668 193.112 313.781 192.804L316.182 193.074C316.03 193.708 315.742 194.262 315.316 194.736C314.894 195.205 314.354 195.569 313.696 195.83C313.038 196.085 312.285 196.213 311.438 196.213ZM327.086 187.974L324.742 188.23C324.676 187.993 324.56 187.771 324.394 187.562C324.233 187.354 324.015 187.186 323.741 187.058C323.466 186.93 323.13 186.866 322.732 186.866C322.197 186.866 321.747 186.982 321.383 187.214C321.023 187.446 320.845 187.747 320.85 188.116C320.845 188.434 320.961 188.692 321.198 188.891C321.439 189.089 321.837 189.253 322.391 189.381L324.252 189.778C325.284 190.001 326.051 190.354 326.553 190.837C327.06 191.32 327.315 191.952 327.32 192.733C327.315 193.42 327.114 194.026 326.716 194.551C326.323 195.072 325.777 195.479 325.076 195.773C324.375 196.066 323.57 196.213 322.661 196.213C321.326 196.213 320.251 195.934 319.437 195.375C318.622 194.812 318.137 194.028 317.981 193.024L320.488 192.783C320.601 193.275 320.843 193.647 321.212 193.898C321.581 194.149 322.062 194.274 322.654 194.274C323.265 194.274 323.755 194.149 324.124 193.898C324.498 193.647 324.685 193.337 324.685 192.967C324.685 192.655 324.564 192.397 324.323 192.193C324.086 191.99 323.717 191.833 323.215 191.724L321.354 191.334C320.308 191.116 319.534 190.749 319.032 190.233C318.53 189.712 318.281 189.054 318.286 188.259C318.281 187.586 318.464 187.004 318.833 186.511C319.207 186.014 319.725 185.631 320.388 185.361C321.056 185.086 321.825 184.949 322.697 184.949C323.975 184.949 324.981 185.221 325.715 185.766C326.454 186.31 326.911 187.046 327.086 187.974ZM335.985 194.253C335.554 194.253 335.185 194.101 334.877 193.798C334.569 193.491 334.418 193.121 334.422 192.69C334.418 192.264 334.569 191.9 334.877 191.597C335.185 191.294 335.554 191.142 335.985 191.142C336.402 191.142 336.764 191.294 337.072 191.597C337.384 191.9 337.543 192.264 337.547 192.69C337.543 192.979 337.467 193.242 337.32 193.479C337.178 193.715 336.989 193.905 336.752 194.047C336.52 194.184 336.264 194.253 335.985 194.253ZM335.985 187.044C335.554 187.044 335.185 186.893 334.877 186.589C334.569 186.282 334.418 185.912 334.422 185.482C334.418 185.055 334.569 184.691 334.877 184.388C335.185 184.08 335.554 183.926 335.985 183.926C336.402 183.926 336.764 184.08 337.072 184.388C337.384 184.691 337.543 185.055 337.547 185.482C337.543 185.766 337.467 186.026 337.32 186.263C337.178 186.5 336.989 186.689 336.752 186.831C336.52 186.973 336.264 187.044 335.985 187.044ZM120.285 210.362H117.629C117.553 209.927 117.414 209.541 117.21 209.205C117.006 208.864 116.753 208.575 116.45 208.338C116.147 208.101 115.801 207.924 115.413 207.805C115.03 207.682 114.615 207.621 114.17 207.621C113.38 207.621 112.679 207.82 112.068 208.217C111.457 208.61 110.979 209.188 110.633 209.95C110.288 210.708 110.115 211.634 110.115 212.727C110.115 213.84 110.288 214.777 110.633 215.54C110.984 216.297 111.462 216.87 112.068 217.259C112.679 217.642 113.377 217.834 114.163 217.834C114.599 217.834 115.006 217.777 115.385 217.663C115.768 217.545 116.112 217.372 116.415 217.145C116.722 216.918 116.98 216.638 117.189 216.307C117.402 215.975 117.549 215.597 117.629 215.17L120.285 215.185C120.186 215.876 119.97 216.525 119.639 217.131C119.312 217.737 118.884 218.272 118.354 218.736C117.823 219.195 117.203 219.555 116.493 219.815C115.782 220.071 114.994 220.199 114.128 220.199C112.849 220.199 111.708 219.903 110.704 219.311C109.701 218.719 108.91 217.865 108.332 216.747C107.755 215.63 107.466 214.29 107.466 212.727C107.466 211.16 107.757 209.82 108.339 208.707C108.922 207.59 109.715 206.735 110.719 206.143C111.722 205.552 112.859 205.256 114.128 205.256C114.937 205.256 115.69 205.369 116.386 205.597C117.082 205.824 117.702 206.158 118.247 206.598C118.791 207.034 119.239 207.569 119.589 208.203C119.944 208.833 120.176 209.553 120.285 210.362ZM125.724 220.22C125.033 220.22 124.41 220.097 123.856 219.851C123.307 219.6 122.871 219.231 122.549 218.743C122.232 218.255 122.073 217.654 122.073 216.939C122.073 216.323 122.187 215.814 122.414 215.412C122.642 215.009 122.952 214.688 123.345 214.446C123.738 214.205 124.18 214.022 124.673 213.899C125.17 213.771 125.684 213.679 126.214 213.622C126.853 213.556 127.372 213.497 127.769 213.445C128.167 213.388 128.456 213.303 128.636 213.189C128.82 213.071 128.913 212.888 128.913 212.642V212.599C128.913 212.064 128.754 211.65 128.437 211.357C128.12 211.063 127.663 210.916 127.066 210.916C126.436 210.916 125.937 211.054 125.568 211.328C125.203 211.603 124.957 211.927 124.829 212.301L122.428 211.96C122.618 211.297 122.93 210.743 123.366 210.298C123.802 209.848 124.334 209.512 124.964 209.29C125.594 209.062 126.29 208.949 127.052 208.949C127.578 208.949 128.101 209.01 128.622 209.134C129.142 209.257 129.618 209.46 130.049 209.744C130.48 210.024 130.826 210.405 131.086 210.888C131.351 211.371 131.484 211.974 131.484 212.699V220H129.012V218.501H128.927C128.771 218.804 128.551 219.089 128.267 219.354C127.987 219.614 127.634 219.825 127.208 219.986C126.787 220.142 126.292 220.22 125.724 220.22ZM126.392 218.331C126.908 218.331 127.355 218.229 127.734 218.026C128.113 217.817 128.404 217.543 128.607 217.202C128.816 216.861 128.92 216.489 128.92 216.087V214.801C128.839 214.867 128.702 214.929 128.508 214.986C128.319 215.043 128.106 215.092 127.869 215.135C127.632 215.178 127.398 215.215 127.166 215.249C126.934 215.282 126.732 215.31 126.562 215.334C126.178 215.386 125.835 215.471 125.532 215.589C125.229 215.708 124.99 215.874 124.815 216.087C124.64 216.295 124.552 216.565 124.552 216.896C124.552 217.37 124.725 217.727 125.07 217.969C125.416 218.21 125.856 218.331 126.392 218.331ZM134.183 220V205.455H136.754V210.895H136.86C136.993 210.63 137.18 210.348 137.421 210.05C137.663 209.747 137.99 209.489 138.401 209.276C138.813 209.058 139.339 208.949 139.978 208.949C140.821 208.949 141.581 209.164 142.258 209.595C142.94 210.021 143.48 210.653 143.877 211.491C144.28 212.325 144.481 213.348 144.481 214.56C144.481 215.758 144.285 216.776 143.892 217.614C143.499 218.452 142.963 219.091 142.286 219.531C141.609 219.972 140.842 220.192 139.985 220.192C139.36 220.192 138.842 220.088 138.43 219.879C138.018 219.671 137.686 219.42 137.436 219.126C137.189 218.828 136.998 218.546 136.86 218.281H136.711V220H134.183ZM136.704 214.545C136.704 215.251 136.803 215.869 137.002 216.399C137.206 216.929 137.497 217.344 137.876 217.642C138.259 217.936 138.723 218.082 139.268 218.082C139.836 218.082 140.312 217.931 140.695 217.628C141.079 217.32 141.368 216.901 141.562 216.371C141.761 215.836 141.86 215.227 141.86 214.545C141.86 213.868 141.763 213.267 141.569 212.741C141.375 212.216 141.086 211.804 140.703 211.506C140.319 211.207 139.841 211.058 139.268 211.058C138.719 211.058 138.252 211.203 137.869 211.491C137.485 211.78 137.194 212.185 136.995 212.706C136.801 213.227 136.704 213.84 136.704 214.545ZM146.667 220V209.091H149.238V220H146.667ZM147.959 207.543C147.552 207.543 147.202 207.408 146.908 207.138C146.615 206.863 146.468 206.534 146.468 206.151C146.468 205.762 146.615 205.433 146.908 205.163C147.202 204.889 147.552 204.751 147.959 204.751C148.371 204.751 148.722 204.889 149.01 205.163C149.304 205.433 149.451 205.762 149.451 206.151C149.451 206.534 149.304 206.863 149.01 207.138C148.722 207.408 148.371 207.543 147.959 207.543ZM154.453 213.608V220H151.882V209.091H154.339V210.945H154.467C154.718 210.334 155.118 209.848 155.667 209.489C156.221 209.129 156.905 208.949 157.72 208.949C158.472 208.949 159.128 209.11 159.687 209.432C160.25 209.754 160.686 210.22 160.994 210.831C161.306 211.442 161.46 212.183 161.455 213.054V220H158.884V213.452C158.884 212.723 158.695 212.152 158.316 211.74C157.942 211.328 157.424 211.122 156.761 211.122C156.311 211.122 155.911 211.222 155.561 211.42C155.215 211.615 154.943 211.896 154.744 212.266C154.55 212.635 154.453 213.082 154.453 213.608ZM168.899 220.213C167.805 220.213 166.86 219.986 166.065 219.531C165.274 219.072 164.666 218.423 164.24 217.585C163.813 216.742 163.6 215.75 163.6 214.609C163.6 213.487 163.813 212.502 164.24 211.655C164.67 210.803 165.272 210.14 166.044 209.666C166.815 209.188 167.722 208.949 168.764 208.949C169.436 208.949 170.07 209.058 170.667 209.276C171.268 209.489 171.799 209.82 172.258 210.27C172.722 210.72 173.087 211.293 173.352 211.989C173.617 212.68 173.749 213.504 173.749 214.46V215.249H164.808V213.516H171.285C171.28 213.023 171.174 212.585 170.965 212.202C170.757 211.813 170.466 211.508 170.092 211.286C169.722 211.063 169.292 210.952 168.799 210.952C168.274 210.952 167.812 211.08 167.414 211.335C167.017 211.586 166.706 211.918 166.484 212.33C166.266 212.737 166.155 213.184 166.15 213.672V215.185C166.15 215.819 166.266 216.364 166.498 216.818C166.73 217.268 167.054 217.614 167.471 217.855C167.888 218.092 168.375 218.21 168.934 218.21C169.308 218.21 169.647 218.158 169.95 218.054C170.253 217.945 170.516 217.786 170.738 217.578C170.961 217.37 171.129 217.112 171.242 216.804L173.643 217.074C173.491 217.708 173.203 218.262 172.776 218.736C172.355 219.205 171.815 219.569 171.157 219.83C170.499 220.085 169.746 220.213 168.899 220.213ZM181.372 209.091V211.08H175.101V209.091H181.372ZM176.649 206.477H179.22V216.719C179.22 217.064 179.272 217.33 179.376 217.514C179.485 217.694 179.627 217.817 179.802 217.884C179.978 217.95 180.172 217.983 180.385 217.983C180.546 217.983 180.693 217.971 180.825 217.947C180.962 217.924 181.067 217.902 181.138 217.884L181.571 219.893C181.434 219.941 181.237 219.993 180.981 220.05C180.73 220.107 180.423 220.14 180.058 220.149C179.414 220.168 178.834 220.071 178.318 219.858C177.802 219.64 177.392 219.304 177.089 218.849C176.791 218.395 176.644 217.827 176.649 217.145V206.477ZM192.531 220.192C191.674 220.192 190.907 219.972 190.23 219.531C189.553 219.091 189.018 218.452 188.625 217.614C188.232 216.776 188.036 215.758 188.036 214.56C188.036 213.348 188.235 212.325 188.632 211.491C189.035 210.653 189.577 210.021 190.259 209.595C190.941 209.164 191.7 208.949 192.539 208.949C193.178 208.949 193.703 209.058 194.115 209.276C194.527 209.489 194.854 209.747 195.095 210.05C195.337 210.348 195.524 210.63 195.656 210.895H195.763V205.455H198.341V220H195.813V218.281H195.656C195.524 218.546 195.332 218.828 195.081 219.126C194.83 219.42 194.499 219.671 194.087 219.879C193.675 220.088 193.156 220.192 192.531 220.192ZM193.249 218.082C193.793 218.082 194.257 217.936 194.641 217.642C195.024 217.344 195.316 216.929 195.514 216.399C195.713 215.869 195.813 215.251 195.813 214.545C195.813 213.84 195.713 213.227 195.514 212.706C195.32 212.185 195.031 211.78 194.648 211.491C194.269 211.203 193.803 211.058 193.249 211.058C192.676 211.058 192.198 211.207 191.814 211.506C191.431 211.804 191.142 212.216 190.948 212.741C190.753 213.267 190.656 213.868 190.656 214.545C190.656 215.227 190.753 215.836 190.948 216.371C191.146 216.901 191.438 217.32 191.821 217.628C192.209 217.931 192.685 218.082 193.249 218.082ZM205.91 220.213C204.817 220.213 203.872 219.986 203.077 219.531C202.286 219.072 201.677 218.423 201.251 217.585C200.825 216.742 200.612 215.75 200.612 214.609C200.612 213.487 200.825 212.502 201.251 211.655C201.682 210.803 202.283 210.14 203.055 209.666C203.827 209.188 204.734 208.949 205.775 208.949C206.448 208.949 207.082 209.058 207.679 209.276C208.28 209.489 208.81 209.82 209.27 210.27C209.734 210.72 210.098 211.293 210.363 211.989C210.629 212.68 210.761 213.504 210.761 214.46V215.249H201.819V213.516H208.297C208.292 213.023 208.185 212.585 207.977 212.202C207.769 211.813 207.478 211.508 207.104 211.286C206.734 211.063 206.303 210.952 205.811 210.952C205.285 210.952 204.824 211.08 204.426 211.335C204.028 211.586 203.718 211.918 203.496 212.33C203.278 212.737 203.166 213.184 203.162 213.672V215.185C203.162 215.819 203.278 216.364 203.51 216.818C203.742 217.268 204.066 217.614 204.483 217.855C204.899 218.092 205.387 218.21 205.946 218.21C206.32 218.21 206.658 218.158 206.961 218.054C207.265 217.945 207.527 217.786 207.75 217.578C207.972 217.37 208.14 217.112 208.254 216.804L210.655 217.074C210.503 217.708 210.214 218.262 209.788 218.736C209.367 219.205 208.827 219.569 208.169 219.83C207.511 220.085 206.758 220.213 205.91 220.213ZM222.656 220.213C221.567 220.213 220.632 219.974 219.85 219.496C219.074 219.018 218.475 218.357 218.053 217.514C217.637 216.667 217.428 215.691 217.428 214.588C217.428 213.48 217.642 212.502 218.068 211.655C218.494 210.803 219.095 210.14 219.872 209.666C220.653 209.188 221.576 208.949 222.642 208.949C223.527 208.949 224.311 209.112 224.992 209.439C225.679 209.761 226.226 210.218 226.633 210.81C227.04 211.397 227.272 212.083 227.329 212.869H224.872C224.772 212.344 224.535 211.906 224.161 211.555C223.792 211.2 223.297 211.023 222.677 211.023C222.151 211.023 221.69 211.165 221.292 211.449C220.894 211.728 220.584 212.131 220.362 212.656C220.144 213.182 220.035 213.812 220.035 214.545C220.035 215.289 220.144 215.928 220.362 216.463C220.579 216.993 220.885 217.403 221.278 217.692C221.676 217.976 222.142 218.118 222.677 218.118C223.056 218.118 223.394 218.047 223.693 217.905C223.996 217.758 224.249 217.547 224.453 217.273C224.656 216.998 224.796 216.664 224.872 216.271H227.329C227.267 217.043 227.04 217.727 226.647 218.324C226.254 218.916 225.719 219.38 225.042 219.716C224.365 220.047 223.57 220.213 222.656 220.213ZM234.199 220.213C233.133 220.213 232.21 219.979 231.429 219.51C230.648 219.041 230.041 218.385 229.611 217.543C229.184 216.7 228.971 215.715 228.971 214.588C228.971 213.461 229.184 212.474 229.611 211.626C230.041 210.779 230.648 210.121 231.429 209.652C232.21 209.183 233.133 208.949 234.199 208.949C235.264 208.949 236.187 209.183 236.969 209.652C237.75 210.121 238.354 210.779 238.78 211.626C239.211 212.474 239.426 213.461 239.426 214.588C239.426 215.715 239.211 216.7 238.78 217.543C238.354 218.385 237.75 219.041 236.969 219.51C236.187 219.979 235.264 220.213 234.199 220.213ZM234.213 218.153C234.791 218.153 235.273 217.995 235.662 217.678C236.05 217.356 236.339 216.925 236.528 216.385C236.722 215.845 236.819 215.244 236.819 214.581C236.819 213.913 236.722 213.31 236.528 212.77C236.339 212.225 236.05 211.792 235.662 211.47C235.273 211.148 234.791 210.987 234.213 210.987C233.621 210.987 233.129 211.148 232.736 211.47C232.347 211.792 232.056 212.225 231.862 212.77C231.673 213.31 231.578 213.913 231.578 214.581C231.578 215.244 231.673 215.845 231.862 216.385C232.056 216.925 232.347 217.356 232.736 217.678C233.129 217.995 233.621 218.153 234.213 218.153ZM244.179 213.608V220H241.608V209.091H244.066V210.945H244.193C244.444 210.334 244.844 209.848 245.394 209.489C245.948 209.129 246.632 208.949 247.446 208.949C248.199 208.949 248.855 209.11 249.414 209.432C249.977 209.754 250.413 210.22 250.72 210.831C251.033 211.442 251.187 212.183 251.182 213.054V220H248.611V213.452C248.611 212.723 248.422 212.152 248.043 211.74C247.669 211.328 247.15 211.122 246.487 211.122C246.038 211.122 245.637 211.222 245.287 211.42C244.941 211.615 244.669 211.896 244.47 212.266C244.276 212.635 244.179 213.082 244.179 213.608ZM262.418 211.974L260.074 212.23C260.008 211.993 259.892 211.771 259.726 211.562C259.565 211.354 259.347 211.186 259.073 211.058C258.798 210.93 258.462 210.866 258.064 210.866C257.529 210.866 257.079 210.982 256.715 211.214C256.355 211.446 256.177 211.747 256.182 212.116C256.177 212.434 256.293 212.692 256.53 212.891C256.771 213.089 257.169 213.253 257.723 213.381L259.584 213.778C260.616 214.001 261.383 214.354 261.885 214.837C262.392 215.32 262.647 215.952 262.652 216.733C262.647 217.42 262.446 218.026 262.048 218.551C261.655 219.072 261.109 219.479 260.408 219.773C259.707 220.066 258.902 220.213 257.993 220.213C256.658 220.213 255.583 219.934 254.769 219.375C253.954 218.812 253.469 218.028 253.313 217.024L255.82 216.783C255.933 217.275 256.175 217.647 256.544 217.898C256.914 218.149 257.394 218.274 257.986 218.274C258.597 218.274 259.087 218.149 259.456 217.898C259.83 217.647 260.017 217.337 260.017 216.967C260.017 216.655 259.896 216.397 259.655 216.193C259.418 215.99 259.049 215.833 258.547 215.724L256.686 215.334C255.64 215.116 254.866 214.749 254.364 214.233C253.862 213.712 253.613 213.054 253.618 212.259C253.613 211.586 253.796 211.004 254.165 210.511C254.539 210.014 255.057 209.631 255.72 209.361C256.388 209.086 257.157 208.949 258.029 208.949C259.307 208.949 260.313 209.221 261.047 209.766C261.786 210.31 262.243 211.046 262.418 211.974ZM269.602 220.213C268.508 220.213 267.563 219.986 266.768 219.531C265.977 219.072 265.369 218.423 264.943 217.585C264.517 216.742 264.303 215.75 264.303 214.609C264.303 213.487 264.517 212.502 264.943 211.655C265.374 210.803 265.975 210.14 266.747 209.666C267.518 209.188 268.425 208.949 269.467 208.949C270.139 208.949 270.774 209.058 271.37 209.276C271.972 209.489 272.502 209.82 272.961 210.27C273.425 210.72 273.79 211.293 274.055 211.989C274.32 212.68 274.453 213.504 274.453 214.46V215.249H265.511V213.516H271.988C271.983 213.023 271.877 212.585 271.669 212.202C271.46 211.813 271.169 211.508 270.795 211.286C270.426 211.063 269.995 210.952 269.502 210.952C268.977 210.952 268.515 211.08 268.117 211.335C267.72 211.586 267.41 211.918 267.187 212.33C266.969 212.737 266.858 213.184 266.853 213.672V215.185C266.853 215.819 266.969 216.364 267.201 216.818C267.433 217.268 267.758 217.614 268.174 217.855C268.591 218.092 269.079 218.21 269.637 218.21C270.011 218.21 270.35 218.158 270.653 218.054C270.956 217.945 271.219 217.786 271.441 217.578C271.664 217.37 271.832 217.112 271.945 216.804L274.346 217.074C274.195 217.708 273.906 218.262 273.48 218.736C273.058 219.205 272.518 219.569 271.86 219.83C271.202 220.085 270.449 220.213 269.602 220.213ZM276.628 220V209.091H279.199V220H276.628ZM277.92 207.543C277.513 207.543 277.163 207.408 276.869 207.138C276.576 206.863 276.429 206.534 276.429 206.151C276.429 205.762 276.576 205.433 276.869 205.163C277.163 204.889 277.513 204.751 277.92 204.751C278.332 204.751 278.683 204.889 278.971 205.163C279.265 205.433 279.412 205.762 279.412 206.151C279.412 206.534 279.265 206.863 278.971 207.138C278.683 207.408 278.332 207.543 277.92 207.543ZM284.414 205.455V220H281.843V205.455H284.414ZM290.076 218.011L289.983 218.793C289.917 219.389 289.799 219.995 289.628 220.611C289.463 221.231 289.287 221.802 289.103 222.322C288.918 222.843 288.769 223.253 288.655 223.551H286.922C286.989 223.262 287.079 222.869 287.192 222.372C287.311 221.875 287.424 221.316 287.533 220.696C287.642 220.076 287.715 219.446 287.753 218.807L287.803 218.011H290.076ZM301.516 220.192C300.659 220.192 299.892 219.972 299.215 219.531C298.538 219.091 298.003 218.452 297.61 217.614C297.217 216.776 297.02 215.758 297.02 214.56C297.02 213.348 297.219 212.325 297.617 211.491C298.019 210.653 298.561 210.021 299.243 209.595C299.925 209.164 300.685 208.949 301.523 208.949C302.162 208.949 302.688 209.058 303.1 209.276C303.512 209.489 303.838 209.747 304.08 210.05C304.321 210.348 304.508 210.63 304.641 210.895H304.747V205.455H307.325V220H304.797V218.281H304.641C304.508 218.546 304.316 218.828 304.066 219.126C303.815 219.42 303.483 219.671 303.071 219.879C302.659 220.088 302.141 220.192 301.516 220.192ZM302.233 218.082C302.778 218.082 303.242 217.936 303.625 217.642C304.009 217.344 304.3 216.929 304.499 216.399C304.698 215.869 304.797 215.251 304.797 214.545C304.797 213.84 304.698 213.227 304.499 212.706C304.305 212.185 304.016 211.78 303.632 211.491C303.253 211.203 302.787 211.058 302.233 211.058C301.66 211.058 301.182 211.207 300.798 211.506C300.415 211.804 300.126 212.216 299.932 212.741C299.738 213.267 299.641 213.868 299.641 214.545C299.641 215.227 299.738 215.836 299.932 216.371C300.131 216.901 300.422 217.32 300.806 217.628C301.194 217.931 301.67 218.082 302.233 218.082ZM314.895 220.213C313.801 220.213 312.856 219.986 312.061 219.531C311.27 219.072 310.662 218.423 310.236 217.585C309.809 216.742 309.596 215.75 309.596 214.609C309.596 213.487 309.809 212.502 310.236 211.655C310.666 210.803 311.268 210.14 312.04 209.666C312.811 209.188 313.718 208.949 314.76 208.949C315.432 208.949 316.067 209.058 316.663 209.276C317.265 209.489 317.795 209.82 318.254 210.27C318.718 210.72 319.083 211.293 319.348 211.989C319.613 212.68 319.746 213.504 319.746 214.46V215.249H310.804V213.516H317.281C317.276 213.023 317.17 212.585 316.961 212.202C316.753 211.813 316.462 211.508 316.088 211.286C315.719 211.063 315.288 210.952 314.795 210.952C314.27 210.952 313.808 211.08 313.41 211.335C313.013 211.586 312.702 211.918 312.48 212.33C312.262 212.737 312.151 213.184 312.146 213.672V215.185C312.146 215.819 312.262 216.364 312.494 216.818C312.726 217.268 313.05 217.614 313.467 217.855C313.884 218.092 314.372 218.21 314.93 218.21C315.304 218.21 315.643 218.158 315.946 218.054C316.249 217.945 316.512 217.786 316.734 217.578C316.957 217.37 317.125 217.112 317.238 216.804L319.639 217.074C319.488 217.708 319.199 218.262 318.773 218.736C318.351 219.205 317.811 219.569 317.153 219.83C316.495 220.085 315.742 220.213 314.895 220.213ZM93.9226 244V233.091H96.4155V234.909H96.5291C96.728 234.279 97.0689 233.794 97.5518 233.453C98.0395 233.107 98.5959 232.935 99.2209 232.935C99.3629 232.935 99.5215 232.942 99.6967 232.956C99.8767 232.965 100.026 232.982 100.144 233.006V235.371C100.035 235.333 99.8625 235.3 99.6257 235.271C99.3937 235.238 99.1688 235.222 98.951 235.222C98.4822 235.222 98.0608 235.323 97.6868 235.527C97.3175 235.726 97.0263 236.003 96.8132 236.358C96.6001 236.713 96.4936 237.123 96.4936 237.587V244H93.9226ZM106.233 244.213C105.139 244.213 104.194 243.986 103.399 243.531C102.608 243.072 102 242.423 101.574 241.585C101.147 240.742 100.934 239.75 100.934 238.609C100.934 237.487 101.147 236.502 101.574 235.655C102.004 234.803 102.606 234.14 103.377 233.666C104.149 233.188 105.056 232.949 106.098 232.949C106.77 232.949 107.404 233.058 108.001 233.276C108.602 233.489 109.133 233.82 109.592 234.27C110.056 234.72 110.421 235.293 110.686 235.989C110.951 236.68 111.083 237.504 111.083 238.46V239.249H102.142V237.516H108.619C108.614 237.023 108.508 236.585 108.299 236.202C108.091 235.813 107.8 235.508 107.426 235.286C107.056 235.063 106.626 234.952 106.133 234.952C105.608 234.952 105.146 235.08 104.748 235.335C104.35 235.586 104.04 235.918 103.818 236.33C103.6 236.737 103.489 237.184 103.484 237.672V239.185C103.484 239.819 103.6 240.364 103.832 240.818C104.064 241.268 104.388 241.614 104.805 241.855C105.222 242.092 105.709 242.21 106.268 242.21C106.642 242.21 106.981 242.158 107.284 242.054C107.587 241.945 107.85 241.786 108.072 241.578C108.295 241.37 108.463 241.112 108.576 240.804L110.977 241.074C110.825 241.708 110.537 242.262 110.11 242.736C109.689 243.205 109.149 243.569 108.491 243.83C107.833 244.085 107.08 244.213 106.233 244.213ZM118.017 244.213C116.928 244.213 115.993 243.974 115.212 243.496C114.435 243.018 113.836 242.357 113.415 241.514C112.998 240.667 112.79 239.691 112.79 238.588C112.79 237.48 113.003 236.502 113.429 235.655C113.855 234.803 114.456 234.14 115.233 233.666C116.014 233.188 116.938 232.949 118.003 232.949C118.888 232.949 119.672 233.112 120.354 233.439C121.04 233.761 121.587 234.218 121.994 234.81C122.402 235.397 122.634 236.083 122.69 236.869H120.233C120.134 236.344 119.897 235.906 119.523 235.555C119.153 235.2 118.659 235.023 118.038 235.023C117.513 235.023 117.051 235.165 116.653 235.449C116.256 235.728 115.946 236.131 115.723 236.656C115.505 237.182 115.396 237.812 115.396 238.545C115.396 239.289 115.505 239.928 115.723 240.463C115.941 240.993 116.246 241.403 116.639 241.692C117.037 241.976 117.503 242.118 118.038 242.118C118.417 242.118 118.756 242.047 119.054 241.905C119.357 241.758 119.61 241.547 119.814 241.273C120.018 240.998 120.157 240.664 120.233 240.271H122.69C122.629 241.043 122.402 241.727 122.009 242.324C121.616 242.916 121.08 243.38 120.403 243.716C119.726 244.047 118.931 244.213 118.017 244.213ZM124.801 244V233.091H127.294V234.909H127.408C127.607 234.279 127.948 233.794 128.431 233.453C128.918 233.107 129.475 232.935 130.1 232.935C130.242 232.935 130.4 232.942 130.576 232.956C130.756 232.965 130.905 232.982 131.023 233.006V235.371C130.914 235.333 130.741 235.3 130.505 235.271C130.273 235.238 130.048 235.222 129.83 235.222C129.361 235.222 128.94 235.323 128.566 235.527C128.196 235.726 127.905 236.003 127.692 236.358C127.479 236.713 127.373 237.123 127.373 237.587V244H124.801ZM139.684 239.412V233.091H142.255V244H139.762V242.061H139.649C139.403 242.672 138.998 243.171 138.434 243.56C137.876 243.948 137.187 244.142 136.368 244.142C135.653 244.142 135.02 243.983 134.471 243.666C133.927 243.344 133.501 242.878 133.193 242.267C132.885 241.652 132.731 240.908 132.731 240.037V233.091H135.302V239.639C135.302 240.33 135.492 240.88 135.87 241.287C136.249 241.694 136.746 241.898 137.362 241.898C137.741 241.898 138.108 241.805 138.463 241.621C138.818 241.436 139.109 241.161 139.336 240.797C139.568 240.428 139.684 239.966 139.684 239.412ZM150.347 233.091V235.08H144.075V233.091H150.347ZM145.624 230.477H148.195V240.719C148.195 241.064 148.247 241.33 148.351 241.514C148.46 241.694 148.602 241.817 148.777 241.884C148.952 241.95 149.146 241.983 149.359 241.983C149.52 241.983 149.667 241.971 149.8 241.947C149.937 241.924 150.041 241.902 150.112 241.884L150.545 243.893C150.408 243.941 150.212 243.993 149.956 244.05C149.705 244.107 149.397 244.14 149.033 244.149C148.389 244.168 147.809 244.071 147.293 243.858C146.777 243.64 146.367 243.304 146.064 242.849C145.766 242.395 145.619 241.827 145.624 241.145V230.477ZM157.209 244.213C156.115 244.213 155.171 243.986 154.375 243.531C153.585 243.072 152.976 242.423 152.55 241.585C152.124 240.742 151.911 239.75 151.911 238.609C151.911 237.487 152.124 236.502 152.55 235.655C152.981 234.803 153.582 234.14 154.354 233.666C155.126 233.188 156.033 232.949 157.074 232.949C157.747 232.949 158.381 233.058 158.978 233.276C159.579 233.489 160.109 233.82 160.569 234.27C161.033 234.72 161.397 235.293 161.662 235.989C161.927 236.68 162.06 237.504 162.06 238.46V239.249H153.118V237.516H159.596C159.591 237.023 159.484 236.585 159.276 236.202C159.068 235.813 158.776 235.508 158.402 235.286C158.033 235.063 157.602 234.952 157.11 234.952C156.584 234.952 156.123 235.08 155.725 235.335C155.327 235.586 155.017 235.918 154.794 236.33C154.577 236.737 154.465 237.184 154.461 237.672V239.185C154.461 239.819 154.577 240.364 154.809 240.818C155.041 241.268 155.365 241.614 155.782 241.855C156.198 242.092 156.686 242.21 157.245 242.21C157.619 242.21 157.957 242.158 158.26 242.054C158.563 241.945 158.826 241.786 159.049 241.578C159.271 241.37 159.439 241.112 159.553 240.804L161.953 241.074C161.802 241.708 161.513 242.262 161.087 242.736C160.666 243.205 160.126 243.569 159.468 243.83C158.81 244.085 158.057 244.213 157.209 244.213ZM164.235 244V233.091H166.692V234.945H166.82C167.048 234.32 167.424 233.832 167.95 233.482C168.475 233.126 169.103 232.949 169.832 232.949C170.57 232.949 171.193 233.129 171.7 233.489C172.211 233.844 172.571 234.329 172.779 234.945H172.893C173.134 234.339 173.541 233.856 174.114 233.496C174.692 233.131 175.376 232.949 176.167 232.949C177.171 232.949 177.99 233.266 178.624 233.901C179.259 234.535 179.576 235.461 179.576 236.678V244H176.998V237.075C176.998 236.398 176.818 235.903 176.458 235.591C176.098 235.274 175.658 235.115 175.137 235.115C174.517 235.115 174.031 235.309 173.681 235.697C173.335 236.081 173.163 236.58 173.163 237.196V244H170.641V236.969C170.641 236.405 170.471 235.955 170.13 235.619C169.794 235.283 169.353 235.115 168.809 235.115C168.44 235.115 168.103 235.21 167.8 235.399C167.497 235.584 167.256 235.847 167.076 236.188C166.896 236.524 166.806 236.917 166.806 237.366V244H164.235ZM187.014 244.213C185.92 244.213 184.975 243.986 184.18 243.531C183.389 243.072 182.781 242.423 182.355 241.585C181.929 240.742 181.716 239.75 181.716 238.609C181.716 237.487 181.929 236.502 182.355 235.655C182.786 234.803 183.387 234.14 184.159 233.666C184.931 233.188 185.837 232.949 186.879 232.949C187.551 232.949 188.186 233.058 188.782 233.276C189.384 233.489 189.914 233.82 190.373 234.27C190.837 234.72 191.202 235.293 191.467 235.989C191.732 236.68 191.865 237.504 191.865 238.46V239.249H182.923V237.516H189.4C189.395 237.023 189.289 236.585 189.081 236.202C188.872 235.813 188.581 235.508 188.207 235.286C187.838 235.063 187.407 234.952 186.914 234.952C186.389 234.952 185.927 235.08 185.529 235.335C185.132 235.586 184.822 235.918 184.599 236.33C184.381 236.737 184.27 237.184 184.265 237.672V239.185C184.265 239.819 184.381 240.364 184.613 240.818C184.845 241.268 185.17 241.614 185.586 241.855C186.003 242.092 186.491 242.21 187.049 242.21C187.423 242.21 187.762 242.158 188.065 242.054C188.368 241.945 188.631 241.786 188.853 241.578C189.076 241.37 189.244 241.112 189.358 240.804L191.758 241.074C191.607 241.708 191.318 242.262 190.892 242.736C190.47 243.205 189.931 243.569 189.272 243.83C188.614 244.085 187.861 244.213 187.014 244.213ZM196.611 237.608V244H194.04V233.091H196.497V234.945H196.625C196.876 234.334 197.276 233.848 197.825 233.489C198.379 233.129 199.063 232.949 199.878 232.949C200.631 232.949 201.286 233.11 201.845 233.432C202.409 233.754 202.844 234.22 203.152 234.831C203.464 235.442 203.618 236.183 203.614 237.054V244H201.043V237.452C201.043 236.723 200.853 236.152 200.474 235.74C200.1 235.328 199.582 235.122 198.919 235.122C198.469 235.122 198.069 235.222 197.719 235.42C197.373 235.615 197.101 235.896 196.902 236.266C196.708 236.635 196.611 237.082 196.611 237.608ZM211.675 233.091V235.08H205.403V233.091H211.675ZM206.952 230.477H209.523V240.719C209.523 241.064 209.575 241.33 209.679 241.514C209.788 241.694 209.93 241.817 210.105 241.884C210.28 241.95 210.474 241.983 210.688 241.983C210.848 241.983 210.995 241.971 211.128 241.947C211.265 241.924 211.369 241.902 211.44 241.884L211.874 243.893C211.736 243.941 211.54 243.993 211.284 244.05C211.033 244.107 210.725 244.14 210.361 244.149C209.717 244.168 209.137 244.071 208.621 243.858C208.105 243.64 207.695 243.304 207.392 242.849C207.094 242.395 206.947 241.827 206.952 241.145V230.477ZM216.843 242.011L216.751 242.793C216.685 243.389 216.566 243.995 216.396 244.611C216.23 245.231 216.055 245.802 215.87 246.322C215.686 246.843 215.537 247.253 215.423 247.551H213.69C213.756 247.262 213.846 246.869 213.96 246.372C214.078 245.875 214.192 245.316 214.301 244.696C214.41 244.076 214.483 243.446 214.521 242.807L214.571 242.011H216.843ZM228.283 244.192C227.426 244.192 226.659 243.972 225.982 243.531C225.305 243.091 224.77 242.452 224.377 241.614C223.984 240.776 223.788 239.758 223.788 238.56C223.788 237.348 223.987 236.325 224.384 235.491C224.787 234.653 225.329 234.021 226.011 233.595C226.692 233.164 227.452 232.949 228.29 232.949C228.93 232.949 229.455 233.058 229.867 233.276C230.279 233.489 230.606 233.747 230.847 234.05C231.089 234.348 231.276 234.63 231.408 234.895H231.515V229.455H234.093V244H231.565V242.281H231.408C231.276 242.546 231.084 242.828 230.833 243.126C230.582 243.42 230.251 243.671 229.839 243.879C229.427 244.088 228.908 244.192 228.283 244.192ZM229.001 242.082C229.545 242.082 230.009 241.936 230.393 241.642C230.776 241.344 231.067 240.929 231.266 240.399C231.465 239.869 231.565 239.251 231.565 238.545C231.565 237.84 231.465 237.227 231.266 236.706C231.072 236.185 230.783 235.78 230.4 235.491C230.021 235.203 229.555 235.058 229.001 235.058C228.428 235.058 227.95 235.207 227.566 235.506C227.183 235.804 226.894 236.216 226.7 236.741C226.505 237.267 226.408 237.868 226.408 238.545C226.408 239.227 226.505 239.836 226.7 240.371C226.898 240.901 227.19 241.32 227.573 241.628C227.961 241.931 228.437 242.082 229.001 242.082ZM241.662 244.213C240.569 244.213 239.624 243.986 238.828 243.531C238.038 243.072 237.429 242.423 237.003 241.585C236.577 240.742 236.364 239.75 236.364 238.609C236.364 237.487 236.577 236.502 237.003 235.655C237.434 234.803 238.035 234.14 238.807 233.666C239.579 233.188 240.486 232.949 241.527 232.949C242.2 232.949 242.834 233.058 243.431 233.276C244.032 233.489 244.562 233.82 245.022 234.27C245.486 234.72 245.85 235.293 246.115 235.989C246.381 236.68 246.513 237.504 246.513 238.46V239.249H237.571V237.516H244.049C244.044 237.023 243.937 236.585 243.729 236.202C243.521 235.813 243.23 235.508 242.855 235.286C242.486 235.063 242.055 234.952 241.563 234.952C241.037 234.952 240.576 235.08 240.178 235.335C239.78 235.586 239.47 235.918 239.248 236.33C239.03 236.737 238.918 237.184 238.914 237.672V239.185C238.914 239.819 239.03 240.364 239.262 240.818C239.494 241.268 239.818 241.614 240.235 241.855C240.651 242.092 241.139 242.21 241.698 242.21C242.072 242.21 242.41 242.158 242.713 242.054C243.016 241.945 243.279 241.786 243.502 241.578C243.724 241.37 243.892 241.112 244.006 240.804L246.407 241.074C246.255 241.708 245.966 242.262 245.54 242.736C245.119 243.205 244.579 243.569 243.921 243.83C243.263 244.085 242.51 244.213 241.662 244.213ZM253.649 248.091V233.091H256.178V234.895H256.327C256.459 234.63 256.646 234.348 256.888 234.05C257.129 233.747 257.456 233.489 257.868 233.276C258.28 233.058 258.805 232.949 259.445 232.949C260.287 232.949 261.047 233.164 261.724 233.595C262.406 234.021 262.946 234.653 263.344 235.491C263.746 236.325 263.947 237.348 263.947 238.56C263.947 239.758 263.751 240.776 263.358 241.614C262.965 242.452 262.43 243.091 261.753 243.531C261.076 243.972 260.309 244.192 259.452 244.192C258.827 244.192 258.308 244.088 257.896 243.879C257.484 243.671 257.153 243.42 256.902 243.126C256.656 242.828 256.464 242.546 256.327 242.281H256.22V248.091H253.649ZM256.17 238.545C256.17 239.251 256.27 239.869 256.469 240.399C256.672 240.929 256.964 241.344 257.342 241.642C257.726 241.936 258.19 242.082 258.734 242.082C259.303 242.082 259.778 241.931 260.162 241.628C260.545 241.32 260.834 240.901 261.028 240.371C261.227 239.836 261.327 239.227 261.327 238.545C261.327 237.868 261.23 237.267 261.036 236.741C260.841 236.216 260.553 235.804 260.169 235.506C259.786 235.207 259.307 235.058 258.734 235.058C258.185 235.058 257.719 235.203 257.335 235.491C256.952 235.78 256.661 236.185 256.462 236.706C256.268 237.227 256.17 237.84 256.17 238.545ZM270.908 244.213C269.842 244.213 268.919 243.979 268.138 243.51C267.357 243.041 266.75 242.385 266.32 241.543C265.893 240.7 265.68 239.715 265.68 238.588C265.68 237.461 265.893 236.474 266.32 235.626C266.75 234.779 267.357 234.121 268.138 233.652C268.919 233.183 269.842 232.949 270.908 232.949C271.973 232.949 272.896 233.183 273.678 233.652C274.459 234.121 275.063 234.779 275.489 235.626C275.92 236.474 276.135 237.461 276.135 238.588C276.135 239.715 275.92 240.7 275.489 241.543C275.063 242.385 274.459 243.041 273.678 243.51C272.896 243.979 271.973 244.213 270.908 244.213ZM270.922 242.153C271.5 242.153 271.982 241.995 272.371 241.678C272.759 241.356 273.048 240.925 273.237 240.385C273.431 239.845 273.528 239.244 273.528 238.581C273.528 237.913 273.431 237.31 273.237 236.77C273.048 236.225 272.759 235.792 272.371 235.47C271.982 235.148 271.5 234.987 270.922 234.987C270.33 234.987 269.838 235.148 269.445 235.47C269.056 235.792 268.765 236.225 268.571 236.77C268.382 237.31 268.287 237.913 268.287 238.581C268.287 239.244 268.382 239.845 268.571 240.385C268.765 240.925 269.056 241.356 269.445 241.678C269.838 241.995 270.33 242.153 270.922 242.153ZM278.317 244V233.091H280.81V234.909H280.924C281.123 234.279 281.463 233.794 281.946 233.453C282.434 233.107 282.99 232.935 283.615 232.935C283.757 232.935 283.916 232.942 284.091 232.956C284.271 232.965 284.42 232.982 284.539 233.006V235.371C284.43 235.333 284.257 235.3 284.02 235.271C283.788 235.238 283.563 235.222 283.346 235.222C282.877 235.222 282.455 235.323 282.081 235.527C281.712 235.726 281.421 236.003 281.208 236.358C280.995 236.713 280.888 237.123 280.888 237.587V244H278.317ZM292.28 233.091V235.08H286.009V233.091H292.28ZM287.557 230.477H290.128V240.719C290.128 241.064 290.18 241.33 290.284 241.514C290.393 241.694 290.535 241.817 290.711 241.884C290.886 241.95 291.08 241.983 291.293 241.983C291.454 241.983 291.601 241.971 291.733 241.947C291.871 241.924 291.975 241.902 292.046 241.884L292.479 243.893C292.342 243.941 292.145 243.993 291.89 244.05C291.639 244.107 291.331 244.14 290.966 244.149C290.322 244.168 289.742 244.071 289.226 243.858C288.71 243.64 288.301 243.304 287.998 242.849C287.699 242.395 287.552 241.827 287.557 241.145V230.477ZM297.57 244.22C296.878 244.22 296.256 244.097 295.702 243.851C295.152 243.6 294.717 243.231 294.395 242.743C294.078 242.255 293.919 241.654 293.919 240.939C293.919 240.323 294.033 239.814 294.26 239.412C294.487 239.009 294.797 238.688 295.19 238.446C295.583 238.205 296.026 238.022 296.518 237.899C297.016 237.771 297.529 237.679 298.06 237.622C298.699 237.556 299.217 237.497 299.615 237.445C300.013 237.388 300.302 237.303 300.482 237.189C300.666 237.071 300.759 236.888 300.759 236.642V236.599C300.759 236.064 300.6 235.65 300.283 235.357C299.965 235.063 299.509 234.916 298.912 234.916C298.282 234.916 297.783 235.054 297.413 235.328C297.049 235.603 296.803 235.927 296.675 236.301L294.274 235.96C294.464 235.297 294.776 234.743 295.212 234.298C295.647 233.848 296.18 233.512 296.81 233.29C297.439 233.062 298.135 232.949 298.898 232.949C299.423 232.949 299.946 233.01 300.467 233.134C300.988 233.257 301.464 233.46 301.895 233.744C302.326 234.024 302.671 234.405 302.932 234.888C303.197 235.371 303.33 235.974 303.33 236.699V244H300.858V242.501H300.773C300.616 242.804 300.396 243.089 300.112 243.354C299.833 243.614 299.48 243.825 299.054 243.986C298.633 244.142 298.138 244.22 297.57 244.22ZM298.237 242.331C298.753 242.331 299.201 242.229 299.58 242.026C299.958 241.817 300.25 241.543 300.453 241.202C300.661 240.861 300.766 240.489 300.766 240.087V238.801C300.685 238.867 300.548 238.929 300.354 238.986C300.164 239.043 299.951 239.092 299.714 239.135C299.478 239.178 299.243 239.215 299.011 239.249C298.779 239.282 298.578 239.31 298.408 239.334C298.024 239.386 297.681 239.471 297.378 239.589C297.075 239.708 296.836 239.874 296.661 240.087C296.485 240.295 296.398 240.565 296.398 240.896C296.398 241.37 296.571 241.727 296.916 241.969C297.262 242.21 297.702 242.331 298.237 242.331ZM310.659 248.318C309.736 248.318 308.943 248.193 308.28 247.942C307.617 247.696 307.084 247.364 306.682 246.947C306.279 246.531 306 246.069 305.844 245.562L308.159 245.001C308.263 245.214 308.415 245.425 308.614 245.634C308.813 245.847 309.08 246.022 309.416 246.159C309.757 246.301 310.186 246.372 310.702 246.372C311.431 246.372 312.035 246.195 312.513 245.839C312.991 245.489 313.23 244.911 313.23 244.107V242.04H313.102C312.97 242.305 312.776 242.577 312.52 242.857C312.269 243.136 311.935 243.37 311.518 243.56C311.107 243.749 310.588 243.844 309.963 243.844C309.125 243.844 308.365 243.647 307.683 243.254C307.006 242.857 306.466 242.265 306.064 241.479C305.666 240.688 305.467 239.698 305.467 238.51C305.467 237.312 305.666 236.301 306.064 235.477C306.466 234.649 307.009 234.021 307.69 233.595C308.372 233.164 309.132 232.949 309.97 232.949C310.609 232.949 311.135 233.058 311.547 233.276C311.964 233.489 312.295 233.747 312.541 234.05C312.787 234.348 312.974 234.63 313.102 234.895H313.244V233.091H315.78V244.178C315.78 245.11 315.557 245.882 315.112 246.493C314.667 247.104 314.059 247.561 313.287 247.864C312.515 248.167 311.639 248.318 310.659 248.318ZM310.68 241.827C311.225 241.827 311.689 241.694 312.072 241.429C312.456 241.164 312.747 240.783 312.946 240.286C313.145 239.788 313.244 239.192 313.244 238.496C313.244 237.809 313.145 237.208 312.946 236.692C312.752 236.176 312.463 235.776 312.08 235.491C311.701 235.203 311.234 235.058 310.68 235.058C310.107 235.058 309.629 235.207 309.246 235.506C308.862 235.804 308.573 236.214 308.379 236.734C308.185 237.25 308.088 237.838 308.088 238.496C308.088 239.163 308.185 239.748 308.379 240.25C308.578 240.747 308.869 241.135 309.253 241.415C309.641 241.689 310.117 241.827 310.68 241.827ZM323.244 244.213C322.151 244.213 321.206 243.986 320.411 243.531C319.62 243.072 319.011 242.423 318.585 241.585C318.159 240.742 317.946 239.75 317.946 238.609C317.946 237.487 318.159 236.502 318.585 235.655C319.016 234.803 319.617 234.14 320.389 233.666C321.161 233.188 322.068 232.949 323.109 232.949C323.782 232.949 324.416 233.058 325.013 233.276C325.614 233.489 326.144 233.82 326.604 234.27C327.068 234.72 327.432 235.293 327.697 235.989C327.963 236.68 328.095 237.504 328.095 238.46V239.249H319.153V237.516H325.631C325.626 237.023 325.519 236.585 325.311 236.202C325.103 235.813 324.812 235.508 324.438 235.286C324.068 235.063 323.637 234.952 323.145 234.952C322.619 234.952 322.158 235.08 321.76 235.335C321.362 235.586 321.052 235.918 320.83 236.33C320.612 236.737 320.5 237.184 320.496 237.672V239.185C320.496 239.819 320.612 240.364 320.844 240.818C321.076 241.268 321.4 241.614 321.817 241.855C322.233 242.092 322.721 242.21 323.28 242.21C323.654 242.21 323.992 242.158 324.295 242.054C324.598 241.945 324.861 241.786 325.084 241.578C325.306 241.37 325.474 241.112 325.588 240.804L327.989 241.074C327.837 241.708 327.548 242.262 327.122 242.736C326.701 243.205 326.161 243.569 325.503 243.83C324.845 244.085 324.092 244.213 323.244 244.213ZM333.289 242.011L333.196 242.793C333.13 243.389 333.012 243.995 332.841 244.611C332.676 245.231 332.5 245.802 332.316 246.322C332.131 246.843 331.982 247.253 331.868 247.551H330.135C330.202 247.262 330.292 246.869 330.405 246.372C330.524 245.875 330.637 245.316 330.746 244.696C330.855 244.076 330.928 243.446 330.966 242.807L331.016 242.011H333.289ZM128.763 268V253.455H131.334V258.895H131.44C131.573 258.63 131.76 258.348 132.001 258.05C132.243 257.747 132.57 257.489 132.982 257.276C133.393 257.058 133.919 256.949 134.558 256.949C135.401 256.949 136.161 257.164 136.838 257.595C137.52 258.021 138.06 258.653 138.457 259.491C138.86 260.325 139.061 261.348 139.061 262.56C139.061 263.758 138.865 264.776 138.472 265.614C138.079 266.452 137.544 267.091 136.866 267.531C136.189 267.972 135.422 268.192 134.565 268.192C133.94 268.192 133.422 268.088 133.01 267.879C132.598 267.671 132.267 267.42 132.016 267.126C131.769 266.828 131.578 266.546 131.44 266.281H131.291V268H128.763ZM131.284 262.545C131.284 263.251 131.384 263.869 131.582 264.399C131.786 264.929 132.077 265.344 132.456 265.642C132.839 265.936 133.304 266.082 133.848 266.082C134.416 266.082 134.892 265.931 135.276 265.628C135.659 265.32 135.948 264.901 136.142 264.371C136.341 263.836 136.44 263.227 136.44 262.545C136.44 261.868 136.343 261.267 136.149 260.741C135.955 260.216 135.666 259.804 135.283 259.506C134.899 259.207 134.421 259.058 133.848 259.058C133.299 259.058 132.832 259.203 132.449 259.491C132.065 259.78 131.774 260.185 131.575 260.706C131.381 261.227 131.284 261.84 131.284 262.545ZM148.2 263.412V257.091H150.771V268H148.278V266.061H148.164C147.918 266.672 147.513 267.171 146.95 267.56C146.391 267.948 145.702 268.142 144.883 268.142C144.168 268.142 143.536 267.983 142.987 267.666C142.442 267.344 142.016 266.878 141.708 266.267C141.401 265.652 141.247 264.908 141.247 264.037V257.091H143.818V263.639C143.818 264.33 144.007 264.88 144.386 265.287C144.765 265.694 145.262 265.898 145.877 265.898C146.256 265.898 146.623 265.805 146.978 265.621C147.333 265.436 147.625 265.161 147.852 264.797C148.084 264.428 148.2 263.966 148.2 263.412ZM153.415 268V257.091H155.908V258.909H156.021C156.22 258.279 156.561 257.794 157.044 257.453C157.532 257.107 158.088 256.935 158.713 256.935C158.855 256.935 159.014 256.942 159.189 256.956C159.369 256.965 159.518 256.982 159.636 257.006V259.371C159.527 259.333 159.355 259.3 159.118 259.271C158.886 259.238 158.661 259.222 158.443 259.222C157.974 259.222 157.553 259.323 157.179 259.527C156.81 259.726 156.518 260.003 156.305 260.358C156.092 260.713 155.986 261.123 155.986 261.587V268H153.415ZM165.725 268.213C164.631 268.213 163.686 267.986 162.891 267.531C162.1 267.072 161.492 266.423 161.066 265.585C160.64 264.742 160.426 263.75 160.426 262.609C160.426 261.487 160.64 260.502 161.066 259.655C161.497 258.803 162.098 258.14 162.87 257.666C163.641 257.188 164.548 256.949 165.59 256.949C166.262 256.949 166.897 257.058 167.493 257.276C168.095 257.489 168.625 257.82 169.084 258.27C169.548 258.72 169.913 259.293 170.178 259.989C170.443 260.68 170.576 261.504 170.576 262.46V263.249H161.634V261.516H168.111C168.106 261.023 168 260.585 167.792 260.202C167.583 259.813 167.292 259.508 166.918 259.286C166.549 259.063 166.118 258.952 165.625 258.952C165.1 258.952 164.638 259.08 164.24 259.335C163.843 259.586 163.533 259.918 163.31 260.33C163.092 260.737 162.981 261.184 162.976 261.672V263.185C162.976 263.819 163.092 264.364 163.324 264.818C163.556 265.268 163.881 265.614 164.297 265.855C164.714 266.092 165.202 266.21 165.76 266.21C166.134 266.21 166.473 266.158 166.776 266.054C167.079 265.945 167.342 265.786 167.564 265.578C167.787 265.37 167.955 265.112 168.069 264.804L170.469 265.074C170.318 265.708 170.029 266.262 169.603 266.736C169.181 267.205 168.641 267.569 167.983 267.83C167.325 268.085 166.572 268.213 165.725 268.213ZM175.89 268.22C175.199 268.22 174.576 268.097 174.022 267.851C173.473 267.6 173.037 267.231 172.715 266.743C172.398 266.255 172.239 265.654 172.239 264.939C172.239 264.323 172.353 263.814 172.58 263.412C172.808 263.009 173.118 262.688 173.511 262.446C173.904 262.205 174.346 262.022 174.839 261.899C175.336 261.771 175.85 261.679 176.38 261.622C177.019 261.556 177.538 261.497 177.935 261.445C178.333 261.388 178.622 261.303 178.802 261.189C178.987 261.071 179.079 260.888 179.079 260.642V260.599C179.079 260.064 178.92 259.65 178.603 259.357C178.286 259.063 177.829 258.916 177.232 258.916C176.603 258.916 176.103 259.054 175.734 259.328C175.369 259.603 175.123 259.927 174.995 260.301L172.594 259.96C172.784 259.297 173.096 258.743 173.532 258.298C173.968 257.848 174.5 257.512 175.13 257.29C175.76 257.062 176.456 256.949 177.218 256.949C177.744 256.949 178.267 257.01 178.788 257.134C179.308 257.257 179.784 257.46 180.215 257.744C180.646 258.024 180.992 258.405 181.252 258.888C181.517 259.371 181.65 259.974 181.65 260.699V268H179.178V266.501H179.093C178.937 266.804 178.717 267.089 178.433 267.354C178.153 267.614 177.8 267.825 177.374 267.986C176.953 268.142 176.458 268.22 175.89 268.22ZM176.558 266.331C177.074 266.331 177.521 266.229 177.9 266.026C178.279 265.817 178.57 265.543 178.773 265.202C178.982 264.861 179.086 264.489 179.086 264.087V262.801C179.005 262.867 178.868 262.929 178.674 262.986C178.485 263.043 178.272 263.092 178.035 263.135C177.798 263.178 177.564 263.215 177.332 263.249C177.1 263.282 176.898 263.31 176.728 263.334C176.344 263.386 176.001 263.471 175.698 263.589C175.395 263.708 175.156 263.874 174.981 264.087C174.806 264.295 174.718 264.565 174.718 264.896C174.718 265.37 174.891 265.727 175.237 265.969C175.582 266.21 176.022 266.331 176.558 266.331ZM191.188 263.412V257.091H193.759V268H191.266V266.061H191.153C190.906 266.672 190.502 267.171 189.938 267.56C189.379 267.948 188.691 268.142 187.871 268.142C187.156 268.142 186.524 267.983 185.975 267.666C185.431 267.344 185.004 266.878 184.697 266.267C184.389 265.652 184.235 264.908 184.235 264.037V257.091H186.806V263.639C186.806 264.33 186.996 264.88 187.374 265.287C187.753 265.694 188.25 265.898 188.866 265.898C189.245 265.898 189.612 265.805 189.967 265.621C190.322 265.436 190.613 265.161 190.84 264.797C191.072 264.428 191.188 263.966 191.188 263.412ZM205.412 268.192C204.555 268.192 203.788 267.972 203.111 267.531C202.434 267.091 201.899 266.452 201.506 265.614C201.113 264.776 200.917 263.758 200.917 262.56C200.917 261.348 201.115 260.325 201.513 259.491C201.916 258.653 202.458 258.021 203.14 257.595C203.821 257.164 204.581 256.949 205.419 256.949C206.059 256.949 206.584 257.058 206.996 257.276C207.408 257.489 207.735 257.747 207.976 258.05C208.218 258.348 208.405 258.63 208.537 258.895H208.644V253.455H211.222V268H208.694V266.281H208.537C208.405 266.546 208.213 266.828 207.962 267.126C207.711 267.42 207.38 267.671 206.968 267.879C206.556 268.088 206.037 268.192 205.412 268.192ZM206.13 266.082C206.674 266.082 207.138 265.936 207.522 265.642C207.905 265.344 208.196 264.929 208.395 264.399C208.594 263.869 208.694 263.251 208.694 262.545C208.694 261.84 208.594 261.227 208.395 260.706C208.201 260.185 207.912 259.78 207.529 259.491C207.15 259.203 206.684 259.058 206.13 259.058C205.557 259.058 205.078 259.207 204.695 259.506C204.311 259.804 204.023 260.216 203.828 260.741C203.634 261.267 203.537 261.868 203.537 262.545C203.537 263.227 203.634 263.836 203.828 264.371C204.027 264.901 204.319 265.32 204.702 265.628C205.09 265.931 205.566 266.082 206.13 266.082ZM216.142 253.455V254.903C216.142 255.32 216.062 255.753 215.901 256.203C215.744 256.648 215.529 257.074 215.254 257.482C214.98 257.884 214.667 258.23 214.317 258.518L213.124 257.744C213.384 257.351 213.611 256.928 213.805 256.473C214 256.014 214.097 255.495 214.097 254.918V253.455H216.142ZM221.819 268.213C220.725 268.213 219.78 267.986 218.985 267.531C218.194 267.072 217.586 266.423 217.159 265.585C216.733 264.742 216.52 263.75 216.52 262.609C216.52 261.487 216.733 260.502 217.159 259.655C217.59 258.803 218.192 258.14 218.963 257.666C219.735 257.188 220.642 256.949 221.684 256.949C222.356 256.949 222.99 257.058 223.587 257.276C224.188 257.489 224.719 257.82 225.178 258.27C225.642 258.72 226.007 259.293 226.272 259.989C226.537 260.68 226.669 261.504 226.669 262.46V263.249H217.728V261.516H224.205C224.2 261.023 224.094 260.585 223.885 260.202C223.677 259.813 223.386 259.508 223.012 259.286C222.642 259.063 222.212 258.952 221.719 258.952C221.194 258.952 220.732 259.08 220.334 259.335C219.936 259.586 219.626 259.918 219.404 260.33C219.186 260.737 219.075 261.184 219.07 261.672V263.185C219.07 263.819 219.186 264.364 219.418 264.818C219.65 265.268 219.974 265.614 220.391 265.855C220.808 266.092 221.295 266.21 221.854 266.21C222.228 266.21 222.567 266.158 222.87 266.054C223.173 265.945 223.435 265.786 223.658 265.578C223.881 265.37 224.049 265.112 224.162 264.804L226.563 265.074C226.411 265.708 226.123 266.262 225.696 266.736C225.275 267.205 224.735 267.569 224.077 267.83C223.419 268.085 222.666 268.213 221.819 268.213ZM220.625 255.656L222.216 252.411H224.73L222.55 255.656H220.625ZM234.292 257.091V259.08H228.021V257.091H234.292ZM229.569 254.477H232.14V264.719C232.14 265.064 232.192 265.33 232.296 265.514C232.405 265.694 232.547 265.817 232.722 265.884C232.897 265.95 233.092 265.983 233.305 265.983C233.466 265.983 233.612 265.971 233.745 265.947C233.882 265.924 233.987 265.902 234.058 265.884L234.491 267.893C234.353 267.941 234.157 267.993 233.901 268.05C233.65 268.107 233.343 268.14 232.978 268.149C232.334 268.168 231.754 268.071 231.238 267.858C230.722 267.64 230.312 267.304 230.009 266.849C229.711 266.395 229.564 265.827 229.569 265.145V254.477ZM243.395 263.412V257.091H245.966V268H243.473V266.061H243.36C243.114 266.672 242.709 267.171 242.145 267.56C241.587 267.948 240.898 268.142 240.078 268.142C239.364 268.142 238.731 267.983 238.182 267.666C237.638 267.344 237.212 266.878 236.904 266.267C236.596 265.652 236.442 264.908 236.442 264.037V257.091H239.013V263.639C239.013 264.33 239.203 264.88 239.581 265.287C239.96 265.694 240.457 265.898 241.073 265.898C241.452 265.898 241.819 265.805 242.174 265.621C242.529 265.436 242.82 265.161 243.047 264.797C243.279 264.428 243.395 263.966 243.395 263.412ZM252.658 268.192C251.801 268.192 251.034 267.972 250.357 267.531C249.68 267.091 249.145 266.452 248.752 265.614C248.359 264.776 248.163 263.758 248.163 262.56C248.163 261.348 248.362 260.325 248.759 259.491C249.162 258.653 249.704 258.021 250.386 257.595C251.067 257.164 251.827 256.949 252.665 256.949C253.305 256.949 253.83 257.058 254.242 257.276C254.654 257.489 254.981 257.747 255.222 258.05C255.464 258.348 255.651 258.63 255.783 258.895H255.89V253.455H258.468V268H255.94V266.281H255.783C255.651 266.546 255.459 266.828 255.208 267.126C254.957 267.42 254.626 267.671 254.214 267.879C253.802 268.088 253.283 268.192 252.658 268.192ZM253.376 266.082C253.92 266.082 254.384 265.936 254.768 265.642C255.151 265.344 255.442 264.929 255.641 264.399C255.84 263.869 255.94 263.251 255.94 262.545C255.94 261.84 255.84 261.227 255.641 260.706C255.447 260.185 255.158 259.78 254.775 259.491C254.396 259.203 253.93 259.058 253.376 259.058C252.803 259.058 252.325 259.207 251.941 259.506C251.558 259.804 251.269 260.216 251.075 260.741C250.88 261.267 250.783 261.868 250.783 262.545C250.783 263.227 250.88 263.836 251.075 264.371C251.273 264.901 251.565 265.32 251.948 265.628C252.336 265.931 252.812 266.082 253.376 266.082ZM266.037 268.213C264.944 268.213 263.999 267.986 263.203 267.531C262.413 267.072 261.804 266.423 261.378 265.585C260.952 264.742 260.739 263.75 260.739 262.609C260.739 261.487 260.952 260.502 261.378 259.655C261.809 258.803 262.41 258.14 263.182 257.666C263.954 257.188 264.861 256.949 265.902 256.949C266.575 256.949 267.209 257.058 267.806 257.276C268.407 257.489 268.937 257.82 269.397 258.27C269.861 258.72 270.225 259.293 270.49 259.989C270.756 260.68 270.888 261.504 270.888 262.46V263.249H261.946V261.516H268.424C268.419 261.023 268.312 260.585 268.104 260.202C267.896 259.813 267.605 259.508 267.23 259.286C266.861 259.063 266.43 258.952 265.938 258.952C265.412 258.952 264.951 259.08 264.553 259.335C264.155 259.586 263.845 259.918 263.623 260.33C263.405 260.737 263.293 261.184 263.289 261.672V263.185C263.289 263.819 263.405 264.364 263.637 264.818C263.869 265.268 264.193 265.614 264.61 265.855C265.026 266.092 265.514 266.21 266.073 266.21C266.447 266.21 266.785 266.158 267.088 266.054C267.391 265.945 267.654 265.786 267.877 265.578C268.099 265.37 268.267 265.112 268.381 264.804L270.782 265.074C270.63 265.708 270.341 266.262 269.915 266.736C269.494 267.205 268.954 267.569 268.296 267.83C267.638 268.085 266.885 268.213 266.037 268.213ZM281.685 259.974L279.342 260.23C279.275 259.993 279.159 259.771 278.994 259.562C278.833 259.354 278.615 259.186 278.34 259.058C278.066 258.93 277.729 258.866 277.332 258.866C276.797 258.866 276.347 258.982 275.982 259.214C275.622 259.446 275.445 259.747 275.45 260.116C275.445 260.434 275.561 260.692 275.798 260.891C276.039 261.089 276.437 261.253 276.991 261.381L278.852 261.778C279.884 262.001 280.651 262.354 281.153 262.837C281.659 263.32 281.915 263.952 281.92 264.733C281.915 265.42 281.714 266.026 281.316 266.551C280.923 267.072 280.376 267.479 279.675 267.773C278.975 268.066 278.17 268.213 277.261 268.213C275.925 268.213 274.851 267.934 274.036 267.375C273.222 266.812 272.737 266.028 272.58 265.024L275.087 264.783C275.201 265.275 275.442 265.647 275.812 265.898C276.181 266.149 276.662 266.274 277.254 266.274C277.864 266.274 278.354 266.149 278.724 265.898C279.098 265.647 279.285 265.337 279.285 264.967C279.285 264.655 279.164 264.397 278.923 264.193C278.686 263.99 278.317 263.833 277.815 263.724L275.954 263.334C274.907 263.116 274.133 262.749 273.631 262.233C273.129 261.712 272.881 261.054 272.886 260.259C272.881 259.586 273.063 259.004 273.433 258.511C273.807 258.014 274.325 257.631 274.988 257.361C275.656 257.086 276.425 256.949 277.296 256.949C278.575 256.949 279.581 257.221 280.315 257.766C281.053 258.31 281.51 259.046 281.685 259.974ZM285.624 268.156C285.193 268.156 284.823 268.005 284.516 267.702C284.208 267.399 284.056 267.029 284.061 266.594C284.056 266.168 284.208 265.803 284.516 265.5C284.823 265.197 285.193 265.045 285.624 265.045C286.04 265.045 286.402 265.197 286.71 265.5C287.023 265.803 287.181 266.168 287.186 266.594C287.181 266.883 287.106 267.145 286.959 267.382C286.817 267.619 286.627 267.808 286.391 267.95C286.159 268.088 285.903 268.156 285.624 268.156ZM291.424 268.156C290.993 268.156 290.624 268.005 290.316 267.702C290.009 267.399 289.857 267.029 289.862 266.594C289.857 266.168 290.009 265.803 290.316 265.5C290.624 265.197 290.993 265.045 291.424 265.045C291.841 265.045 292.203 265.197 292.511 265.5C292.824 265.803 292.982 266.168 292.987 266.594C292.982 266.883 292.906 267.145 292.76 267.382C292.618 267.619 292.428 267.808 292.191 267.95C291.959 268.088 291.704 268.156 291.424 268.156ZM297.225 268.156C296.794 268.156 296.425 268.005 296.117 267.702C295.809 267.399 295.658 267.029 295.663 266.594C295.658 266.168 295.809 265.803 296.117 265.5C296.425 265.197 296.794 265.045 297.225 265.045C297.642 265.045 298.004 265.197 298.312 265.5C298.624 265.803 298.783 266.168 298.788 266.594C298.783 266.883 298.707 267.145 298.56 267.382C298.418 267.619 298.229 267.808 297.992 267.95C297.76 268.088 297.504 268.156 297.225 268.156Z" fill="#3F3F3F"/>
    <path d="M151.31 145V123.182H155.263V133.207H155.529L164.041 123.182H168.867L160.43 132.972L168.942 145H164.19L157.681 135.646L155.263 138.501V145H151.31ZM179.398 132.504V135.678H169.575V132.504H179.398ZM183.625 145V123.182H191.806C193.483 123.182 194.889 123.494 196.025 124.119C197.169 124.744 198.032 125.604 198.614 126.697C199.203 127.784 199.498 129.02 199.498 130.405C199.498 131.804 199.203 133.047 198.614 134.134C198.025 135.22 197.154 136.076 196.004 136.701C194.853 137.319 193.436 137.628 191.753 137.628H186.331V134.379H191.221C192.201 134.379 193.003 134.208 193.628 133.867C194.253 133.526 194.715 133.058 195.013 132.461C195.319 131.864 195.471 131.179 195.471 130.405C195.471 129.631 195.319 128.949 195.013 128.359C194.715 127.77 194.25 127.312 193.618 126.985C192.993 126.651 192.186 126.484 191.199 126.484H187.577V145H183.625ZM207.177 145.33C206.14 145.33 205.206 145.146 204.375 144.776C203.551 144.4 202.898 143.846 202.415 143.114C201.939 142.383 201.701 141.481 201.701 140.408C201.701 139.485 201.871 138.722 202.212 138.118C202.553 137.514 203.018 137.031 203.608 136.669C204.197 136.307 204.861 136.033 205.6 135.849C206.346 135.657 207.116 135.518 207.912 135.433C208.871 135.334 209.648 135.245 210.245 135.167C210.841 135.082 211.275 134.954 211.545 134.783C211.822 134.606 211.96 134.332 211.96 133.963V133.899C211.96 133.097 211.722 132.475 211.246 132.035C210.77 131.594 210.085 131.374 209.19 131.374C208.246 131.374 207.496 131.58 206.942 131.992C206.395 132.404 206.026 132.891 205.834 133.452L202.233 132.94C202.518 131.946 202.986 131.115 203.64 130.447C204.293 129.773 205.092 129.268 206.037 128.935C206.981 128.594 208.025 128.423 209.169 128.423C209.957 128.423 210.742 128.516 211.523 128.7C212.305 128.885 213.018 129.19 213.665 129.616C214.311 130.036 214.829 130.607 215.22 131.332C215.618 132.056 215.817 132.962 215.817 134.048V145H212.109V142.752H211.981C211.747 143.207 211.417 143.633 210.991 144.031C210.572 144.421 210.042 144.737 209.403 144.979C208.771 145.213 208.029 145.33 207.177 145.33ZM208.178 142.496C208.952 142.496 209.623 142.344 210.192 142.038C210.76 141.726 211.197 141.314 211.502 140.803C211.814 140.291 211.971 139.734 211.971 139.13V137.202C211.85 137.301 211.644 137.393 211.353 137.479C211.069 137.564 210.749 137.638 210.394 137.702C210.039 137.766 209.687 137.823 209.339 137.873C208.991 137.923 208.689 137.965 208.434 138.001C207.858 138.079 207.344 138.207 206.889 138.384C206.434 138.562 206.076 138.81 205.813 139.13C205.55 139.442 205.419 139.847 205.419 140.344C205.419 141.055 205.678 141.591 206.197 141.953C206.715 142.315 207.376 142.496 208.178 142.496ZM219.694 145V128.636H223.434V131.364H223.604C223.903 130.419 224.414 129.691 225.138 129.18C225.87 128.661 226.704 128.402 227.642 128.402C227.855 128.402 228.093 128.413 228.356 128.434C228.626 128.448 228.849 128.473 229.027 128.509V132.056C228.863 131.999 228.604 131.95 228.249 131.907C227.901 131.857 227.564 131.832 227.237 131.832C226.534 131.832 225.902 131.985 225.341 132.29C224.787 132.589 224.35 133.004 224.03 133.537C223.711 134.07 223.551 134.684 223.551 135.38V145H219.694ZM240.639 128.636V131.619H231.232V128.636H240.639ZM233.555 124.716H237.411V140.078C237.411 140.597 237.489 140.994 237.645 141.271C237.809 141.541 238.022 141.726 238.285 141.825C238.547 141.925 238.839 141.974 239.158 141.974C239.4 141.974 239.62 141.957 239.819 141.921C240.025 141.886 240.181 141.854 240.287 141.825L240.937 144.84C240.731 144.911 240.437 144.989 240.053 145.075C239.677 145.16 239.215 145.21 238.668 145.224C237.702 145.252 236.832 145.107 236.058 144.787C235.284 144.46 234.67 143.956 234.215 143.274C233.768 142.592 233.547 141.74 233.555 140.717V124.716ZM247.721 135.412V145H243.864V128.636H247.55V131.417H247.742C248.119 130.501 248.719 129.773 249.543 129.233C250.374 128.693 251.4 128.423 252.621 128.423C253.751 128.423 254.734 128.665 255.572 129.148C256.418 129.631 257.071 130.33 257.533 131.246C258.001 132.163 258.232 133.274 258.225 134.581V145H254.369V135.178C254.369 134.084 254.085 133.228 253.516 132.61C252.955 131.992 252.178 131.683 251.183 131.683C250.509 131.683 249.908 131.832 249.383 132.131C248.864 132.422 248.456 132.844 248.158 133.398C247.866 133.952 247.721 134.624 247.721 135.412ZM269.39 145.32C267.749 145.32 266.332 144.979 265.139 144.297C263.953 143.608 263.04 142.635 262.401 141.378C261.762 140.114 261.442 138.626 261.442 136.914C261.442 135.231 261.762 133.754 262.401 132.482C263.048 131.204 263.95 130.21 265.107 129.499C266.265 128.782 267.625 128.423 269.188 128.423C270.196 128.423 271.148 128.587 272.043 128.913C272.945 129.233 273.74 129.73 274.429 130.405C275.125 131.08 275.672 131.939 276.07 132.983C276.467 134.02 276.666 135.256 276.666 136.69V137.873H263.254V135.273H272.969C272.962 134.535 272.803 133.878 272.49 133.303C272.178 132.72 271.741 132.262 271.18 131.928C270.626 131.594 269.979 131.428 269.241 131.428C268.452 131.428 267.76 131.619 267.163 132.003C266.567 132.379 266.102 132.876 265.768 133.494C265.441 134.105 265.274 134.776 265.267 135.508V137.777C265.267 138.729 265.441 139.545 265.789 140.227C266.137 140.902 266.624 141.42 267.249 141.783C267.874 142.138 268.605 142.315 269.443 142.315C270.004 142.315 270.512 142.237 270.967 142.081C271.421 141.918 271.815 141.68 272.149 141.367C272.483 141.055 272.735 140.668 272.906 140.206L276.506 140.611C276.279 141.562 275.846 142.393 275.207 143.104C274.575 143.807 273.765 144.354 272.778 144.744C271.79 145.128 270.661 145.32 269.39 145.32ZM279.929 145V128.636H283.668V131.364H283.839C284.137 130.419 284.648 129.691 285.373 129.18C286.104 128.661 286.939 128.402 287.876 128.402C288.089 128.402 288.327 128.413 288.59 128.434C288.86 128.448 289.084 128.473 289.261 128.509V132.056C289.098 131.999 288.839 131.95 288.483 131.907C288.135 131.857 287.798 131.832 287.471 131.832C286.768 131.832 286.136 131.985 285.575 132.29C285.021 132.589 284.584 133.004 284.265 133.537C283.945 134.07 283.785 134.684 283.785 135.38V145H279.929Z" fill="#2C2C2C"/>
</svg>
