<svg width="494" height="336" viewBox="0 0 494 336" fill="none" xmlns="http://www.w3.org/2000/svg">
<rect width="494" height="336" rx="50" fill="white"/>
<circle opacity="0.5" cx="251" cy="168" r="125" fill="#0E538C"/>
<circle opacity="0.5" cx="301" cy="145" r="125" fill="#0E538C"/>
<path d="M137.843 151V136.455H147.303V138.663H140.478V142.612H146.813V144.821H140.478V148.791H147.36V151H137.843ZM152.449 144.608V151H149.878V140.091H152.335V141.945H152.463C152.714 141.334 153.114 140.848 153.663 140.489C154.217 140.129 154.901 139.949 155.716 139.949C156.469 139.949 157.124 140.11 157.683 140.432C158.247 140.754 158.682 141.22 158.99 141.831C159.302 142.442 159.456 143.183 159.452 144.054V151H156.881V144.452C156.881 143.723 156.691 143.152 156.312 142.74C155.938 142.328 155.42 142.122 154.757 142.122C154.307 142.122 153.907 142.222 153.557 142.42C153.211 142.615 152.939 142.896 152.74 143.266C152.546 143.635 152.449 144.082 152.449 144.608ZM167.513 140.091V142.08H161.241V140.091H167.513ZM162.79 137.477H165.361V147.719C165.361 148.064 165.413 148.33 165.517 148.514C165.626 148.694 165.768 148.817 165.943 148.884C166.118 148.95 166.312 148.983 166.525 148.983C166.686 148.983 166.833 148.971 166.966 148.947C167.103 148.924 167.207 148.902 167.278 148.884L167.711 150.893C167.574 150.941 167.378 150.993 167.122 151.05C166.871 151.107 166.563 151.14 166.199 151.149C165.555 151.168 164.975 151.071 164.459 150.858C163.943 150.64 163.533 150.304 163.23 149.849C162.932 149.395 162.785 148.827 162.79 148.145V137.477ZM169.663 151V140.091H172.156V141.909H172.269C172.468 141.279 172.809 140.794 173.292 140.453C173.78 140.107 174.336 139.935 174.961 139.935C175.103 139.935 175.262 139.942 175.437 139.956C175.617 139.965 175.766 139.982 175.884 140.006V142.371C175.776 142.333 175.603 142.3 175.366 142.271C175.134 142.238 174.909 142.222 174.691 142.222C174.222 142.222 173.801 142.323 173.427 142.527C173.058 142.726 172.767 143.003 172.553 143.358C172.34 143.713 172.234 144.123 172.234 144.587V151H169.663ZM181.973 151.213C180.879 151.213 179.934 150.986 179.139 150.531C178.348 150.072 177.74 149.423 177.314 148.585C176.888 147.742 176.675 146.75 176.675 145.609C176.675 144.487 176.888 143.502 177.314 142.655C177.745 141.803 178.346 141.14 179.118 140.666C179.89 140.188 180.796 139.949 181.838 139.949C182.51 139.949 183.145 140.058 183.741 140.276C184.343 140.489 184.873 140.82 185.332 141.27C185.796 141.72 186.161 142.293 186.426 142.989C186.691 143.68 186.824 144.504 186.824 145.46V146.249H177.882V144.516H184.359C184.354 144.023 184.248 143.585 184.04 143.202C183.831 142.813 183.54 142.508 183.166 142.286C182.797 142.063 182.366 141.952 181.873 141.952C181.348 141.952 180.886 142.08 180.488 142.335C180.091 142.586 179.781 142.918 179.558 143.33C179.34 143.737 179.229 144.184 179.224 144.672V146.185C179.224 146.819 179.34 147.364 179.572 147.818C179.804 148.268 180.129 148.614 180.545 148.855C180.962 149.092 181.45 149.21 182.008 149.21C182.382 149.21 182.721 149.158 183.024 149.054C183.327 148.945 183.59 148.786 183.812 148.578C184.035 148.37 184.203 148.112 184.317 147.804L186.717 148.074C186.566 148.708 186.277 149.262 185.851 149.736C185.429 150.205 184.89 150.569 184.231 150.83C183.573 151.085 182.82 151.213 181.973 151.213ZM188.999 155.091V140.091H191.527V141.895H191.676C191.809 141.63 191.996 141.348 192.237 141.05C192.479 140.747 192.806 140.489 193.218 140.276C193.629 140.058 194.155 139.949 194.794 139.949C195.637 139.949 196.397 140.164 197.074 140.595C197.756 141.021 198.296 141.653 198.693 142.491C199.096 143.325 199.297 144.348 199.297 145.56C199.297 146.758 199.101 147.776 198.708 148.614C198.315 149.452 197.78 150.091 197.102 150.531C196.425 150.972 195.658 151.192 194.801 151.192C194.176 151.192 193.658 151.088 193.246 150.879C192.834 150.671 192.503 150.42 192.252 150.126C192.005 149.828 191.814 149.546 191.676 149.281H191.57V155.091H188.999ZM191.52 145.545C191.52 146.251 191.619 146.869 191.818 147.399C192.022 147.929 192.313 148.344 192.692 148.642C193.075 148.936 193.539 149.082 194.084 149.082C194.652 149.082 195.128 148.931 195.512 148.628C195.895 148.32 196.184 147.901 196.378 147.371C196.577 146.836 196.676 146.227 196.676 145.545C196.676 144.868 196.579 144.267 196.385 143.741C196.191 143.216 195.902 142.804 195.519 142.506C195.135 142.207 194.657 142.058 194.084 142.058C193.535 142.058 193.068 142.203 192.685 142.491C192.301 142.78 192.01 143.185 191.811 143.706C191.617 144.227 191.52 144.84 191.52 145.545ZM201.499 151V140.091H203.992V141.909H204.105C204.304 141.279 204.645 140.794 205.128 140.453C205.616 140.107 206.172 139.935 206.797 139.935C206.939 139.935 207.098 139.942 207.273 139.956C207.453 139.965 207.602 139.982 207.72 140.006V142.371C207.611 142.333 207.439 142.3 207.202 142.271C206.97 142.238 206.745 142.222 206.527 142.222C206.058 142.222 205.637 142.323 205.263 142.527C204.894 142.726 204.602 143.003 204.389 143.358C204.176 143.713 204.07 144.123 204.07 144.587V151H201.499ZM209.428 151V140.091H211.999V151H209.428ZM210.721 138.543C210.314 138.543 209.963 138.408 209.67 138.138C209.376 137.863 209.23 137.534 209.23 137.151C209.23 136.762 209.376 136.433 209.67 136.163C209.963 135.889 210.314 135.751 210.721 135.751C211.133 135.751 211.483 135.889 211.772 136.163C212.066 136.433 212.213 136.762 212.213 137.151C212.213 137.534 212.066 137.863 211.772 138.138C211.483 138.408 211.133 138.543 210.721 138.543ZM223.265 142.974L220.922 143.23C220.855 142.993 220.739 142.771 220.574 142.562C220.413 142.354 220.195 142.186 219.92 142.058C219.646 141.93 219.309 141.866 218.912 141.866C218.377 141.866 217.927 141.982 217.562 142.214C217.202 142.446 217.025 142.747 217.03 143.116C217.025 143.434 217.141 143.692 217.378 143.891C217.619 144.089 218.017 144.253 218.571 144.381L220.432 144.778C221.464 145.001 222.231 145.354 222.733 145.837C223.239 146.32 223.495 146.952 223.5 147.733C223.495 148.42 223.294 149.026 222.896 149.551C222.503 150.072 221.956 150.479 221.256 150.773C220.555 151.066 219.75 151.213 218.841 151.213C217.506 151.213 216.431 150.934 215.616 150.375C214.802 149.812 214.317 149.028 214.16 148.024L216.667 147.783C216.781 148.275 217.023 148.647 217.392 148.898C217.761 149.149 218.242 149.274 218.834 149.274C219.444 149.274 219.934 149.149 220.304 148.898C220.678 148.647 220.865 148.337 220.865 147.967C220.865 147.655 220.744 147.397 220.503 147.193C220.266 146.99 219.897 146.833 219.395 146.724L217.534 146.334C216.488 146.116 215.713 145.749 215.211 145.233C214.71 144.712 214.461 144.054 214.466 143.259C214.461 142.586 214.643 142.004 215.013 141.511C215.387 141.014 215.905 140.631 216.568 140.361C217.236 140.086 218.005 139.949 218.876 139.949C220.155 139.949 221.161 140.221 221.895 140.766C222.633 141.31 223.09 142.046 223.265 142.974ZM230.449 151.213C229.356 151.213 228.411 150.986 227.616 150.531C226.825 150.072 226.216 149.423 225.79 148.585C225.364 147.742 225.151 146.75 225.151 145.609C225.151 144.487 225.364 143.502 225.79 142.655C226.221 141.803 226.823 141.14 227.594 140.666C228.366 140.188 229.273 139.949 230.314 139.949C230.987 139.949 231.621 140.058 232.218 140.276C232.819 140.489 233.349 140.82 233.809 141.27C234.273 141.72 234.637 142.293 234.903 142.989C235.168 143.68 235.3 144.504 235.3 145.46V146.249H226.358V144.516H232.836C232.831 144.023 232.724 143.585 232.516 143.202C232.308 142.813 232.017 142.508 231.643 142.286C231.273 142.063 230.842 141.952 230.35 141.952C229.824 141.952 229.363 142.08 228.965 142.335C228.567 142.586 228.257 142.918 228.035 143.33C227.817 143.737 227.706 144.184 227.701 144.672V146.185C227.701 146.819 227.817 147.364 228.049 147.818C228.281 148.268 228.605 148.614 229.022 148.855C229.439 149.092 229.926 149.21 230.485 149.21C230.859 149.21 231.198 149.158 231.501 149.054C231.804 148.945 232.066 148.786 232.289 148.578C232.511 148.37 232.68 148.112 232.793 147.804L235.194 148.074C235.042 148.708 234.753 149.262 234.327 149.736C233.906 150.205 233.366 150.569 232.708 150.83C232.05 151.085 231.297 151.213 230.449 151.213ZM242.436 151V140.091H245.007V151H242.436ZM243.729 138.543C243.322 138.543 242.971 138.408 242.678 138.138C242.384 137.863 242.237 137.534 242.237 137.151C242.237 136.762 242.384 136.433 242.678 136.163C242.971 135.889 243.322 135.751 243.729 135.751C244.141 135.751 244.491 135.889 244.78 136.163C245.074 136.433 245.22 136.762 245.22 137.151C245.22 137.534 245.074 137.863 244.78 138.138C244.491 138.408 244.141 138.543 243.729 138.543ZM250.222 144.608V151H247.651V140.091H250.108V141.945H250.236C250.487 141.334 250.887 140.848 251.437 140.489C251.991 140.129 252.675 139.949 253.489 139.949C254.242 139.949 254.898 140.11 255.456 140.432C256.02 140.754 256.456 141.22 256.763 141.831C257.076 142.442 257.23 143.183 257.225 144.054V151H254.654V144.452C254.654 143.723 254.465 143.152 254.086 142.74C253.712 142.328 253.193 142.122 252.53 142.122C252.081 142.122 251.68 142.222 251.33 142.42C250.984 142.615 250.712 142.896 250.513 143.266C250.319 143.635 250.222 144.082 250.222 144.608ZM263.887 151.192C263.03 151.192 262.263 150.972 261.586 150.531C260.909 150.091 260.374 149.452 259.981 148.614C259.588 147.776 259.391 146.758 259.391 145.56C259.391 144.348 259.59 143.325 259.988 142.491C260.39 141.653 260.932 141.021 261.614 140.595C262.296 140.164 263.056 139.949 263.894 139.949C264.533 139.949 265.059 140.058 265.471 140.276C265.883 140.489 266.209 140.747 266.451 141.05C266.692 141.348 266.879 141.63 267.012 141.895H267.118V136.455H269.697V151H267.168V149.281H267.012C266.879 149.546 266.688 149.828 266.437 150.126C266.186 150.42 265.854 150.671 265.442 150.879C265.03 151.088 264.512 151.192 263.887 151.192ZM264.604 149.082C265.149 149.082 265.613 148.936 265.996 148.642C266.38 148.344 266.671 147.929 266.87 147.399C267.069 146.869 267.168 146.251 267.168 145.545C267.168 144.84 267.069 144.227 266.87 143.706C266.676 143.185 266.387 142.78 266.003 142.491C265.625 142.203 265.158 142.058 264.604 142.058C264.031 142.058 263.553 142.207 263.17 142.506C262.786 142.804 262.497 143.216 262.303 143.741C262.109 144.267 262.012 144.868 262.012 145.545C262.012 146.227 262.109 146.836 262.303 147.371C262.502 147.901 262.793 148.32 263.177 148.628C263.565 148.931 264.041 149.082 264.604 149.082ZM279.389 146.412V140.091H281.96V151H279.468V149.061H279.354C279.108 149.672 278.703 150.171 278.139 150.56C277.581 150.948 276.892 151.142 276.073 151.142C275.358 151.142 274.726 150.983 274.176 150.666C273.632 150.344 273.206 149.878 272.898 149.267C272.59 148.652 272.436 147.908 272.436 147.037V140.091H275.007V146.639C275.007 147.33 275.197 147.88 275.575 148.287C275.954 148.694 276.451 148.898 277.067 148.898C277.446 148.898 277.813 148.805 278.168 148.621C278.523 148.436 278.814 148.161 279.041 147.797C279.273 147.428 279.389 146.966 279.389 146.412ZM293.226 142.974L290.883 143.23C290.816 142.993 290.7 142.771 290.535 142.562C290.374 142.354 290.156 142.186 289.881 142.058C289.607 141.93 289.27 141.866 288.873 141.866C288.338 141.866 287.888 141.982 287.523 142.214C287.163 142.446 286.986 142.747 286.991 143.116C286.986 143.434 287.102 143.692 287.339 143.891C287.58 144.089 287.978 144.253 288.532 144.381L290.393 144.778C291.425 145.001 292.192 145.354 292.694 145.837C293.2 146.32 293.456 146.952 293.461 147.733C293.456 148.42 293.255 149.026 292.857 149.551C292.464 150.072 291.917 150.479 291.216 150.773C290.516 151.066 289.711 151.213 288.802 151.213C287.466 151.213 286.392 150.934 285.577 150.375C284.763 149.812 284.278 149.028 284.121 148.024L286.628 147.783C286.742 148.275 286.983 148.647 287.353 148.898C287.722 149.149 288.203 149.274 288.795 149.274C289.405 149.274 289.895 149.149 290.265 148.898C290.639 148.647 290.826 148.337 290.826 147.967C290.826 147.655 290.705 147.397 290.464 147.193C290.227 146.99 289.858 146.833 289.356 146.724L287.495 146.334C286.448 146.116 285.674 145.749 285.172 145.233C284.671 144.712 284.422 144.054 284.427 143.259C284.422 142.586 284.604 142.004 284.974 141.511C285.348 141.014 285.866 140.631 286.529 140.361C287.197 140.086 287.966 139.949 288.837 139.949C290.116 139.949 291.122 140.221 291.856 140.766C292.594 141.31 293.051 142.046 293.226 142.974ZM301.028 140.091V142.08H294.757V140.091H301.028ZM296.305 137.477H298.876V147.719C298.876 148.064 298.928 148.33 299.032 148.514C299.141 148.694 299.283 148.817 299.459 148.884C299.634 148.95 299.828 148.983 300.041 148.983C300.202 148.983 300.349 148.971 300.481 148.947C300.619 148.924 300.723 148.902 300.794 148.884L301.227 150.893C301.09 150.941 300.893 150.993 300.638 151.05C300.387 151.107 300.079 151.14 299.714 151.149C299.07 151.168 298.49 151.071 297.974 150.858C297.458 150.64 297.049 150.304 296.746 149.849C296.447 149.395 296.3 148.827 296.305 148.145V137.477ZM303.178 151V140.091H305.671V141.909H305.785C305.984 141.279 306.325 140.794 306.808 140.453C307.295 140.107 307.852 139.935 308.477 139.935C308.619 139.935 308.777 139.942 308.953 139.956C309.133 139.965 309.282 139.982 309.4 140.006V142.371C309.291 142.333 309.118 142.3 308.882 142.271C308.65 142.238 308.425 142.222 308.207 142.222C307.738 142.222 307.317 142.323 306.943 142.527C306.573 142.726 306.282 143.003 306.069 143.358C305.856 143.713 305.749 144.123 305.749 144.587V151H303.178ZM311.108 151V140.091H313.679V151H311.108ZM312.401 138.543C311.994 138.543 311.643 138.408 311.35 138.138C311.056 137.863 310.909 137.534 310.909 137.151C310.909 136.762 311.056 136.433 311.35 136.163C311.643 135.889 311.994 135.751 312.401 135.751C312.813 135.751 313.163 135.889 313.452 136.163C313.745 136.433 313.892 136.762 313.892 137.151C313.892 137.534 313.745 137.863 313.452 138.138C313.163 138.408 312.813 138.543 312.401 138.543ZM321.153 151.213C320.059 151.213 319.114 150.986 318.319 150.531C317.528 150.072 316.92 149.423 316.493 148.585C316.067 147.742 315.854 146.75 315.854 145.609C315.854 144.487 316.067 143.502 316.493 142.655C316.924 141.803 317.526 141.14 318.297 140.666C319.069 140.188 319.976 139.949 321.018 139.949C321.69 139.949 322.324 140.058 322.921 140.276C323.522 140.489 324.053 140.82 324.512 141.27C324.976 141.72 325.34 142.293 325.606 142.989C325.871 143.68 326.003 144.504 326.003 145.46V146.249H317.062V144.516H323.539C323.534 144.023 323.428 143.585 323.219 143.202C323.011 142.813 322.72 142.508 322.346 142.286C321.976 142.063 321.546 141.952 321.053 141.952C320.528 141.952 320.066 142.08 319.668 142.335C319.27 142.586 318.96 142.918 318.738 143.33C318.52 143.737 318.409 144.184 318.404 144.672V146.185C318.404 146.819 318.52 147.364 318.752 147.818C318.984 148.268 319.308 148.614 319.725 148.855C320.142 149.092 320.629 149.21 321.188 149.21C321.562 149.21 321.901 149.158 322.204 149.054C322.507 148.945 322.769 148.786 322.992 148.578C323.215 148.37 323.383 148.112 323.496 147.804L325.897 148.074C325.745 148.708 325.456 149.262 325.03 149.736C324.609 150.205 324.069 150.569 323.411 150.83C322.753 151.085 322 151.213 321.153 151.213ZM330.749 136.455V151H328.178V136.455H330.749ZM335.964 136.455V151H333.393V136.455H335.964ZM343.438 151.213C342.344 151.213 341.399 150.986 340.604 150.531C339.813 150.072 339.205 149.423 338.779 148.585C338.352 147.742 338.139 146.75 338.139 145.609C338.139 144.487 338.352 143.502 338.779 142.655C339.209 141.803 339.811 141.14 340.583 140.666C341.354 140.188 342.261 139.949 343.303 139.949C343.975 139.949 344.61 140.058 345.206 140.276C345.807 140.489 346.338 140.82 346.797 141.27C347.261 141.72 347.626 142.293 347.891 142.989C348.156 143.68 348.289 144.504 348.289 145.46V146.249H339.347V144.516H345.824C345.819 144.023 345.713 143.585 345.504 143.202C345.296 142.813 345.005 142.508 344.631 142.286C344.262 142.063 343.831 141.952 343.338 141.952C342.813 141.952 342.351 142.08 341.953 142.335C341.556 142.586 341.245 142.918 341.023 143.33C340.805 143.737 340.694 144.184 340.689 144.672V146.185C340.689 146.819 340.805 147.364 341.037 147.818C341.269 148.268 341.593 148.614 342.01 148.855C342.427 149.092 342.914 149.21 343.473 149.21C343.847 149.21 344.186 149.158 344.489 149.054C344.792 148.945 345.055 148.786 345.277 148.578C345.5 148.37 345.668 148.112 345.781 147.804L348.182 148.074C348.03 148.708 347.742 149.262 347.316 149.736C346.894 150.205 346.354 150.569 345.696 150.83C345.038 151.085 344.285 151.213 343.438 151.213ZM353.482 149.011L353.39 149.793C353.323 150.389 353.205 150.995 353.035 151.611C352.869 152.231 352.694 152.802 352.509 153.322C352.324 153.843 352.175 154.253 352.062 154.551H350.329C350.395 154.262 350.485 153.869 350.599 153.372C350.717 152.875 350.831 152.316 350.939 151.696C351.048 151.076 351.122 150.446 351.16 149.807L351.209 149.011H353.482ZM122.386 179.318C121.462 179.318 120.669 179.193 120.006 178.942C119.344 178.696 118.811 178.364 118.408 177.947C118.006 177.531 117.727 177.069 117.57 176.562L119.886 176.001C119.99 176.214 120.141 176.425 120.34 176.634C120.539 176.847 120.807 177.022 121.143 177.159C121.484 177.301 121.912 177.372 122.428 177.372C123.157 177.372 123.761 177.195 124.239 176.839C124.718 176.489 124.957 175.911 124.957 175.107V173.04H124.829C124.696 173.305 124.502 173.577 124.246 173.857C123.996 174.136 123.662 174.37 123.245 174.56C122.833 174.749 122.315 174.844 121.69 174.844C120.852 174.844 120.092 174.647 119.41 174.254C118.733 173.857 118.193 173.265 117.79 172.479C117.393 171.688 117.194 170.698 117.194 169.51C117.194 168.312 117.393 167.301 117.79 166.477C118.193 165.649 118.735 165.021 119.417 164.595C120.099 164.164 120.859 163.949 121.697 163.949C122.336 163.949 122.862 164.058 123.273 164.276C123.69 164.489 124.022 164.747 124.268 165.05C124.514 165.348 124.701 165.63 124.829 165.895H124.971V164.091H127.506V175.178C127.506 176.11 127.284 176.882 126.839 177.493C126.394 178.104 125.785 178.561 125.013 178.864C124.242 179.167 123.366 179.318 122.386 179.318ZM122.407 172.827C122.951 172.827 123.415 172.694 123.799 172.429C124.183 172.164 124.474 171.783 124.673 171.286C124.871 170.788 124.971 170.192 124.971 169.496C124.971 168.809 124.871 168.208 124.673 167.692C124.478 167.176 124.19 166.776 123.806 166.491C123.427 166.203 122.961 166.058 122.407 166.058C121.834 166.058 121.356 166.207 120.972 166.506C120.589 166.804 120.3 167.214 120.106 167.734C119.912 168.25 119.815 168.838 119.815 169.496C119.815 170.163 119.912 170.748 120.106 171.25C120.305 171.747 120.596 172.135 120.979 172.415C121.368 172.689 121.844 172.827 122.407 172.827ZM130.141 175V164.091H132.634V165.909H132.748C132.947 165.279 133.288 164.794 133.771 164.453C134.258 164.107 134.815 163.935 135.44 163.935C135.582 163.935 135.74 163.942 135.915 163.956C136.095 163.965 136.245 163.982 136.363 164.006V166.371C136.254 166.333 136.081 166.3 135.844 166.271C135.612 166.238 135.388 166.222 135.17 166.222C134.701 166.222 134.28 166.323 133.906 166.527C133.536 166.726 133.245 167.003 133.032 167.358C132.819 167.713 132.712 168.123 132.712 168.587V175H130.141ZM141.015 175.22C140.324 175.22 139.701 175.097 139.147 174.851C138.598 174.6 138.162 174.231 137.84 173.743C137.523 173.255 137.364 172.654 137.364 171.939C137.364 171.323 137.478 170.814 137.705 170.412C137.933 170.009 138.243 169.688 138.636 169.446C139.029 169.205 139.471 169.022 139.964 168.899C140.461 168.771 140.975 168.679 141.505 168.622C142.144 168.556 142.663 168.497 143.06 168.445C143.458 168.388 143.747 168.303 143.927 168.189C144.112 168.071 144.204 167.888 144.204 167.642V167.599C144.204 167.064 144.045 166.65 143.728 166.357C143.411 166.063 142.954 165.916 142.357 165.916C141.728 165.916 141.228 166.054 140.859 166.328C140.494 166.603 140.248 166.927 140.12 167.301L137.719 166.96C137.909 166.297 138.221 165.743 138.657 165.298C139.093 164.848 139.625 164.512 140.255 164.29C140.885 164.062 141.581 163.949 142.343 163.949C142.869 163.949 143.392 164.01 143.913 164.134C144.433 164.257 144.909 164.46 145.34 164.744C145.771 165.024 146.117 165.405 146.377 165.888C146.642 166.371 146.775 166.974 146.775 167.699V175H144.303V173.501H144.218C144.062 173.804 143.842 174.089 143.558 174.354C143.278 174.614 142.925 174.825 142.499 174.986C142.078 175.142 141.583 175.22 141.015 175.22ZM141.683 173.331C142.199 173.331 142.646 173.229 143.025 173.026C143.404 172.817 143.695 172.543 143.898 172.202C144.107 171.861 144.211 171.489 144.211 171.087V169.801C144.13 169.867 143.993 169.929 143.799 169.986C143.61 170.043 143.397 170.092 143.16 170.135C142.923 170.178 142.689 170.215 142.457 170.249C142.225 170.282 142.023 170.31 141.853 170.334C141.469 170.386 141.126 170.471 140.823 170.589C140.52 170.708 140.281 170.874 140.106 171.087C139.931 171.295 139.843 171.565 139.843 171.896C139.843 172.37 140.016 172.727 140.362 172.969C140.707 173.21 141.147 173.331 141.683 173.331ZM151.931 168.608V175H149.36V164.091H151.817V165.945H151.945C152.196 165.334 152.596 164.848 153.146 164.489C153.7 164.129 154.384 163.949 155.198 163.949C155.951 163.949 156.607 164.11 157.165 164.432C157.729 164.754 158.165 165.22 158.472 165.831C158.785 166.442 158.939 167.183 158.934 168.054V175H156.363V168.452C156.363 167.723 156.174 167.152 155.795 166.74C155.421 166.328 154.902 166.122 154.239 166.122C153.79 166.122 153.389 166.222 153.039 166.42C152.693 166.615 152.421 166.896 152.222 167.266C152.028 167.635 151.931 168.082 151.931 168.608ZM165.596 175.192C164.739 175.192 163.972 174.972 163.295 174.531C162.618 174.091 162.083 173.452 161.69 172.614C161.297 171.776 161.1 170.758 161.1 169.56C161.1 168.348 161.299 167.325 161.697 166.491C162.099 165.653 162.641 165.021 163.323 164.595C164.005 164.164 164.765 163.949 165.603 163.949C166.242 163.949 166.768 164.058 167.18 164.276C167.592 164.489 167.918 164.747 168.16 165.05C168.401 165.348 168.588 165.63 168.721 165.895H168.827V160.455H171.406V175H168.877V173.281H168.721C168.588 173.546 168.397 173.828 168.146 174.126C167.895 174.42 167.563 174.671 167.151 174.879C166.739 175.088 166.221 175.192 165.596 175.192ZM166.313 173.082C166.858 173.082 167.322 172.936 167.705 172.642C168.089 172.344 168.38 171.929 168.579 171.399C168.778 170.869 168.877 170.251 168.877 169.545C168.877 168.84 168.778 168.227 168.579 167.706C168.385 167.185 168.096 166.78 167.712 166.491C167.334 166.203 166.867 166.058 166.313 166.058C165.74 166.058 165.262 166.207 164.879 166.506C164.495 166.804 164.206 167.216 164.012 167.741C163.818 168.267 163.721 168.868 163.721 169.545C163.721 170.227 163.818 170.836 164.012 171.371C164.211 171.901 164.502 172.32 164.886 172.628C165.274 172.931 165.75 173.082 166.313 173.082ZM183.865 175.213C182.776 175.213 181.841 174.974 181.059 174.496C180.283 174.018 179.684 173.357 179.262 172.514C178.846 171.667 178.637 170.691 178.637 169.588C178.637 168.48 178.85 167.502 179.277 166.655C179.703 165.803 180.304 165.14 181.081 164.666C181.862 164.188 182.785 163.949 183.85 163.949C184.736 163.949 185.52 164.112 186.201 164.439C186.888 164.761 187.435 165.218 187.842 165.81C188.249 166.397 188.481 167.083 188.538 167.869H186.081C185.981 167.344 185.744 166.906 185.37 166.555C185.001 166.2 184.506 166.023 183.886 166.023C183.36 166.023 182.899 166.165 182.501 166.449C182.103 166.728 181.793 167.131 181.571 167.656C181.353 168.182 181.244 168.812 181.244 169.545C181.244 170.289 181.353 170.928 181.571 171.463C181.788 171.993 182.094 172.403 182.487 172.692C182.885 172.976 183.351 173.118 183.886 173.118C184.265 173.118 184.603 173.047 184.902 172.905C185.205 172.758 185.458 172.547 185.662 172.273C185.865 171.998 186.005 171.664 186.081 171.271H188.538C188.476 172.043 188.249 172.727 187.856 173.324C187.463 173.916 186.928 174.38 186.251 174.716C185.574 175.047 184.779 175.213 183.865 175.213ZM195.408 175.213C194.342 175.213 193.419 174.979 192.638 174.51C191.857 174.041 191.25 173.385 190.82 172.543C190.393 171.7 190.18 170.715 190.18 169.588C190.18 168.461 190.393 167.474 190.82 166.626C191.25 165.779 191.857 165.121 192.638 164.652C193.419 164.183 194.342 163.949 195.408 163.949C196.473 163.949 197.396 164.183 198.178 164.652C198.959 165.121 199.563 165.779 199.989 166.626C200.42 167.474 200.635 168.461 200.635 169.588C200.635 170.715 200.42 171.7 199.989 172.543C199.563 173.385 198.959 174.041 198.178 174.51C197.396 174.979 196.473 175.213 195.408 175.213ZM195.422 173.153C196 173.153 196.482 172.995 196.871 172.678C197.259 172.356 197.548 171.925 197.737 171.385C197.931 170.845 198.028 170.244 198.028 169.581C198.028 168.913 197.931 168.31 197.737 167.77C197.548 167.225 197.259 166.792 196.871 166.47C196.482 166.148 196 165.987 195.422 165.987C194.83 165.987 194.338 166.148 193.945 166.47C193.556 166.792 193.265 167.225 193.071 167.77C192.882 168.31 192.787 168.913 192.787 169.581C192.787 170.244 192.882 170.845 193.071 171.385C193.265 171.925 193.556 172.356 193.945 172.678C194.338 172.995 194.83 173.153 195.422 173.153ZM202.817 175V164.091H205.275V165.945H205.402C205.63 165.32 206.006 164.832 206.532 164.482C207.057 164.126 207.685 163.949 208.414 163.949C209.152 163.949 209.775 164.129 210.282 164.489C210.793 164.844 211.153 165.329 211.361 165.945H211.475C211.716 165.339 212.123 164.856 212.696 164.496C213.274 164.131 213.958 163.949 214.749 163.949C215.753 163.949 216.572 164.266 217.206 164.901C217.841 165.535 218.158 166.461 218.158 167.678V175H215.58V168.075C215.58 167.398 215.4 166.903 215.04 166.591C214.68 166.274 214.24 166.115 213.719 166.115C213.099 166.115 212.614 166.309 212.263 166.697C211.917 167.081 211.745 167.58 211.745 168.196V175H209.223V167.969C209.223 167.405 209.053 166.955 208.712 166.619C208.376 166.283 207.935 166.115 207.391 166.115C207.022 166.115 206.685 166.21 206.382 166.399C206.079 166.584 205.838 166.847 205.658 167.188C205.478 167.524 205.388 167.917 205.388 168.366V175H202.817ZM220.766 179.091V164.091H223.295V165.895H223.444C223.576 165.63 223.763 165.348 224.005 165.05C224.246 164.747 224.573 164.489 224.985 164.276C225.397 164.058 225.923 163.949 226.562 163.949C227.405 163.949 228.165 164.164 228.842 164.595C229.523 165.021 230.063 165.653 230.461 166.491C230.863 167.325 231.065 168.348 231.065 169.56C231.065 170.758 230.868 171.776 230.475 172.614C230.082 173.452 229.547 174.091 228.87 174.531C228.193 174.972 227.426 175.192 226.569 175.192C225.944 175.192 225.425 175.088 225.013 174.879C224.602 174.671 224.27 174.42 224.019 174.126C223.773 173.828 223.581 173.546 223.444 173.281H223.337V179.091H220.766ZM223.288 169.545C223.288 170.251 223.387 170.869 223.586 171.399C223.79 171.929 224.081 172.344 224.46 172.642C224.843 172.936 225.307 173.082 225.852 173.082C226.42 173.082 226.896 172.931 227.279 172.628C227.663 172.32 227.951 171.901 228.146 171.371C228.344 170.836 228.444 170.227 228.444 169.545C228.444 168.868 228.347 168.267 228.153 167.741C227.959 167.216 227.67 166.804 227.286 166.506C226.903 166.207 226.424 166.058 225.852 166.058C225.302 166.058 224.836 166.203 224.452 166.491C224.069 166.78 223.778 167.185 223.579 167.706C223.385 168.227 223.288 168.84 223.288 169.545ZM238.714 164.091V166.08H232.442V164.091H238.714ZM233.991 161.477H236.562V171.719C236.562 172.064 236.614 172.33 236.718 172.514C236.827 172.694 236.969 172.817 237.144 172.884C237.319 172.95 237.513 172.983 237.727 172.983C237.888 172.983 238.034 172.971 238.167 172.947C238.304 172.924 238.408 172.902 238.479 172.884L238.913 174.893C238.775 174.941 238.579 174.993 238.323 175.05C238.072 175.107 237.764 175.14 237.4 175.149C236.756 175.168 236.176 175.071 235.66 174.858C235.144 174.64 234.734 174.304 234.431 173.849C234.133 173.395 233.986 172.827 233.991 172.145V161.477ZM245.576 175.213C244.483 175.213 243.538 174.986 242.743 174.531C241.952 174.072 241.343 173.423 240.917 172.585C240.491 171.742 240.278 170.75 240.278 169.609C240.278 168.487 240.491 167.502 240.917 166.655C241.348 165.803 241.949 165.14 242.721 164.666C243.493 164.188 244.4 163.949 245.441 163.949C246.114 163.949 246.748 164.058 247.345 164.276C247.946 164.489 248.476 164.82 248.936 165.27C249.4 165.72 249.764 166.293 250.029 166.989C250.295 167.68 250.427 168.504 250.427 169.46V170.249H241.485V168.516H247.963C247.958 168.023 247.851 167.585 247.643 167.202C247.435 166.813 247.144 166.508 246.77 166.286C246.4 166.063 245.969 165.952 245.477 165.952C244.951 165.952 244.49 166.08 244.092 166.335C243.694 166.586 243.384 166.918 243.162 167.33C242.944 167.737 242.833 168.184 242.828 168.672V170.185C242.828 170.819 242.944 171.364 243.176 171.818C243.408 172.268 243.732 172.614 244.149 172.855C244.565 173.092 245.053 173.21 245.612 173.21C245.986 173.21 246.324 173.158 246.627 173.054C246.931 172.945 247.193 172.786 247.416 172.578C247.638 172.37 247.806 172.112 247.92 171.804L250.321 172.074C250.169 172.708 249.88 173.262 249.454 173.736C249.033 174.205 248.493 174.569 247.835 174.83C247.177 175.085 246.424 175.213 245.576 175.213ZM255.621 173.011L255.528 173.793C255.462 174.389 255.344 174.995 255.173 175.611C255.008 176.231 254.832 176.802 254.648 177.322C254.463 177.843 254.314 178.253 254.2 178.551H252.467C252.534 178.262 252.624 177.869 252.737 177.372C252.856 176.875 252.969 176.316 253.078 175.696C253.187 175.076 253.26 174.446 253.298 173.807L253.348 173.011H255.621ZM263.126 175V160.455H268.581C269.698 160.455 270.636 160.663 271.393 161.08C272.155 161.496 272.731 162.069 273.119 162.798C273.512 163.523 273.708 164.347 273.708 165.27C273.708 166.203 273.512 167.031 273.119 167.756C272.726 168.48 272.146 169.051 271.379 169.467C270.612 169.879 269.667 170.085 268.545 170.085H264.93V167.919H268.19C268.843 167.919 269.378 167.805 269.795 167.578C270.212 167.351 270.52 167.038 270.718 166.641C270.922 166.243 271.024 165.786 271.024 165.27C271.024 164.754 270.922 164.299 270.718 163.906C270.52 163.513 270.209 163.208 269.788 162.99C269.371 162.768 268.834 162.656 268.176 162.656H265.761V175H263.126ZM275.997 160.455H279.222L283.54 170.994H283.71L288.028 160.455H291.253V175H288.724V165.007H288.589L284.57 174.957H282.68L278.661 164.986H278.526V175H275.997V160.455ZM294.122 175V160.455H303.582V162.663H296.757V166.612H303.092V168.821H296.757V172.791H303.639V175H294.122ZM312.094 159.773L307.407 177.188H305.156L309.843 159.773H312.094ZM313.21 162.663V160.455H324.815V162.663H320.319V175H317.705V162.663H313.21ZM327.052 175V160.455H332.506C333.624 160.455 334.561 160.663 335.319 161.08C336.081 161.496 336.656 162.069 337.045 162.798C337.438 163.523 337.634 164.347 337.634 165.27C337.634 166.203 337.438 167.031 337.045 167.756C336.652 168.48 336.072 169.051 335.305 169.467C334.538 169.879 333.593 170.085 332.471 170.085H328.856V167.919H332.116C332.769 167.919 333.304 167.805 333.721 167.578C334.138 167.351 334.445 167.038 334.644 166.641C334.848 166.243 334.95 165.786 334.95 165.27C334.95 164.754 334.848 164.299 334.644 163.906C334.445 163.513 334.135 163.208 333.714 162.99C333.297 162.768 332.76 162.656 332.102 162.656H329.687V175H327.052ZM339.923 175V160.455H349.383V162.663H342.558V166.612H348.893V168.821H342.558V172.791H349.44V175H339.923ZM365.825 174.616L364.362 173.168L368.744 168.786H358.098V166.669H368.744L364.362 162.294L365.825 160.838L372.714 167.727L365.825 174.616ZM123.255 188.091L119.37 199H116.529L112.644 188.091H115.385L117.893 196.195H118.006L120.52 188.091H123.255ZM129.421 199.213C128.356 199.213 127.433 198.979 126.651 198.51C125.87 198.041 125.264 197.385 124.833 196.543C124.407 195.7 124.194 194.715 124.194 193.588C124.194 192.461 124.407 191.474 124.833 190.626C125.264 189.779 125.87 189.121 126.651 188.652C127.433 188.183 128.356 187.949 129.421 187.949C130.487 187.949 131.41 188.183 132.191 188.652C132.972 189.121 133.576 189.779 134.002 190.626C134.433 191.474 134.649 192.461 134.649 193.588C134.649 194.715 134.433 195.7 134.002 196.543C133.576 197.385 132.972 198.041 132.191 198.51C131.41 198.979 130.487 199.213 129.421 199.213ZM129.436 197.153C130.013 197.153 130.496 196.995 130.884 196.678C131.273 196.356 131.561 195.925 131.751 195.385C131.945 194.845 132.042 194.244 132.042 193.581C132.042 192.913 131.945 192.31 131.751 191.77C131.561 191.225 131.273 190.792 130.884 190.47C130.496 190.148 130.013 189.987 129.436 189.987C128.844 189.987 128.351 190.148 127.958 190.47C127.57 190.792 127.279 191.225 127.085 191.77C126.895 192.31 126.801 192.913 126.801 193.581C126.801 194.244 126.895 194.845 127.085 195.385C127.279 195.925 127.57 196.356 127.958 196.678C128.351 196.995 128.844 197.153 129.436 197.153ZM143.784 194.412V188.091H146.355V199H143.862V197.061H143.748C143.502 197.672 143.097 198.171 142.534 198.56C141.975 198.948 141.286 199.142 140.467 199.142C139.752 199.142 139.12 198.983 138.571 198.666C138.026 198.344 137.6 197.878 137.292 197.267C136.985 196.652 136.831 195.908 136.831 195.037V188.091H139.402V194.639C139.402 195.33 139.591 195.88 139.97 196.287C140.349 196.694 140.846 196.898 141.461 196.898C141.84 196.898 142.207 196.805 142.562 196.621C142.917 196.436 143.209 196.161 143.436 195.797C143.668 195.428 143.784 194.966 143.784 194.412ZM157.621 190.974L155.277 191.23C155.211 190.993 155.095 190.771 154.929 190.562C154.768 190.354 154.55 190.186 154.276 190.058C154.001 189.93 153.665 189.866 153.267 189.866C152.732 189.866 152.282 189.982 151.918 190.214C151.558 190.446 151.38 190.747 151.385 191.116C151.38 191.434 151.496 191.692 151.733 191.891C151.975 192.089 152.372 192.253 152.926 192.381L154.787 192.778C155.819 193.001 156.586 193.354 157.088 193.837C157.595 194.32 157.851 194.952 157.855 195.733C157.851 196.42 157.649 197.026 157.252 197.551C156.859 198.072 156.312 198.479 155.611 198.773C154.91 199.066 154.105 199.213 153.196 199.213C151.861 199.213 150.786 198.934 149.972 198.375C149.157 197.812 148.672 197.028 148.516 196.024L151.023 195.783C151.137 196.275 151.378 196.647 151.747 196.898C152.117 197.149 152.597 197.274 153.189 197.274C153.8 197.274 154.29 197.149 154.659 196.898C155.033 196.647 155.22 196.337 155.22 195.967C155.22 195.655 155.1 195.397 154.858 195.193C154.621 194.99 154.252 194.833 153.75 194.724L151.889 194.334C150.843 194.116 150.069 193.749 149.567 193.233C149.065 192.712 148.816 192.054 148.821 191.259C148.816 190.586 148.999 190.004 149.368 189.511C149.742 189.014 150.261 188.631 150.923 188.361C151.591 188.086 152.36 187.949 153.232 187.949C154.51 187.949 155.516 188.221 156.25 188.766C156.989 189.31 157.446 190.046 157.621 190.974ZM168.075 199.22C167.384 199.22 166.762 199.097 166.208 198.851C165.658 198.6 165.223 198.231 164.901 197.743C164.584 197.255 164.425 196.654 164.425 195.939C164.425 195.323 164.539 194.814 164.766 194.412C164.993 194.009 165.303 193.688 165.696 193.446C166.089 193.205 166.532 193.022 167.024 192.899C167.521 192.771 168.035 192.679 168.566 192.622C169.205 192.556 169.723 192.497 170.121 192.445C170.519 192.388 170.807 192.303 170.987 192.189C171.172 192.071 171.264 191.888 171.264 191.642V191.599C171.264 191.064 171.106 190.65 170.789 190.357C170.471 190.063 170.014 189.916 169.418 189.916C168.788 189.916 168.289 190.054 167.919 190.328C167.555 190.603 167.308 190.927 167.181 191.301L164.78 190.96C164.969 190.297 165.282 189.743 165.718 189.298C166.153 188.848 166.686 188.512 167.316 188.29C167.945 188.062 168.641 187.949 169.404 187.949C169.929 187.949 170.452 188.01 170.973 188.134C171.494 188.257 171.97 188.46 172.401 188.744C172.832 189.024 173.177 189.405 173.438 189.888C173.703 190.371 173.835 190.974 173.835 191.699V199H171.364V197.501H171.279C171.122 197.804 170.902 198.089 170.618 198.354C170.339 198.614 169.986 198.825 169.56 198.986C169.138 199.142 168.644 199.22 168.075 199.22ZM168.743 197.331C169.259 197.331 169.707 197.229 170.085 197.026C170.464 196.817 170.755 196.543 170.959 196.202C171.167 195.861 171.271 195.489 171.271 195.087V193.801C171.191 193.867 171.054 193.929 170.86 193.986C170.67 194.043 170.457 194.092 170.22 194.135C169.984 194.178 169.749 194.215 169.517 194.249C169.285 194.282 169.084 194.31 168.914 194.334C168.53 194.386 168.187 194.471 167.884 194.589C167.581 194.708 167.342 194.874 167.166 195.087C166.991 195.295 166.904 195.565 166.904 195.896C166.904 196.37 167.076 196.727 167.422 196.969C167.768 197.21 168.208 197.331 168.743 197.331ZM185.774 188.091L181.889 199H179.048L175.164 188.091H177.905L180.412 196.195H180.526L183.04 188.091H185.774ZM192.012 199.213C190.918 199.213 189.974 198.986 189.178 198.531C188.387 198.072 187.779 197.423 187.353 196.585C186.927 195.742 186.714 194.75 186.714 193.609C186.714 192.487 186.927 191.502 187.353 190.655C187.784 189.803 188.385 189.14 189.157 188.666C189.929 188.188 190.835 187.949 191.877 187.949C192.549 187.949 193.184 188.058 193.78 188.276C194.382 188.489 194.912 188.82 195.371 189.27C195.835 189.72 196.2 190.293 196.465 190.989C196.73 191.68 196.863 192.504 196.863 193.46V194.249H187.921V192.516H194.398C194.394 192.023 194.287 191.585 194.079 191.202C193.87 190.813 193.579 190.508 193.205 190.286C192.836 190.063 192.405 189.952 191.912 189.952C191.387 189.952 190.925 190.08 190.528 190.335C190.13 190.586 189.82 190.918 189.597 191.33C189.379 191.737 189.268 192.184 189.263 192.672V194.185C189.263 194.819 189.379 195.364 189.611 195.818C189.843 196.268 190.168 196.614 190.584 196.855C191.001 197.092 191.489 197.21 192.047 197.21C192.421 197.21 192.76 197.158 193.063 197.054C193.366 196.945 193.629 196.786 193.851 196.578C194.074 196.37 194.242 196.112 194.356 195.804L196.756 196.074C196.605 196.708 196.316 197.262 195.89 197.736C195.468 198.205 194.929 198.569 194.27 198.83C193.612 199.085 192.859 199.213 192.012 199.213ZM198.896 199V197.366L204.521 190.314V190.222H199.08V188.091H207.667V189.845L202.312 196.777V196.869H207.852V199H198.896ZM219.278 199.192C218.421 199.192 217.653 198.972 216.976 198.531C216.299 198.091 215.764 197.452 215.371 196.614C214.978 195.776 214.782 194.758 214.782 193.56C214.782 192.348 214.981 191.325 215.378 190.491C215.781 189.653 216.323 189.021 217.005 188.595C217.687 188.164 218.447 187.949 219.285 187.949C219.924 187.949 220.449 188.058 220.861 188.276C221.273 188.489 221.6 188.747 221.841 189.05C222.083 189.348 222.27 189.63 222.403 189.895H222.509V184.455H225.087V199H222.559V197.281H222.403C222.27 197.546 222.078 197.828 221.827 198.126C221.576 198.42 221.245 198.671 220.833 198.879C220.421 199.088 219.903 199.192 219.278 199.192ZM219.995 197.082C220.539 197.082 221.003 196.936 221.387 196.642C221.77 196.344 222.062 195.929 222.26 195.399C222.459 194.869 222.559 194.251 222.559 193.545C222.559 192.84 222.459 192.227 222.26 191.706C222.066 191.185 221.778 190.78 221.394 190.491C221.015 190.203 220.549 190.058 219.995 190.058C219.422 190.058 218.944 190.207 218.56 190.506C218.177 190.804 217.888 191.216 217.694 191.741C217.5 192.267 217.403 192.868 217.403 193.545C217.403 194.227 217.5 194.836 217.694 195.371C217.893 195.901 218.184 196.32 218.567 196.628C218.956 196.931 219.431 197.082 219.995 197.082ZM232.656 199.213C231.563 199.213 230.618 198.986 229.823 198.531C229.032 198.072 228.423 197.423 227.997 196.585C227.571 195.742 227.358 194.75 227.358 193.609C227.358 192.487 227.571 191.502 227.997 190.655C228.428 189.803 229.03 189.14 229.801 188.666C230.573 188.188 231.48 187.949 232.521 187.949C233.194 187.949 233.828 188.058 234.425 188.276C235.026 188.489 235.557 188.82 236.016 189.27C236.48 189.72 236.844 190.293 237.11 190.989C237.375 191.68 237.507 192.504 237.507 193.46V194.249H228.566V192.516H235.043C235.038 192.023 234.932 191.585 234.723 191.202C234.515 190.813 234.224 190.508 233.85 190.286C233.48 190.063 233.049 189.952 232.557 189.952C232.031 189.952 231.57 190.08 231.172 190.335C230.774 190.586 230.464 190.918 230.242 191.33C230.024 191.737 229.913 192.184 229.908 192.672V194.185C229.908 194.819 230.024 195.364 230.256 195.818C230.488 196.268 230.812 196.614 231.229 196.855C231.646 197.092 232.133 197.21 232.692 197.21C233.066 197.21 233.405 197.158 233.708 197.054C234.011 196.945 234.273 196.786 234.496 196.578C234.718 196.37 234.887 196.112 235 195.804L237.401 196.074C237.249 196.708 236.96 197.262 236.534 197.736C236.113 198.205 235.573 198.569 234.915 198.83C234.257 199.085 233.504 199.213 232.656 199.213ZM248.305 190.974L245.961 191.23C245.894 190.993 245.778 190.771 245.613 190.562C245.452 190.354 245.234 190.186 244.959 190.058C244.685 189.93 244.349 189.866 243.951 189.866C243.416 189.866 242.966 189.982 242.601 190.214C242.242 190.446 242.064 190.747 242.069 191.116C242.064 191.434 242.18 191.692 242.417 191.891C242.658 192.089 243.056 192.253 243.61 192.381L245.471 192.778C246.503 193.001 247.27 193.354 247.772 193.837C248.278 194.32 248.534 194.952 248.539 195.733C248.534 196.42 248.333 197.026 247.935 197.551C247.542 198.072 246.995 198.479 246.295 198.773C245.594 199.066 244.789 199.213 243.88 199.213C242.545 199.213 241.47 198.934 240.655 198.375C239.841 197.812 239.356 197.028 239.199 196.024L241.706 195.783C241.82 196.275 242.062 196.647 242.431 196.898C242.8 197.149 243.281 197.274 243.873 197.274C244.483 197.274 244.974 197.149 245.343 196.898C245.717 196.647 245.904 196.337 245.904 195.967C245.904 195.655 245.783 195.397 245.542 195.193C245.305 194.99 244.936 194.833 244.434 194.724L242.573 194.334C241.527 194.116 240.752 193.749 240.251 193.233C239.749 192.712 239.5 192.054 239.505 191.259C239.5 190.586 239.682 190.004 240.052 189.511C240.426 189.014 240.944 188.631 241.607 188.361C242.275 188.086 243.044 187.949 243.915 187.949C245.194 187.949 246.2 188.221 246.934 188.766C247.672 189.31 248.129 190.046 248.305 190.974ZM255.62 203.091V188.091H258.148V189.895H258.297C258.43 189.63 258.617 189.348 258.858 189.05C259.1 188.747 259.427 188.489 259.839 188.276C260.251 188.058 260.776 187.949 261.415 187.949C262.258 187.949 263.018 188.164 263.695 188.595C264.377 189.021 264.917 189.653 265.314 190.491C265.717 191.325 265.918 192.348 265.918 193.56C265.918 194.758 265.722 195.776 265.329 196.614C264.936 197.452 264.401 198.091 263.724 198.531C263.046 198.972 262.279 199.192 261.422 199.192C260.797 199.192 260.279 199.088 259.867 198.879C259.455 198.671 259.124 198.42 258.873 198.126C258.626 197.828 258.435 197.546 258.297 197.281H258.191V203.091H255.62ZM258.141 193.545C258.141 194.251 258.241 194.869 258.439 195.399C258.643 195.929 258.934 196.344 259.313 196.642C259.697 196.936 260.161 197.082 260.705 197.082C261.273 197.082 261.749 196.931 262.133 196.628C262.516 196.32 262.805 195.901 262.999 195.371C263.198 194.836 263.297 194.227 263.297 193.545C263.297 192.868 263.2 192.267 263.006 191.741C262.812 191.216 262.523 190.804 262.14 190.506C261.756 190.207 261.278 190.058 260.705 190.058C260.156 190.058 259.689 190.203 259.306 190.491C258.922 190.78 258.631 191.185 258.432 191.706C258.238 192.227 258.141 192.84 258.141 193.545ZM268.12 199V188.091H270.613V189.909H270.726C270.925 189.279 271.266 188.794 271.749 188.453C272.237 188.107 272.793 187.935 273.418 187.935C273.56 187.935 273.719 187.942 273.894 187.956C274.074 187.965 274.223 187.982 274.341 188.006V190.371C274.233 190.333 274.06 190.3 273.823 190.271C273.591 190.238 273.366 190.222 273.148 190.222C272.68 190.222 272.258 190.323 271.884 190.527C271.515 190.726 271.224 191.003 271.01 191.358C270.797 191.713 270.691 192.123 270.691 192.587V199H268.12ZM280.359 199.213C279.294 199.213 278.37 198.979 277.589 198.51C276.808 198.041 276.202 197.385 275.771 196.543C275.345 195.7 275.132 194.715 275.132 193.588C275.132 192.461 275.345 191.474 275.771 190.626C276.202 189.779 276.808 189.121 277.589 188.652C278.37 188.183 279.294 187.949 280.359 187.949C281.424 187.949 282.347 188.183 283.129 188.652C283.91 189.121 284.514 189.779 284.94 190.626C285.371 191.474 285.586 192.461 285.586 193.588C285.586 194.715 285.371 195.7 284.94 196.543C284.514 197.385 283.91 198.041 283.129 198.51C282.347 198.979 281.424 199.213 280.359 199.213ZM280.373 197.153C280.951 197.153 281.434 196.995 281.822 196.678C282.21 196.356 282.499 195.925 282.688 195.385C282.883 194.845 282.98 194.244 282.98 193.581C282.98 192.913 282.883 192.31 282.688 191.77C282.499 191.225 282.21 190.792 281.822 190.47C281.434 190.148 280.951 189.987 280.373 189.987C279.781 189.987 279.289 190.148 278.896 190.47C278.508 190.792 278.216 191.225 278.022 191.77C277.833 192.31 277.738 192.913 277.738 193.581C277.738 194.244 277.833 194.845 278.022 195.385C278.216 195.925 278.508 196.356 278.896 196.678C279.289 196.995 279.781 197.153 280.373 197.153ZM287.768 188.091H290.339V199.625C290.339 200.411 290.19 201.06 289.892 201.571C289.594 202.082 289.163 202.464 288.599 202.714C288.036 202.965 287.352 203.091 286.547 203.091C286.452 203.091 286.364 203.089 286.284 203.084C286.203 203.084 286.116 203.081 286.021 203.077V200.982C286.092 200.986 286.156 200.989 286.213 200.989C286.27 200.993 286.329 200.996 286.39 200.996C286.883 200.996 287.236 200.875 287.449 200.634C287.662 200.397 287.768 200.049 287.768 199.589V188.091ZM289.047 186.543C288.635 186.543 288.282 186.408 287.988 186.138C287.7 185.863 287.555 185.534 287.555 185.151C287.555 184.762 287.7 184.433 287.988 184.163C288.282 183.889 288.635 183.751 289.047 183.751C289.454 183.751 289.802 183.889 290.091 184.163C290.384 184.433 290.531 184.762 290.531 185.151C290.531 185.534 290.384 185.863 290.091 186.138C289.802 186.408 289.454 186.543 289.047 186.543ZM297.813 199.213C296.719 199.213 295.774 198.986 294.979 198.531C294.188 198.072 293.58 197.423 293.154 196.585C292.727 195.742 292.514 194.75 292.514 193.609C292.514 192.487 292.727 191.502 293.154 190.655C293.584 189.803 294.186 189.14 294.958 188.666C295.729 188.188 296.636 187.949 297.678 187.949C298.35 187.949 298.985 188.058 299.581 188.276C300.182 188.489 300.713 188.82 301.172 189.27C301.636 189.72 302.001 190.293 302.266 190.989C302.531 191.68 302.664 192.504 302.664 193.46V194.249H293.722V192.516H300.199C300.194 192.023 300.088 191.585 299.879 191.202C299.671 190.813 299.38 190.508 299.006 190.286C298.637 190.063 298.206 189.952 297.713 189.952C297.188 189.952 296.726 190.08 296.328 190.335C295.931 190.586 295.62 190.918 295.398 191.33C295.18 191.737 295.069 192.184 295.064 192.672V194.185C295.064 194.819 295.18 195.364 295.412 195.818C295.644 196.268 295.968 196.614 296.385 196.855C296.802 197.092 297.289 197.21 297.848 197.21C298.222 197.21 298.561 197.158 298.864 197.054C299.167 196.945 299.43 196.786 299.652 196.578C299.875 196.37 300.043 196.112 300.156 195.804L302.557 196.074C302.405 196.708 302.117 197.262 301.691 197.736C301.269 198.205 300.729 198.569 300.071 198.83C299.413 199.085 298.66 199.213 297.813 199.213ZM310.286 188.091V190.08H304.015V188.091H310.286ZM305.563 185.477H308.134V195.719C308.134 196.064 308.186 196.33 308.29 196.514C308.399 196.694 308.541 196.817 308.716 196.884C308.892 196.95 309.086 196.983 309.299 196.983C309.46 196.983 309.607 196.971 309.739 196.947C309.876 196.924 309.981 196.902 310.052 196.884L310.485 198.893C310.348 198.941 310.151 198.993 309.895 199.05C309.644 199.107 309.337 199.14 308.972 199.149C308.328 199.168 307.748 199.071 307.232 198.858C306.716 198.64 306.306 198.304 306.003 197.849C305.705 197.395 305.558 196.827 305.563 196.145V185.477ZM320.902 190.974L318.558 191.23C318.492 190.993 318.376 190.771 318.21 190.562C318.049 190.354 317.832 190.186 317.557 190.058C317.282 189.93 316.946 189.866 316.548 189.866C316.013 189.866 315.564 189.982 315.199 190.214C314.839 190.446 314.662 190.747 314.666 191.116C314.662 191.434 314.778 191.692 315.014 191.891C315.256 192.089 315.654 192.253 316.208 192.381L318.068 192.778C319.101 193.001 319.868 193.354 320.369 193.837C320.876 194.32 321.132 194.952 321.137 195.733C321.132 196.42 320.931 197.026 320.533 197.551C320.14 198.072 319.593 198.479 318.892 198.773C318.191 199.066 317.387 199.213 316.477 199.213C315.142 199.213 314.067 198.934 313.253 198.375C312.439 197.812 311.953 197.028 311.797 196.024L314.304 195.783C314.418 196.275 314.659 196.647 315.029 196.898C315.398 197.149 315.878 197.274 316.47 197.274C317.081 197.274 317.571 197.149 317.941 196.898C318.315 196.647 318.502 196.337 318.502 195.967C318.502 195.655 318.381 195.397 318.139 195.193C317.903 194.99 317.533 194.833 317.031 194.724L315.171 194.334C314.124 194.116 313.35 193.749 312.848 193.233C312.346 192.712 312.098 192.054 312.102 191.259C312.098 190.586 312.28 190.004 312.649 189.511C313.023 189.014 313.542 188.631 314.205 188.361C314.872 188.086 315.642 187.949 316.513 187.949C317.791 187.949 318.798 188.221 319.531 188.766C320.27 189.31 320.727 190.046 320.902 190.974ZM326.275 197.011L326.183 197.793C326.116 198.389 325.998 198.995 325.828 199.611C325.662 200.231 325.487 200.802 325.302 201.322C325.117 201.843 324.968 202.253 324.855 202.551H323.122C323.188 202.262 323.278 201.869 323.392 201.372C323.51 200.875 323.624 200.316 323.732 199.696C323.841 199.076 323.915 198.446 323.953 197.807L324.002 197.011H326.275ZM343.411 188.091L339.526 199H336.685L332.8 188.091H335.542L338.049 196.195H338.162L340.677 188.091H343.411ZM349.578 199.213C348.512 199.213 347.589 198.979 346.808 198.51C346.026 198.041 345.42 197.385 344.99 196.543C344.563 195.7 344.35 194.715 344.35 193.588C344.35 192.461 344.563 191.474 344.99 190.626C345.42 189.779 346.026 189.121 346.808 188.652C347.589 188.183 348.512 187.949 349.578 187.949C350.643 187.949 351.566 188.183 352.347 188.652C353.129 189.121 353.732 189.779 354.159 190.626C354.589 191.474 354.805 192.461 354.805 193.588C354.805 194.715 354.589 195.7 354.159 196.543C353.732 197.385 353.129 198.041 352.347 198.51C351.566 198.979 350.643 199.213 349.578 199.213ZM349.592 197.153C350.169 197.153 350.652 196.995 351.041 196.678C351.429 196.356 351.718 195.925 351.907 195.385C352.101 194.845 352.198 194.244 352.198 193.581C352.198 192.913 352.101 192.31 351.907 191.77C351.718 191.225 351.429 190.792 351.041 190.47C350.652 190.148 350.169 189.987 349.592 189.987C349 189.987 348.508 190.148 348.115 190.47C347.726 190.792 347.435 191.225 347.241 191.77C347.052 192.31 346.957 192.913 346.957 193.581C346.957 194.244 347.052 194.845 347.241 195.385C347.435 195.925 347.726 196.356 348.115 196.678C348.508 196.995 349 197.153 349.592 197.153ZM363.94 194.412V188.091H366.511V199H364.018V197.061H363.905C363.658 197.672 363.254 198.171 362.69 198.56C362.131 198.948 361.443 199.142 360.623 199.142C359.908 199.142 359.276 198.983 358.727 198.666C358.183 198.344 357.756 197.878 357.449 197.267C357.141 196.652 356.987 195.908 356.987 195.037V188.091H359.558V194.639C359.558 195.33 359.747 195.88 360.126 196.287C360.505 196.694 361.002 196.898 361.618 196.898C361.997 196.898 362.363 196.805 362.719 196.621C363.074 196.436 363.365 196.161 363.592 195.797C363.824 195.428 363.94 194.966 363.94 194.412ZM377.777 190.974L375.433 191.23C375.367 190.993 375.251 190.771 375.085 190.562C374.924 190.354 374.707 190.186 374.432 190.058C374.157 189.93 373.821 189.866 373.423 189.866C372.888 189.866 372.439 189.982 372.074 190.214C371.714 190.446 371.537 190.747 371.541 191.116C371.537 191.434 371.653 191.692 371.889 191.891C372.131 192.089 372.529 192.253 373.083 192.381L374.943 192.778C375.976 193.001 376.743 193.354 377.244 193.837C377.751 194.32 378.007 194.952 378.012 195.733C378.007 196.42 377.806 197.026 377.408 197.551C377.015 198.072 376.468 198.479 375.767 198.773C375.066 199.066 374.262 199.213 373.352 199.213C372.017 199.213 370.942 198.934 370.128 198.375C369.314 197.812 368.828 197.028 368.672 196.024L371.179 195.783C371.293 196.275 371.534 196.647 371.904 196.898C372.273 197.149 372.753 197.274 373.345 197.274C373.956 197.274 374.446 197.149 374.816 196.898C375.19 196.647 375.377 196.337 375.377 195.967C375.377 195.655 375.256 195.397 375.014 195.193C374.778 194.99 374.408 194.833 373.906 194.724L372.046 194.334C370.999 194.116 370.225 193.749 369.723 193.233C369.221 192.712 368.973 192.054 368.977 191.259C368.973 190.586 369.155 190.004 369.524 189.511C369.898 189.014 370.417 188.631 371.08 188.361C371.747 188.086 372.517 187.949 373.388 187.949C374.666 187.949 375.673 188.221 376.406 188.766C377.145 189.31 377.602 190.046 377.777 190.974ZM136.079 223V212.091H138.572V213.909H138.685C138.884 213.279 139.225 212.794 139.708 212.453C140.196 212.107 140.752 211.935 141.377 211.935C141.519 211.935 141.678 211.942 141.853 211.956C142.033 211.965 142.182 211.982 142.3 212.006V214.371C142.192 214.333 142.019 214.3 141.782 214.271C141.55 214.238 141.325 214.222 141.107 214.222C140.638 214.222 140.217 214.323 139.843 214.527C139.474 214.726 139.183 215.003 138.969 215.358C138.756 215.713 138.65 216.123 138.65 216.587V223H136.079ZM148.389 223.213C147.295 223.213 146.35 222.986 145.555 222.531C144.764 222.072 144.156 221.423 143.73 220.585C143.304 219.742 143.091 218.75 143.091 217.609C143.091 216.487 143.304 215.502 143.73 214.655C144.161 213.803 144.762 213.14 145.534 212.666C146.306 212.188 147.212 211.949 148.254 211.949C148.926 211.949 149.561 212.058 150.157 212.276C150.759 212.489 151.289 212.82 151.748 213.27C152.212 213.72 152.577 214.293 152.842 214.989C153.107 215.68 153.24 216.504 153.24 217.46V218.249H144.298V216.516H150.775C150.77 216.023 150.664 215.585 150.456 215.202C150.247 214.813 149.956 214.508 149.582 214.286C149.213 214.063 148.782 213.952 148.289 213.952C147.764 213.952 147.302 214.08 146.904 214.335C146.507 214.586 146.197 214.918 145.974 215.33C145.756 215.737 145.645 216.184 145.64 216.672V218.185C145.64 218.819 145.756 219.364 145.988 219.818C146.22 220.268 146.545 220.614 146.961 220.855C147.378 221.092 147.866 221.21 148.424 221.21C148.798 221.21 149.137 221.158 149.44 221.054C149.743 220.945 150.006 220.786 150.228 220.578C150.451 220.37 150.619 220.112 150.733 219.804L153.133 220.074C152.982 220.708 152.693 221.262 152.267 221.736C151.845 222.205 151.306 222.569 150.647 222.83C149.989 223.085 149.236 223.213 148.389 223.213ZM160.173 223.213C159.084 223.213 158.149 222.974 157.368 222.496C156.591 222.018 155.992 221.357 155.571 220.514C155.154 219.667 154.946 218.691 154.946 217.588C154.946 216.48 155.159 215.502 155.585 214.655C156.011 213.803 156.613 213.14 157.389 212.666C158.17 212.188 159.094 211.949 160.159 211.949C161.045 211.949 161.828 212.112 162.51 212.439C163.196 212.761 163.743 213.218 164.151 213.81C164.558 214.397 164.79 215.083 164.847 215.869H162.389C162.29 215.344 162.053 214.906 161.679 214.555C161.31 214.2 160.815 214.023 160.195 214.023C159.669 214.023 159.207 214.165 158.81 214.449C158.412 214.728 158.102 215.131 157.879 215.656C157.661 216.182 157.553 216.812 157.553 217.545C157.553 218.289 157.661 218.928 157.879 219.463C158.097 219.993 158.402 220.403 158.795 220.692C159.193 220.976 159.66 221.118 160.195 221.118C160.573 221.118 160.912 221.047 161.21 220.905C161.513 220.758 161.767 220.547 161.97 220.273C162.174 219.998 162.313 219.664 162.389 219.271H164.847C164.785 220.043 164.558 220.727 164.165 221.324C163.772 221.916 163.237 222.38 162.56 222.716C161.883 223.047 161.087 223.213 160.173 223.213ZM169.529 216.608V223H166.958V208.455H169.472V213.945H169.6C169.855 213.329 170.251 212.844 170.786 212.489C171.326 212.129 172.012 211.949 172.846 211.949C173.603 211.949 174.264 212.107 174.827 212.425C175.391 212.742 175.826 213.206 176.134 213.817C176.446 214.428 176.603 215.173 176.603 216.054V223H174.032V216.452C174.032 215.718 173.842 215.147 173.463 214.74C173.089 214.328 172.564 214.122 171.887 214.122C171.432 214.122 171.025 214.222 170.665 214.42C170.31 214.615 170.031 214.896 169.827 215.266C169.628 215.635 169.529 216.082 169.529 216.608ZM184.053 223.213C182.959 223.213 182.015 222.986 181.219 222.531C180.428 222.072 179.82 221.423 179.394 220.585C178.968 219.742 178.755 218.75 178.755 217.609C178.755 216.487 178.968 215.502 179.394 214.655C179.825 213.803 180.426 213.14 181.198 212.666C181.97 212.188 182.876 211.949 183.918 211.949C184.59 211.949 185.225 212.058 185.821 212.276C186.423 212.489 186.953 212.82 187.412 213.27C187.876 213.72 188.241 214.293 188.506 214.989C188.771 215.68 188.904 216.504 188.904 217.46V218.249H179.962V216.516H186.439C186.435 216.023 186.328 215.585 186.12 215.202C185.911 214.813 185.62 214.508 185.246 214.286C184.877 214.063 184.446 213.952 183.953 213.952C183.428 213.952 182.966 214.08 182.569 214.335C182.171 214.586 181.861 214.918 181.638 215.33C181.42 215.737 181.309 216.184 181.304 216.672V218.185C181.304 218.819 181.42 219.364 181.652 219.818C181.884 220.268 182.209 220.614 182.625 220.855C183.042 221.092 183.53 221.21 184.088 221.21C184.462 221.21 184.801 221.158 185.104 221.054C185.407 220.945 185.67 220.786 185.892 220.578C186.115 220.37 186.283 220.112 186.397 219.804L188.797 220.074C188.646 220.708 188.357 221.262 187.931 221.736C187.509 222.205 186.97 222.569 186.311 222.83C185.653 223.085 184.9 223.213 184.053 223.213ZM191.079 223V212.091H193.572V213.909H193.685C193.884 213.279 194.225 212.794 194.708 212.453C195.196 212.107 195.752 211.935 196.377 211.935C196.519 211.935 196.678 211.942 196.853 211.956C197.033 211.965 197.182 211.982 197.3 212.006V214.371C197.192 214.333 197.019 214.3 196.782 214.271C196.55 214.238 196.325 214.222 196.107 214.222C195.638 214.222 195.217 214.323 194.843 214.527C194.474 214.726 194.183 215.003 193.969 215.358C193.756 215.713 193.65 216.123 193.65 216.587V223H191.079ZM203.318 223.213C202.229 223.213 201.294 222.974 200.512 222.496C199.736 222.018 199.137 221.357 198.716 220.514C198.299 219.667 198.091 218.691 198.091 217.588C198.091 216.48 198.304 215.502 198.73 214.655C199.156 213.803 199.757 213.14 200.534 212.666C201.315 212.188 202.238 211.949 203.304 211.949C204.189 211.949 204.973 212.112 205.654 212.439C206.341 212.761 206.888 213.218 207.295 213.81C207.702 214.397 207.934 215.083 207.991 215.869H205.534C205.434 215.344 205.198 214.906 204.824 214.555C204.454 214.2 203.959 214.023 203.339 214.023C202.814 214.023 202.352 214.165 201.954 214.449C201.556 214.728 201.246 215.131 201.024 215.656C200.806 216.182 200.697 216.812 200.697 217.545C200.697 218.289 200.806 218.928 201.024 219.463C201.242 219.993 201.547 220.403 201.94 220.692C202.338 220.976 202.804 221.118 203.339 221.118C203.718 221.118 204.056 221.047 204.355 220.905C204.658 220.758 204.911 220.547 205.115 220.273C205.318 219.998 205.458 219.664 205.534 219.271H207.991C207.93 220.043 207.702 220.727 207.309 221.324C206.916 221.916 206.381 222.38 205.704 222.716C205.027 223.047 204.232 223.213 203.318 223.213ZM212.673 216.608V223H210.102V208.455H212.616V213.945H212.744C213 213.329 213.395 212.844 213.93 212.489C214.47 212.129 215.157 211.949 215.99 211.949C216.748 211.949 217.408 212.107 217.972 212.425C218.535 212.742 218.971 213.206 219.278 213.817C219.591 214.428 219.747 215.173 219.747 216.054V223H217.176V216.452C217.176 215.718 216.987 215.147 216.608 214.74C216.234 214.328 215.708 214.122 215.031 214.122C214.577 214.122 214.17 214.222 213.81 214.42C213.455 214.615 213.175 214.896 212.972 215.266C212.773 215.635 212.673 216.082 212.673 216.608ZM227.197 223.213C226.104 223.213 225.159 222.986 224.364 222.531C223.573 222.072 222.964 221.423 222.538 220.585C222.112 219.742 221.899 218.75 221.899 217.609C221.899 216.487 222.112 215.502 222.538 214.655C222.969 213.803 223.571 213.14 224.342 212.666C225.114 212.188 226.021 211.949 227.062 211.949C227.735 211.949 228.369 212.058 228.966 212.276C229.567 212.489 230.098 212.82 230.557 213.27C231.021 213.72 231.385 214.293 231.651 214.989C231.916 215.68 232.048 216.504 232.048 217.46V218.249H223.107V216.516H229.584C229.579 216.023 229.473 215.585 229.264 215.202C229.056 214.813 228.765 214.508 228.391 214.286C228.021 214.063 227.59 213.952 227.098 213.952C226.572 213.952 226.111 214.08 225.713 214.335C225.315 214.586 225.005 214.918 224.783 215.33C224.565 215.737 224.454 216.184 224.449 216.672V218.185C224.449 218.819 224.565 219.364 224.797 219.818C225.029 220.268 225.353 220.614 225.77 220.855C226.187 221.092 226.674 221.21 227.233 221.21C227.607 221.21 227.946 221.158 228.249 221.054C228.552 220.945 228.814 220.786 229.037 220.578C229.259 220.37 229.428 220.112 229.541 219.804L231.942 220.074C231.79 220.708 231.501 221.262 231.075 221.736C230.654 222.205 230.114 222.569 229.456 222.83C228.798 223.085 228.045 223.213 227.197 223.213ZM234.081 223V221.366L239.706 214.314V214.222H234.266V212.091H242.853V213.845L237.498 220.777V220.869H243.037V223H234.081ZM254.463 223.192C253.606 223.192 252.839 222.972 252.162 222.531C251.485 222.091 250.95 221.452 250.557 220.614C250.164 219.776 249.967 218.758 249.967 217.56C249.967 216.348 250.166 215.325 250.564 214.491C250.966 213.653 251.509 213.021 252.19 212.595C252.872 212.164 253.632 211.949 254.47 211.949C255.109 211.949 255.635 212.058 256.047 212.276C256.459 212.489 256.786 212.747 257.027 213.05C257.268 213.348 257.455 213.63 257.588 213.895H257.695V208.455H260.273V223H257.744V221.281H257.588C257.455 221.546 257.264 221.828 257.013 222.126C256.762 222.42 256.43 222.671 256.018 222.879C255.607 223.088 255.088 223.192 254.463 223.192ZM255.18 221.082C255.725 221.082 256.189 220.936 256.572 220.642C256.956 220.344 257.247 219.929 257.446 219.399C257.645 218.869 257.744 218.251 257.744 217.545C257.744 216.84 257.645 216.227 257.446 215.706C257.252 215.185 256.963 214.78 256.58 214.491C256.201 214.203 255.734 214.058 255.18 214.058C254.607 214.058 254.129 214.207 253.746 214.506C253.362 214.804 253.073 215.216 252.879 215.741C252.685 216.267 252.588 216.868 252.588 217.545C252.588 218.227 252.685 218.836 252.879 219.371C253.078 219.901 253.369 220.32 253.753 220.628C254.141 220.931 254.617 221.082 255.18 221.082ZM267.842 223.213C266.748 223.213 265.804 222.986 265.008 222.531C264.217 222.072 263.609 221.423 263.183 220.585C262.757 219.742 262.544 218.75 262.544 217.609C262.544 216.487 262.757 215.502 263.183 214.655C263.614 213.803 264.215 213.14 264.987 212.666C265.759 212.188 266.665 211.949 267.707 211.949C268.379 211.949 269.014 212.058 269.61 212.276C270.212 212.489 270.742 212.82 271.201 213.27C271.665 213.72 272.03 214.293 272.295 214.989C272.56 215.68 272.693 216.504 272.693 217.46V218.249H263.751V216.516H270.228C270.224 216.023 270.117 215.585 269.909 215.202C269.7 214.813 269.409 214.508 269.035 214.286C268.666 214.063 268.235 213.952 267.743 213.952C267.217 213.952 266.755 214.08 266.358 214.335C265.96 214.586 265.65 214.918 265.427 215.33C265.209 215.737 265.098 216.184 265.093 216.672V218.185C265.093 218.819 265.209 219.364 265.441 219.818C265.673 220.268 265.998 220.614 266.414 220.855C266.831 221.092 267.319 221.21 267.877 221.21C268.252 221.21 268.59 221.158 268.893 221.054C269.196 220.945 269.459 220.786 269.681 220.578C269.904 220.37 270.072 220.112 270.186 219.804L272.586 220.074C272.435 220.708 272.146 221.262 271.72 221.736C271.298 222.205 270.759 222.569 270.1 222.83C269.442 223.085 268.69 223.213 267.842 223.213ZM283.49 214.974L281.146 215.23C281.08 214.993 280.964 214.771 280.798 214.562C280.637 214.354 280.42 214.186 280.145 214.058C279.87 213.93 279.534 213.866 279.136 213.866C278.601 213.866 278.152 213.982 277.787 214.214C277.427 214.446 277.25 214.747 277.254 215.116C277.25 215.434 277.366 215.692 277.602 215.891C277.844 216.089 278.241 216.253 278.795 216.381L280.656 216.778C281.688 217.001 282.455 217.354 282.957 217.837C283.464 218.32 283.72 218.952 283.724 219.733C283.72 220.42 283.518 221.026 283.121 221.551C282.728 222.072 282.181 222.479 281.48 222.773C280.779 223.066 279.974 223.213 279.065 223.213C277.73 223.213 276.655 222.934 275.841 222.375C275.027 221.812 274.541 221.028 274.385 220.024L276.892 219.783C277.006 220.275 277.247 220.647 277.616 220.898C277.986 221.149 278.466 221.274 279.058 221.274C279.669 221.274 280.159 221.149 280.528 220.898C280.902 220.647 281.089 220.337 281.089 219.967C281.089 219.655 280.969 219.397 280.727 219.193C280.491 218.99 280.121 218.833 279.619 218.724L277.759 218.334C276.712 218.116 275.938 217.749 275.436 217.233C274.934 216.712 274.686 216.054 274.69 215.259C274.686 214.586 274.868 214.004 275.237 213.511C275.611 213.014 276.13 212.631 276.793 212.361C277.46 212.086 278.23 211.949 279.101 211.949C280.379 211.949 281.385 212.221 282.119 212.766C282.858 213.31 283.315 214.046 283.49 214.974ZM296.253 212.091V214.08H289.982V212.091H296.253ZM291.53 209.477H294.101V219.719C294.101 220.064 294.153 220.33 294.257 220.514C294.366 220.694 294.508 220.817 294.683 220.884C294.858 220.95 295.053 220.983 295.266 220.983C295.427 220.983 295.573 220.971 295.706 220.947C295.843 220.924 295.947 220.902 296.018 220.884L296.452 222.893C296.314 222.941 296.118 222.993 295.862 223.05C295.611 223.107 295.304 223.14 294.939 223.149C294.295 223.168 293.715 223.071 293.199 222.858C292.683 222.64 292.273 222.304 291.97 221.849C291.672 221.395 291.525 220.827 291.53 220.145V209.477ZM301.542 223.22C300.851 223.22 300.228 223.097 299.674 222.851C299.125 222.6 298.69 222.231 298.368 221.743C298.05 221.255 297.892 220.654 297.892 219.939C297.892 219.323 298.005 218.814 298.233 218.412C298.46 218.009 298.77 217.688 299.163 217.446C299.556 217.205 299.999 217.022 300.491 216.899C300.988 216.771 301.502 216.679 302.032 216.622C302.672 216.556 303.19 216.497 303.588 216.445C303.985 216.388 304.274 216.303 304.454 216.189C304.639 216.071 304.731 215.888 304.731 215.642V215.599C304.731 215.064 304.573 214.65 304.255 214.357C303.938 214.063 303.481 213.916 302.885 213.916C302.255 213.916 301.755 214.054 301.386 214.328C301.021 214.603 300.775 214.927 300.647 215.301L298.247 214.96C298.436 214.297 298.749 213.743 299.184 213.298C299.62 212.848 300.153 212.512 300.782 212.29C301.412 212.062 302.108 211.949 302.87 211.949C303.396 211.949 303.919 212.01 304.44 212.134C304.961 212.257 305.437 212.46 305.868 212.744C306.298 213.024 306.644 213.405 306.904 213.888C307.17 214.371 307.302 214.974 307.302 215.699V223H304.831V221.501H304.745C304.589 221.804 304.369 222.089 304.085 222.354C303.806 222.614 303.453 222.825 303.027 222.986C302.605 223.142 302.11 223.22 301.542 223.22ZM302.21 221.331C302.726 221.331 303.173 221.229 303.552 221.026C303.931 220.817 304.222 220.543 304.426 220.202C304.634 219.861 304.738 219.489 304.738 219.087V217.801C304.658 217.867 304.52 217.929 304.326 217.986C304.137 218.043 303.924 218.092 303.687 218.135C303.45 218.178 303.216 218.215 302.984 218.249C302.752 218.282 302.551 218.31 302.38 218.334C301.997 218.386 301.654 218.471 301.35 218.589C301.047 218.708 300.808 218.874 300.633 219.087C300.458 219.295 300.37 219.565 300.37 219.896C300.37 220.37 300.543 220.727 300.889 220.969C301.234 221.21 301.675 221.331 302.21 221.331ZM312.458 208.455V223H309.887V208.455H312.458ZM319.932 223.213C318.838 223.213 317.893 222.986 317.098 222.531C316.307 222.072 315.699 221.423 315.273 220.585C314.847 219.742 314.634 218.75 314.634 217.609C314.634 216.487 314.847 215.502 315.273 214.655C315.704 213.803 316.305 213.14 317.077 212.666C317.848 212.188 318.755 211.949 319.797 211.949C320.469 211.949 321.104 212.058 321.7 212.276C322.302 212.489 322.832 212.82 323.291 213.27C323.755 213.72 324.12 214.293 324.385 214.989C324.65 215.68 324.783 216.504 324.783 217.46V218.249H315.841V216.516H322.318C322.313 216.023 322.207 215.585 321.999 215.202C321.79 214.813 321.499 214.508 321.125 214.286C320.756 214.063 320.325 213.952 319.832 213.952C319.307 213.952 318.845 214.08 318.447 214.335C318.05 214.586 317.74 214.918 317.517 215.33C317.299 215.737 317.188 216.184 317.183 216.672V218.185C317.183 218.819 317.299 219.364 317.531 219.818C317.763 220.268 318.088 220.614 318.504 220.855C318.921 221.092 319.409 221.21 319.967 221.21C320.341 221.21 320.68 221.158 320.983 221.054C321.286 220.945 321.549 220.786 321.771 220.578C321.994 220.37 322.162 220.112 322.276 219.804L324.676 220.074C324.525 220.708 324.236 221.262 323.81 221.736C323.388 222.205 322.848 222.569 322.19 222.83C321.532 223.085 320.779 223.213 319.932 223.213ZM329.529 216.608V223H326.958V212.091H329.415V213.945H329.543C329.794 213.334 330.194 212.848 330.743 212.489C331.297 212.129 331.981 211.949 332.796 211.949C333.549 211.949 334.204 212.11 334.763 212.432C335.327 212.754 335.762 213.22 336.07 213.831C336.382 214.442 336.536 215.183 336.532 216.054V223H333.961V216.452C333.961 215.723 333.771 215.152 333.392 214.74C333.018 214.328 332.5 214.122 331.837 214.122C331.387 214.122 330.987 214.222 330.637 214.42C330.291 214.615 330.019 214.896 329.82 215.266C329.626 215.635 329.529 216.082 329.529 216.608ZM344.593 212.091V214.08H338.321V212.091H344.593ZM339.87 209.477H342.441V219.719C342.441 220.064 342.493 220.33 342.597 220.514C342.706 220.694 342.848 220.817 343.023 220.884C343.198 220.95 343.392 220.983 343.605 220.983C343.766 220.983 343.913 220.971 344.046 220.947C344.183 220.924 344.287 220.902 344.358 220.884L344.792 222.893C344.654 222.941 344.458 222.993 344.202 223.05C343.951 223.107 343.643 223.14 343.279 223.149C342.635 223.168 342.055 223.071 341.539 222.858C341.023 222.64 340.613 222.304 340.31 221.849C340.012 221.395 339.865 220.827 339.87 220.145V209.477ZM355.209 214.974L352.865 215.23C352.799 214.993 352.683 214.771 352.517 214.562C352.356 214.354 352.138 214.186 351.864 214.058C351.589 213.93 351.253 213.866 350.855 213.866C350.32 213.866 349.87 213.982 349.506 214.214C349.146 214.446 348.968 214.747 348.973 215.116C348.968 215.434 349.084 215.692 349.321 215.891C349.563 216.089 349.96 216.253 350.514 216.381L352.375 216.778C353.407 217.001 354.174 217.354 354.676 217.837C355.183 218.32 355.438 218.952 355.443 219.733C355.438 220.42 355.237 221.026 354.839 221.551C354.446 222.072 353.9 222.479 353.199 222.773C352.498 223.066 351.693 223.213 350.784 223.213C349.449 223.213 348.374 222.934 347.56 222.375C346.745 221.812 346.26 221.028 346.104 220.024L348.611 219.783C348.724 220.275 348.966 220.647 349.335 220.898C349.705 221.149 350.185 221.274 350.777 221.274C351.388 221.274 351.878 221.149 352.247 220.898C352.621 220.647 352.808 220.337 352.808 219.967C352.808 219.655 352.688 219.397 352.446 219.193C352.209 218.99 351.84 218.833 351.338 218.724L349.477 218.334C348.431 218.116 347.657 217.749 347.155 217.233C346.653 216.712 346.404 216.054 346.409 215.259C346.404 214.586 346.587 214.004 346.956 213.511C347.33 213.014 347.848 212.631 348.511 212.361C349.179 212.086 349.948 211.949 350.82 211.949C352.098 211.949 353.104 212.221 353.838 212.766C354.577 213.31 355.034 214.046 355.209 214.974Z" fill="#3F3F3F"/>
<path d="M186.152 116V94.1818H190.104V104.207H190.371L198.883 94.1818H203.709L195.271 103.972L203.783 116H199.032L192.523 106.646L190.104 109.501V116H186.152ZM214.24 103.504V106.678H204.417V103.504H214.24ZM218.466 116V94.1818H226.648C228.324 94.1818 229.731 94.4943 230.867 95.1193C232.01 95.7443 232.873 96.6037 233.456 97.6974C234.045 98.7841 234.34 100.02 234.34 101.405C234.34 102.804 234.045 104.047 233.456 105.134C232.866 106.22 231.996 107.076 230.846 107.701C229.695 108.319 228.278 108.628 226.595 108.628H221.172V105.379H226.062C227.042 105.379 227.845 105.208 228.47 104.867C229.095 104.526 229.557 104.058 229.855 103.461C230.16 102.864 230.313 102.179 230.313 101.405C230.313 100.631 230.16 99.9489 229.855 99.3594C229.557 98.7699 229.091 98.3118 228.459 97.9851C227.834 97.6513 227.028 97.4844 226.041 97.4844H222.419V116H218.466ZM241.459 94.1818V116H237.603V94.1818H241.459ZM250.134 116.33C249.097 116.33 248.163 116.146 247.332 115.776C246.508 115.4 245.855 114.846 245.372 114.114C244.896 113.383 244.658 112.481 244.658 111.408C244.658 110.485 244.828 109.722 245.169 109.118C245.51 108.514 245.975 108.031 246.565 107.669C247.154 107.307 247.818 107.033 248.557 106.849C249.303 106.657 250.073 106.518 250.869 106.433C251.828 106.334 252.605 106.245 253.202 106.167C253.798 106.082 254.232 105.954 254.502 105.783C254.779 105.606 254.917 105.332 254.917 104.963V104.899C254.917 104.097 254.679 103.475 254.203 103.035C253.727 102.594 253.042 102.374 252.147 102.374C251.203 102.374 250.453 102.58 249.899 102.992C249.352 103.404 248.983 103.891 248.791 104.452L245.191 103.94C245.475 102.946 245.943 102.115 246.597 101.447C247.25 100.773 248.049 100.268 248.994 99.9347C249.938 99.5938 250.982 99.4233 252.126 99.4233C252.914 99.4233 253.699 99.5156 254.48 99.7003C255.262 99.8849 255.975 100.19 256.622 100.616C257.268 101.036 257.786 101.607 258.177 102.332C258.575 103.056 258.774 103.962 258.774 105.048V116H255.066V113.752H254.938C254.704 114.207 254.374 114.633 253.948 115.031C253.529 115.421 252.999 115.737 252.36 115.979C251.728 116.213 250.986 116.33 250.134 116.33ZM251.135 113.496C251.909 113.496 252.58 113.344 253.149 113.038C253.717 112.726 254.154 112.314 254.459 111.803C254.771 111.291 254.928 110.734 254.928 110.13V108.202C254.807 108.301 254.601 108.393 254.31 108.479C254.026 108.564 253.706 108.638 253.351 108.702C252.996 108.766 252.644 108.823 252.296 108.873C251.948 108.923 251.646 108.965 251.391 109.001C250.816 109.079 250.301 109.207 249.846 109.384C249.392 109.562 249.033 109.81 248.77 110.13C248.507 110.442 248.376 110.847 248.376 111.344C248.376 112.055 248.635 112.591 249.154 112.953C249.672 113.315 250.333 113.496 251.135 113.496ZM264.463 122.136C263.937 122.136 263.45 122.094 263.003 122.009C262.563 121.93 262.211 121.838 261.948 121.732L262.843 118.727C263.404 118.891 263.905 118.969 264.345 118.962C264.786 118.955 265.173 118.816 265.507 118.546C265.847 118.283 266.135 117.843 266.369 117.225L266.7 116.341L260.766 99.6364H264.857L268.628 111.994H268.798L272.58 99.6364H276.682L270.13 117.982C269.825 118.848 269.42 119.59 268.916 120.208C268.411 120.833 267.794 121.309 267.062 121.636C266.338 121.969 265.471 122.136 264.463 122.136ZM286.038 116.32C284.398 116.32 282.981 115.979 281.788 115.297C280.602 114.608 279.689 113.635 279.05 112.378C278.411 111.114 278.091 109.626 278.091 107.914C278.091 106.231 278.411 104.754 279.05 103.482C279.696 102.204 280.598 101.21 281.756 100.499C282.913 99.782 284.273 99.4233 285.836 99.4233C286.844 99.4233 287.796 99.5866 288.691 99.9134C289.593 100.233 290.388 100.73 291.077 101.405C291.773 102.08 292.32 102.939 292.718 103.983C293.116 105.02 293.315 106.256 293.315 107.69V108.873H279.902V106.273H289.618C289.611 105.535 289.451 104.878 289.138 104.303C288.826 103.72 288.389 103.262 287.828 102.928C287.274 102.594 286.628 102.428 285.889 102.428C285.101 102.428 284.408 102.619 283.812 103.003C283.215 103.379 282.75 103.876 282.416 104.494C282.089 105.105 281.923 105.776 281.915 106.508V108.777C281.915 109.729 282.089 110.545 282.438 111.227C282.786 111.902 283.272 112.42 283.897 112.783C284.522 113.138 285.254 113.315 286.092 113.315C286.653 113.315 287.161 113.237 287.615 113.081C288.07 112.918 288.464 112.68 288.798 112.367C289.131 112.055 289.384 111.668 289.554 111.206L293.155 111.611C292.928 112.562 292.494 113.393 291.855 114.104C291.223 114.807 290.413 115.354 289.426 115.744C288.439 116.128 287.31 116.32 286.038 116.32ZM296.577 116V99.6364H300.317V102.364H300.487C300.785 101.419 301.297 100.691 302.021 100.18C302.753 99.6612 303.587 99.402 304.525 99.402C304.738 99.402 304.976 99.4126 305.238 99.4339C305.508 99.4482 305.732 99.473 305.91 99.5085V103.056C305.746 102.999 305.487 102.95 305.132 102.907C304.784 102.857 304.447 102.832 304.12 102.832C303.417 102.832 302.785 102.985 302.224 103.29C301.67 103.589 301.233 104.004 300.913 104.537C300.594 105.07 300.434 105.684 300.434 106.38V116H296.577Z" fill="#2C2C2C"/>
</svg>
