<svg width="494" height="336" viewBox="0 0 494 336" fill="none" xmlns="http://www.w3.org/2000/svg">
<g clip-path="url(#clip0_535_3071)">
<rect width="494" height="336" rx="168" fill="white"/>
<g opacity="0.5" filter="url(#filter0_d_535_3071)">
<ellipse cx="192.842" cy="119.303" rx="192.842" ry="119.303" transform="matrix(0.950068 0.312042 -0.262244 0.965002 94.5742 -7.25879)" fill="#215A96"/>
</g>
<g opacity="0.4" filter="url(#filter1_d_535_3071)">
<ellipse cx="191.272" cy="120.126" rx="191.272" ry="120.126" transform="matrix(0.998265 0.0588845 -0.0487481 0.998811 61.4141 36.7979)" fill="#215A96"/>
</g>
<path d="M136.975 140.091L133.091 151H130.25L126.365 140.091H129.106L131.613 148.195H131.727L134.241 140.091H136.975ZM143.142 151.213C142.077 151.213 141.153 150.979 140.372 150.51C139.591 150.041 138.985 149.385 138.554 148.543C138.128 147.7 137.915 146.715 137.915 145.588C137.915 144.461 138.128 143.474 138.554 142.626C138.985 141.779 139.591 141.121 140.372 140.652C141.153 140.183 142.077 139.949 143.142 139.949C144.207 139.949 145.131 140.183 145.912 140.652C146.693 141.121 147.297 141.779 147.723 142.626C148.154 143.474 148.369 144.461 148.369 145.588C148.369 146.715 148.154 147.7 147.723 148.543C147.297 149.385 146.693 150.041 145.912 150.51C145.131 150.979 144.207 151.213 143.142 151.213ZM143.156 149.153C143.734 149.153 144.217 148.995 144.605 148.678C144.993 148.356 145.282 147.925 145.472 147.385C145.666 146.845 145.763 146.244 145.763 145.581C145.763 144.913 145.666 144.31 145.472 143.77C145.282 143.225 144.993 142.792 144.605 142.47C144.217 142.148 143.734 141.987 143.156 141.987C142.564 141.987 142.072 142.148 141.679 142.47C141.291 142.792 141 143.225 140.805 143.77C140.616 144.31 140.521 144.913 140.521 145.581C140.521 146.244 140.616 146.845 140.805 147.385C141 147.925 141.291 148.356 141.679 148.678C142.072 148.995 142.564 149.153 143.156 149.153ZM157.505 146.412V140.091H160.076V151H157.583V149.061H157.469C157.223 149.672 156.818 150.171 156.255 150.56C155.696 150.948 155.007 151.142 154.188 151.142C153.473 151.142 152.841 150.983 152.292 150.666C151.747 150.344 151.321 149.878 151.013 149.267C150.705 148.652 150.551 147.908 150.551 147.037V140.091H153.123V146.639C153.123 147.33 153.312 147.88 153.691 148.287C154.069 148.694 154.567 148.898 155.182 148.898C155.561 148.898 155.928 148.805 156.283 148.621C156.638 148.436 156.929 148.161 157.157 147.797C157.389 147.428 157.505 146.966 157.505 146.412ZM171.342 142.974L168.998 143.23C168.932 142.993 168.816 142.771 168.65 142.562C168.489 142.354 168.271 142.186 167.996 142.058C167.722 141.93 167.386 141.866 166.988 141.866C166.453 141.866 166.003 141.982 165.638 142.214C165.279 142.446 165.101 142.747 165.106 143.116C165.101 143.434 165.217 143.692 165.454 143.891C165.695 144.089 166.093 144.253 166.647 144.381L168.508 144.778C169.54 145.001 170.307 145.354 170.809 145.837C171.316 146.32 171.571 146.952 171.576 147.733C171.571 148.42 171.37 149.026 170.972 149.551C170.579 150.072 170.032 150.479 169.332 150.773C168.631 151.066 167.826 151.213 166.917 151.213C165.582 151.213 164.507 150.934 163.692 150.375C162.878 149.812 162.393 149.028 162.237 148.024L164.744 147.783C164.857 148.275 165.099 148.647 165.468 148.898C165.837 149.149 166.318 149.274 166.91 149.274C167.521 149.274 168.011 149.149 168.38 148.898C168.754 148.647 168.941 148.337 168.941 147.967C168.941 147.655 168.82 147.397 168.579 147.193C168.342 146.99 167.973 146.833 167.471 146.724L165.61 146.334C164.564 146.116 163.79 145.749 163.288 145.233C162.786 144.712 162.537 144.054 162.542 143.259C162.537 142.586 162.719 142.004 163.089 141.511C163.463 141.014 163.981 140.631 164.644 140.361C165.312 140.086 166.081 139.949 166.952 139.949C168.231 139.949 169.237 140.221 169.971 140.766C170.71 141.31 171.166 142.046 171.342 142.974ZM183.487 151.213C182.393 151.213 181.448 150.986 180.653 150.531C179.862 150.072 179.254 149.423 178.827 148.585C178.401 147.742 178.188 146.75 178.188 145.609C178.188 144.487 178.401 143.502 178.827 142.655C179.258 141.803 179.86 141.14 180.631 140.666C181.403 140.188 182.31 139.949 183.352 139.949C184.024 139.949 184.658 140.058 185.255 140.276C185.856 140.489 186.387 140.82 186.846 141.27C187.31 141.72 187.674 142.293 187.94 142.989C188.205 143.68 188.337 144.504 188.337 145.46V146.249H179.396V144.516H185.873C185.868 144.023 185.762 143.585 185.553 143.202C185.345 142.813 185.054 142.508 184.68 142.286C184.31 142.063 183.879 141.952 183.387 141.952C182.862 141.952 182.4 142.08 182.002 142.335C181.604 142.586 181.294 142.918 181.072 143.33C180.854 143.737 180.743 144.184 180.738 144.672V146.185C180.738 146.819 180.854 147.364 181.086 147.818C181.318 148.268 181.642 148.614 182.059 148.855C182.476 149.092 182.963 149.21 183.522 149.21C183.896 149.21 184.235 149.158 184.538 149.054C184.841 148.945 185.103 148.786 185.326 148.578C185.549 148.37 185.717 148.112 185.83 147.804L188.231 148.074C188.079 148.708 187.79 149.262 187.364 149.736C186.943 150.205 186.403 150.569 185.745 150.83C185.087 151.085 184.334 151.213 183.487 151.213ZM195.96 140.091V142.08H189.689V140.091H195.96ZM191.237 137.477H193.808V147.719C193.808 148.064 193.86 148.33 193.964 148.514C194.073 148.694 194.215 148.817 194.39 148.884C194.565 148.95 194.76 148.983 194.973 148.983C195.134 148.983 195.28 148.971 195.413 148.947C195.55 148.924 195.654 148.902 195.725 148.884L196.159 150.893C196.021 150.941 195.825 150.993 195.569 151.05C195.318 151.107 195.011 151.14 194.646 151.149C194.002 151.168 193.422 151.071 192.906 150.858C192.39 150.64 191.98 150.304 191.677 149.849C191.379 149.395 191.232 148.827 191.237 148.145V137.477ZM202.822 151.213C201.729 151.213 200.784 150.986 199.989 150.531C199.198 150.072 198.589 149.423 198.163 148.585C197.737 147.742 197.524 146.75 197.524 145.609C197.524 144.487 197.737 143.502 198.163 142.655C198.594 141.803 199.196 141.14 199.967 140.666C200.739 140.188 201.646 139.949 202.688 139.949C203.36 139.949 203.994 140.058 204.591 140.276C205.192 140.489 205.723 140.82 206.182 141.27C206.646 141.72 207.01 142.293 207.276 142.989C207.541 143.68 207.673 144.504 207.673 145.46V146.249H198.732V144.516H205.209C205.204 144.023 205.098 143.585 204.889 143.202C204.681 142.813 204.39 142.508 204.016 142.286C203.646 142.063 203.215 141.952 202.723 141.952C202.197 141.952 201.736 142.08 201.338 142.335C200.94 142.586 200.63 142.918 200.408 143.33C200.19 143.737 200.079 144.184 200.074 144.672V146.185C200.074 146.819 200.19 147.364 200.422 147.818C200.654 148.268 200.978 148.614 201.395 148.855C201.812 149.092 202.299 149.21 202.858 149.21C203.232 149.21 203.571 149.158 203.874 149.054C204.177 148.945 204.439 148.786 204.662 148.578C204.884 148.37 205.053 148.112 205.166 147.804L207.567 148.074C207.415 148.708 207.126 149.262 206.7 149.736C206.279 150.205 205.739 150.569 205.081 150.83C204.423 151.085 203.67 151.213 202.822 151.213ZM218.471 142.974L216.127 143.23C216.06 142.993 215.944 142.771 215.779 142.562C215.618 142.354 215.4 142.186 215.125 142.058C214.851 141.93 214.515 141.866 214.117 141.866C213.582 141.866 213.132 141.982 212.767 142.214C212.408 142.446 212.23 142.747 212.235 143.116C212.23 143.434 212.346 143.692 212.583 143.891C212.824 144.089 213.222 144.253 213.776 144.381L215.637 144.778C216.669 145.001 217.436 145.354 217.938 145.837C218.444 146.32 218.7 146.952 218.705 147.733C218.7 148.42 218.499 149.026 218.101 149.551C217.708 150.072 217.161 150.479 216.461 150.773C215.76 151.066 214.955 151.213 214.046 151.213C212.711 151.213 211.636 150.934 210.821 150.375C210.007 149.812 209.522 149.028 209.365 148.024L211.873 147.783C211.986 148.275 212.228 148.647 212.597 148.898C212.966 149.149 213.447 149.274 214.039 149.274C214.65 149.274 215.14 149.149 215.509 148.898C215.883 148.647 216.07 148.337 216.07 147.967C216.07 147.655 215.949 147.397 215.708 147.193C215.471 146.99 215.102 146.833 214.6 146.724L212.739 146.334C211.693 146.116 210.918 145.749 210.417 145.233C209.915 144.712 209.666 144.054 209.671 143.259C209.666 142.586 209.848 142.004 210.218 141.511C210.592 141.014 211.11 140.631 211.773 140.361C212.441 140.086 213.21 139.949 214.081 139.949C215.36 139.949 216.366 140.221 217.1 140.766C217.838 141.31 218.295 142.046 218.471 142.974ZM232.739 146.412V140.091H235.31V151H232.817V149.061H232.703C232.457 149.672 232.052 150.171 231.489 150.56C230.93 150.948 230.241 151.142 229.422 151.142C228.707 151.142 228.075 150.983 227.526 150.666C226.981 150.344 226.555 149.878 226.248 149.267C225.94 148.652 225.786 147.908 225.786 147.037V140.091H228.357V146.639C228.357 147.33 228.546 147.88 228.925 148.287C229.304 148.694 229.801 148.898 230.417 148.898C230.795 148.898 231.162 148.805 231.517 148.621C231.873 148.436 232.164 148.161 232.391 147.797C232.623 147.428 232.739 146.966 232.739 146.412ZM240.525 144.608V151H237.954V140.091H240.411V141.945H240.539C240.79 141.334 241.19 140.848 241.739 140.489C242.293 140.129 242.978 139.949 243.792 139.949C244.545 139.949 245.201 140.11 245.759 140.432C246.323 140.754 246.758 141.22 247.066 141.831C247.379 142.442 247.532 143.183 247.528 144.054V151H244.957V144.452C244.957 143.723 244.767 143.152 244.388 142.74C244.014 142.328 243.496 142.122 242.833 142.122C242.383 142.122 241.983 142.222 241.633 142.42C241.287 142.615 241.015 142.896 240.816 143.266C240.622 143.635 240.525 144.082 240.525 144.608ZM254.971 151.213C253.877 151.213 252.933 150.986 252.137 150.531C251.346 150.072 250.738 149.423 250.312 148.585C249.886 147.742 249.673 146.75 249.673 145.609C249.673 144.487 249.886 143.502 250.312 142.655C250.743 141.803 251.344 141.14 252.116 140.666C252.888 140.188 253.794 139.949 254.836 139.949C255.508 139.949 256.143 140.058 256.739 140.276C257.341 140.489 257.871 140.82 258.33 141.27C258.794 141.72 259.159 142.293 259.424 142.989C259.689 143.68 259.822 144.504 259.822 145.46V146.249H250.88V144.516H257.357C257.353 144.023 257.246 143.585 257.038 143.202C256.829 142.813 256.538 142.508 256.164 142.286C255.795 142.063 255.364 141.952 254.871 141.952C254.346 141.952 253.884 142.08 253.487 142.335C253.089 142.586 252.779 142.918 252.556 143.33C252.338 143.737 252.227 144.184 252.222 144.672V146.185C252.222 146.819 252.338 147.364 252.57 147.818C252.802 148.268 253.127 148.614 253.543 148.855C253.96 149.092 254.448 149.21 255.006 149.21C255.38 149.21 255.719 149.158 256.022 149.054C256.325 148.945 256.588 148.786 256.81 148.578C257.033 148.37 257.201 148.112 257.315 147.804L259.715 148.074C259.564 148.708 259.275 149.262 258.849 149.736C258.427 150.205 257.888 150.569 257.229 150.83C256.571 151.085 255.818 151.213 254.971 151.213ZM271.787 151.213C270.694 151.213 269.749 150.986 268.953 150.531C268.163 150.072 267.554 149.423 267.128 148.585C266.702 147.742 266.489 146.75 266.489 145.609C266.489 144.487 266.702 143.502 267.128 142.655C267.559 141.803 268.16 141.14 268.932 140.666C269.704 140.188 270.611 139.949 271.652 139.949C272.325 139.949 272.959 140.058 273.556 140.276C274.157 140.489 274.687 140.82 275.147 141.27C275.611 141.72 275.975 142.293 276.24 142.989C276.506 143.68 276.638 144.504 276.638 145.46V146.249H267.696V144.516H274.174C274.169 144.023 274.062 143.585 273.854 143.202C273.646 142.813 273.355 142.508 272.98 142.286C272.611 142.063 272.18 141.952 271.688 141.952C271.162 141.952 270.701 142.08 270.303 142.335C269.905 142.586 269.595 142.918 269.373 143.33C269.155 143.737 269.043 144.184 269.039 144.672V146.185C269.039 146.819 269.155 147.364 269.387 147.818C269.619 148.268 269.943 148.614 270.36 148.855C270.776 149.092 271.264 149.21 271.823 149.21C272.197 149.21 272.535 149.158 272.838 149.054C273.141 148.945 273.404 148.786 273.627 148.578C273.849 148.37 274.017 148.112 274.131 147.804L276.532 148.074C276.38 148.708 276.091 149.262 275.665 149.736C275.244 150.205 274.704 150.569 274.046 150.83C273.388 151.085 272.635 151.213 271.787 151.213ZM281.384 144.608V151H278.813V140.091H281.271V141.945H281.398C281.649 141.334 282.049 140.848 282.599 140.489C283.153 140.129 283.837 139.949 284.651 139.949C285.404 139.949 286.06 140.11 286.619 140.432C287.182 140.754 287.618 141.22 287.925 141.831C288.238 142.442 288.392 143.183 288.387 144.054V151H285.816V144.452C285.816 143.723 285.627 143.152 285.248 142.74C284.874 142.328 284.355 142.122 283.692 142.122C283.243 142.122 282.843 142.222 282.492 142.42C282.147 142.615 281.874 142.896 281.675 143.266C281.481 143.635 281.384 144.082 281.384 144.608ZM296.448 140.091V142.08H290.177V140.091H296.448ZM291.725 137.477H294.296V147.719C294.296 148.064 294.348 148.33 294.452 148.514C294.561 148.694 294.703 148.817 294.879 148.884C295.054 148.95 295.248 148.983 295.461 148.983C295.622 148.983 295.769 148.971 295.901 148.947C296.039 148.924 296.143 148.902 296.214 148.884L296.647 150.893C296.51 150.941 296.313 150.993 296.058 151.05C295.807 151.107 295.499 151.14 295.134 151.149C294.49 151.168 293.91 151.071 293.394 150.858C292.878 150.64 292.469 150.304 292.165 149.849C291.867 149.395 291.72 148.827 291.725 148.145V137.477ZM298.598 151V140.091H301.091V141.909H301.205C301.404 141.279 301.745 140.794 302.228 140.453C302.715 140.107 303.272 139.935 303.897 139.935C304.039 139.935 304.197 139.942 304.373 139.956C304.552 139.965 304.702 139.982 304.82 140.006V142.371C304.711 142.333 304.538 142.3 304.301 142.271C304.069 142.238 303.845 142.222 303.627 142.222C303.158 142.222 302.737 142.323 302.363 142.527C301.993 142.726 301.702 143.003 301.489 143.358C301.276 143.713 301.169 144.123 301.169 144.587V151H298.598ZM310.908 151.213C309.815 151.213 308.87 150.986 308.075 150.531C307.284 150.072 306.675 149.423 306.249 148.585C305.823 147.742 305.61 146.75 305.61 145.609C305.61 144.487 305.823 143.502 306.249 142.655C306.68 141.803 307.281 141.14 308.053 140.666C308.825 140.188 309.732 139.949 310.773 139.949C311.446 139.949 312.08 140.058 312.677 140.276C313.278 140.489 313.808 140.82 314.268 141.27C314.732 141.72 315.096 142.293 315.362 142.989C315.627 143.68 315.759 144.504 315.759 145.46V146.249H306.817V144.516H313.295C313.29 144.023 313.183 143.585 312.975 143.202C312.767 142.813 312.476 142.508 312.102 142.286C311.732 142.063 311.301 141.952 310.809 141.952C310.283 141.952 309.822 142.08 309.424 142.335C309.026 142.586 308.716 142.918 308.494 143.33C308.276 143.737 308.165 144.184 308.16 144.672V146.185C308.16 146.819 308.276 147.364 308.508 147.818C308.74 148.268 309.064 148.614 309.481 148.855C309.897 149.092 310.385 149.21 310.944 149.21C311.318 149.21 311.656 149.158 311.96 149.054C312.263 148.945 312.525 148.786 312.748 148.578C312.97 148.37 313.138 148.112 313.252 147.804L315.653 148.074C315.501 148.708 315.212 149.262 314.786 149.736C314.365 150.205 313.825 150.569 313.167 150.83C312.509 151.085 311.756 151.213 310.908 151.213ZM317.934 155.091V140.091H320.463V141.895H320.612C320.744 141.63 320.931 141.348 321.173 141.05C321.414 140.747 321.741 140.489 322.153 140.276C322.565 140.058 323.091 139.949 323.73 139.949C324.573 139.949 325.333 140.164 326.01 140.595C326.691 141.021 327.231 141.653 327.629 142.491C328.031 143.325 328.233 144.348 328.233 145.56C328.233 146.758 328.036 147.776 327.643 148.614C327.25 149.452 326.715 150.091 326.038 150.531C325.361 150.972 324.594 151.192 323.737 151.192C323.112 151.192 322.593 151.088 322.181 150.879C321.77 150.671 321.438 150.42 321.187 150.126C320.941 149.828 320.749 149.546 320.612 149.281H320.505V155.091H317.934ZM320.456 145.545C320.456 146.251 320.555 146.869 320.754 147.399C320.958 147.929 321.249 148.344 321.627 148.642C322.011 148.936 322.475 149.082 323.02 149.082C323.588 149.082 324.064 148.931 324.447 148.628C324.831 148.32 325.119 147.901 325.314 147.371C325.512 146.836 325.612 146.227 325.612 145.545C325.612 144.868 325.515 144.267 325.321 143.741C325.127 143.216 324.838 142.804 324.454 142.506C324.071 142.207 323.592 142.058 323.02 142.058C322.47 142.058 322.004 142.203 321.62 142.491C321.237 142.78 320.946 143.185 320.747 143.706C320.553 144.227 320.456 144.84 320.456 145.545ZM330.434 151V140.091H332.927V141.909H333.041C333.24 141.279 333.581 140.794 334.064 140.453C334.551 140.107 335.108 139.935 335.733 139.935C335.875 139.935 336.033 139.942 336.208 139.956C336.388 139.965 336.538 139.982 336.656 140.006V142.371C336.547 142.333 336.374 142.3 336.137 142.271C335.905 142.238 335.681 142.222 335.463 142.222C334.994 142.222 334.573 142.323 334.199 142.527C333.829 142.726 333.538 143.003 333.325 143.358C333.112 143.713 333.005 144.123 333.005 144.587V151H330.434ZM338.364 151V140.091H340.935V151H338.364ZM339.657 138.543C339.249 138.543 338.899 138.408 338.605 138.138C338.312 137.863 338.165 137.534 338.165 137.151C338.165 136.762 338.312 136.433 338.605 136.163C338.899 135.889 339.249 135.751 339.657 135.751C340.069 135.751 340.419 135.889 340.708 136.163C341.001 136.433 341.148 136.762 341.148 137.151C341.148 137.534 341.001 137.863 340.708 138.138C340.419 138.408 340.069 138.543 339.657 138.543ZM352.201 142.974L349.857 143.23C349.791 142.993 349.675 142.771 349.509 142.562C349.348 142.354 349.13 142.186 348.856 142.058C348.581 141.93 348.245 141.866 347.847 141.866C347.312 141.866 346.862 141.982 346.498 142.214C346.138 142.446 345.96 142.747 345.965 143.116C345.96 143.434 346.076 143.692 346.313 143.891C346.555 144.089 346.952 144.253 347.506 144.381L349.367 144.778C350.399 145.001 351.166 145.354 351.668 145.837C352.175 146.32 352.431 146.952 352.435 147.733C352.431 148.42 352.229 149.026 351.832 149.551C351.439 150.072 350.892 150.479 350.191 150.773C349.49 151.066 348.685 151.213 347.776 151.213C346.441 151.213 345.366 150.934 344.552 150.375C343.737 149.812 343.252 149.028 343.096 148.024L345.603 147.783C345.717 148.275 345.958 148.647 346.327 148.898C346.697 149.149 347.177 149.274 347.769 149.274C348.38 149.274 348.87 149.149 349.239 148.898C349.613 148.647 349.8 148.337 349.8 147.967C349.8 147.655 349.68 147.397 349.438 147.193C349.201 146.99 348.832 146.833 348.33 146.724L346.469 146.334C345.423 146.116 344.649 145.749 344.147 145.233C343.645 144.712 343.397 144.054 343.401 143.259C343.397 142.586 343.579 142.004 343.948 141.511C344.322 141.014 344.841 140.631 345.504 140.361C346.171 140.086 346.941 139.949 347.812 139.949C349.09 139.949 350.096 140.221 350.83 140.766C351.569 141.31 352.026 142.046 352.201 142.974ZM359.385 151.213C358.291 151.213 357.347 150.986 356.551 150.531C355.76 150.072 355.152 149.423 354.726 148.585C354.3 147.742 354.087 146.75 354.087 145.609C354.087 144.487 354.3 143.502 354.726 142.655C355.157 141.803 355.758 141.14 356.53 140.666C357.302 140.188 358.208 139.949 359.25 139.949C359.922 139.949 360.557 140.058 361.153 140.276C361.755 140.489 362.285 140.82 362.744 141.27C363.208 141.72 363.573 142.293 363.838 142.989C364.103 143.68 364.236 144.504 364.236 145.46V146.249H355.294V144.516H361.771C361.767 144.023 361.66 143.585 361.452 143.202C361.243 142.813 360.952 142.508 360.578 142.286C360.209 142.063 359.778 141.952 359.286 141.952C358.76 141.952 358.298 142.08 357.901 142.335C357.503 142.586 357.193 142.918 356.97 143.33C356.752 143.737 356.641 144.184 356.636 144.672V146.185C356.636 146.819 356.752 147.364 356.984 147.818C357.216 148.268 357.541 148.614 357.957 148.855C358.374 149.092 358.862 149.21 359.42 149.21C359.795 149.21 360.133 149.158 360.436 149.054C360.739 148.945 361.002 148.786 361.224 148.578C361.447 148.37 361.615 148.112 361.729 147.804L364.129 148.074C363.978 148.708 363.689 149.262 363.263 149.736C362.841 150.205 362.302 150.569 361.643 150.83C360.985 151.085 360.232 151.213 359.385 151.213ZM117.641 175V164.091H120.212V175H117.641ZM118.934 162.543C118.527 162.543 118.176 162.408 117.883 162.138C117.589 161.863 117.442 161.534 117.442 161.151C117.442 160.762 117.589 160.433 117.883 160.163C118.176 159.889 118.527 159.751 118.934 159.751C119.346 159.751 119.696 159.889 119.985 160.163C120.279 160.433 120.425 160.762 120.425 161.151C120.425 161.534 120.279 161.863 119.985 162.138C119.696 162.408 119.346 162.543 118.934 162.543ZM125.427 168.608V175H122.856V164.091H125.314V165.945H125.441C125.692 165.334 126.092 164.848 126.642 164.489C127.196 164.129 127.88 163.949 128.694 163.949C129.447 163.949 130.103 164.11 130.662 164.432C131.225 164.754 131.661 165.22 131.968 165.831C132.281 166.442 132.435 167.183 132.43 168.054V175H129.859V168.452C129.859 167.723 129.67 167.152 129.291 166.74C128.917 166.328 128.398 166.122 127.735 166.122C127.286 166.122 126.886 166.222 126.535 166.42C126.19 166.615 125.917 166.896 125.718 167.266C125.524 167.635 125.427 168.082 125.427 168.608ZM139.092 175.192C138.235 175.192 137.468 174.972 136.791 174.531C136.114 174.091 135.579 173.452 135.186 172.614C134.793 171.776 134.596 170.758 134.596 169.56C134.596 168.348 134.795 167.325 135.193 166.491C135.595 165.653 136.137 165.021 136.819 164.595C137.501 164.164 138.261 163.949 139.099 163.949C139.738 163.949 140.264 164.058 140.676 164.276C141.088 164.489 141.414 164.747 141.656 165.05C141.897 165.348 142.084 165.63 142.217 165.895H142.324V160.455H144.902V175H142.373V173.281H142.217C142.084 173.546 141.893 173.828 141.642 174.126C141.391 174.42 141.059 174.671 140.647 174.879C140.235 175.088 139.717 175.192 139.092 175.192ZM139.809 173.082C140.354 173.082 140.818 172.936 141.201 172.642C141.585 172.344 141.876 171.929 142.075 171.399C142.274 170.869 142.373 170.251 142.373 169.545C142.373 168.84 142.274 168.227 142.075 167.706C141.881 167.185 141.592 166.78 141.208 166.491C140.83 166.203 140.363 166.058 139.809 166.058C139.236 166.058 138.758 166.207 138.375 166.506C137.991 166.804 137.702 167.216 137.508 167.741C137.314 168.267 137.217 168.868 137.217 169.545C137.217 170.227 137.314 170.836 137.508 171.371C137.707 171.901 137.998 172.32 138.382 172.628C138.77 172.931 139.246 173.082 139.809 173.082ZM154.594 170.412V164.091H157.165V175H154.673V173.061H154.559C154.313 173.672 153.908 174.171 153.344 174.56C152.786 174.948 152.097 175.142 151.278 175.142C150.563 175.142 149.931 174.983 149.381 174.666C148.837 174.344 148.411 173.878 148.103 173.267C147.795 172.652 147.641 171.908 147.641 171.037V164.091H150.212V170.639C150.212 171.33 150.402 171.88 150.781 172.287C151.159 172.694 151.656 172.898 152.272 172.898C152.651 172.898 153.018 172.805 153.373 172.621C153.728 172.436 154.019 172.161 154.246 171.797C154.478 171.428 154.594 170.966 154.594 170.412ZM168.431 166.974L166.088 167.23C166.021 166.993 165.905 166.771 165.74 166.562C165.579 166.354 165.361 166.186 165.086 166.058C164.812 165.93 164.475 165.866 164.078 165.866C163.543 165.866 163.093 165.982 162.728 166.214C162.368 166.446 162.191 166.747 162.196 167.116C162.191 167.434 162.307 167.692 162.544 167.891C162.785 168.089 163.183 168.253 163.737 168.381L165.598 168.778C166.63 169.001 167.397 169.354 167.899 169.837C168.405 170.32 168.661 170.952 168.666 171.733C168.661 172.42 168.46 173.026 168.062 173.551C167.669 174.072 167.122 174.479 166.422 174.773C165.721 175.066 164.916 175.213 164.007 175.213C162.672 175.213 161.597 174.934 160.782 174.375C159.968 173.812 159.483 173.028 159.326 172.024L161.833 171.783C161.947 172.275 162.189 172.647 162.558 172.898C162.927 173.149 163.408 173.274 164 173.274C164.61 173.274 165.1 173.149 165.47 172.898C165.844 172.647 166.031 172.337 166.031 171.967C166.031 171.655 165.91 171.397 165.669 171.193C165.432 170.99 165.063 170.833 164.561 170.724L162.7 170.334C161.654 170.116 160.879 169.749 160.377 169.233C159.876 168.712 159.627 168.054 159.632 167.259C159.627 166.586 159.809 166.004 160.179 165.511C160.553 165.014 161.071 164.631 161.734 164.361C162.402 164.086 163.171 163.949 164.042 163.949C165.321 163.949 166.327 164.221 167.061 164.766C167.799 165.31 168.256 166.046 168.431 166.974ZM176.233 164.091V166.08H169.962V164.091H176.233ZM171.51 161.477H174.081V171.719C174.081 172.064 174.133 172.33 174.238 172.514C174.346 172.694 174.489 172.817 174.664 172.884C174.839 172.95 175.033 172.983 175.246 172.983C175.407 172.983 175.554 172.971 175.686 172.947C175.824 172.924 175.928 172.902 175.999 172.884L176.432 174.893C176.295 174.941 176.098 174.993 175.843 175.05C175.592 175.107 175.284 175.14 174.919 175.149C174.275 175.168 173.695 175.071 173.179 174.858C172.663 174.64 172.254 174.304 171.951 173.849C171.652 173.395 171.506 172.827 171.51 172.145V161.477ZM178.384 175V164.091H180.876V165.909H180.99C181.189 165.279 181.53 164.794 182.013 164.453C182.5 164.107 183.057 163.935 183.682 163.935C183.824 163.935 183.982 163.942 184.158 163.956C184.338 163.965 184.487 163.982 184.605 164.006V166.371C184.496 166.333 184.323 166.3 184.087 166.271C183.855 166.238 183.63 166.222 183.412 166.222C182.943 166.222 182.522 166.323 182.148 166.527C181.778 166.726 181.487 167.003 181.274 167.358C181.061 167.713 180.955 168.123 180.955 168.587V175H178.384ZM186.313 175V164.091H188.884V175H186.313ZM187.606 162.543C187.199 162.543 186.848 162.408 186.555 162.138C186.261 161.863 186.114 161.534 186.114 161.151C186.114 160.762 186.261 160.433 186.555 160.163C186.848 159.889 187.199 159.751 187.606 159.751C188.018 159.751 188.368 159.889 188.657 160.163C188.951 160.433 189.097 160.762 189.097 161.151C189.097 161.534 188.951 161.863 188.657 162.138C188.368 162.408 188.018 162.543 187.606 162.543ZM196.358 175.213C195.264 175.213 194.319 174.986 193.524 174.531C192.733 174.072 192.125 173.423 191.699 172.585C191.272 171.742 191.059 170.75 191.059 169.609C191.059 168.487 191.272 167.502 191.699 166.655C192.129 165.803 192.731 165.14 193.502 164.666C194.274 164.188 195.181 163.949 196.223 163.949C196.895 163.949 197.529 164.058 198.126 164.276C198.727 164.489 199.258 164.82 199.717 165.27C200.181 165.72 200.546 166.293 200.811 166.989C201.076 167.68 201.208 168.504 201.208 169.46V170.249H192.267V168.516H198.744C198.739 168.023 198.633 167.585 198.424 167.202C198.216 166.813 197.925 166.508 197.551 166.286C197.181 166.063 196.751 165.952 196.258 165.952C195.733 165.952 195.271 166.08 194.873 166.335C194.475 166.586 194.165 166.918 193.943 167.33C193.725 167.737 193.614 168.184 193.609 168.672V170.185C193.609 170.819 193.725 171.364 193.957 171.818C194.189 172.268 194.513 172.614 194.93 172.855C195.347 173.092 195.834 173.21 196.393 173.21C196.767 173.21 197.106 173.158 197.409 173.054C197.712 172.945 197.975 172.786 198.197 172.578C198.42 172.37 198.588 172.112 198.701 171.804L201.102 172.074C200.95 172.708 200.662 173.262 200.235 173.736C199.814 174.205 199.274 174.569 198.616 174.83C197.958 175.085 197.205 175.213 196.358 175.213ZM205.955 160.455V175H203.384V160.455H205.955ZM211.169 160.455V175H208.598V160.455H211.169ZM218.643 175.213C217.549 175.213 216.604 174.986 215.809 174.531C215.018 174.072 214.41 173.423 213.984 172.585C213.558 171.742 213.344 170.75 213.344 169.609C213.344 168.487 213.558 167.502 213.984 166.655C214.415 165.803 215.016 165.14 215.788 164.666C216.559 164.188 217.466 163.949 218.508 163.949C219.18 163.949 219.815 164.058 220.411 164.276C221.013 164.489 221.543 164.82 222.002 165.27C222.466 165.72 222.831 166.293 223.096 166.989C223.361 167.68 223.494 168.504 223.494 169.46V170.249H214.552V168.516H221.029C221.024 168.023 220.918 167.585 220.71 167.202C220.501 166.813 220.21 166.508 219.836 166.286C219.467 166.063 219.036 165.952 218.543 165.952C218.018 165.952 217.556 166.08 217.158 166.335C216.761 166.586 216.451 166.918 216.228 167.33C216.01 167.737 215.899 168.184 215.894 168.672V170.185C215.894 170.819 216.01 171.364 216.242 171.818C216.474 172.268 216.799 172.614 217.215 172.855C217.632 173.092 218.12 173.21 218.678 173.21C219.052 173.21 219.391 173.158 219.694 173.054C219.997 172.945 220.26 172.786 220.482 172.578C220.705 172.37 220.873 172.112 220.987 171.804L223.387 172.074C223.236 172.708 222.947 173.262 222.521 173.736C222.099 174.205 221.559 174.569 220.901 174.83C220.243 175.085 219.49 175.213 218.643 175.213ZM233.648 173.011L233.556 173.793C233.489 174.389 233.371 174.995 233.201 175.611C233.035 176.231 232.86 176.802 232.675 177.322C232.49 177.843 232.341 178.253 232.228 178.551H230.495C230.561 178.262 230.651 177.869 230.765 177.372C230.883 176.875 230.997 176.316 231.105 175.696C231.214 175.076 231.288 174.446 231.326 173.807L231.375 173.011H233.648ZM245.784 179.318C244.861 179.318 244.068 179.193 243.405 178.942C242.742 178.696 242.209 178.364 241.807 177.947C241.404 177.531 241.125 177.069 240.969 176.562L243.284 176.001C243.388 176.214 243.54 176.425 243.739 176.634C243.938 176.847 244.205 177.022 244.541 177.159C244.882 177.301 245.311 177.372 245.827 177.372C246.556 177.372 247.16 177.195 247.638 176.839C248.116 176.489 248.355 175.911 248.355 175.107V173.04H248.227C248.095 173.305 247.901 173.577 247.645 173.857C247.394 174.136 247.06 174.37 246.643 174.56C246.232 174.749 245.713 174.844 245.088 174.844C244.25 174.844 243.49 174.647 242.808 174.254C242.131 173.857 241.591 173.265 241.189 172.479C240.791 171.688 240.592 170.698 240.592 169.51C240.592 168.312 240.791 167.301 241.189 166.477C241.591 165.649 242.134 165.021 242.815 164.595C243.497 164.164 244.257 163.949 245.095 163.949C245.734 163.949 246.26 164.058 246.672 164.276C247.089 164.489 247.42 164.747 247.666 165.05C247.912 165.348 248.099 165.63 248.227 165.895H248.369V164.091H250.905V175.178C250.905 176.11 250.682 176.882 250.237 177.493C249.792 178.104 249.184 178.561 248.412 178.864C247.64 179.167 246.764 179.318 245.784 179.318ZM245.805 172.827C246.35 172.827 246.814 172.694 247.197 172.429C247.581 172.164 247.872 171.783 248.071 171.286C248.27 170.788 248.369 170.192 248.369 169.496C248.369 168.809 248.27 168.208 248.071 167.692C247.877 167.176 247.588 166.776 247.205 166.491C246.826 166.203 246.359 166.058 245.805 166.058C245.232 166.058 244.754 166.207 244.371 166.506C243.987 166.804 243.698 167.214 243.504 167.734C243.31 168.25 243.213 168.838 243.213 169.496C243.213 170.163 243.31 170.748 243.504 171.25C243.703 171.747 243.994 172.135 244.378 172.415C244.766 172.689 245.242 172.827 245.805 172.827ZM253.54 175V164.091H256.033V165.909H256.146C256.345 165.279 256.686 164.794 257.169 164.453C257.657 164.107 258.213 163.935 258.838 163.935C258.98 163.935 259.139 163.942 259.314 163.956C259.494 163.965 259.643 163.982 259.761 164.006V166.371C259.652 166.333 259.48 166.3 259.243 166.271C259.011 166.238 258.786 166.222 258.568 166.222C258.099 166.222 257.678 166.323 257.304 166.527C256.935 166.726 256.643 167.003 256.43 167.358C256.217 167.713 256.111 168.123 256.111 168.587V175H253.54ZM264.413 175.22C263.722 175.22 263.099 175.097 262.545 174.851C261.996 174.6 261.561 174.231 261.239 173.743C260.921 173.255 260.763 172.654 260.763 171.939C260.763 171.323 260.876 170.814 261.104 170.412C261.331 170.009 261.641 169.688 262.034 169.446C262.427 169.205 262.87 169.022 263.362 168.899C263.859 168.771 264.373 168.679 264.903 168.622C265.543 168.556 266.061 168.497 266.459 168.445C266.857 168.388 267.145 168.303 267.325 168.189C267.51 168.071 267.602 167.888 267.602 167.642V167.599C267.602 167.064 267.444 166.65 267.126 166.357C266.809 166.063 266.352 165.916 265.756 165.916C265.126 165.916 264.626 166.054 264.257 166.328C263.893 166.603 263.646 166.927 263.518 167.301L261.118 166.96C261.307 166.297 261.62 165.743 262.055 165.298C262.491 164.848 263.024 164.512 263.653 164.29C264.283 164.062 264.979 163.949 265.741 163.949C266.267 163.949 266.79 164.01 267.311 164.134C267.832 164.257 268.308 164.46 268.739 164.744C269.17 165.024 269.515 165.405 269.776 165.888C270.041 166.371 270.173 166.974 270.173 167.699V175H267.702V173.501H267.616C267.46 173.804 267.24 174.089 266.956 174.354C266.677 174.614 266.324 174.825 265.898 174.986C265.476 175.142 264.982 175.22 264.413 175.22ZM265.081 173.331C265.597 173.331 266.045 173.229 266.423 173.026C266.802 172.817 267.093 172.543 267.297 172.202C267.505 171.861 267.609 171.489 267.609 171.087V169.801C267.529 169.867 267.392 169.929 267.197 169.986C267.008 170.043 266.795 170.092 266.558 170.135C266.321 170.178 266.087 170.215 265.855 170.249C265.623 170.282 265.422 170.31 265.251 170.334C264.868 170.386 264.525 170.471 264.222 170.589C263.919 170.708 263.679 170.874 263.504 171.087C263.329 171.295 263.241 171.565 263.241 171.896C263.241 172.37 263.414 172.727 263.76 172.969C264.106 173.21 264.546 173.331 265.081 173.331ZM275.33 168.608V175H272.759V164.091H275.216V165.945H275.344C275.595 165.334 275.995 164.848 276.544 164.489C277.098 164.129 277.782 163.949 278.597 163.949C279.349 163.949 280.005 164.11 280.564 164.432C281.127 164.754 281.563 165.22 281.871 165.831C282.183 166.442 282.337 167.183 282.332 168.054V175H279.761V168.452C279.761 167.723 279.572 167.152 279.193 166.74C278.819 166.328 278.301 166.122 277.638 166.122C277.188 166.122 276.788 166.222 276.438 166.42C276.092 166.615 275.82 166.896 275.621 167.266C275.427 167.635 275.33 168.082 275.33 168.608ZM288.994 175.192C288.137 175.192 287.37 174.972 286.693 174.531C286.016 174.091 285.481 173.452 285.088 172.614C284.695 171.776 284.499 170.758 284.499 169.56C284.499 168.348 284.697 167.325 285.095 166.491C285.498 165.653 286.04 165.021 286.722 164.595C287.403 164.164 288.163 163.949 289.001 163.949C289.641 163.949 290.166 164.058 290.578 164.276C290.99 164.489 291.317 164.747 291.558 165.05C291.8 165.348 291.987 165.63 292.119 165.895H292.226V160.455H294.804V175H292.276V173.281H292.119C291.987 173.546 291.795 173.828 291.544 174.126C291.293 174.42 290.962 174.671 290.55 174.879C290.138 175.088 289.619 175.192 288.994 175.192ZM289.712 173.082C290.256 173.082 290.72 172.936 291.104 172.642C291.487 172.344 291.778 171.929 291.977 171.399C292.176 170.869 292.276 170.251 292.276 169.545C292.276 168.84 292.176 168.227 291.977 167.706C291.783 167.185 291.494 166.78 291.111 166.491C290.732 166.203 290.266 166.058 289.712 166.058C289.139 166.058 288.661 166.207 288.277 166.506C287.893 166.804 287.605 167.216 287.411 167.741C287.216 168.267 287.119 168.868 287.119 169.545C287.119 170.227 287.216 170.836 287.411 171.371C287.609 171.901 287.901 172.32 288.284 172.628C288.672 172.931 289.148 173.082 289.712 173.082ZM307.263 175.213C306.174 175.213 305.239 174.974 304.458 174.496C303.681 174.018 303.082 173.357 302.661 172.514C302.244 171.667 302.036 170.691 302.036 169.588C302.036 168.48 302.249 167.502 302.675 166.655C303.101 165.803 303.703 165.14 304.479 164.666C305.26 164.188 306.184 163.949 307.249 163.949C308.134 163.949 308.918 164.112 309.6 164.439C310.286 164.761 310.833 165.218 311.24 165.81C311.648 166.397 311.88 167.083 311.936 167.869H309.479C309.38 167.344 309.143 166.906 308.769 166.555C308.4 166.2 307.905 166.023 307.284 166.023C306.759 166.023 306.297 166.165 305.9 166.449C305.502 166.728 305.192 167.131 304.969 167.656C304.751 168.182 304.642 168.812 304.642 169.545C304.642 170.289 304.751 170.928 304.969 171.463C305.187 171.993 305.492 172.403 305.885 172.692C306.283 172.976 306.749 173.118 307.284 173.118C307.663 173.118 308.002 173.047 308.3 172.905C308.603 172.758 308.856 172.547 309.06 172.273C309.264 171.998 309.403 171.664 309.479 171.271H311.936C311.875 172.043 311.648 172.727 311.255 173.324C310.862 173.916 310.327 174.38 309.65 174.716C308.972 175.047 308.177 175.213 307.263 175.213ZM318.806 175.213C317.741 175.213 316.817 174.979 316.036 174.51C315.255 174.041 314.649 173.385 314.218 172.543C313.792 171.7 313.579 170.715 313.579 169.588C313.579 168.461 313.792 167.474 314.218 166.626C314.649 165.779 315.255 165.121 316.036 164.652C316.817 164.183 317.741 163.949 318.806 163.949C319.871 163.949 320.795 164.183 321.576 164.652C322.357 165.121 322.961 165.779 323.387 166.626C323.818 167.474 324.033 168.461 324.033 169.588C324.033 170.715 323.818 171.7 323.387 172.543C322.961 173.385 322.357 174.041 321.576 174.51C320.795 174.979 319.871 175.213 318.806 175.213ZM318.82 173.153C319.398 173.153 319.881 172.995 320.269 172.678C320.657 172.356 320.946 171.925 321.136 171.385C321.33 170.845 321.427 170.244 321.427 169.581C321.427 168.913 321.33 168.31 321.136 167.77C320.946 167.225 320.657 166.792 320.269 166.47C319.881 166.148 319.398 165.987 318.82 165.987C318.228 165.987 317.736 166.148 317.343 166.47C316.955 166.792 316.664 167.225 316.469 167.77C316.28 168.31 316.185 168.913 316.185 169.581C316.185 170.244 316.28 170.845 316.469 171.385C316.664 171.925 316.955 172.356 317.343 172.678C317.736 172.995 318.228 173.153 318.82 173.153ZM326.216 175V164.091H328.673V165.945H328.801C329.028 165.32 329.404 164.832 329.93 164.482C330.456 164.126 331.083 163.949 331.812 163.949C332.551 163.949 333.173 164.129 333.68 164.489C334.191 164.844 334.551 165.329 334.76 165.945H334.873C335.115 165.339 335.522 164.856 336.095 164.496C336.672 164.131 337.357 163.949 338.147 163.949C339.151 163.949 339.97 164.266 340.605 164.901C341.239 165.535 341.556 166.461 341.556 167.678V175H338.978V168.075C338.978 167.398 338.798 166.903 338.439 166.591C338.079 166.274 337.638 166.115 337.118 166.115C336.497 166.115 336.012 166.309 335.662 166.697C335.316 167.081 335.143 167.58 335.143 168.196V175H332.622V167.969C332.622 167.405 332.451 166.955 332.11 166.619C331.774 166.283 331.334 166.115 330.789 166.115C330.42 166.115 330.084 166.21 329.781 166.399C329.478 166.584 329.236 166.847 329.056 167.188C328.877 167.524 328.787 167.917 328.787 168.366V175H326.216ZM344.165 179.091V164.091H346.693V165.895H346.842C346.975 165.63 347.162 165.348 347.403 165.05C347.645 164.747 347.972 164.489 348.384 164.276C348.795 164.058 349.321 163.949 349.96 163.949C350.803 163.949 351.563 164.164 352.24 164.595C352.922 165.021 353.462 165.653 353.859 166.491C354.262 167.325 354.463 168.348 354.463 169.56C354.463 170.758 354.267 171.776 353.874 172.614C353.481 173.452 352.946 174.091 352.268 174.531C351.591 174.972 350.824 175.192 349.967 175.192C349.342 175.192 348.824 175.088 348.412 174.879C348 174.671 347.669 174.42 347.418 174.126C347.171 173.828 346.98 173.546 346.842 173.281H346.736V179.091H344.165ZM346.686 169.545C346.686 170.251 346.786 170.869 346.984 171.399C347.188 171.929 347.479 172.344 347.858 172.642C348.241 172.936 348.705 173.082 349.25 173.082C349.818 173.082 350.294 172.931 350.678 172.628C351.061 172.32 351.35 171.901 351.544 171.371C351.743 170.836 351.842 170.227 351.842 169.545C351.842 168.868 351.745 168.267 351.551 167.741C351.357 167.216 351.068 166.804 350.685 166.506C350.301 166.207 349.823 166.058 349.25 166.058C348.701 166.058 348.234 166.203 347.851 166.491C347.467 166.78 347.176 167.185 346.977 167.706C346.783 168.227 346.686 168.84 346.686 169.545ZM362.112 164.091V166.08H355.841V164.091H362.112ZM357.389 161.477H359.96V171.719C359.96 172.064 360.012 172.33 360.116 172.514C360.225 172.694 360.367 172.817 360.543 172.884C360.718 172.95 360.912 172.983 361.125 172.983C361.286 172.983 361.433 172.971 361.565 172.947C361.703 172.924 361.807 172.902 361.878 172.884L362.311 174.893C362.174 174.941 361.977 174.993 361.722 175.05C361.471 175.107 361.163 175.14 360.798 175.149C360.154 175.168 359.574 175.071 359.058 174.858C358.542 174.64 358.133 174.304 357.83 173.849C357.531 173.395 357.384 172.827 357.389 172.145V161.477ZM368.975 175.213C367.881 175.213 366.936 174.986 366.141 174.531C365.35 174.072 364.742 173.423 364.316 172.585C363.89 171.742 363.676 170.75 363.676 169.609C363.676 168.487 363.89 167.502 364.316 166.655C364.747 165.803 365.348 165.14 366.12 164.666C366.891 164.188 367.798 163.949 368.84 163.949C369.512 163.949 370.147 164.058 370.743 164.276C371.345 164.489 371.875 164.82 372.334 165.27C372.798 165.72 373.163 166.293 373.428 166.989C373.693 167.68 373.826 168.504 373.826 169.46V170.249H364.884V168.516H371.361C371.356 168.023 371.25 167.585 371.042 167.202C370.833 166.813 370.542 166.508 370.168 166.286C369.799 166.063 369.368 165.952 368.875 165.952C368.35 165.952 367.888 166.08 367.49 166.335C367.093 166.586 366.783 166.918 366.56 167.33C366.342 167.737 366.231 168.184 366.226 168.672V170.185C366.226 170.819 366.342 171.364 366.574 171.818C366.806 172.268 367.131 172.614 367.547 172.855C367.964 173.092 368.452 173.21 369.01 173.21C369.384 173.21 369.723 173.158 370.026 173.054C370.329 172.945 370.592 172.786 370.814 172.578C371.037 172.37 371.205 172.112 371.319 171.804L373.719 172.074C373.568 172.708 373.279 173.262 372.853 173.736C372.431 174.205 371.891 174.569 371.233 174.83C370.575 175.085 369.822 175.213 368.975 175.213ZM121.241 199V184.455H126.696C127.813 184.455 128.751 184.663 129.508 185.08C130.271 185.496 130.846 186.069 131.234 186.798C131.627 187.523 131.824 188.347 131.824 189.27C131.824 190.203 131.627 191.031 131.234 191.756C130.841 192.48 130.261 193.051 129.494 193.467C128.727 193.879 127.782 194.085 126.66 194.085H123.045V191.919H126.305C126.959 191.919 127.494 191.805 127.91 191.578C128.327 191.351 128.635 191.038 128.834 190.641C129.037 190.243 129.139 189.786 129.139 189.27C129.139 188.754 129.037 188.299 128.834 187.906C128.635 187.513 128.325 187.208 127.903 186.99C127.487 186.768 126.949 186.656 126.291 186.656H123.876V199H121.241ZM134.112 184.455H137.337L141.655 194.994H141.825L146.144 184.455H149.368V199H146.84V189.007H146.705L142.685 198.957H140.796L136.776 188.986H136.641V199H134.112V184.455ZM152.237 199V184.455H161.698V186.663H154.872V190.612H161.208V192.821H154.872V196.791H161.754V199H152.237ZM175.171 183.773L170.483 201.188H168.232L172.919 183.773H175.171ZM181.247 186.663V184.455H192.852V186.663H188.356V199H185.742V186.663H181.247ZM195.089 199V184.455H200.544C201.661 184.455 202.598 184.663 203.356 185.08C204.118 185.496 204.694 186.069 205.082 186.798C205.475 187.523 205.671 188.347 205.671 189.27C205.671 190.203 205.475 191.031 205.082 191.756C204.689 192.48 204.109 193.051 203.342 193.467C202.575 193.879 201.63 194.085 200.508 194.085H196.893V191.919H200.153C200.806 191.919 201.341 191.805 201.758 191.578C202.175 191.351 202.482 191.038 202.681 190.641C202.885 190.243 202.987 189.786 202.987 189.27C202.987 188.754 202.885 188.299 202.681 187.906C202.482 187.513 202.172 187.208 201.751 186.99C201.334 186.768 200.797 186.656 200.139 186.656H197.724V199H195.089ZM207.96 199V184.455H217.42V186.663H210.595V190.612H216.93V192.821H210.595V196.791H217.477V199H207.96ZM227.974 197.011L227.882 197.793C227.816 198.389 227.697 198.995 227.527 199.611C227.361 200.231 227.186 200.802 227.001 201.322C226.817 201.843 226.667 202.253 226.554 202.551H224.821C224.887 202.262 224.977 201.869 225.091 201.372C225.209 200.875 225.323 200.316 225.432 199.696C225.541 199.076 225.614 198.446 225.652 197.807L225.702 197.011H227.974ZM245.11 188.091L241.225 199H238.384L234.499 188.091H237.241L239.748 196.195H239.862L242.376 188.091H245.11ZM251.277 199.213C250.211 199.213 249.288 198.979 248.507 198.51C247.726 198.041 247.12 197.385 246.689 196.543C246.263 195.7 246.05 194.715 246.05 193.588C246.05 192.461 246.263 191.474 246.689 190.626C247.12 189.779 247.726 189.121 248.507 188.652C249.288 188.183 250.211 187.949 251.277 187.949C252.342 187.949 253.265 188.183 254.047 188.652C254.828 189.121 255.432 189.779 255.858 190.626C256.289 191.474 256.504 192.461 256.504 193.588C256.504 194.715 256.289 195.7 255.858 196.543C255.432 197.385 254.828 198.041 254.047 198.51C253.265 198.979 252.342 199.213 251.277 199.213ZM251.291 197.153C251.869 197.153 252.352 196.995 252.74 196.678C253.128 196.356 253.417 195.925 253.606 195.385C253.8 194.845 253.898 194.244 253.898 193.581C253.898 192.913 253.8 192.31 253.606 191.77C253.417 191.225 253.128 190.792 252.74 190.47C252.352 190.148 251.869 189.987 251.291 189.987C250.699 189.987 250.207 190.148 249.814 190.47C249.425 190.792 249.134 191.225 248.94 191.77C248.751 192.31 248.656 192.913 248.656 193.581C248.656 194.244 248.751 194.845 248.94 195.385C249.134 195.925 249.425 196.356 249.814 196.678C250.207 196.995 250.699 197.153 251.291 197.153ZM265.639 194.412V188.091H268.21V199H265.718V197.061H265.604C265.358 197.672 264.953 198.171 264.389 198.56C263.831 198.948 263.142 199.142 262.323 199.142C261.608 199.142 260.976 198.983 260.426 198.666C259.882 198.344 259.456 197.878 259.148 197.267C258.84 196.652 258.686 195.908 258.686 195.037V188.091H261.257V194.639C261.257 195.33 261.447 195.88 261.825 196.287C262.204 196.694 262.701 196.898 263.317 196.898C263.696 196.898 264.063 196.805 264.418 196.621C264.773 196.436 265.064 196.161 265.291 195.797C265.523 195.428 265.639 194.966 265.639 194.412ZM279.476 190.974L277.133 191.23C277.066 190.993 276.95 190.771 276.785 190.562C276.624 190.354 276.406 190.186 276.131 190.058C275.857 189.93 275.52 189.866 275.123 189.866C274.588 189.866 274.138 189.982 273.773 190.214C273.413 190.446 273.236 190.747 273.241 191.116C273.236 191.434 273.352 191.692 273.589 191.891C273.83 192.089 274.228 192.253 274.782 192.381L276.643 192.778C277.675 193.001 278.442 193.354 278.944 193.837C279.45 194.32 279.706 194.952 279.711 195.733C279.706 196.42 279.505 197.026 279.107 197.551C278.714 198.072 278.167 198.479 277.466 198.773C276.766 199.066 275.961 199.213 275.052 199.213C273.716 199.213 272.642 198.934 271.827 198.375C271.013 197.812 270.528 197.028 270.371 196.024L272.878 195.783C272.992 196.275 273.233 196.647 273.603 196.898C273.972 197.149 274.453 197.274 275.045 197.274C275.655 197.274 276.145 197.149 276.515 196.898C276.889 196.647 277.076 196.337 277.076 195.967C277.076 195.655 276.955 195.397 276.714 195.193C276.477 194.99 276.108 194.833 275.606 194.724L273.745 194.334C272.698 194.116 271.924 193.749 271.422 193.233C270.921 192.712 270.672 192.054 270.677 191.259C270.672 190.586 270.854 190.004 271.224 189.511C271.598 189.014 272.116 188.631 272.779 188.361C273.447 188.086 274.216 187.949 275.087 187.949C276.366 187.949 277.372 188.221 278.106 188.766C278.844 189.31 279.301 190.046 279.476 190.974ZM289.931 199.22C289.24 199.22 288.617 199.097 288.063 198.851C287.514 198.6 287.078 198.231 286.756 197.743C286.439 197.255 286.28 196.654 286.28 195.939C286.28 195.323 286.394 194.814 286.621 194.412C286.849 194.009 287.159 193.688 287.552 193.446C287.945 193.205 288.387 193.022 288.88 192.899C289.377 192.771 289.891 192.679 290.421 192.622C291.06 192.556 291.579 192.497 291.976 192.445C292.374 192.388 292.663 192.303 292.843 192.189C293.028 192.071 293.12 191.888 293.12 191.642V191.599C293.12 191.064 292.961 190.65 292.644 190.357C292.327 190.063 291.87 189.916 291.273 189.916C290.644 189.916 290.144 190.054 289.775 190.328C289.41 190.603 289.164 190.927 289.036 191.301L286.635 190.96C286.825 190.297 287.137 189.743 287.573 189.298C288.009 188.848 288.541 188.512 289.171 188.29C289.801 188.062 290.497 187.949 291.259 187.949C291.785 187.949 292.308 188.01 292.829 188.134C293.349 188.257 293.825 188.46 294.256 188.744C294.687 189.024 295.033 189.405 295.293 189.888C295.558 190.371 295.691 190.974 295.691 191.699V199H293.219V197.501H293.134C292.978 197.804 292.758 198.089 292.474 198.354C292.194 198.614 291.841 198.825 291.415 198.986C290.994 199.142 290.499 199.22 289.931 199.22ZM290.599 197.331C291.115 197.331 291.562 197.229 291.941 197.026C292.32 196.817 292.611 196.543 292.814 196.202C293.023 195.861 293.127 195.489 293.127 195.087V193.801C293.046 193.867 292.909 193.929 292.715 193.986C292.526 194.043 292.313 194.092 292.076 194.135C291.839 194.178 291.605 194.215 291.373 194.249C291.141 194.282 290.939 194.31 290.769 194.334C290.385 194.386 290.042 194.471 289.739 194.589C289.436 194.708 289.197 194.874 289.022 195.087C288.847 195.295 288.759 195.565 288.759 195.896C288.759 196.37 288.932 196.727 289.278 196.969C289.623 197.21 290.064 197.331 290.599 197.331ZM307.63 188.091L303.745 199H300.904L297.019 188.091H299.76L302.268 196.195H302.381L304.895 188.091H307.63ZM313.867 199.213C312.774 199.213 311.829 198.986 311.034 198.531C310.243 198.072 309.634 197.423 309.208 196.585C308.782 195.742 308.569 194.75 308.569 193.609C308.569 192.487 308.782 191.502 309.208 190.655C309.639 189.803 310.24 189.14 311.012 188.666C311.784 188.188 312.691 187.949 313.732 187.949C314.405 187.949 315.039 188.058 315.636 188.276C316.237 188.489 316.767 188.82 317.227 189.27C317.691 189.72 318.055 190.293 318.32 190.989C318.586 191.68 318.718 192.504 318.718 193.46V194.249H309.776V192.516H316.254C316.249 192.023 316.142 191.585 315.934 191.202C315.726 190.813 315.435 190.508 315.061 190.286C314.691 190.063 314.26 189.952 313.768 189.952C313.242 189.952 312.781 190.08 312.383 190.335C311.985 190.586 311.675 190.918 311.453 191.33C311.235 191.737 311.124 192.184 311.119 192.672V194.185C311.119 194.819 311.235 195.364 311.467 195.818C311.699 196.268 312.023 196.614 312.44 196.855C312.856 197.092 313.344 197.21 313.903 197.21C314.277 197.21 314.615 197.158 314.919 197.054C315.222 196.945 315.484 196.786 315.707 196.578C315.929 196.37 316.097 196.112 316.211 195.804L318.612 196.074C318.46 196.708 318.171 197.262 317.745 197.736C317.324 198.205 316.784 198.569 316.126 198.83C315.468 199.085 314.715 199.213 313.867 199.213ZM320.751 199V197.366L326.376 190.314V190.222H320.936V188.091H329.523V189.845L324.167 196.777V196.869H329.707V199H320.751ZM341.133 199.192C340.276 199.192 339.509 198.972 338.832 198.531C338.155 198.091 337.62 197.452 337.227 196.614C336.834 195.776 336.637 194.758 336.637 193.56C336.637 192.348 336.836 191.325 337.234 190.491C337.636 189.653 338.178 189.021 338.86 188.595C339.542 188.164 340.302 187.949 341.14 187.949C341.779 187.949 342.305 188.058 342.717 188.276C343.129 188.489 343.455 188.747 343.697 189.05C343.938 189.348 344.125 189.63 344.258 189.895H344.365V184.455H346.943V199H344.414V197.281H344.258C344.125 197.546 343.934 197.828 343.683 198.126C343.432 198.42 343.1 198.671 342.688 198.879C342.276 199.088 341.758 199.192 341.133 199.192ZM341.85 197.082C342.395 197.082 342.859 196.936 343.242 196.642C343.626 196.344 343.917 195.929 344.116 195.399C344.315 194.869 344.414 194.251 344.414 193.545C344.414 192.84 344.315 192.227 344.116 191.706C343.922 191.185 343.633 190.78 343.249 190.491C342.871 190.203 342.404 190.058 341.85 190.058C341.277 190.058 340.799 190.207 340.416 190.506C340.032 190.804 339.743 191.216 339.549 191.741C339.355 192.267 339.258 192.868 339.258 193.545C339.258 194.227 339.355 194.836 339.549 195.371C339.748 195.901 340.039 196.32 340.423 196.628C340.811 196.931 341.287 197.082 341.85 197.082ZM354.512 199.213C353.418 199.213 352.474 198.986 351.678 198.531C350.887 198.072 350.279 197.423 349.853 196.585C349.427 195.742 349.214 194.75 349.214 193.609C349.214 192.487 349.427 191.502 349.853 190.655C350.284 189.803 350.885 189.14 351.657 188.666C352.429 188.188 353.335 187.949 354.377 187.949C355.049 187.949 355.684 188.058 356.28 188.276C356.882 188.489 357.412 188.82 357.871 189.27C358.335 189.72 358.7 190.293 358.965 190.989C359.23 191.68 359.363 192.504 359.363 193.46V194.249H350.421V192.516H356.898C356.894 192.023 356.787 191.585 356.579 191.202C356.37 190.813 356.079 190.508 355.705 190.286C355.336 190.063 354.905 189.952 354.412 189.952C353.887 189.952 353.425 190.08 353.028 190.335C352.63 190.586 352.32 190.918 352.097 191.33C351.879 191.737 351.768 192.184 351.763 192.672V194.185C351.763 194.819 351.879 195.364 352.111 195.818C352.343 196.268 352.668 196.614 353.084 196.855C353.501 197.092 353.989 197.21 354.547 197.21C354.921 197.21 355.26 197.158 355.563 197.054C355.866 196.945 356.129 196.786 356.351 196.578C356.574 196.37 356.742 196.112 356.856 195.804L359.256 196.074C359.105 196.708 358.816 197.262 358.39 197.736C357.968 198.205 357.429 198.569 356.77 198.83C356.112 199.085 355.359 199.213 354.512 199.213ZM370.16 190.974L367.816 191.23C367.75 190.993 367.634 190.771 367.468 190.562C367.307 190.354 367.089 190.186 366.815 190.058C366.54 189.93 366.204 189.866 365.806 189.866C365.271 189.866 364.821 189.982 364.457 190.214C364.097 190.446 363.919 190.747 363.924 191.116C363.919 191.434 364.035 191.692 364.272 191.891C364.514 192.089 364.911 192.253 365.465 192.381L367.326 192.778C368.358 193.001 369.125 193.354 369.627 193.837C370.134 194.32 370.39 194.952 370.394 195.733C370.39 196.42 370.188 197.026 369.791 197.551C369.398 198.072 368.851 198.479 368.15 198.773C367.449 199.066 366.644 199.213 365.735 199.213C364.4 199.213 363.325 198.934 362.511 198.375C361.696 197.812 361.211 197.028 361.055 196.024L363.562 195.783C363.676 196.275 363.917 196.647 364.286 196.898C364.656 197.149 365.136 197.274 365.728 197.274C366.339 197.274 366.829 197.149 367.198 196.898C367.572 196.647 367.759 196.337 367.759 195.967C367.759 195.655 367.639 195.397 367.397 195.193C367.16 194.99 366.791 194.833 366.289 194.724L364.428 194.334C363.382 194.116 362.608 193.749 362.106 193.233C361.604 192.712 361.356 192.054 361.36 191.259C361.356 190.586 361.538 190.004 361.907 189.511C362.281 189.014 362.8 188.631 363.463 188.361C364.13 188.086 364.9 187.949 365.771 187.949C367.049 187.949 368.055 188.221 368.789 188.766C369.528 189.31 369.985 190.046 370.16 190.974ZM109.926 227.091V212.091H112.455V213.895H112.604C112.737 213.63 112.924 213.348 113.165 213.05C113.407 212.747 113.733 212.489 114.145 212.276C114.557 212.058 115.083 211.949 115.722 211.949C116.565 211.949 117.325 212.164 118.002 212.595C118.684 213.021 119.223 213.653 119.621 214.491C120.024 215.325 120.225 216.348 120.225 217.56C120.225 218.758 120.028 219.776 119.635 220.614C119.242 221.452 118.707 222.091 118.03 222.531C117.353 222.972 116.586 223.192 115.729 223.192C115.104 223.192 114.586 223.088 114.174 222.879C113.762 222.671 113.43 222.42 113.179 222.126C112.933 221.828 112.741 221.546 112.604 221.281H112.498V227.091H109.926ZM112.448 217.545C112.448 218.251 112.547 218.869 112.746 219.399C112.95 219.929 113.241 220.344 113.62 220.642C114.003 220.936 114.467 221.082 115.012 221.082C115.58 221.082 116.056 220.931 116.439 220.628C116.823 220.32 117.112 219.901 117.306 219.371C117.505 218.836 117.604 218.227 117.604 217.545C117.604 216.868 117.507 216.267 117.313 215.741C117.119 215.216 116.83 214.804 116.446 214.506C116.063 214.207 115.585 214.058 115.012 214.058C114.462 214.058 113.996 214.203 113.613 214.491C113.229 214.78 112.938 215.185 112.739 215.706C112.545 216.227 112.448 216.84 112.448 217.545ZM122.426 223V212.091H124.919V213.909H125.033C125.232 213.279 125.573 212.794 126.056 212.453C126.543 212.107 127.1 211.935 127.725 211.935C127.867 211.935 128.025 211.942 128.201 211.956C128.381 211.965 128.53 211.982 128.648 212.006V214.371C128.539 214.333 128.366 214.3 128.13 214.271C127.898 214.238 127.673 214.222 127.455 214.222C126.986 214.222 126.565 214.323 126.191 214.527C125.821 214.726 125.53 215.003 125.317 215.358C125.104 215.713 124.998 216.123 124.998 216.587V223H122.426ZM134.665 223.213C133.6 223.213 132.677 222.979 131.896 222.51C131.114 222.041 130.508 221.385 130.077 220.543C129.651 219.7 129.438 218.715 129.438 217.588C129.438 216.461 129.651 215.474 130.077 214.626C130.508 213.779 131.114 213.121 131.896 212.652C132.677 212.183 133.6 211.949 134.665 211.949C135.731 211.949 136.654 212.183 137.435 212.652C138.217 213.121 138.82 213.779 139.246 214.626C139.677 215.474 139.893 216.461 139.893 217.588C139.893 218.715 139.677 219.7 139.246 220.543C138.82 221.385 138.217 222.041 137.435 222.51C136.654 222.979 135.731 223.213 134.665 223.213ZM134.68 221.153C135.257 221.153 135.74 220.995 136.129 220.678C136.517 220.356 136.806 219.925 136.995 219.385C137.189 218.845 137.286 218.244 137.286 217.581C137.286 216.913 137.189 216.31 136.995 215.77C136.806 215.225 136.517 214.792 136.129 214.47C135.74 214.148 135.257 213.987 134.68 213.987C134.088 213.987 133.595 214.148 133.202 214.47C132.814 214.792 132.523 215.225 132.329 215.77C132.139 216.31 132.045 216.913 132.045 217.581C132.045 218.244 132.139 218.845 132.329 219.385C132.523 219.925 132.814 220.356 133.202 220.678C133.595 220.995 134.088 221.153 134.68 221.153ZM142.075 212.091H144.646V223.625C144.646 224.411 144.497 225.06 144.199 225.571C143.9 226.082 143.469 226.464 142.906 226.714C142.342 226.965 141.658 227.091 140.853 227.091C140.759 227.091 140.671 227.089 140.591 227.084C140.51 227.084 140.422 227.081 140.328 227.077V224.982C140.399 224.986 140.463 224.989 140.52 224.989C140.576 224.993 140.636 224.996 140.697 224.996C141.19 224.996 141.542 224.875 141.755 224.634C141.968 224.397 142.075 224.049 142.075 223.589V212.091ZM143.353 210.543C142.941 210.543 142.589 210.408 142.295 210.138C142.006 209.863 141.862 209.534 141.862 209.151C141.862 208.762 142.006 208.433 142.295 208.163C142.589 207.889 142.941 207.751 143.353 207.751C143.761 207.751 144.109 207.889 144.397 208.163C144.691 208.433 144.838 208.762 144.838 209.151C144.838 209.534 144.691 209.863 144.397 210.138C144.109 210.408 143.761 210.543 143.353 210.543ZM152.119 223.213C151.026 223.213 150.081 222.986 149.286 222.531C148.495 222.072 147.886 221.423 147.46 220.585C147.034 219.742 146.821 218.75 146.821 217.609C146.821 216.487 147.034 215.502 147.46 214.655C147.891 213.803 148.492 213.14 149.264 212.666C150.036 212.188 150.943 211.949 151.984 211.949C152.657 211.949 153.291 212.058 153.888 212.276C154.489 212.489 155.019 212.82 155.479 213.27C155.943 213.72 156.307 214.293 156.572 214.989C156.838 215.68 156.97 216.504 156.97 217.46V218.249H148.028V216.516H154.506C154.501 216.023 154.394 215.585 154.186 215.202C153.978 214.813 153.687 214.508 153.312 214.286C152.943 214.063 152.512 213.952 152.02 213.952C151.494 213.952 151.033 214.08 150.635 214.335C150.237 214.586 149.927 214.918 149.705 215.33C149.487 215.737 149.375 216.184 149.371 216.672V218.185C149.371 218.819 149.487 219.364 149.719 219.818C149.951 220.268 150.275 220.614 150.692 220.855C151.108 221.092 151.596 221.21 152.155 221.21C152.529 221.21 152.867 221.158 153.17 221.054C153.473 220.945 153.736 220.786 153.959 220.578C154.181 220.37 154.349 220.112 154.463 219.804L156.864 220.074C156.712 220.708 156.423 221.262 155.997 221.736C155.576 222.205 155.036 222.569 154.378 222.83C153.72 223.085 152.967 223.213 152.119 223.213ZM164.593 212.091V214.08H158.321V212.091H164.593ZM159.87 209.477H162.441V219.719C162.441 220.064 162.493 220.33 162.597 220.514C162.706 220.694 162.848 220.817 163.023 220.884C163.198 220.95 163.392 220.983 163.605 220.983C163.766 220.983 163.913 220.971 164.046 220.947C164.183 220.924 164.287 220.902 164.358 220.884L164.792 222.893C164.654 222.941 164.458 222.993 164.202 223.05C163.951 223.107 163.643 223.14 163.279 223.149C162.635 223.168 162.055 223.071 161.539 222.858C161.023 222.64 160.613 222.304 160.31 221.849C160.012 221.395 159.865 220.827 159.87 220.145V209.477ZM175.209 214.974L172.865 215.23C172.799 214.993 172.683 214.771 172.517 214.562C172.356 214.354 172.138 214.186 171.864 214.058C171.589 213.93 171.253 213.866 170.855 213.866C170.32 213.866 169.87 213.982 169.506 214.214C169.146 214.446 168.968 214.747 168.973 215.116C168.968 215.434 169.084 215.692 169.321 215.891C169.563 216.089 169.96 216.253 170.514 216.381L172.375 216.778C173.407 217.001 174.174 217.354 174.676 217.837C175.183 218.32 175.438 218.952 175.443 219.733C175.438 220.42 175.237 221.026 174.839 221.551C174.446 222.072 173.9 222.479 173.199 222.773C172.498 223.066 171.693 223.213 170.784 223.213C169.449 223.213 168.374 222.934 167.56 222.375C166.745 221.812 166.26 221.028 166.104 220.024L168.611 219.783C168.724 220.275 168.966 220.647 169.335 220.898C169.705 221.149 170.185 221.274 170.777 221.274C171.388 221.274 171.878 221.149 172.247 220.898C172.621 220.647 172.808 220.337 172.808 219.967C172.808 219.655 172.688 219.397 172.446 219.193C172.209 218.99 171.84 218.833 171.338 218.724L169.477 218.334C168.431 218.116 167.657 217.749 167.155 217.233C166.653 216.712 166.404 216.054 166.409 215.259C166.404 214.586 166.587 214.004 166.956 213.511C167.33 213.014 167.848 212.631 168.511 212.361C169.179 212.086 169.948 211.949 170.82 211.949C172.098 211.949 173.104 212.221 173.838 212.766C174.577 213.31 175.034 214.046 175.209 214.974ZM192.268 212.091L188.384 223H185.543L181.658 212.091H184.399L186.906 220.195H187.02L189.534 212.091H192.268ZM198.435 223.213C197.37 223.213 196.446 222.979 195.665 222.51C194.884 222.041 194.278 221.385 193.847 220.543C193.421 219.7 193.208 218.715 193.208 217.588C193.208 216.461 193.421 215.474 193.847 214.626C194.278 213.779 194.884 213.121 195.665 212.652C196.446 212.183 197.37 211.949 198.435 211.949C199.5 211.949 200.424 212.183 201.205 212.652C201.986 213.121 202.59 213.779 203.016 214.626C203.447 215.474 203.662 216.461 203.662 217.588C203.662 218.715 203.447 219.7 203.016 220.543C202.59 221.385 201.986 222.041 201.205 222.51C200.424 222.979 199.5 223.213 198.435 223.213ZM198.449 221.153C199.027 221.153 199.51 220.995 199.898 220.678C200.286 220.356 200.575 219.925 200.765 219.385C200.959 218.845 201.056 218.244 201.056 217.581C201.056 216.913 200.959 216.31 200.765 215.77C200.575 215.225 200.286 214.792 199.898 214.47C199.51 214.148 199.027 213.987 198.449 213.987C197.857 213.987 197.365 214.148 196.972 214.47C196.584 214.792 196.292 215.225 196.098 215.77C195.909 216.31 195.814 216.913 195.814 217.581C195.814 218.244 195.909 218.845 196.098 219.385C196.292 219.925 196.584 220.356 196.972 220.678C197.365 220.995 197.857 221.153 198.449 221.153ZM212.798 218.412V212.091H215.369V223H212.876V221.061H212.762C212.516 221.672 212.111 222.171 211.548 222.56C210.989 222.948 210.3 223.142 209.481 223.142C208.766 223.142 208.134 222.983 207.585 222.666C207.04 222.344 206.614 221.878 206.306 221.267C205.998 220.652 205.844 219.908 205.844 219.037V212.091H208.415V218.639C208.415 219.33 208.605 219.88 208.984 220.287C209.362 220.694 209.86 220.898 210.475 220.898C210.854 220.898 211.221 220.805 211.576 220.621C211.931 220.436 212.222 220.161 212.45 219.797C212.682 219.428 212.798 218.966 212.798 218.412ZM226.635 214.974L224.291 215.23C224.225 214.993 224.109 214.771 223.943 214.562C223.782 214.354 223.564 214.186 223.289 214.058C223.015 213.93 222.679 213.866 222.281 213.866C221.746 213.866 221.296 213.982 220.931 214.214C220.572 214.446 220.394 214.747 220.399 215.116C220.394 215.434 220.51 215.692 220.747 215.891C220.988 216.089 221.386 216.253 221.94 216.381L223.801 216.778C224.833 217.001 225.6 217.354 226.102 217.837C226.609 218.32 226.864 218.952 226.869 219.733C226.864 220.42 226.663 221.026 226.265 221.551C225.872 222.072 225.325 222.479 224.625 222.773C223.924 223.066 223.119 223.213 222.21 223.213C220.875 223.213 219.8 222.934 218.985 222.375C218.171 221.812 217.686 221.028 217.529 220.024L220.037 219.783C220.15 220.275 220.392 220.647 220.761 220.898C221.13 221.149 221.611 221.274 222.203 221.274C222.814 221.274 223.304 221.149 223.673 220.898C224.047 220.647 224.234 220.337 224.234 219.967C224.234 219.655 224.113 219.397 223.872 219.193C223.635 218.99 223.266 218.833 222.764 218.724L220.903 218.334C219.857 218.116 219.083 217.749 218.581 217.233C218.079 216.712 217.83 216.054 217.835 215.259C217.83 214.586 218.012 214.004 218.382 213.511C218.756 213.014 219.274 212.631 219.937 212.361C220.605 212.086 221.374 211.949 222.245 211.949C223.524 211.949 224.53 212.221 225.264 212.766C226.002 213.31 226.459 214.046 226.635 214.974ZM233.95 223V212.091H236.443V213.909H236.556C236.755 213.279 237.096 212.794 237.579 212.453C238.067 212.107 238.623 211.935 239.248 211.935C239.39 211.935 239.549 211.942 239.724 211.956C239.904 211.965 240.053 211.982 240.172 212.006V214.371C240.063 214.333 239.89 214.3 239.653 214.271C239.421 214.238 239.196 214.222 238.978 214.222C238.51 214.222 238.088 214.323 237.714 214.527C237.345 214.726 237.054 215.003 236.841 215.358C236.627 215.713 236.521 216.123 236.521 216.587V223H233.95ZM246.26 223.213C245.166 223.213 244.222 222.986 243.426 222.531C242.635 222.072 242.027 221.423 241.601 220.585C241.175 219.742 240.962 218.75 240.962 217.609C240.962 216.487 241.175 215.502 241.601 214.655C242.032 213.803 242.633 213.14 243.405 212.666C244.177 212.188 245.083 211.949 246.125 211.949C246.797 211.949 247.432 212.058 248.028 212.276C248.63 212.489 249.16 212.82 249.619 213.27C250.083 213.72 250.448 214.293 250.713 214.989C250.978 215.68 251.111 216.504 251.111 217.46V218.249H242.169V216.516H248.646C248.642 216.023 248.535 215.585 248.327 215.202C248.118 214.813 247.827 214.508 247.453 214.286C247.084 214.063 246.653 213.952 246.161 213.952C245.635 213.952 245.173 214.08 244.776 214.335C244.378 214.586 244.068 214.918 243.845 215.33C243.627 215.737 243.516 216.184 243.511 216.672V218.185C243.511 218.819 243.627 219.364 243.859 219.818C244.091 220.268 244.416 220.614 244.832 220.855C245.249 221.092 245.737 221.21 246.295 221.21C246.67 221.21 247.008 221.158 247.311 221.054C247.614 220.945 247.877 220.786 248.099 220.578C248.322 220.37 248.49 220.112 248.604 219.804L251.004 220.074C250.853 220.708 250.564 221.262 250.138 221.736C249.716 222.205 249.177 222.569 248.518 222.83C247.86 223.085 247.107 223.213 246.26 223.213ZM258.044 223.213C256.955 223.213 256.02 222.974 255.239 222.496C254.462 222.018 253.864 221.357 253.442 220.514C253.025 219.667 252.817 218.691 252.817 217.588C252.817 216.48 253.03 215.502 253.456 214.655C253.882 213.803 254.484 213.14 255.26 212.666C256.042 212.188 256.965 211.949 258.03 211.949C258.916 211.949 259.699 212.112 260.381 212.439C261.068 212.761 261.614 213.218 262.022 213.81C262.429 214.397 262.661 215.083 262.718 215.869H260.26C260.161 215.344 259.924 214.906 259.55 214.555C259.181 214.2 258.686 214.023 258.066 214.023C257.54 214.023 257.078 214.165 256.681 214.449C256.283 214.728 255.973 215.131 255.75 215.656C255.533 216.182 255.424 216.812 255.424 217.545C255.424 218.289 255.533 218.928 255.75 219.463C255.968 219.993 256.274 220.403 256.667 220.692C257.064 220.976 257.531 221.118 258.066 221.118C258.444 221.118 258.783 221.047 259.081 220.905C259.384 220.758 259.638 220.547 259.841 220.273C260.045 219.998 260.185 219.664 260.26 219.271H262.718C262.656 220.043 262.429 220.727 262.036 221.324C261.643 221.916 261.108 222.38 260.431 222.716C259.754 223.047 258.958 223.213 258.044 223.213ZM267.4 216.608V223H264.829V208.455H267.343V213.945H267.471C267.727 213.329 268.122 212.844 268.657 212.489C269.197 212.129 269.883 211.949 270.717 211.949C271.474 211.949 272.135 212.107 272.698 212.425C273.262 212.742 273.697 213.206 274.005 213.817C274.317 214.428 274.474 215.173 274.474 216.054V223H271.903V216.452C271.903 215.718 271.713 215.147 271.335 214.74C270.96 214.328 270.435 214.122 269.758 214.122C269.303 214.122 268.896 214.222 268.536 214.42C268.181 214.615 267.902 214.896 267.698 215.266C267.499 215.635 267.4 216.082 267.4 216.608ZM281.924 223.213C280.83 223.213 279.886 222.986 279.09 222.531C278.299 222.072 277.691 221.423 277.265 220.585C276.839 219.742 276.626 218.75 276.626 217.609C276.626 216.487 276.839 215.502 277.265 214.655C277.696 213.803 278.297 213.14 279.069 212.666C279.841 212.188 280.747 211.949 281.789 211.949C282.461 211.949 283.096 212.058 283.692 212.276C284.294 212.489 284.824 212.82 285.283 213.27C285.747 213.72 286.112 214.293 286.377 214.989C286.642 215.68 286.775 216.504 286.775 217.46V218.249H277.833V216.516H284.31C284.306 216.023 284.199 215.585 283.991 215.202C283.782 214.813 283.491 214.508 283.117 214.286C282.748 214.063 282.317 213.952 281.825 213.952C281.299 213.952 280.837 214.08 280.44 214.335C280.042 214.586 279.732 214.918 279.509 215.33C279.291 215.737 279.18 216.184 279.175 216.672V218.185C279.175 218.819 279.291 219.364 279.523 219.818C279.755 220.268 280.08 220.614 280.496 220.855C280.913 221.092 281.401 221.21 281.96 221.21C282.334 221.21 282.672 221.158 282.975 221.054C283.278 220.945 283.541 220.786 283.763 220.578C283.986 220.37 284.154 220.112 284.268 219.804L286.668 220.074C286.517 220.708 286.228 221.262 285.802 221.736C285.38 222.205 284.841 222.569 284.183 222.83C283.524 223.085 282.772 223.213 281.924 223.213ZM288.95 223V212.091H291.443V213.909H291.556C291.755 213.279 292.096 212.794 292.579 212.453C293.067 212.107 293.623 211.935 294.248 211.935C294.39 211.935 294.549 211.942 294.724 211.956C294.904 211.965 295.053 211.982 295.172 212.006V214.371C295.063 214.333 294.89 214.3 294.653 214.271C294.421 214.238 294.196 214.222 293.978 214.222C293.51 214.222 293.088 214.323 292.714 214.527C292.345 214.726 292.054 215.003 291.841 215.358C291.627 215.713 291.521 216.123 291.521 216.587V223H288.95ZM301.189 223.213C300.1 223.213 299.165 222.974 298.384 222.496C297.607 222.018 297.008 221.357 296.587 220.514C296.17 219.667 295.962 218.691 295.962 217.588C295.962 216.48 296.175 215.502 296.601 214.655C297.027 213.803 297.628 213.14 298.405 212.666C299.186 212.188 300.109 211.949 301.175 211.949C302.06 211.949 302.844 212.112 303.526 212.439C304.212 212.761 304.759 213.218 305.166 213.81C305.573 214.397 305.805 215.083 305.862 215.869H303.405C303.305 215.344 303.069 214.906 302.695 214.555C302.325 214.2 301.83 214.023 301.21 214.023C300.685 214.023 300.223 214.165 299.825 214.449C299.428 214.728 299.117 215.131 298.895 215.656C298.677 216.182 298.568 216.812 298.568 217.545C298.568 218.289 298.677 218.928 298.895 219.463C299.113 219.993 299.418 220.403 299.811 220.692C300.209 220.976 300.675 221.118 301.21 221.118C301.589 221.118 301.928 221.047 302.226 220.905C302.529 220.758 302.782 220.547 302.986 220.273C303.189 219.998 303.329 219.664 303.405 219.271H305.862C305.801 220.043 305.573 220.727 305.18 221.324C304.787 221.916 304.252 222.38 303.575 222.716C302.898 223.047 302.103 223.213 301.189 223.213ZM310.544 216.608V223H307.973V208.455H310.488V213.945H310.615C310.871 213.329 311.266 212.844 311.801 212.489C312.341 212.129 313.028 211.949 313.861 211.949C314.619 211.949 315.279 212.107 315.843 212.425C316.406 212.742 316.842 213.206 317.15 213.817C317.462 214.428 317.618 215.173 317.618 216.054V223H315.047V216.452C315.047 215.718 314.858 215.147 314.479 214.74C314.105 214.328 313.579 214.122 312.902 214.122C312.448 214.122 312.041 214.222 311.681 214.42C311.326 214.615 311.046 214.896 310.843 215.266C310.644 215.635 310.544 216.082 310.544 216.608ZM325.069 223.213C323.975 223.213 323.03 222.986 322.235 222.531C321.444 222.072 320.836 221.423 320.409 220.585C319.983 219.742 319.77 218.75 319.77 217.609C319.77 216.487 319.983 215.502 320.409 214.655C320.84 213.803 321.442 213.14 322.213 212.666C322.985 212.188 323.892 211.949 324.934 211.949C325.606 211.949 326.24 212.058 326.837 212.276C327.438 212.489 327.969 212.82 328.428 213.27C328.892 213.72 329.257 214.293 329.522 214.989C329.787 215.68 329.919 216.504 329.919 217.46V218.249H320.978V216.516H327.455C327.45 216.023 327.344 215.585 327.135 215.202C326.927 214.813 326.636 214.508 326.262 214.286C325.892 214.063 325.462 213.952 324.969 213.952C324.444 213.952 323.982 214.08 323.584 214.335C323.186 214.586 322.876 214.918 322.654 215.33C322.436 215.737 322.325 216.184 322.32 216.672V218.185C322.32 218.819 322.436 219.364 322.668 219.818C322.9 220.268 323.224 220.614 323.641 220.855C324.058 221.092 324.545 221.21 325.104 221.21C325.478 221.21 325.817 221.158 326.12 221.054C326.423 220.945 326.685 220.786 326.908 220.578C327.131 220.37 327.299 220.112 327.412 219.804L329.813 220.074C329.661 220.708 329.373 221.262 328.946 221.736C328.525 222.205 327.985 222.569 327.327 222.83C326.669 223.085 325.916 223.213 325.069 223.213ZM331.952 223V221.366L337.577 214.314V214.222H332.137V212.091H340.724V213.845L335.369 220.777V220.869H340.908V223H331.952ZM352.334 223.192C351.477 223.192 350.71 222.972 350.033 222.531C349.356 222.091 348.821 221.452 348.428 220.614C348.035 219.776 347.838 218.758 347.838 217.56C347.838 216.348 348.037 215.325 348.435 214.491C348.837 213.653 349.38 213.021 350.061 212.595C350.743 212.164 351.503 211.949 352.341 211.949C352.98 211.949 353.506 212.058 353.918 212.276C354.33 212.489 354.657 212.747 354.898 213.05C355.14 213.348 355.327 213.63 355.459 213.895H355.566V208.455H358.144V223H355.615V221.281H355.459C355.327 221.546 355.135 221.828 354.884 222.126C354.633 222.42 354.301 222.671 353.89 222.879C353.478 223.088 352.959 223.192 352.334 223.192ZM353.051 221.082C353.596 221.082 354.06 220.936 354.444 220.642C354.827 220.344 355.118 219.929 355.317 219.399C355.516 218.869 355.615 218.251 355.615 217.545C355.615 216.84 355.516 216.227 355.317 215.706C355.123 215.185 354.834 214.78 354.451 214.491C354.072 214.203 353.605 214.058 353.051 214.058C352.479 214.058 352 214.207 351.617 214.506C351.233 214.804 350.944 215.216 350.75 215.741C350.556 216.267 350.459 216.868 350.459 217.545C350.459 218.227 350.556 218.836 350.75 219.371C350.949 219.901 351.24 220.32 351.624 220.628C352.012 220.931 352.488 221.082 353.051 221.082ZM365.713 223.213C364.619 223.213 363.675 222.986 362.879 222.531C362.089 222.072 361.48 221.423 361.054 220.585C360.628 219.742 360.415 218.75 360.415 217.609C360.415 216.487 360.628 215.502 361.054 214.655C361.485 213.803 362.086 213.14 362.858 212.666C363.63 212.188 364.536 211.949 365.578 211.949C366.25 211.949 366.885 212.058 367.482 212.276C368.083 212.489 368.613 212.82 369.072 213.27C369.536 213.72 369.901 214.293 370.166 214.989C370.431 215.68 370.564 216.504 370.564 217.46V218.249H361.622V216.516H368.099C368.095 216.023 367.988 215.585 367.78 215.202C367.571 214.813 367.28 214.508 366.906 214.286C366.537 214.063 366.106 213.952 365.614 213.952C365.088 213.952 364.626 214.08 364.229 214.335C363.831 214.586 363.521 214.918 363.298 215.33C363.08 215.737 362.969 216.184 362.964 216.672V218.185C362.964 218.819 363.08 219.364 363.312 219.818C363.545 220.268 363.869 220.614 364.286 220.855C364.702 221.092 365.19 221.21 365.749 221.21C366.123 221.21 366.461 221.158 366.764 221.054C367.067 220.945 367.33 220.786 367.553 220.578C367.775 220.37 367.943 220.112 368.057 219.804L370.457 220.074C370.306 220.708 370.017 221.262 369.591 221.736C369.17 222.205 368.63 222.569 367.972 222.83C367.313 223.085 366.561 223.213 365.713 223.213ZM381.361 214.974L379.017 215.23C378.951 214.993 378.835 214.771 378.669 214.562C378.508 214.354 378.291 214.186 378.016 214.058C377.741 213.93 377.405 213.866 377.007 213.866C376.472 213.866 376.023 213.982 375.658 214.214C375.298 214.446 375.121 214.747 375.125 215.116C375.121 215.434 375.237 215.692 375.473 215.891C375.715 216.089 376.113 216.253 376.667 216.381L378.527 216.778C379.56 217.001 380.327 217.354 380.828 217.837C381.335 218.32 381.591 218.952 381.596 219.733C381.591 220.42 381.39 221.026 380.992 221.551C380.599 222.072 380.052 222.479 379.351 222.773C378.65 223.066 377.846 223.213 376.936 223.213C375.601 223.213 374.526 222.934 373.712 222.375C372.898 221.812 372.412 221.028 372.256 220.024L374.763 219.783C374.877 220.275 375.118 220.647 375.488 220.898C375.857 221.149 376.337 221.274 376.929 221.274C377.54 221.274 378.03 221.149 378.4 220.898C378.774 220.647 378.961 220.337 378.961 219.967C378.961 219.655 378.84 219.397 378.598 219.193C378.362 218.99 377.992 218.833 377.49 218.724L375.63 218.334C374.583 218.116 373.809 217.749 373.307 217.233C372.805 216.712 372.557 216.054 372.561 215.259C372.557 214.586 372.739 214.004 373.108 213.511C373.482 213.014 374.001 212.631 374.664 212.361C375.331 212.086 376.101 211.949 376.972 211.949C378.25 211.949 379.257 212.221 379.99 212.766C380.729 213.31 381.186 214.046 381.361 214.974ZM218.89 236.091V238.08H212.618V236.091H218.89ZM214.167 233.477H216.738V243.719C216.738 244.064 216.79 244.33 216.894 244.514C217.003 244.694 217.145 244.817 217.32 244.884C217.495 244.95 217.689 244.983 217.902 244.983C218.063 244.983 218.21 244.971 218.343 244.947C218.48 244.924 218.584 244.902 218.655 244.884L219.088 246.893C218.951 246.941 218.755 246.993 218.499 247.05C218.248 247.107 217.94 247.14 217.576 247.149C216.932 247.168 216.352 247.071 215.836 246.858C215.319 246.64 214.91 246.304 214.607 245.849C214.309 245.395 214.162 244.827 214.167 244.145V233.477ZM224.179 247.22C223.488 247.22 222.865 247.097 222.311 246.851C221.762 246.6 221.326 246.231 221.004 245.743C220.687 245.255 220.528 244.654 220.528 243.939C220.528 243.323 220.642 242.814 220.869 242.412C221.097 242.009 221.407 241.688 221.8 241.446C222.193 241.205 222.635 241.022 223.128 240.899C223.625 240.771 224.139 240.679 224.669 240.622C225.308 240.556 225.827 240.497 226.224 240.445C226.622 240.388 226.911 240.303 227.091 240.189C227.276 240.071 227.368 239.888 227.368 239.642V239.599C227.368 239.064 227.209 238.65 226.892 238.357C226.575 238.063 226.118 237.916 225.521 237.916C224.892 237.916 224.392 238.054 224.023 238.328C223.658 238.603 223.412 238.927 223.284 239.301L220.884 238.96C221.073 238.297 221.385 237.743 221.821 237.298C222.257 236.848 222.789 236.512 223.419 236.29C224.049 236.062 224.745 235.949 225.507 235.949C226.033 235.949 226.556 236.01 227.077 236.134C227.598 236.257 228.073 236.46 228.504 236.744C228.935 237.024 229.281 237.405 229.541 237.888C229.806 238.371 229.939 238.974 229.939 239.699V247H227.467V245.501H227.382C227.226 245.804 227.006 246.089 226.722 246.354C226.442 246.614 226.089 246.825 225.663 246.986C225.242 247.142 224.747 247.22 224.179 247.22ZM224.847 245.331C225.363 245.331 225.81 245.229 226.189 245.026C226.568 244.817 226.859 244.543 227.062 244.202C227.271 243.861 227.375 243.489 227.375 243.087V241.801C227.295 241.867 227.157 241.929 226.963 241.986C226.774 242.043 226.561 242.092 226.324 242.135C226.087 242.178 225.853 242.215 225.621 242.249C225.389 242.282 225.188 242.31 225.017 242.334C224.634 242.386 224.29 242.471 223.987 242.589C223.684 242.708 223.445 242.874 223.27 243.087C223.095 243.295 223.007 243.565 223.007 243.896C223.007 244.37 223.18 244.727 223.526 244.969C223.871 245.21 224.312 245.331 224.847 245.331ZM235.095 232.455V247H232.524V232.455H235.095ZM242.569 247.213C241.475 247.213 240.53 246.986 239.735 246.531C238.944 246.072 238.336 245.423 237.909 244.585C237.483 243.742 237.27 242.75 237.27 241.609C237.27 240.487 237.483 239.502 237.909 238.655C238.34 237.803 238.942 237.14 239.713 236.666C240.485 236.188 241.392 235.949 242.434 235.949C243.106 235.949 243.74 236.058 244.337 236.276C244.938 236.489 245.469 236.82 245.928 237.27C246.392 237.72 246.757 238.293 247.022 238.989C247.287 239.68 247.419 240.504 247.419 241.46V242.249H238.478V240.516H244.955C244.95 240.023 244.844 239.585 244.635 239.202C244.427 238.813 244.136 238.508 243.762 238.286C243.392 238.063 242.962 237.952 242.469 237.952C241.944 237.952 241.482 238.08 241.084 238.335C240.686 238.586 240.376 238.918 240.154 239.33C239.936 239.737 239.825 240.184 239.82 240.672V242.185C239.82 242.819 239.936 243.364 240.168 243.818C240.4 244.268 240.724 244.614 241.141 244.855C241.558 245.092 242.045 245.21 242.604 245.21C242.978 245.21 243.317 245.158 243.62 245.054C243.923 244.945 244.185 244.786 244.408 244.578C244.631 244.37 244.799 244.112 244.912 243.804L247.313 244.074C247.161 244.708 246.873 245.262 246.446 245.736C246.025 246.205 245.485 246.569 244.827 246.83C244.169 247.085 243.416 247.213 242.569 247.213ZM252.165 240.608V247H249.594V236.091H252.052V237.945H252.18C252.431 237.334 252.831 236.848 253.38 236.489C253.934 236.129 254.618 235.949 255.433 235.949C256.185 235.949 256.841 236.11 257.4 236.432C257.963 236.754 258.399 237.22 258.707 237.831C259.019 238.442 259.173 239.183 259.168 240.054V247H256.597V240.452C256.597 239.723 256.408 239.152 256.029 238.74C255.655 238.328 255.137 238.122 254.474 238.122C254.024 238.122 253.624 238.222 253.273 238.42C252.928 238.615 252.656 238.896 252.457 239.266C252.263 239.635 252.165 240.082 252.165 240.608ZM267.229 236.091V238.08H260.958V236.091H267.229ZM262.506 233.477H265.077V243.719C265.077 244.064 265.129 244.33 265.234 244.514C265.343 244.694 265.485 244.817 265.66 244.884C265.835 244.95 266.029 244.983 266.242 244.983C266.403 244.983 266.55 244.971 266.683 244.947C266.82 244.924 266.924 244.902 266.995 244.884L267.428 246.893C267.291 246.941 267.094 246.993 266.839 247.05C266.588 247.107 266.28 247.14 265.915 247.149C265.272 247.168 264.692 247.071 264.175 246.858C263.659 246.64 263.25 246.304 262.947 245.849C262.648 245.395 262.502 244.827 262.506 244.145V233.477ZM277.846 238.974L275.502 239.23C275.435 238.993 275.319 238.771 275.154 238.562C274.993 238.354 274.775 238.186 274.5 238.058C274.226 237.93 273.89 237.866 273.492 237.866C272.957 237.866 272.507 237.982 272.142 238.214C271.783 238.446 271.605 238.747 271.61 239.116C271.605 239.434 271.721 239.692 271.958 239.891C272.199 240.089 272.597 240.253 273.151 240.381L275.012 240.778C276.044 241.001 276.811 241.354 277.313 241.837C277.819 242.32 278.075 242.952 278.08 243.733C278.075 244.42 277.874 245.026 277.476 245.551C277.083 246.072 276.536 246.479 275.836 246.773C275.135 247.066 274.33 247.213 273.421 247.213C272.086 247.213 271.011 246.934 270.196 246.375C269.382 245.812 268.897 245.028 268.74 244.024L271.248 243.783C271.361 244.275 271.603 244.647 271.972 244.898C272.341 245.149 272.822 245.274 273.414 245.274C274.025 245.274 274.515 245.149 274.884 244.898C275.258 244.647 275.445 244.337 275.445 243.967C275.445 243.655 275.324 243.397 275.083 243.193C274.846 242.99 274.477 242.833 273.975 242.724L272.114 242.334C271.068 242.116 270.293 241.749 269.792 241.233C269.29 240.712 269.041 240.054 269.046 239.259C269.041 238.586 269.223 238.004 269.593 237.511C269.967 237.014 270.485 236.631 271.148 236.361C271.816 236.086 272.585 235.949 273.456 235.949C274.735 235.949 275.741 236.221 276.475 236.766C277.213 237.31 277.67 238.046 277.846 238.974Z" fill="#3F3F3F"/>
<path d="M186.152 116V94.1818H190.104V104.207H190.371L198.883 94.1818H203.709L195.271 103.972L203.783 116H199.032L192.523 106.646L190.104 109.501V116H186.152ZM214.24 103.504V106.678H204.417V103.504H214.24ZM218.466 116V94.1818H226.648C228.324 94.1818 229.731 94.4943 230.867 95.1193C232.01 95.7443 232.873 96.6037 233.456 97.6974C234.045 98.7841 234.34 100.02 234.34 101.405C234.34 102.804 234.045 104.047 233.456 105.134C232.866 106.22 231.996 107.076 230.846 107.701C229.695 108.319 228.278 108.628 226.595 108.628H221.172V105.379H226.062C227.042 105.379 227.845 105.208 228.47 104.867C229.095 104.526 229.557 104.058 229.855 103.461C230.16 102.864 230.313 102.179 230.313 101.405C230.313 100.631 230.16 99.9489 229.855 99.3594C229.557 98.7699 229.091 98.3118 228.459 97.9851C227.834 97.6513 227.028 97.4844 226.041 97.4844H222.419V116H218.466ZM241.459 94.1818V116H237.603V94.1818H241.459ZM250.134 116.33C249.097 116.33 248.163 116.146 247.332 115.776C246.508 115.4 245.855 114.846 245.372 114.114C244.896 113.383 244.658 112.481 244.658 111.408C244.658 110.485 244.828 109.722 245.169 109.118C245.51 108.514 245.975 108.031 246.565 107.669C247.154 107.307 247.818 107.033 248.557 106.849C249.303 106.657 250.073 106.518 250.869 106.433C251.828 106.334 252.605 106.245 253.202 106.167C253.798 106.082 254.232 105.954 254.502 105.783C254.779 105.606 254.917 105.332 254.917 104.963V104.899C254.917 104.097 254.679 103.475 254.203 103.035C253.727 102.594 253.042 102.374 252.147 102.374C251.203 102.374 250.453 102.58 249.899 102.992C249.352 103.404 248.983 103.891 248.791 104.452L245.191 103.94C245.475 102.946 245.943 102.115 246.597 101.447C247.25 100.773 248.049 100.268 248.994 99.9347C249.938 99.5938 250.982 99.4233 252.126 99.4233C252.914 99.4233 253.699 99.5156 254.48 99.7003C255.262 99.8849 255.975 100.19 256.622 100.616C257.268 101.036 257.786 101.607 258.177 102.332C258.575 103.056 258.774 103.962 258.774 105.048V116H255.066V113.752H254.938C254.704 114.207 254.374 114.633 253.948 115.031C253.529 115.421 252.999 115.737 252.36 115.979C251.728 116.213 250.986 116.33 250.134 116.33ZM251.135 113.496C251.909 113.496 252.58 113.344 253.149 113.038C253.717 112.726 254.154 112.314 254.459 111.803C254.771 111.291 254.928 110.734 254.928 110.13V108.202C254.807 108.301 254.601 108.393 254.31 108.479C254.026 108.564 253.706 108.638 253.351 108.702C252.996 108.766 252.644 108.823 252.296 108.873C251.948 108.923 251.646 108.965 251.391 109.001C250.816 109.079 250.301 109.207 249.846 109.384C249.392 109.562 249.033 109.81 248.77 110.13C248.507 110.442 248.376 110.847 248.376 111.344C248.376 112.055 248.635 112.591 249.154 112.953C249.672 113.315 250.333 113.496 251.135 113.496ZM264.463 122.136C263.937 122.136 263.45 122.094 263.003 122.009C262.563 121.93 262.211 121.838 261.948 121.732L262.843 118.727C263.404 118.891 263.905 118.969 264.345 118.962C264.786 118.955 265.173 118.816 265.507 118.546C265.847 118.283 266.135 117.843 266.369 117.225L266.7 116.341L260.766 99.6364H264.857L268.628 111.994H268.798L272.58 99.6364H276.682L270.13 117.982C269.825 118.848 269.42 119.59 268.916 120.208C268.411 120.833 267.794 121.309 267.062 121.636C266.338 121.969 265.471 122.136 264.463 122.136ZM286.038 116.32C284.398 116.32 282.981 115.979 281.788 115.297C280.602 114.608 279.689 113.635 279.05 112.378C278.411 111.114 278.091 109.626 278.091 107.914C278.091 106.231 278.411 104.754 279.05 103.482C279.696 102.204 280.598 101.21 281.756 100.499C282.913 99.782 284.273 99.4233 285.836 99.4233C286.844 99.4233 287.796 99.5866 288.691 99.9134C289.593 100.233 290.388 100.73 291.077 101.405C291.773 102.08 292.32 102.939 292.718 103.983C293.116 105.02 293.315 106.256 293.315 107.69V108.873H279.902V106.273H289.618C289.611 105.535 289.451 104.878 289.138 104.303C288.826 103.72 288.389 103.262 287.828 102.928C287.274 102.594 286.628 102.428 285.889 102.428C285.101 102.428 284.408 102.619 283.812 103.003C283.215 103.379 282.75 103.876 282.416 104.494C282.089 105.105 281.923 105.776 281.915 106.508V108.777C281.915 109.729 282.089 110.545 282.438 111.227C282.786 111.902 283.272 112.42 283.897 112.783C284.522 113.138 285.254 113.315 286.092 113.315C286.653 113.315 287.161 113.237 287.615 113.081C288.07 112.918 288.464 112.68 288.798 112.367C289.131 112.055 289.384 111.668 289.554 111.206L293.155 111.611C292.928 112.562 292.494 113.393 291.855 114.104C291.223 114.807 290.413 115.354 289.426 115.744C288.439 116.128 287.31 116.32 286.038 116.32ZM296.577 116V99.6364H300.317V102.364H300.487C300.785 101.419 301.297 100.691 302.021 100.18C302.753 99.6612 303.587 99.402 304.525 99.402C304.738 99.402 304.976 99.4126 305.238 99.4339C305.508 99.4482 305.732 99.473 305.91 99.5085V103.056C305.746 102.999 305.487 102.95 305.132 102.907C304.784 102.857 304.447 102.832 304.12 102.832C303.417 102.832 302.785 102.985 302.224 103.29C301.67 103.589 301.233 104.004 300.913 104.537C300.594 105.07 300.434 105.684 300.434 106.38V116H296.577Z" fill="#2C2C2C"/>
</g>
<defs>
<filter id="filter0_d_535_3071" x="50.6055" y="35.1123" width="391.789" height="279.864" filterUnits="userSpaceOnUse" color-interpolation-filters="sRGB">
<feFlood flood-opacity="0" result="BackgroundImageFix"/>
<feColorMatrix in="SourceAlpha" type="matrix" values="0 0 0 0 0 0 0 0 0 0 0 0 0 0 0 0 0 0 127 0" result="hardAlpha"/>
<feOffset dy="7"/>
<feGaussianBlur stdDeviation="5"/>
<feComposite in2="hardAlpha" operator="out"/>
<feColorMatrix type="matrix" values="0 0 0 0 0.691667 0 0 0 0 0.691667 0 0 0 0 0.691667 0 0 0 0.5 0"/>
<feBlend mode="normal" in2="BackgroundImageFix" result="effect1_dropShadow_535_3071"/>
<feBlend mode="normal" in="SourceGraphic" in2="effect1_dropShadow_535_3071" result="shape"/>
</filter>
<filter id="filter1_d_535_3071" x="45.4648" y="44.5254" width="402.066" height="261.038" filterUnits="userSpaceOnUse" color-interpolation-filters="sRGB">
<feFlood flood-opacity="0" result="BackgroundImageFix"/>
<feColorMatrix in="SourceAlpha" type="matrix" values="0 0 0 0 0 0 0 0 0 0 0 0 0 0 0 0 0 0 127 0" result="hardAlpha"/>
<feOffset dy="7"/>
<feGaussianBlur stdDeviation="5"/>
<feComposite in2="hardAlpha" operator="out"/>
<feColorMatrix type="matrix" values="0 0 0 0 0.691667 0 0 0 0 0.691667 0 0 0 0 0.691667 0 0 0 0.5 0"/>
<feBlend mode="normal" in2="BackgroundImageFix" result="effect1_dropShadow_535_3071"/>
<feBlend mode="normal" in="SourceGraphic" in2="effect1_dropShadow_535_3071" result="shape"/>
</filter>
<clipPath id="clip0_535_3071">
<rect width="494" height="336" rx="168" fill="white"/>
</clipPath>
</defs>
</svg>
