<svg width="462" height="326" viewBox="0 0 462 326" fill="none"
    xmlns="http://www.w3.org/2000/svg">
    <g clip-path="url(#clip0_353_2409)">
        <rect width="462" height="326" rx="50" fill="white"/>
        <g opacity="0.5" filter="url(#filter0_d_353_2409)">
            <rect x="106.127" y="56" width="250" height="250" transform="rotate(0.0290197 106.127 56)" fill="#297180"/>
        </g>
        <g opacity="0.4" filter="url(#filter1_d_353_2409)">
            <rect x="393.229" y="57.3193" width="250" height="250" transform="rotate(95.3521 393.229 57.3193)" fill="#297180"/>
        </g>
        <path d="M122.306 174V159.455H131.624V161.663H124.941V165.612H130.985V167.821H124.941V174H122.306ZM133.755 174V163.091H136.248V164.909H136.361C136.56 164.279 136.901 163.794 137.384 163.453C137.872 163.107 138.428 162.935 139.053 162.935C139.195 162.935 139.354 162.942 139.529 162.956C139.709 162.965 139.858 162.982 139.976 163.006V165.371C139.867 165.333 139.694 165.3 139.458 165.271C139.226 165.238 139.001 165.222 138.783 165.222C138.314 165.222 137.893 165.323 137.519 165.527C137.15 165.726 136.858 166.003 136.645 166.358C136.432 166.713 136.326 167.123 136.326 167.587V174H133.755ZM146.065 174.213C144.971 174.213 144.026 173.986 143.231 173.531C142.44 173.072 141.832 172.423 141.406 171.585C140.979 170.742 140.766 169.75 140.766 168.609C140.766 167.487 140.979 166.502 141.406 165.655C141.836 164.803 142.438 164.14 143.21 163.666C143.981 163.188 144.888 162.949 145.93 162.949C146.602 162.949 147.237 163.058 147.833 163.276C148.434 163.489 148.965 163.82 149.424 164.27C149.888 164.72 150.253 165.293 150.518 165.989C150.783 166.68 150.915 167.504 150.915 168.46V169.249H141.974V167.516H148.451C148.446 167.023 148.34 166.585 148.131 166.202C147.923 165.813 147.632 165.508 147.258 165.286C146.888 165.063 146.458 164.952 145.965 164.952C145.44 164.952 144.978 165.08 144.58 165.335C144.183 165.586 143.872 165.918 143.65 166.33C143.432 166.737 143.321 167.184 143.316 167.672V169.185C143.316 169.819 143.432 170.364 143.664 170.818C143.896 171.268 144.22 171.614 144.637 171.855C145.054 172.092 145.541 172.21 146.1 172.21C146.474 172.21 146.813 172.158 147.116 172.054C147.419 171.945 147.682 171.786 147.904 171.578C148.127 171.37 148.295 171.112 148.408 170.804L150.809 171.074C150.657 171.708 150.369 172.262 149.942 172.736C149.521 173.205 148.981 173.569 148.323 173.83C147.665 174.085 146.912 174.213 146.065 174.213ZM157.92 174.213C156.826 174.213 155.882 173.986 155.086 173.531C154.296 173.072 153.687 172.423 153.261 171.585C152.835 170.742 152.622 169.75 152.622 168.609C152.622 167.487 152.835 166.502 153.261 165.655C153.692 164.803 154.293 164.14 155.065 163.666C155.837 163.188 156.743 162.949 157.785 162.949C158.458 162.949 159.092 163.058 159.689 163.276C160.29 163.489 160.82 163.82 161.279 164.27C161.743 164.72 162.108 165.293 162.373 165.989C162.638 166.68 162.771 167.504 162.771 168.46V169.249H153.829V167.516H160.306C160.302 167.023 160.195 166.585 159.987 166.202C159.779 165.813 159.487 165.508 159.113 165.286C158.744 165.063 158.313 164.952 157.821 164.952C157.295 164.952 156.833 165.08 156.436 165.335C156.038 165.586 155.728 165.918 155.505 166.33C155.288 166.737 155.176 167.184 155.172 167.672V169.185C155.172 169.819 155.288 170.364 155.52 170.818C155.752 171.268 156.076 171.614 156.493 171.855C156.909 172.092 157.397 172.21 157.956 172.21C158.33 172.21 158.668 172.158 158.971 172.054C159.274 171.945 159.537 171.786 159.76 171.578C159.982 171.37 160.15 171.112 160.264 170.804L162.664 171.074C162.513 171.708 162.224 172.262 161.798 172.736C161.377 173.205 160.837 173.569 160.179 173.83C159.52 174.085 158.768 174.213 157.92 174.213ZM167.517 159.455V174H164.946V159.455H167.517ZM173.3 174.22C172.609 174.22 171.986 174.097 171.432 173.851C170.883 173.6 170.447 173.231 170.125 172.743C169.808 172.255 169.65 171.654 169.65 170.939C169.65 170.323 169.763 169.814 169.99 169.412C170.218 169.009 170.528 168.688 170.921 168.446C171.314 168.205 171.757 168.022 172.249 167.899C172.746 167.771 173.26 167.679 173.79 167.622C174.429 167.556 174.948 167.497 175.346 167.445C175.743 167.388 176.032 167.303 176.212 167.189C176.397 167.071 176.489 166.888 176.489 166.642V166.599C176.489 166.064 176.33 165.65 176.013 165.357C175.696 165.063 175.239 164.916 174.642 164.916C174.013 164.916 173.513 165.054 173.144 165.328C172.779 165.603 172.533 165.927 172.405 166.301L170.005 165.96C170.194 165.297 170.507 164.743 170.942 164.298C171.378 163.848 171.91 163.512 172.54 163.29C173.17 163.062 173.866 162.949 174.628 162.949C175.154 162.949 175.677 163.01 176.198 163.134C176.719 163.257 177.194 163.46 177.625 163.744C178.056 164.024 178.402 164.405 178.662 164.888C178.927 165.371 179.06 165.974 179.06 166.699V174H176.588V172.501H176.503C176.347 172.804 176.127 173.089 175.843 173.354C175.563 173.614 175.211 173.825 174.784 173.986C174.363 174.142 173.868 174.22 173.3 174.22ZM173.968 172.331C174.484 172.331 174.931 172.229 175.31 172.026C175.689 171.817 175.98 171.543 176.184 171.202C176.392 170.861 176.496 170.489 176.496 170.087V168.801C176.416 168.867 176.278 168.929 176.084 168.986C175.895 169.043 175.682 169.092 175.445 169.135C175.208 169.178 174.974 169.215 174.742 169.249C174.51 169.282 174.309 169.31 174.138 169.334C173.755 169.386 173.411 169.471 173.108 169.589C172.805 169.708 172.566 169.874 172.391 170.087C172.216 170.295 172.128 170.565 172.128 170.896C172.128 171.37 172.301 171.727 172.647 171.969C172.992 172.21 173.433 172.331 173.968 172.331ZM184.216 167.608V174H181.645V163.091H184.103V164.945H184.23C184.481 164.334 184.882 163.848 185.431 163.489C185.985 163.129 186.669 162.949 187.483 162.949C188.236 162.949 188.892 163.11 189.451 163.432C190.014 163.754 190.45 164.22 190.757 164.831C191.07 165.442 191.224 166.183 191.219 167.054V174H188.648V167.452C188.648 166.723 188.459 166.152 188.08 165.74C187.706 165.328 187.187 165.122 186.525 165.122C186.075 165.122 185.675 165.222 185.324 165.42C184.979 165.615 184.706 165.896 184.507 166.266C184.313 166.635 184.216 167.082 184.216 167.608ZM198.591 174.213C197.502 174.213 196.567 173.974 195.786 173.496C195.009 173.018 194.41 172.357 193.989 171.514C193.572 170.667 193.364 169.691 193.364 168.588C193.364 167.48 193.577 166.502 194.003 165.655C194.429 164.803 195.031 164.14 195.807 163.666C196.588 163.188 197.512 162.949 198.577 162.949C199.462 162.949 200.246 163.112 200.928 163.439C201.614 163.761 202.161 164.218 202.569 164.81C202.976 165.397 203.208 166.083 203.265 166.869H200.807C200.708 166.344 200.471 165.906 200.097 165.555C199.728 165.2 199.233 165.023 198.613 165.023C198.087 165.023 197.625 165.165 197.228 165.449C196.83 165.728 196.52 166.131 196.297 166.656C196.079 167.182 195.971 167.812 195.971 168.545C195.971 169.289 196.079 169.928 196.297 170.463C196.515 170.993 196.82 171.403 197.213 171.692C197.611 171.976 198.078 172.118 198.613 172.118C198.991 172.118 199.33 172.047 199.628 171.905C199.931 171.758 200.185 171.547 200.388 171.273C200.592 170.998 200.731 170.664 200.807 170.271H203.265C203.203 171.043 202.976 171.727 202.583 172.324C202.19 172.916 201.655 173.38 200.978 173.716C200.301 174.047 199.505 174.213 198.591 174.213ZM210.205 174.213C209.112 174.213 208.167 173.986 207.371 173.531C206.581 173.072 205.972 172.423 205.546 171.585C205.12 170.742 204.907 169.75 204.907 168.609C204.907 167.487 205.12 166.502 205.546 165.655C205.977 164.803 206.578 164.14 207.35 163.666C208.122 163.188 209.029 162.949 210.07 162.949C210.743 162.949 211.377 163.058 211.974 163.276C212.575 163.489 213.105 163.82 213.565 164.27C214.029 164.72 214.393 165.293 214.658 165.989C214.924 166.68 215.056 167.504 215.056 168.46V169.249H206.114V167.516H212.592C212.587 167.023 212.48 166.585 212.272 166.202C212.064 165.813 211.772 165.508 211.398 165.286C211.029 165.063 210.598 164.952 210.106 164.952C209.58 164.952 209.119 165.08 208.721 165.335C208.323 165.586 208.013 165.918 207.79 166.33C207.573 166.737 207.461 167.184 207.457 167.672V169.185C207.457 169.819 207.573 170.364 207.805 170.818C208.037 171.268 208.361 171.614 208.778 171.855C209.194 172.092 209.682 172.21 210.241 172.21C210.615 172.21 210.953 172.158 211.256 172.054C211.559 171.945 211.822 171.786 212.045 171.578C212.267 171.37 212.435 171.112 212.549 170.804L214.95 171.074C214.798 171.708 214.509 172.262 214.083 172.736C213.662 173.205 213.122 173.569 212.464 173.83C211.806 174.085 211.053 174.213 210.205 174.213ZM220.25 172.011L220.157 172.793C220.091 173.389 219.973 173.995 219.802 174.611C219.636 175.231 219.461 175.802 219.277 176.322C219.092 176.843 218.943 177.253 218.829 177.551H217.096C217.163 177.262 217.252 176.869 217.366 176.372C217.484 175.875 217.598 175.316 217.707 174.696C217.816 174.076 217.889 173.446 217.927 172.807L217.977 172.011H220.25ZM230.39 159.455V174H227.755V159.455H230.39ZM235.701 167.608V174H233.13V163.091H235.587V164.945H235.715C235.966 164.334 236.366 163.848 236.915 163.489C237.469 163.129 238.153 162.949 238.968 162.949C239.721 162.949 240.376 163.11 240.935 163.432C241.498 163.754 241.934 164.22 242.242 164.831C242.554 165.442 242.708 166.183 242.703 167.054V174H240.132V167.452C240.132 166.723 239.943 166.152 239.564 165.74C239.19 165.328 238.672 165.122 238.009 165.122C237.559 165.122 237.159 165.222 236.809 165.42C236.463 165.615 236.191 165.896 235.992 166.266C235.798 166.635 235.701 167.082 235.701 167.608ZM249.365 174.192C248.508 174.192 247.741 173.972 247.064 173.531C246.387 173.091 245.852 172.452 245.459 171.614C245.066 170.776 244.87 169.758 244.87 168.56C244.87 167.348 245.069 166.325 245.466 165.491C245.869 164.653 246.411 164.021 247.093 163.595C247.775 163.164 248.534 162.949 249.373 162.949C250.012 162.949 250.537 163.058 250.949 163.276C251.361 163.489 251.688 163.747 251.929 164.05C252.171 164.348 252.358 164.63 252.49 164.895H252.597V159.455H255.175V174H252.647V172.281H252.49C252.358 172.546 252.166 172.828 251.915 173.126C251.664 173.42 251.333 173.671 250.921 173.879C250.509 174.088 249.99 174.192 249.365 174.192ZM250.083 172.082C250.627 172.082 251.091 171.936 251.475 171.642C251.858 171.344 252.15 170.929 252.348 170.399C252.547 169.869 252.647 169.251 252.647 168.545C252.647 167.84 252.547 167.227 252.348 166.706C252.154 166.185 251.865 165.78 251.482 165.491C251.103 165.203 250.637 165.058 250.083 165.058C249.51 165.058 249.032 165.207 248.648 165.506C248.265 165.804 247.976 166.216 247.782 166.741C247.587 167.267 247.49 167.868 247.49 168.545C247.49 169.227 247.587 169.836 247.782 170.371C247.98 170.901 248.272 171.32 248.655 171.628C249.043 171.931 249.519 172.082 250.083 172.082ZM262.744 174.213C261.651 174.213 260.706 173.986 259.911 173.531C259.12 173.072 258.511 172.423 258.085 171.585C257.659 170.742 257.446 169.75 257.446 168.609C257.446 167.487 257.659 166.502 258.085 165.655C258.516 164.803 259.117 164.14 259.889 163.666C260.661 163.188 261.568 162.949 262.609 162.949C263.282 162.949 263.916 163.058 264.513 163.276C265.114 163.489 265.644 163.82 266.104 164.27C266.568 164.72 266.932 165.293 267.197 165.989C267.463 166.68 267.595 167.504 267.595 168.46V169.249H258.653V167.516H265.131C265.126 167.023 265.019 166.585 264.811 166.202C264.603 165.813 264.312 165.508 263.938 165.286C263.568 165.063 263.137 164.952 262.645 164.952C262.119 164.952 261.658 165.08 261.26 165.335C260.862 165.586 260.552 165.918 260.33 166.33C260.112 166.737 260 167.184 259.996 167.672V169.185C259.996 169.819 260.112 170.364 260.344 170.818C260.576 171.268 260.9 171.614 261.317 171.855C261.733 172.092 262.221 172.21 262.78 172.21C263.154 172.21 263.492 172.158 263.795 172.054C264.098 171.945 264.361 171.786 264.584 171.578C264.806 171.37 264.974 171.112 265.088 170.804L267.489 171.074C267.337 171.708 267.048 172.262 266.622 172.736C266.201 173.205 265.661 173.569 265.003 173.83C264.345 174.085 263.592 174.213 262.744 174.213ZM261.551 161.656L263.142 158.411H265.656L263.476 161.656H261.551ZM269.77 178.091V163.091H272.299V164.895H272.448C272.58 164.63 272.767 164.348 273.009 164.05C273.25 163.747 273.577 163.489 273.989 163.276C274.401 163.058 274.926 162.949 275.566 162.949C276.408 162.949 277.168 163.164 277.846 163.595C278.527 164.021 279.067 164.653 279.465 165.491C279.867 166.325 280.069 167.348 280.069 168.56C280.069 169.758 279.872 170.776 279.479 171.614C279.086 172.452 278.551 173.091 277.874 173.531C277.197 173.972 276.43 174.192 275.573 174.192C274.948 174.192 274.429 174.088 274.017 173.879C273.605 173.671 273.274 173.42 273.023 173.126C272.777 172.828 272.585 172.546 272.448 172.281H272.341V178.091H269.77ZM272.292 168.545C272.292 169.251 272.391 169.869 272.59 170.399C272.793 170.929 273.085 171.344 273.463 171.642C273.847 171.936 274.311 172.082 274.855 172.082C275.424 172.082 275.9 171.931 276.283 171.628C276.667 171.32 276.955 170.901 277.15 170.371C277.348 169.836 277.448 169.227 277.448 168.545C277.448 167.868 277.351 167.267 277.157 166.741C276.962 166.216 276.674 165.804 276.29 165.506C275.907 165.207 275.428 165.058 274.855 165.058C274.306 165.058 273.84 165.203 273.456 165.491C273.073 165.78 272.782 166.185 272.583 166.706C272.389 167.227 272.292 167.84 272.292 168.545ZM287.1 174.213C286.006 174.213 285.061 173.986 284.266 173.531C283.475 173.072 282.867 172.423 282.441 171.585C282.015 170.742 281.801 169.75 281.801 168.609C281.801 167.487 282.015 166.502 282.441 165.655C282.872 164.803 283.473 164.14 284.245 163.666C285.016 163.188 285.923 162.949 286.965 162.949C287.637 162.949 288.272 163.058 288.868 163.276C289.47 163.489 290 163.82 290.459 164.27C290.923 164.72 291.288 165.293 291.553 165.989C291.818 166.68 291.951 167.504 291.951 168.46V169.249H283.009V167.516H289.486C289.481 167.023 289.375 166.585 289.167 166.202C288.958 165.813 288.667 165.508 288.293 165.286C287.924 165.063 287.493 164.952 287 164.952C286.475 164.952 286.013 165.08 285.615 165.335C285.218 165.586 284.908 165.918 284.685 166.33C284.467 166.737 284.356 167.184 284.351 167.672V169.185C284.351 169.819 284.467 170.364 284.699 170.818C284.931 171.268 285.256 171.614 285.672 171.855C286.089 172.092 286.577 172.21 287.135 172.21C287.509 172.21 287.848 172.158 288.151 172.054C288.454 171.945 288.717 171.786 288.939 171.578C289.162 171.37 289.33 171.112 289.444 170.804L291.844 171.074C291.693 171.708 291.404 172.262 290.978 172.736C290.556 173.205 290.016 173.569 289.358 173.83C288.7 174.085 287.947 174.213 287.1 174.213ZM296.697 167.608V174H294.126V163.091H296.583V164.945H296.711C296.962 164.334 297.362 163.848 297.911 163.489C298.465 163.129 299.149 162.949 299.964 162.949C300.717 162.949 301.372 163.11 301.931 163.432C302.495 163.754 302.93 164.22 303.238 164.831C303.55 165.442 303.704 166.183 303.7 167.054V174H301.129V167.452C301.129 166.723 300.939 166.152 300.56 165.74C300.186 165.328 299.668 165.122 299.005 165.122C298.555 165.122 298.155 165.222 297.805 165.42C297.459 165.615 297.187 165.896 296.988 166.266C296.794 166.635 296.697 167.082 296.697 167.608ZM310.362 174.192C309.504 174.192 308.737 173.972 308.06 173.531C307.383 173.091 306.848 172.452 306.455 171.614C306.062 170.776 305.866 169.758 305.866 168.56C305.866 167.348 306.065 166.325 306.462 165.491C306.865 164.653 307.407 164.021 308.089 163.595C308.771 163.164 309.531 162.949 310.369 162.949C311.008 162.949 311.533 163.058 311.945 163.276C312.357 163.489 312.684 163.747 312.925 164.05C313.167 164.348 313.354 164.63 313.487 164.895H313.593V159.455H316.171V174H313.643V172.281H313.487C313.354 172.546 313.162 172.828 312.911 173.126C312.66 173.42 312.329 173.671 311.917 173.879C311.505 174.088 310.987 174.192 310.362 174.192ZM311.079 172.082C311.623 172.082 312.087 171.936 312.471 171.642C312.854 171.344 313.146 170.929 313.344 170.399C313.543 169.869 313.643 169.251 313.643 168.545C313.643 167.84 313.543 167.227 313.344 166.706C313.15 166.185 312.862 165.78 312.478 165.491C312.099 165.203 311.633 165.058 311.079 165.058C310.506 165.058 310.028 165.207 309.644 165.506C309.261 165.804 308.972 166.216 308.778 166.741C308.584 167.267 308.487 167.868 308.487 168.545C308.487 169.227 308.584 169.836 308.778 170.371C308.977 170.901 309.268 171.32 309.651 171.628C310.04 171.931 310.515 172.082 311.079 172.082ZM322.05 174.22C321.359 174.22 320.736 174.097 320.182 173.851C319.633 173.6 319.197 173.231 318.875 172.743C318.558 172.255 318.4 171.654 318.4 170.939C318.4 170.323 318.513 169.814 318.74 169.412C318.968 169.009 319.278 168.688 319.671 168.446C320.064 168.205 320.507 168.022 320.999 167.899C321.496 167.771 322.01 167.679 322.54 167.622C323.179 167.556 323.698 167.497 324.096 167.445C324.493 167.388 324.782 167.303 324.962 167.189C325.147 167.071 325.239 166.888 325.239 166.642V166.599C325.239 166.064 325.08 165.65 324.763 165.357C324.446 165.063 323.989 164.916 323.392 164.916C322.763 164.916 322.263 165.054 321.894 165.328C321.529 165.603 321.283 165.927 321.155 166.301L318.755 165.96C318.944 165.297 319.257 164.743 319.692 164.298C320.128 163.848 320.66 163.512 321.29 163.29C321.92 163.062 322.616 162.949 323.378 162.949C323.904 162.949 324.427 163.01 324.948 163.134C325.469 163.257 325.944 163.46 326.375 163.744C326.806 164.024 327.152 164.405 327.412 164.888C327.677 165.371 327.81 165.974 327.81 166.699V174H325.338V172.501H325.253C325.097 172.804 324.877 173.089 324.593 173.354C324.313 173.614 323.961 173.825 323.534 173.986C323.113 174.142 322.618 174.22 322.05 174.22ZM322.718 172.331C323.234 172.331 323.681 172.229 324.06 172.026C324.439 171.817 324.73 171.543 324.934 171.202C325.142 170.861 325.246 170.489 325.246 170.087V168.801C325.166 168.867 325.028 168.929 324.834 168.986C324.645 169.043 324.432 169.092 324.195 169.135C323.958 169.178 323.724 169.215 323.492 169.249C323.26 169.282 323.059 169.31 322.888 169.334C322.505 169.386 322.161 169.471 321.858 169.589C321.555 169.708 321.316 169.874 321.141 170.087C320.966 170.295 320.878 170.565 320.878 170.896C320.878 171.37 321.051 171.727 321.397 171.969C321.742 172.21 322.183 172.331 322.718 172.331ZM332.966 167.608V174H330.395V163.091H332.853V164.945H332.98C333.231 164.334 333.632 163.848 334.181 163.489C334.735 163.129 335.419 162.949 336.233 162.949C336.986 162.949 337.642 163.11 338.201 163.432C338.764 163.754 339.2 164.22 339.507 164.831C339.82 165.442 339.974 166.183 339.969 167.054V174H337.398V167.452C337.398 166.723 337.209 166.152 336.83 165.74C336.456 165.328 335.937 165.122 335.275 165.122C334.825 165.122 334.425 165.222 334.074 165.42C333.729 165.615 333.456 165.896 333.257 166.266C333.063 166.635 332.966 167.082 332.966 167.608ZM348.03 163.091V165.08H341.759V163.091H348.03ZM343.307 160.477H345.878V170.719C345.878 171.064 345.93 171.33 346.034 171.514C346.143 171.694 346.285 171.817 346.461 171.884C346.636 171.95 346.83 171.983 347.043 171.983C347.204 171.983 347.351 171.971 347.483 171.947C347.621 171.924 347.725 171.902 347.796 171.884L348.229 173.893C348.092 173.941 347.895 173.993 347.64 174.05C347.389 174.107 347.081 174.14 346.716 174.149C346.072 174.168 345.492 174.071 344.976 173.858C344.46 173.64 344.051 173.304 343.748 172.849C343.449 172.395 343.302 171.827 343.307 171.145V160.477ZM358.646 165.974L356.303 166.23C356.236 165.993 356.12 165.771 355.955 165.562C355.794 165.354 355.576 165.186 355.301 165.058C355.027 164.93 354.69 164.866 354.293 164.866C353.758 164.866 353.308 164.982 352.943 165.214C352.583 165.446 352.406 165.747 352.411 166.116C352.406 166.434 352.522 166.692 352.759 166.891C353 167.089 353.398 167.253 353.952 167.381L355.812 167.778C356.845 168.001 357.612 168.354 358.114 168.837C358.62 169.32 358.876 169.952 358.881 170.733C358.876 171.42 358.675 172.026 358.277 172.551C357.884 173.072 357.337 173.479 356.636 173.773C355.936 174.066 355.131 174.213 354.222 174.213C352.886 174.213 351.812 173.934 350.997 173.375C350.183 172.812 349.697 172.028 349.541 171.024L352.048 170.783C352.162 171.275 352.403 171.647 352.773 171.898C353.142 172.149 353.623 172.274 354.214 172.274C354.825 172.274 355.315 172.149 355.685 171.898C356.059 171.647 356.246 171.337 356.246 170.967C356.246 170.655 356.125 170.397 355.884 170.193C355.647 169.99 355.277 169.833 354.776 169.724L352.915 169.334C351.868 169.116 351.094 168.749 350.592 168.233C350.09 167.712 349.842 167.054 349.847 166.259C349.842 165.586 350.024 165.004 350.393 164.511C350.768 164.014 351.286 163.631 351.949 163.361C352.616 163.086 353.386 162.949 354.257 162.949C355.536 162.949 356.542 163.221 357.276 163.766C358.014 164.31 358.471 165.046 358.646 165.974ZM364.019 172.011L363.927 172.793C363.861 173.389 363.742 173.995 363.572 174.611C363.406 175.231 363.231 175.802 363.046 176.322C362.862 176.843 362.712 177.253 362.599 177.551H360.866C360.932 177.262 361.022 176.869 361.136 176.372C361.254 175.875 361.368 175.316 361.477 174.696C361.585 174.076 361.659 173.446 361.697 172.807L361.746 172.011H364.019ZM134.297 188.362H131.641C131.565 187.927 131.425 187.541 131.222 187.205C131.018 186.864 130.765 186.575 130.462 186.338C130.159 186.101 129.813 185.924 129.425 185.805C129.041 185.682 128.627 185.621 128.182 185.621C127.391 185.621 126.691 185.82 126.08 186.217C125.469 186.61 124.991 187.188 124.645 187.95C124.299 188.708 124.127 189.634 124.127 190.727C124.127 191.84 124.299 192.777 124.645 193.54C124.995 194.297 125.474 194.87 126.08 195.259C126.691 195.642 127.389 195.834 128.175 195.834C128.61 195.834 129.018 195.777 129.396 195.663C129.78 195.545 130.123 195.372 130.426 195.145C130.734 194.918 130.992 194.638 131.2 194.307C131.414 193.975 131.56 193.597 131.641 193.17L134.297 193.185C134.198 193.876 133.982 194.525 133.651 195.131C133.324 195.737 132.896 196.272 132.365 196.736C131.835 197.195 131.215 197.555 130.504 197.815C129.794 198.071 129.006 198.199 128.139 198.199C126.861 198.199 125.72 197.903 124.716 197.311C123.712 196.719 122.922 195.865 122.344 194.747C121.766 193.63 121.477 192.29 121.477 190.727C121.477 189.16 121.769 187.82 122.351 186.707C122.933 185.59 123.727 184.735 124.73 184.143C125.734 183.552 126.87 183.256 128.139 183.256C128.949 183.256 129.702 183.369 130.398 183.597C131.094 183.824 131.714 184.158 132.259 184.598C132.803 185.034 133.251 185.569 133.601 186.203C133.956 186.833 134.188 187.553 134.297 188.362ZM141.355 198.213C140.29 198.213 139.366 197.979 138.585 197.51C137.804 197.041 137.198 196.385 136.767 195.543C136.341 194.7 136.128 193.715 136.128 192.588C136.128 191.461 136.341 190.474 136.767 189.626C137.198 188.779 137.804 188.121 138.585 187.652C139.366 187.183 140.29 186.949 141.355 186.949C142.42 186.949 143.344 187.183 144.125 187.652C144.906 188.121 145.51 188.779 145.936 189.626C146.367 190.474 146.582 191.461 146.582 192.588C146.582 193.715 146.367 194.7 145.936 195.543C145.51 196.385 144.906 197.041 144.125 197.51C143.344 197.979 142.42 198.213 141.355 198.213ZM141.369 196.153C141.947 196.153 142.43 195.995 142.818 195.678C143.206 195.356 143.495 194.925 143.684 194.385C143.879 193.845 143.976 193.244 143.976 192.581C143.976 191.913 143.879 191.31 143.684 190.77C143.495 190.225 143.206 189.792 142.818 189.47C142.43 189.148 141.947 188.987 141.369 188.987C140.777 188.987 140.285 189.148 139.892 189.47C139.504 189.792 139.212 190.225 139.018 190.77C138.829 191.31 138.734 191.913 138.734 192.581C138.734 193.244 138.829 193.845 139.018 194.385C139.212 194.925 139.504 195.356 139.892 195.678C140.285 195.995 140.777 196.153 141.369 196.153ZM151.335 191.608V198H148.764V187.091H151.222V188.945H151.35C151.601 188.334 152.001 187.848 152.55 187.489C153.104 187.129 153.788 186.949 154.602 186.949C155.355 186.949 156.011 187.11 156.57 187.432C157.133 187.754 157.569 188.22 157.877 188.831C158.189 189.442 158.343 190.183 158.338 191.054V198H155.767V191.452C155.767 190.723 155.578 190.152 155.199 189.74C154.825 189.328 154.307 189.122 153.644 189.122C153.194 189.122 152.794 189.222 152.443 189.42C152.098 189.615 151.825 189.896 151.627 190.266C151.432 190.635 151.335 191.082 151.335 191.608ZM169.574 189.974L167.23 190.23C167.164 189.993 167.048 189.771 166.882 189.562C166.721 189.354 166.503 189.186 166.229 189.058C165.954 188.93 165.618 188.866 165.22 188.866C164.685 188.866 164.235 188.982 163.871 189.214C163.511 189.446 163.334 189.747 163.338 190.116C163.334 190.434 163.45 190.692 163.686 190.891C163.928 191.089 164.325 191.253 164.879 191.381L166.74 191.778C167.772 192.001 168.539 192.354 169.041 192.837C169.548 193.32 169.804 193.952 169.808 194.733C169.804 195.42 169.602 196.026 169.205 196.551C168.812 197.072 168.265 197.479 167.564 197.773C166.863 198.066 166.058 198.213 165.149 198.213C163.814 198.213 162.739 197.934 161.925 197.375C161.11 196.812 160.625 196.028 160.469 195.024L162.976 194.783C163.09 195.275 163.331 195.647 163.7 195.898C164.07 196.149 164.55 196.274 165.142 196.274C165.753 196.274 166.243 196.149 166.612 195.898C166.986 195.647 167.173 195.337 167.173 194.967C167.173 194.655 167.053 194.397 166.811 194.193C166.575 193.99 166.205 193.833 165.703 193.724L163.843 193.334C162.796 193.116 162.022 192.749 161.52 192.233C161.018 191.712 160.77 191.054 160.774 190.259C160.77 189.586 160.952 189.004 161.321 188.511C161.695 188.014 162.214 187.631 162.877 187.361C163.544 187.086 164.314 186.949 165.185 186.949C166.463 186.949 167.469 187.221 168.203 187.766C168.942 188.31 169.399 189.046 169.574 189.974ZM178.882 193.412V187.091H181.453V198H178.96V196.061H178.846C178.6 196.672 178.195 197.171 177.632 197.56C177.073 197.948 176.384 198.142 175.565 198.142C174.85 198.142 174.218 197.983 173.669 197.666C173.124 197.344 172.698 196.878 172.39 196.267C172.082 195.652 171.928 194.908 171.928 194.037V187.091H174.499V193.639C174.499 194.33 174.689 194.88 175.068 195.287C175.446 195.694 175.944 195.898 176.559 195.898C176.938 195.898 177.305 195.805 177.66 195.621C178.015 195.436 178.306 195.161 178.534 194.797C178.766 194.428 178.882 193.966 178.882 193.412ZM186.667 183.455V198H184.096V183.455H186.667ZM194.759 187.091V189.08H188.487V187.091H194.759ZM190.036 184.477H192.607V194.719C192.607 195.064 192.659 195.33 192.763 195.514C192.872 195.694 193.014 195.817 193.189 195.884C193.364 195.95 193.558 195.983 193.771 195.983C193.932 195.983 194.079 195.971 194.212 195.947C194.349 195.924 194.453 195.902 194.524 195.884L194.958 197.893C194.82 197.941 194.624 197.993 194.368 198.05C194.117 198.107 193.809 198.14 193.445 198.149C192.801 198.168 192.221 198.071 191.705 197.858C191.189 197.64 190.779 197.304 190.476 196.849C190.178 196.395 190.031 195.827 190.036 195.145V184.477ZM200.048 198.22C199.357 198.22 198.734 198.097 198.18 197.851C197.631 197.6 197.195 197.231 196.873 196.743C196.556 196.255 196.398 195.654 196.398 194.939C196.398 194.323 196.511 193.814 196.738 193.412C196.966 193.009 197.276 192.688 197.669 192.446C198.062 192.205 198.505 192.022 198.997 191.899C199.494 191.771 200.008 191.679 200.538 191.622C201.177 191.556 201.696 191.497 202.094 191.445C202.491 191.388 202.78 191.303 202.96 191.189C203.145 191.071 203.237 190.888 203.237 190.642V190.599C203.237 190.064 203.078 189.65 202.761 189.357C202.444 189.063 201.987 188.916 201.39 188.916C200.761 188.916 200.261 189.054 199.892 189.328C199.527 189.603 199.281 189.927 199.153 190.301L196.753 189.96C196.942 189.297 197.255 188.743 197.69 188.298C198.126 187.848 198.658 187.512 199.288 187.29C199.918 187.062 200.614 186.949 201.376 186.949C201.902 186.949 202.425 187.01 202.946 187.134C203.467 187.257 203.943 187.46 204.373 187.744C204.804 188.024 205.15 188.405 205.41 188.888C205.675 189.371 205.808 189.974 205.808 190.699V198H203.336V196.501H203.251C203.095 196.804 202.875 197.089 202.591 197.354C202.311 197.614 201.959 197.825 201.532 197.986C201.111 198.142 200.616 198.22 200.048 198.22ZM200.716 196.331C201.232 196.331 201.679 196.229 202.058 196.026C202.437 195.817 202.728 195.543 202.932 195.202C203.14 194.861 203.244 194.489 203.244 194.087V192.801C203.164 192.867 203.026 192.929 202.832 192.986C202.643 193.043 202.43 193.092 202.193 193.135C201.956 193.178 201.722 193.215 201.49 193.249C201.258 193.282 201.057 193.31 200.886 193.334C200.503 193.386 200.159 193.471 199.856 193.589C199.553 193.708 199.314 193.874 199.139 194.087C198.964 194.295 198.876 194.565 198.876 194.896C198.876 195.37 199.049 195.727 199.395 195.969C199.74 196.21 200.181 196.331 200.716 196.331ZM210.964 191.608V198H208.393V187.091H210.851V188.945H210.979C211.229 188.334 211.63 187.848 212.179 187.489C212.733 187.129 213.417 186.949 214.231 186.949C214.984 186.949 215.64 187.11 216.199 187.432C216.762 187.754 217.198 188.22 217.506 188.831C217.818 189.442 217.972 190.183 217.967 191.054V198H215.396V191.452C215.396 190.723 215.207 190.152 214.828 189.74C214.454 189.328 213.935 189.122 213.273 189.122C212.823 189.122 212.423 189.222 212.072 189.42C211.727 189.615 211.454 189.896 211.256 190.266C211.061 190.635 210.964 191.082 210.964 191.608ZM226.028 187.091V189.08H219.757V187.091H226.028ZM221.305 184.477H223.876V194.719C223.876 195.064 223.928 195.33 224.032 195.514C224.141 195.694 224.283 195.817 224.459 195.884C224.634 195.95 224.828 195.983 225.041 195.983C225.202 195.983 225.349 195.971 225.481 195.947C225.619 195.924 225.723 195.902 225.794 195.884L226.227 197.893C226.09 197.941 225.893 197.993 225.638 198.05C225.387 198.107 225.079 198.14 224.714 198.149C224.07 198.168 223.49 198.071 222.974 197.858C222.458 197.64 222.049 197.304 221.746 196.849C221.447 196.395 221.3 195.827 221.305 195.145V184.477ZM236.644 189.974L234.301 190.23C234.234 189.993 234.118 189.771 233.953 189.562C233.792 189.354 233.574 189.186 233.299 189.058C233.025 188.93 232.688 188.866 232.291 188.866C231.756 188.866 231.306 188.982 230.941 189.214C230.581 189.446 230.404 189.747 230.409 190.116C230.404 190.434 230.52 190.692 230.757 190.891C230.998 191.089 231.396 191.253 231.95 191.381L233.811 191.778C234.843 192.001 235.61 192.354 236.112 192.837C236.618 193.32 236.874 193.952 236.879 194.733C236.874 195.42 236.673 196.026 236.275 196.551C235.882 197.072 235.335 197.479 234.634 197.773C233.934 198.066 233.129 198.213 232.22 198.213C230.884 198.213 229.81 197.934 228.995 197.375C228.181 196.812 227.695 196.028 227.539 195.024L230.046 194.783C230.16 195.275 230.401 195.647 230.771 195.898C231.14 196.149 231.621 196.274 232.213 196.274C232.823 196.274 233.313 196.149 233.683 195.898C234.057 195.647 234.244 195.337 234.244 194.967C234.244 194.655 234.123 194.397 233.882 194.193C233.645 193.99 233.276 193.833 232.774 193.724L230.913 193.334C229.866 193.116 229.092 192.749 228.59 192.233C228.088 191.712 227.84 191.054 227.845 190.259C227.84 189.586 228.022 189.004 228.392 188.511C228.766 188.014 229.284 187.631 229.947 187.361C230.615 187.086 231.384 186.949 232.255 186.949C233.534 186.949 234.54 187.221 235.274 187.766C236.012 188.31 236.469 189.046 236.644 189.974ZM252.866 197.616L251.403 196.168L255.785 191.786H245.139V189.669H255.785L251.403 185.294L252.866 183.838L259.755 190.727L252.866 197.616ZM270.062 183.455L273.848 194.903H273.997L277.775 183.455H280.673L275.545 198H272.292L267.172 183.455H270.062ZM286.062 198.213C284.997 198.213 284.073 197.979 283.292 197.51C282.511 197.041 281.905 196.385 281.474 195.543C281.048 194.7 280.835 193.715 280.835 192.588C280.835 191.461 281.048 190.474 281.474 189.626C281.905 188.779 282.511 188.121 283.292 187.652C284.073 187.183 284.997 186.949 286.062 186.949C287.127 186.949 288.051 187.183 288.832 187.652C289.613 188.121 290.217 188.779 290.643 189.626C291.074 190.474 291.289 191.461 291.289 192.588C291.289 193.715 291.074 194.7 290.643 195.543C290.217 196.385 289.613 197.041 288.832 197.51C288.051 197.979 287.127 198.213 286.062 198.213ZM286.076 196.153C286.654 196.153 287.137 195.995 287.525 195.678C287.913 195.356 288.202 194.925 288.392 194.385C288.586 193.845 288.683 193.244 288.683 192.581C288.683 191.913 288.586 191.31 288.392 190.77C288.202 190.225 287.913 189.792 287.525 189.47C287.137 189.148 286.654 188.987 286.076 188.987C285.484 188.987 284.992 189.148 284.599 189.47C284.211 189.792 283.919 190.225 283.725 190.77C283.536 191.31 283.441 191.913 283.441 192.581C283.441 193.244 283.536 193.845 283.725 194.385C283.919 194.925 284.211 195.356 284.599 195.678C284.992 195.995 285.484 196.153 286.076 196.153ZM300.425 193.412V187.091H302.996V198H300.503V196.061H300.389C300.143 196.672 299.738 197.171 299.175 197.56C298.616 197.948 297.927 198.142 297.108 198.142C296.393 198.142 295.761 197.983 295.211 197.666C294.667 197.344 294.241 196.878 293.933 196.267C293.625 195.652 293.471 194.908 293.471 194.037V187.091H296.042V193.639C296.042 194.33 296.232 194.88 296.611 195.287C296.989 195.694 297.487 195.898 298.102 195.898C298.481 195.898 298.848 195.805 299.203 195.621C299.558 195.436 299.849 195.161 300.077 194.797C300.309 194.428 300.425 193.966 300.425 193.412ZM314.262 189.974L311.918 190.23C311.852 189.993 311.735 189.771 311.57 189.562C311.409 189.354 311.191 189.186 310.916 189.058C310.642 188.93 310.306 188.866 309.908 188.866C309.373 188.866 308.923 188.982 308.558 189.214C308.199 189.446 308.021 189.747 308.026 190.116C308.021 190.434 308.137 190.692 308.374 190.891C308.615 191.089 309.013 191.253 309.567 191.381L311.428 191.778C312.46 192.001 313.227 192.354 313.729 192.837C314.235 193.32 314.491 193.952 314.496 194.733C314.491 195.42 314.29 196.026 313.892 196.551C313.499 197.072 312.952 197.479 312.252 197.773C311.551 198.066 310.746 198.213 309.837 198.213C308.502 198.213 307.427 197.934 306.612 197.375C305.798 196.812 305.313 196.028 305.156 195.024L307.664 194.783C307.777 195.275 308.019 195.647 308.388 195.898C308.757 196.149 309.238 196.274 309.83 196.274C310.441 196.274 310.931 196.149 311.3 195.898C311.674 195.647 311.861 195.337 311.861 194.967C311.861 194.655 311.74 194.397 311.499 194.193C311.262 193.99 310.893 193.833 310.391 193.724L308.53 193.334C307.484 193.116 306.709 192.749 306.208 192.233C305.706 191.712 305.457 191.054 305.462 190.259C305.457 189.586 305.639 189.004 306.009 188.511C306.383 188.014 306.901 187.631 307.564 187.361C308.232 187.086 309.001 186.949 309.872 186.949C311.151 186.949 312.157 187.221 312.891 187.766C313.629 188.31 314.086 189.046 314.262 189.974ZM324.716 198.22C324.025 198.22 323.402 198.097 322.848 197.851C322.299 197.6 321.863 197.231 321.541 196.743C321.224 196.255 321.066 195.654 321.066 194.939C321.066 194.323 321.179 193.814 321.406 193.412C321.634 193.009 321.944 192.688 322.337 192.446C322.73 192.205 323.173 192.022 323.665 191.899C324.162 191.771 324.676 191.679 325.206 191.622C325.845 191.556 326.364 191.497 326.762 191.445C327.159 191.388 327.448 191.303 327.628 191.189C327.813 191.071 327.905 190.888 327.905 190.642V190.599C327.905 190.064 327.746 189.65 327.429 189.357C327.112 189.063 326.655 188.916 326.058 188.916C325.429 188.916 324.929 189.054 324.56 189.328C324.195 189.603 323.949 189.927 323.821 190.301L321.421 189.96C321.61 189.297 321.923 188.743 322.358 188.298C322.794 187.848 323.326 187.512 323.956 187.29C324.586 187.062 325.282 186.949 326.044 186.949C326.57 186.949 327.093 187.01 327.614 187.134C328.135 187.257 328.61 187.46 329.041 187.744C329.472 188.024 329.818 188.405 330.078 188.888C330.343 189.371 330.476 189.974 330.476 190.699V198H328.004V196.501H327.919C327.763 196.804 327.543 197.089 327.259 197.354C326.979 197.614 326.627 197.825 326.2 197.986C325.779 198.142 325.284 198.22 324.716 198.22ZM325.384 196.331C325.9 196.331 326.347 196.229 326.726 196.026C327.105 195.817 327.396 195.543 327.6 195.202C327.808 194.861 327.912 194.489 327.912 194.087V192.801C327.832 192.867 327.694 192.929 327.5 192.986C327.311 193.043 327.098 193.092 326.861 193.135C326.624 193.178 326.39 193.215 326.158 193.249C325.926 193.282 325.725 193.31 325.554 193.334C325.171 193.386 324.827 193.471 324.524 193.589C324.221 193.708 323.982 193.874 323.807 194.087C323.632 194.295 323.544 194.565 323.544 194.896C323.544 195.37 323.717 195.727 324.063 195.969C324.408 196.21 324.849 196.331 325.384 196.331ZM342.415 187.091L338.53 198H335.689L331.804 187.091H334.546L337.053 195.195H337.166L339.681 187.091H342.415ZM348.653 198.213C347.559 198.213 346.614 197.986 345.819 197.531C345.028 197.072 344.42 196.423 343.993 195.585C343.567 194.742 343.354 193.75 343.354 192.609C343.354 191.487 343.567 190.502 343.993 189.655C344.424 188.803 345.026 188.14 345.797 187.666C346.569 187.188 347.476 186.949 348.518 186.949C349.19 186.949 349.824 187.058 350.421 187.276C351.022 187.489 351.553 187.82 352.012 188.27C352.476 188.72 352.84 189.293 353.106 189.989C353.371 190.68 353.503 191.504 353.503 192.46V193.249H344.562V191.516H351.039C351.034 191.023 350.928 190.585 350.719 190.202C350.511 189.813 350.22 189.508 349.846 189.286C349.476 189.063 349.046 188.952 348.553 188.952C348.028 188.952 347.566 189.08 347.168 189.335C346.77 189.586 346.46 189.918 346.238 190.33C346.02 190.737 345.909 191.184 345.904 191.672V193.185C345.904 193.819 346.02 194.364 346.252 194.818C346.484 195.268 346.808 195.614 347.225 195.855C347.642 196.092 348.129 196.21 348.688 196.21C349.062 196.21 349.401 196.158 349.704 196.054C350.007 195.945 350.269 195.786 350.492 195.578C350.715 195.37 350.883 195.112 350.996 194.804L353.397 195.074C353.245 195.708 352.956 196.262 352.53 196.736C352.109 197.205 351.569 197.569 350.911 197.83C350.253 198.085 349.5 198.213 348.653 198.213ZM355.536 198V196.366L361.161 189.314V189.222H355.721V187.091H364.308V188.845L358.953 195.777V195.869H364.492V198H355.536ZM177.1 222.192C176.243 222.192 175.476 221.972 174.799 221.531C174.122 221.091 173.587 220.452 173.194 219.614C172.801 218.776 172.604 217.758 172.604 216.56C172.604 215.348 172.803 214.325 173.201 213.491C173.603 212.653 174.145 212.021 174.827 211.595C175.509 211.164 176.269 210.949 177.107 210.949C177.746 210.949 178.272 211.058 178.684 211.276C179.096 211.489 179.422 211.747 179.664 212.05C179.905 212.348 180.092 212.63 180.225 212.895H180.331V207.455H182.909V222H180.381V220.281H180.225C180.092 220.546 179.9 220.828 179.65 221.126C179.399 221.42 179.067 221.671 178.655 221.879C178.243 222.088 177.725 222.192 177.1 222.192ZM177.817 220.082C178.362 220.082 178.826 219.936 179.209 219.642C179.593 219.344 179.884 218.929 180.083 218.399C180.282 217.869 180.381 217.251 180.381 216.545C180.381 215.84 180.282 215.227 180.083 214.706C179.889 214.185 179.6 213.78 179.216 213.491C178.837 213.203 178.371 213.058 177.817 213.058C177.244 213.058 176.766 213.207 176.382 213.506C175.999 213.804 175.71 214.216 175.516 214.741C175.322 215.267 175.225 215.868 175.225 216.545C175.225 217.227 175.322 217.836 175.516 218.371C175.715 218.901 176.006 219.32 176.39 219.628C176.778 219.931 177.254 220.082 177.817 220.082ZM192.602 217.412V211.091H195.173V222H192.68V220.061H192.567C192.321 220.672 191.916 221.171 191.352 221.56C190.794 221.948 190.105 222.142 189.286 222.142C188.571 222.142 187.938 221.983 187.389 221.666C186.845 221.344 186.419 220.878 186.111 220.267C185.803 219.652 185.649 218.908 185.649 218.037V211.091H188.22V217.639C188.22 218.33 188.41 218.88 188.788 219.287C189.167 219.694 189.664 219.898 190.28 219.898C190.659 219.898 191.026 219.805 191.381 219.621C191.736 219.436 192.027 219.161 192.254 218.797C192.486 218.428 192.602 217.966 192.602 217.412ZM208.225 211.091V213.08H201.954V211.091H208.225ZM203.502 208.477H206.074V218.719C206.074 219.064 206.126 219.33 206.23 219.514C206.339 219.694 206.481 219.817 206.656 219.884C206.831 219.95 207.025 219.983 207.238 219.983C207.399 219.983 207.546 219.971 207.679 219.947C207.816 219.924 207.92 219.902 207.991 219.884L208.424 221.893C208.287 221.941 208.091 221.993 207.835 222.05C207.584 222.107 207.276 222.14 206.912 222.149C206.268 222.168 205.688 222.071 205.172 221.858C204.655 221.64 204.246 221.304 203.943 220.849C203.645 220.395 203.498 219.827 203.502 219.145V208.477ZM213.515 222.22C212.824 222.22 212.201 222.097 211.647 221.851C211.098 221.6 210.662 221.231 210.34 220.743C210.023 220.255 209.864 219.654 209.864 218.939C209.864 218.323 209.978 217.814 210.205 217.412C210.433 217.009 210.743 216.688 211.136 216.446C211.529 216.205 211.971 216.022 212.464 215.899C212.961 215.771 213.475 215.679 214.005 215.622C214.644 215.556 215.163 215.497 215.56 215.445C215.958 215.388 216.247 215.303 216.427 215.189C216.612 215.071 216.704 214.888 216.704 214.642V214.599C216.704 214.064 216.545 213.65 216.228 213.357C215.911 213.063 215.454 212.916 214.857 212.916C214.228 212.916 213.728 213.054 213.359 213.328C212.994 213.603 212.748 213.927 212.62 214.301L210.219 213.96C210.409 213.297 210.721 212.743 211.157 212.298C211.593 211.848 212.125 211.512 212.755 211.29C213.385 211.062 214.081 210.949 214.843 210.949C215.369 210.949 215.892 211.01 216.413 211.134C216.933 211.257 217.409 211.46 217.84 211.744C218.271 212.024 218.617 212.405 218.877 212.888C219.142 213.371 219.275 213.974 219.275 214.699V222H216.803V220.501H216.718C216.562 220.804 216.342 221.089 216.058 221.354C215.778 221.614 215.425 221.825 214.999 221.986C214.578 222.142 214.083 222.22 213.515 222.22ZM214.183 220.331C214.699 220.331 215.146 220.229 215.525 220.026C215.904 219.817 216.195 219.543 216.398 219.202C216.607 218.861 216.711 218.489 216.711 218.087V216.801C216.63 216.867 216.493 216.929 216.299 216.986C216.11 217.043 215.897 217.092 215.66 217.135C215.423 217.178 215.189 217.215 214.957 217.249C214.725 217.282 214.523 217.31 214.353 217.334C213.969 217.386 213.626 217.471 213.323 217.589C213.02 217.708 212.781 217.874 212.606 218.087C212.431 218.295 212.343 218.565 212.343 218.896C212.343 219.37 212.516 219.727 212.862 219.969C213.207 220.21 213.647 220.331 214.183 220.331ZM224.431 207.455V222H221.86V207.455H224.431ZM231.904 222.213C230.811 222.213 229.866 221.986 229.071 221.531C228.28 221.072 227.672 220.423 227.245 219.585C226.819 218.742 226.606 217.75 226.606 216.609C226.606 215.487 226.819 214.502 227.245 213.655C227.676 212.803 228.278 212.14 229.049 211.666C229.821 211.188 230.728 210.949 231.77 210.949C232.442 210.949 233.076 211.058 233.673 211.276C234.274 211.489 234.805 211.82 235.264 212.27C235.728 212.72 236.092 213.293 236.358 213.989C236.623 214.68 236.755 215.504 236.755 216.46V217.249H227.814V215.516H234.291C234.286 215.023 234.18 214.585 233.971 214.202C233.763 213.813 233.472 213.508 233.098 213.286C232.728 213.063 232.297 212.952 231.805 212.952C231.279 212.952 230.818 213.08 230.42 213.335C230.022 213.586 229.712 213.918 229.49 214.33C229.272 214.737 229.161 215.184 229.156 215.672V217.185C229.156 217.819 229.272 218.364 229.504 218.818C229.736 219.268 230.06 219.614 230.477 219.855C230.894 220.092 231.381 220.21 231.94 220.21C232.314 220.21 232.653 220.158 232.956 220.054C233.259 219.945 233.521 219.786 233.744 219.578C233.967 219.37 234.135 219.112 234.248 218.804L236.649 219.074C236.497 219.708 236.208 220.262 235.782 220.736C235.361 221.205 234.821 221.569 234.163 221.83C233.505 222.085 232.752 222.213 231.904 222.213ZM241.501 215.608V222H238.93V211.091H241.388V212.945H241.516C241.767 212.334 242.167 211.848 242.716 211.489C243.27 211.129 243.954 210.949 244.768 210.949C245.521 210.949 246.177 211.11 246.736 211.432C247.299 211.754 247.735 212.22 248.043 212.831C248.355 213.442 248.509 214.183 248.504 215.054V222H245.933V215.452C245.933 214.723 245.744 214.152 245.365 213.74C244.991 213.328 244.473 213.122 243.81 213.122C243.36 213.122 242.96 213.222 242.609 213.42C242.264 213.615 241.991 213.896 241.793 214.266C241.598 214.635 241.501 215.082 241.501 215.608ZM256.565 211.091V213.08H250.294V211.091H256.565ZM251.842 208.477H254.413V218.719C254.413 219.064 254.465 219.33 254.57 219.514C254.679 219.694 254.821 219.817 254.996 219.884C255.171 219.95 255.365 219.983 255.578 219.983C255.739 219.983 255.886 219.971 256.018 219.947C256.156 219.924 256.26 219.902 256.331 219.884L256.764 221.893C256.627 221.941 256.43 221.993 256.175 222.05C255.924 222.107 255.616 222.14 255.251 222.149C254.607 222.168 254.027 222.071 253.511 221.858C252.995 221.64 252.586 221.304 252.283 220.849C251.984 220.395 251.838 219.827 251.842 219.145V208.477ZM261.734 220.011L261.642 220.793C261.575 221.389 261.457 221.995 261.287 222.611C261.121 223.231 260.946 223.802 260.761 224.322C260.576 224.843 260.427 225.253 260.314 225.551H258.581C258.647 225.262 258.737 224.869 258.85 224.372C258.969 223.875 259.083 223.316 259.191 222.696C259.3 222.076 259.374 221.446 259.412 220.807L259.461 220.011H261.734ZM278.87 211.091L274.985 222H272.144L268.259 211.091H271.001L273.508 219.195H273.621L276.136 211.091H278.87ZM285.037 222.213C283.971 222.213 283.048 221.979 282.267 221.51C281.485 221.041 280.879 220.385 280.449 219.543C280.022 218.7 279.809 217.715 279.809 216.588C279.809 215.461 280.022 214.474 280.449 213.626C280.879 212.779 281.485 212.121 282.267 211.652C283.048 211.183 283.971 210.949 285.037 210.949C286.102 210.949 287.025 211.183 287.806 211.652C288.588 212.121 289.191 212.779 289.618 213.626C290.048 214.474 290.264 215.461 290.264 216.588C290.264 217.715 290.048 218.7 289.618 219.543C289.191 220.385 288.588 221.041 287.806 221.51C287.025 221.979 286.102 222.213 285.037 222.213ZM285.051 220.153C285.628 220.153 286.111 219.995 286.5 219.678C286.888 219.356 287.177 218.925 287.366 218.385C287.56 217.845 287.657 217.244 287.657 216.581C287.657 215.913 287.56 215.31 287.366 214.77C287.177 214.225 286.888 213.792 286.5 213.47C286.111 213.148 285.628 212.987 285.051 212.987C284.459 212.987 283.967 213.148 283.574 213.47C283.185 213.792 282.894 214.225 282.7 214.77C282.511 215.31 282.416 215.913 282.416 216.581C282.416 217.244 282.511 217.845 282.7 218.385C282.894 218.925 283.185 219.356 283.574 219.678C283.967 219.995 284.459 220.153 285.051 220.153ZM299.399 217.412V211.091H301.97V222H299.477V220.061H299.364C299.117 220.672 298.713 221.171 298.149 221.56C297.59 221.948 296.902 222.142 296.082 222.142C295.367 222.142 294.735 221.983 294.186 221.666C293.642 221.344 293.215 220.878 292.908 220.267C292.6 219.652 292.446 218.908 292.446 218.037V211.091H295.017V217.639C295.017 218.33 295.206 218.88 295.585 219.287C295.964 219.694 296.461 219.898 297.077 219.898C297.455 219.898 297.822 219.805 298.178 219.621C298.533 219.436 298.824 219.161 299.051 218.797C299.283 218.428 299.399 217.966 299.399 217.412ZM313.236 213.974L310.892 214.23C310.826 213.993 310.71 213.771 310.544 213.562C310.383 213.354 310.166 213.186 309.891 213.058C309.616 212.93 309.28 212.866 308.882 212.866C308.347 212.866 307.898 212.982 307.533 213.214C307.173 213.446 306.996 213.747 307 214.116C306.996 214.434 307.112 214.692 307.348 214.891C307.59 215.089 307.988 215.253 308.542 215.381L310.402 215.778C311.435 216.001 312.202 216.354 312.703 216.837C313.21 217.32 313.466 217.952 313.471 218.733C313.466 219.42 313.265 220.026 312.867 220.551C312.474 221.072 311.927 221.479 311.226 221.773C310.525 222.066 309.721 222.213 308.811 222.213C307.476 222.213 306.401 221.934 305.587 221.375C304.773 220.812 304.287 220.028 304.131 219.024L306.638 218.783C306.752 219.275 306.993 219.647 307.363 219.898C307.732 220.149 308.212 220.274 308.804 220.274C309.415 220.274 309.905 220.149 310.275 219.898C310.649 219.647 310.836 219.337 310.836 218.967C310.836 218.655 310.715 218.397 310.473 218.193C310.237 217.99 309.867 217.833 309.365 217.724L307.505 217.334C306.458 217.116 305.684 216.749 305.182 216.233C304.68 215.712 304.432 215.054 304.436 214.259C304.432 213.586 304.614 213.004 304.983 212.511C305.357 212.014 305.876 211.631 306.539 211.361C307.206 211.086 307.976 210.949 308.847 210.949C310.125 210.949 311.132 211.221 311.865 211.766C312.604 212.31 313.061 213.046 313.236 213.974ZM133.139 246V235.091H135.632V236.909H135.746C135.945 236.279 136.286 235.794 136.769 235.453C137.256 235.107 137.813 234.935 138.438 234.935C138.58 234.935 138.738 234.942 138.914 234.956C139.093 234.965 139.243 234.982 139.361 235.006V237.371C139.252 237.333 139.079 237.3 138.843 237.271C138.61 237.238 138.386 237.222 138.168 237.222C137.699 237.222 137.278 237.323 136.904 237.527C136.534 237.726 136.243 238.003 136.03 238.358C135.817 238.713 135.71 239.123 135.71 239.587V246H133.139ZM145.449 246.213C144.356 246.213 143.411 245.986 142.616 245.531C141.825 245.072 141.216 244.423 140.79 243.585C140.364 242.742 140.151 241.75 140.151 240.609C140.151 239.487 140.364 238.502 140.79 237.655C141.221 236.803 141.823 236.14 142.594 235.666C143.366 235.188 144.273 234.949 145.314 234.949C145.987 234.949 146.621 235.058 147.218 235.276C147.819 235.489 148.349 235.82 148.809 236.27C149.273 236.72 149.637 237.293 149.903 237.989C150.168 238.68 150.3 239.504 150.3 240.46V241.249H141.358V239.516H147.836C147.831 239.023 147.724 238.585 147.516 238.202C147.308 237.813 147.017 237.508 146.643 237.286C146.273 237.063 145.842 236.952 145.35 236.952C144.824 236.952 144.363 237.08 143.965 237.335C143.567 237.586 143.257 237.918 143.035 238.33C142.817 238.737 142.706 239.184 142.701 239.672V241.185C142.701 241.819 142.817 242.364 143.049 242.818C143.281 243.268 143.605 243.614 144.022 243.855C144.439 244.092 144.926 244.21 145.485 244.21C145.859 244.21 146.198 244.158 146.501 244.054C146.804 243.945 147.066 243.786 147.289 243.578C147.511 243.37 147.68 243.112 147.793 242.804L150.194 243.074C150.042 243.708 149.753 244.262 149.327 244.736C148.906 245.205 148.366 245.569 147.708 245.83C147.05 246.085 146.297 246.213 145.449 246.213ZM157.234 246.213C156.145 246.213 155.21 245.974 154.428 245.496C153.652 245.018 153.053 244.357 152.632 243.514C152.215 242.667 152.007 241.691 152.007 240.588C152.007 239.48 152.22 238.502 152.646 237.655C153.072 236.803 153.673 236.14 154.45 235.666C155.231 235.188 156.154 234.949 157.22 234.949C158.105 234.949 158.889 235.112 159.57 235.439C160.257 235.761 160.804 236.218 161.211 236.81C161.618 237.397 161.85 238.083 161.907 238.869H159.45C159.35 238.344 159.114 237.906 158.74 237.555C158.37 237.2 157.875 237.023 157.255 237.023C156.73 237.023 156.268 237.165 155.87 237.449C155.472 237.728 155.162 238.131 154.94 238.656C154.722 239.182 154.613 239.812 154.613 240.545C154.613 241.289 154.722 241.928 154.94 242.463C155.158 242.993 155.463 243.403 155.856 243.692C156.254 243.976 156.72 244.118 157.255 244.118C157.634 244.118 157.972 244.047 158.271 243.905C158.574 243.758 158.827 243.547 159.031 243.273C159.234 242.998 159.374 242.664 159.45 242.271H161.907C161.846 243.043 161.618 243.727 161.225 244.324C160.832 244.916 160.297 245.38 159.62 245.716C158.943 246.047 158.148 246.213 157.234 246.213ZM166.589 239.608V246H164.018V231.455H166.532V236.945H166.66C166.916 236.329 167.311 235.844 167.846 235.489C168.386 235.129 169.073 234.949 169.906 234.949C170.664 234.949 171.324 235.107 171.888 235.425C172.451 235.742 172.887 236.206 173.194 236.817C173.507 237.428 173.663 238.173 173.663 239.054V246H171.092V239.452C171.092 238.718 170.903 238.147 170.524 237.74C170.15 237.328 169.624 237.122 168.947 237.122C168.493 237.122 168.086 237.222 167.726 237.42C167.371 237.615 167.091 237.896 166.888 238.266C166.689 238.635 166.589 239.082 166.589 239.608ZM181.113 246.213C180.02 246.213 179.075 245.986 178.28 245.531C177.489 245.072 176.881 244.423 176.454 243.585C176.028 242.742 175.815 241.75 175.815 240.609C175.815 239.487 176.028 238.502 176.454 237.655C176.885 236.803 177.487 236.14 178.258 235.666C179.03 235.188 179.937 234.949 180.979 234.949C181.651 234.949 182.285 235.058 182.882 235.276C183.483 235.489 184.014 235.82 184.473 236.27C184.937 236.72 185.301 237.293 185.567 237.989C185.832 238.68 185.964 239.504 185.964 240.46V241.249H177.023V239.516H183.5C183.495 239.023 183.389 238.585 183.18 238.202C182.972 237.813 182.681 237.508 182.307 237.286C181.937 237.063 181.506 236.952 181.014 236.952C180.488 236.952 180.027 237.08 179.629 237.335C179.231 237.586 178.921 237.918 178.699 238.33C178.481 238.737 178.37 239.184 178.365 239.672V241.185C178.365 241.819 178.481 242.364 178.713 242.818C178.945 243.268 179.269 243.614 179.686 243.855C180.103 244.092 180.59 244.21 181.149 244.21C181.523 244.21 181.862 244.158 182.165 244.054C182.468 243.945 182.73 243.786 182.953 243.578C183.175 243.37 183.344 243.112 183.457 242.804L185.858 243.074C185.706 243.708 185.417 244.262 184.991 244.736C184.57 245.205 184.03 245.569 183.372 245.83C182.714 246.085 181.961 246.213 181.113 246.213ZM188.139 246V235.091H190.632V236.909H190.746C190.945 236.279 191.286 235.794 191.769 235.453C192.256 235.107 192.813 234.935 193.438 234.935C193.58 234.935 193.738 234.942 193.914 234.956C194.093 234.965 194.243 234.982 194.361 235.006V237.371C194.252 237.333 194.079 237.3 193.843 237.271C193.61 237.238 193.386 237.222 193.168 237.222C192.699 237.222 192.278 237.323 191.904 237.527C191.534 237.726 191.243 238.003 191.03 238.358C190.817 238.713 190.71 239.123 190.71 239.587V246H188.139ZM200.378 246.213C199.289 246.213 198.354 245.974 197.573 245.496C196.796 245.018 196.198 244.357 195.776 243.514C195.359 242.667 195.151 241.691 195.151 240.588C195.151 239.48 195.364 238.502 195.79 237.655C196.216 236.803 196.818 236.14 197.594 235.666C198.376 235.188 199.299 234.949 200.364 234.949C201.25 234.949 202.033 235.112 202.715 235.439C203.402 235.761 203.948 236.218 204.356 236.81C204.763 237.397 204.995 238.083 205.052 238.869H202.594C202.495 238.344 202.258 237.906 201.884 237.555C201.515 237.2 201.02 237.023 200.4 237.023C199.874 237.023 199.412 237.165 199.015 237.449C198.617 237.728 198.307 238.131 198.084 238.656C197.867 239.182 197.758 239.812 197.758 240.545C197.758 241.289 197.867 241.928 198.084 242.463C198.302 242.993 198.608 243.403 199.001 243.692C199.398 243.976 199.865 244.118 200.4 244.118C200.778 244.118 201.117 244.047 201.415 243.905C201.718 243.758 201.972 243.547 202.175 243.273C202.379 242.998 202.519 242.664 202.594 242.271H205.052C204.99 243.043 204.763 243.727 204.37 244.324C203.977 244.916 203.442 245.38 202.765 245.716C202.088 246.047 201.292 246.213 200.378 246.213ZM209.734 239.608V246H207.163V231.455H209.677V236.945H209.805C210.061 236.329 210.456 235.844 210.991 235.489C211.531 235.129 212.217 234.949 213.051 234.949C213.808 234.949 214.469 235.107 215.032 235.425C215.596 235.742 216.031 236.206 216.339 236.817C216.651 237.428 216.808 238.173 216.808 239.054V246H214.237V239.452C214.237 238.718 214.047 238.147 213.669 237.74C213.294 237.328 212.769 237.122 212.092 237.122C211.637 237.122 211.23 237.222 210.87 237.42C210.515 237.615 210.236 237.896 210.032 238.266C209.833 238.635 209.734 239.082 209.734 239.608ZM224.258 246.213C223.164 246.213 222.22 245.986 221.424 245.531C220.633 245.072 220.025 244.423 219.599 243.585C219.173 242.742 218.96 241.75 218.96 240.609C218.96 239.487 219.173 238.502 219.599 237.655C220.03 236.803 220.631 236.14 221.403 235.666C222.175 235.188 223.081 234.949 224.123 234.949C224.795 234.949 225.43 235.058 226.026 235.276C226.628 235.489 227.158 235.82 227.617 236.27C228.081 236.72 228.446 237.293 228.711 237.989C228.976 238.68 229.109 239.504 229.109 240.46V241.249H220.167V239.516H226.644C226.64 239.023 226.533 238.585 226.325 238.202C226.116 237.813 225.825 237.508 225.451 237.286C225.082 237.063 224.651 236.952 224.159 236.952C223.633 236.952 223.171 237.08 222.774 237.335C222.376 237.586 222.066 237.918 221.843 238.33C221.625 238.737 221.514 239.184 221.509 239.672V241.185C221.509 241.819 221.625 242.364 221.857 242.818C222.089 243.268 222.414 243.614 222.83 243.855C223.247 244.092 223.735 244.21 224.294 244.21C224.668 244.21 225.006 244.158 225.309 244.054C225.612 243.945 225.875 243.786 226.097 243.578C226.32 243.37 226.488 243.112 226.602 242.804L229.002 243.074C228.851 243.708 228.562 244.262 228.136 244.736C227.714 245.205 227.175 245.569 226.517 245.83C225.858 246.085 225.106 246.213 224.258 246.213ZM231.142 246V244.366L236.767 237.314V237.222H231.327V235.091H239.913V236.845L234.558 243.777V243.869H240.098V246H231.142ZM251.524 246.192C250.667 246.192 249.9 245.972 249.222 245.531C248.545 245.091 248.01 244.452 247.617 243.614C247.224 242.776 247.028 241.758 247.028 240.56C247.028 239.348 247.227 238.325 247.624 237.491C248.027 236.653 248.569 236.021 249.251 235.595C249.933 235.164 250.693 234.949 251.531 234.949C252.17 234.949 252.695 235.058 253.107 235.276C253.519 235.489 253.846 235.747 254.088 236.05C254.329 236.348 254.516 236.63 254.649 236.895H254.755V231.455H257.333V246H254.805V244.281H254.649C254.516 244.546 254.324 244.828 254.073 245.126C253.822 245.42 253.491 245.671 253.079 245.879C252.667 246.088 252.149 246.192 251.524 246.192ZM252.241 244.082C252.785 244.082 253.249 243.936 253.633 243.642C254.017 243.344 254.308 242.929 254.507 242.399C254.705 241.869 254.805 241.251 254.805 240.545C254.805 239.84 254.705 239.227 254.507 238.706C254.312 238.185 254.024 237.78 253.64 237.491C253.261 237.203 252.795 237.058 252.241 237.058C251.668 237.058 251.19 237.207 250.806 237.506C250.423 237.804 250.134 238.216 249.94 238.741C249.746 239.267 249.649 239.868 249.649 240.545C249.649 241.227 249.746 241.836 249.94 242.371C250.139 242.901 250.43 243.32 250.813 243.628C251.202 243.931 251.677 244.082 252.241 244.082ZM264.903 246.213C263.809 246.213 262.864 245.986 262.069 245.531C261.278 245.072 260.67 244.423 260.243 243.585C259.817 242.742 259.604 241.75 259.604 240.609C259.604 239.487 259.817 238.502 260.243 237.655C260.674 236.803 261.276 236.14 262.047 235.666C262.819 235.188 263.726 234.949 264.768 234.949C265.44 234.949 266.074 235.058 266.671 235.276C267.272 235.489 267.803 235.82 268.262 236.27C268.726 236.72 269.09 237.293 269.356 237.989C269.621 238.68 269.753 239.504 269.753 240.46V241.249H260.812V239.516H267.289C267.284 239.023 267.178 238.585 266.969 238.202C266.761 237.813 266.47 237.508 266.096 237.286C265.726 237.063 265.296 236.952 264.803 236.952C264.278 236.952 263.816 237.08 263.418 237.335C263.02 237.586 262.71 237.918 262.488 238.33C262.27 238.737 262.159 239.184 262.154 239.672V241.185C262.154 241.819 262.27 242.364 262.502 242.818C262.734 243.268 263.058 243.614 263.475 243.855C263.892 244.092 264.379 244.21 264.938 244.21C265.312 244.21 265.651 244.158 265.954 244.054C266.257 243.945 266.519 243.786 266.742 243.578C266.965 243.37 267.133 243.112 267.246 242.804L269.647 243.074C269.495 243.708 269.206 244.262 268.78 244.736C268.359 245.205 267.819 245.569 267.161 245.83C266.503 246.085 265.75 246.213 264.903 246.213ZM280.551 237.974L278.207 238.23C278.141 237.993 278.025 237.771 277.859 237.562C277.698 237.354 277.48 237.186 277.205 237.058C276.931 236.93 276.595 236.866 276.197 236.866C275.662 236.866 275.212 236.982 274.847 237.214C274.488 237.446 274.31 237.747 274.315 238.116C274.31 238.434 274.426 238.692 274.663 238.891C274.904 239.089 275.302 239.253 275.856 239.381L277.717 239.778C278.749 240.001 279.516 240.354 280.018 240.837C280.525 241.32 280.78 241.952 280.785 242.733C280.78 243.42 280.579 244.026 280.181 244.551C279.788 245.072 279.241 245.479 278.541 245.773C277.84 246.066 277.035 246.213 276.126 246.213C274.791 246.213 273.716 245.934 272.901 245.375C272.087 244.812 271.602 244.028 271.445 243.024L273.953 242.783C274.066 243.275 274.308 243.647 274.677 243.898C275.046 244.149 275.527 244.274 276.119 244.274C276.73 244.274 277.22 244.149 277.589 243.898C277.963 243.647 278.15 243.337 278.15 242.967C278.15 242.655 278.029 242.397 277.788 242.193C277.551 241.99 277.182 241.833 276.68 241.724L274.819 241.334C273.773 241.116 272.999 240.749 272.497 240.233C271.995 239.712 271.746 239.054 271.751 238.259C271.746 237.586 271.928 237.004 272.298 236.511C272.672 236.014 273.19 235.631 273.853 235.361C274.521 235.086 275.29 234.949 276.161 234.949C277.44 234.949 278.446 235.221 279.18 235.766C279.919 236.31 280.375 237.046 280.551 237.974ZM287.866 250.091V235.091H290.394V236.895H290.544C290.676 236.63 290.863 236.348 291.105 236.05C291.346 235.747 291.673 235.489 292.085 235.276C292.497 235.058 293.022 234.949 293.661 234.949C294.504 234.949 295.264 235.164 295.941 235.595C296.623 236.021 297.163 236.653 297.561 237.491C297.963 238.325 298.164 239.348 298.164 240.56C298.164 241.758 297.968 242.776 297.575 243.614C297.182 244.452 296.647 245.091 295.97 245.531C295.293 245.972 294.526 246.192 293.669 246.192C293.044 246.192 292.525 246.088 292.113 245.879C291.701 245.671 291.37 245.42 291.119 245.126C290.873 244.828 290.681 244.546 290.544 244.281H290.437V250.091H287.866ZM290.387 240.545C290.387 241.251 290.487 241.869 290.686 242.399C290.889 242.929 291.18 243.344 291.559 243.642C291.943 243.936 292.407 244.082 292.951 244.082C293.519 244.082 293.995 243.931 294.379 243.628C294.762 243.32 295.051 242.901 295.245 242.371C295.444 241.836 295.544 241.227 295.544 240.545C295.544 239.868 295.446 239.267 295.252 238.741C295.058 238.216 294.769 237.804 294.386 237.506C294.002 237.207 293.524 237.058 292.951 237.058C292.402 237.058 291.936 237.203 291.552 237.491C291.169 237.78 290.877 238.185 290.678 238.706C290.484 239.227 290.387 239.84 290.387 240.545ZM300.366 246V235.091H302.859V236.909H302.972C303.171 236.279 303.512 235.794 303.995 235.453C304.483 235.107 305.039 234.935 305.664 234.935C305.806 234.935 305.965 234.942 306.14 234.956C306.32 234.965 306.469 234.982 306.588 235.006V237.371C306.479 237.333 306.306 237.3 306.069 237.271C305.837 237.238 305.612 237.222 305.394 237.222C304.926 237.222 304.504 237.323 304.13 237.527C303.761 237.726 303.47 238.003 303.257 238.358C303.044 238.713 302.937 239.123 302.937 239.587V246H300.366ZM312.605 246.213C311.54 246.213 310.616 245.979 309.835 245.51C309.054 245.041 308.448 244.385 308.017 243.543C307.591 242.7 307.378 241.715 307.378 240.588C307.378 239.461 307.591 238.474 308.017 237.626C308.448 236.779 309.054 236.121 309.835 235.652C310.616 235.183 311.54 234.949 312.605 234.949C313.67 234.949 314.594 235.183 315.375 235.652C316.156 236.121 316.76 236.779 317.186 237.626C317.617 238.474 317.832 239.461 317.832 240.588C317.832 241.715 317.617 242.7 317.186 243.543C316.76 244.385 316.156 245.041 315.375 245.51C314.594 245.979 313.67 246.213 312.605 246.213ZM312.619 244.153C313.197 244.153 313.68 243.995 314.068 243.678C314.456 243.356 314.745 242.925 314.934 242.385C315.129 241.845 315.226 241.244 315.226 240.581C315.226 239.913 315.129 239.31 314.934 238.77C314.745 238.225 314.456 237.792 314.068 237.47C313.68 237.148 313.197 236.987 312.619 236.987C312.027 236.987 311.535 237.148 311.142 237.47C310.754 237.792 310.462 238.225 310.268 238.77C310.079 239.31 309.984 239.913 309.984 240.581C309.984 241.244 310.079 241.845 310.268 242.385C310.462 242.925 310.754 243.356 311.142 243.678C311.535 243.995 312.027 244.153 312.619 244.153ZM320.014 235.091H322.585V246.625C322.585 247.411 322.436 248.06 322.138 248.571C321.84 249.082 321.409 249.464 320.845 249.714C320.282 249.965 319.598 250.091 318.793 250.091C318.698 250.091 318.61 250.089 318.53 250.084C318.45 250.084 318.362 250.081 318.267 250.077V247.982C318.338 247.986 318.402 247.989 318.459 247.989C318.516 247.993 318.575 247.996 318.637 247.996C319.129 247.996 319.482 247.875 319.695 247.634C319.908 247.397 320.014 247.049 320.014 246.589V235.091ZM321.293 233.543C320.881 233.543 320.528 233.408 320.235 233.138C319.946 232.863 319.801 232.534 319.801 232.151C319.801 231.762 319.946 231.433 320.235 231.163C320.528 230.889 320.881 230.751 321.293 230.751C321.7 230.751 322.048 230.889 322.337 231.163C322.63 231.433 322.777 231.762 322.777 232.151C322.777 232.534 322.63 232.863 322.337 233.138C322.048 233.408 321.7 233.543 321.293 233.543ZM330.059 246.213C328.965 246.213 328.02 245.986 327.225 245.531C326.434 245.072 325.826 244.423 325.4 243.585C324.974 242.742 324.76 241.75 324.76 240.609C324.76 239.487 324.974 238.502 325.4 237.655C325.831 236.803 326.432 236.14 327.204 235.666C327.975 235.188 328.882 234.949 329.924 234.949C330.596 234.949 331.231 235.058 331.827 235.276C332.429 235.489 332.959 235.82 333.418 236.27C333.882 236.72 334.247 237.293 334.512 237.989C334.777 238.68 334.91 239.504 334.91 240.46V241.249H325.968V239.516H332.445C332.44 239.023 332.334 238.585 332.126 238.202C331.917 237.813 331.626 237.508 331.252 237.286C330.883 237.063 330.452 236.952 329.959 236.952C329.434 236.952 328.972 237.08 328.574 237.335C328.177 237.586 327.867 237.918 327.644 238.33C327.426 238.737 327.315 239.184 327.31 239.672V241.185C327.31 241.819 327.426 242.364 327.658 242.818C327.89 243.268 328.215 243.614 328.631 243.855C329.048 244.092 329.536 244.21 330.094 244.21C330.468 244.21 330.807 244.158 331.11 244.054C331.413 243.945 331.676 243.786 331.898 243.578C332.121 243.37 332.289 243.112 332.403 242.804L334.803 243.074C334.652 243.708 334.363 244.262 333.937 244.736C333.515 245.205 332.975 245.569 332.317 245.83C331.659 246.085 330.906 246.213 330.059 246.213ZM342.532 235.091V237.08H336.261V235.091H342.532ZM337.809 232.477H340.38V242.719C340.38 243.064 340.432 243.33 340.536 243.514C340.645 243.694 340.787 243.817 340.963 243.884C341.138 243.95 341.332 243.983 341.545 243.983C341.706 243.983 341.853 243.971 341.985 243.947C342.123 243.924 342.227 243.902 342.298 243.884L342.731 245.893C342.594 245.941 342.397 245.993 342.142 246.05C341.891 246.107 341.583 246.14 341.218 246.149C340.574 246.168 339.994 246.071 339.478 245.858C338.962 245.64 338.552 245.304 338.249 244.849C337.951 244.395 337.804 243.827 337.809 243.145V232.477ZM353.148 237.974L350.805 238.23C350.738 237.993 350.622 237.771 350.456 237.562C350.296 237.354 350.078 237.186 349.803 237.058C349.528 236.93 349.192 236.866 348.795 236.866C348.26 236.866 347.81 236.982 347.445 237.214C347.085 237.446 346.908 237.747 346.912 238.116C346.908 238.434 347.024 238.692 347.26 238.891C347.502 239.089 347.9 239.253 348.454 239.381L350.314 239.778C351.347 240.001 352.114 240.354 352.616 240.837C353.122 241.32 353.378 241.952 353.383 242.733C353.378 243.42 353.177 244.026 352.779 244.551C352.386 245.072 351.839 245.479 351.138 245.773C350.438 246.066 349.633 246.213 348.724 246.213C347.388 246.213 346.314 245.934 345.499 245.375C344.685 244.812 344.199 244.028 344.043 243.024L346.55 242.783C346.664 243.275 346.905 243.647 347.275 243.898C347.644 244.149 348.125 244.274 348.716 244.274C349.327 244.274 349.817 244.149 350.187 243.898C350.561 243.647 350.748 243.337 350.748 242.967C350.748 242.655 350.627 242.397 350.385 242.193C350.149 241.99 349.779 241.833 349.278 241.724L347.417 241.334C346.37 241.116 345.596 240.749 345.094 240.233C344.592 239.712 344.344 239.054 344.349 238.259C344.344 237.586 344.526 237.004 344.895 236.511C345.269 236.014 345.788 235.631 346.451 235.361C347.118 235.086 347.888 234.949 348.759 234.949C350.037 234.949 351.044 235.221 351.778 235.766C352.516 236.31 352.973 237.046 353.148 237.974Z" fill="#3F3F3F"/>
        <path d="M167.152 146V124.182H171.104V134.207H171.371L179.883 124.182H184.709L176.271 133.972L184.783 146H180.032L173.523 136.646L171.104 139.501V146H167.152ZM195.24 133.504V136.678H185.417V133.504H195.24ZM199.466 146V124.182H207.648C209.324 124.182 210.731 124.494 211.867 125.119C213.01 125.744 213.873 126.604 214.456 127.697C215.045 128.784 215.34 130.02 215.34 131.405C215.34 132.804 215.045 134.047 214.456 135.134C213.866 136.22 212.996 137.076 211.846 137.701C210.695 138.319 209.278 138.628 207.595 138.628H202.172V135.379H207.062C208.042 135.379 208.845 135.208 209.47 134.867C210.095 134.526 210.557 134.058 210.855 133.461C211.16 132.864 211.313 132.179 211.313 131.405C211.313 130.631 211.16 129.949 210.855 129.359C210.557 128.77 210.091 128.312 209.459 127.985C208.834 127.651 208.028 127.484 207.041 127.484H203.419V146H199.466ZM218.603 146V129.636H222.342V132.364H222.512C222.811 131.419 223.322 130.691 224.047 130.18C224.778 129.661 225.613 129.402 226.55 129.402C226.763 129.402 227.001 129.413 227.264 129.434C227.534 129.448 227.757 129.473 227.935 129.509V133.056C227.772 132.999 227.512 132.95 227.157 132.907C226.809 132.857 226.472 132.832 226.145 132.832C225.442 132.832 224.81 132.985 224.249 133.29C223.695 133.589 223.258 134.004 222.939 134.537C222.619 135.07 222.459 135.684 222.459 136.38V146H218.603ZM236.961 146.32C235.363 146.32 233.978 145.968 232.806 145.265C231.634 144.562 230.725 143.578 230.079 142.314C229.44 141.05 229.12 139.572 229.12 137.882C229.12 136.192 229.44 134.711 230.079 133.44C230.725 132.168 231.634 131.181 232.806 130.478C233.978 129.775 235.363 129.423 236.961 129.423C238.559 129.423 239.944 129.775 241.116 130.478C242.288 131.181 243.193 132.168 243.833 133.44C244.479 134.711 244.802 136.192 244.802 137.882C244.802 139.572 244.479 141.05 243.833 142.314C243.193 143.578 242.288 144.562 241.116 145.265C239.944 145.968 238.559 146.32 236.961 146.32ZM236.982 143.23C237.849 143.23 238.573 142.992 239.156 142.516C239.738 142.033 240.171 141.387 240.455 140.577C240.747 139.768 240.892 138.866 240.892 137.871C240.892 136.87 240.747 135.964 240.455 135.155C240.171 134.338 239.738 133.688 239.156 133.205C238.573 132.722 237.849 132.481 236.982 132.481C236.095 132.481 235.356 132.722 234.767 133.205C234.184 133.688 233.747 134.338 233.456 135.155C233.172 135.964 233.03 136.87 233.03 137.871C233.03 138.866 233.172 139.768 233.456 140.577C233.747 141.387 234.184 142.033 234.767 142.516C235.356 142.992 236.095 143.23 236.982 143.23ZM256.364 129.636V132.619H246.69V129.636H256.364ZM249.109 146V128.092C249.109 126.991 249.336 126.075 249.79 125.343C250.252 124.612 250.87 124.065 251.644 123.702C252.418 123.34 253.278 123.159 254.222 123.159C254.89 123.159 255.483 123.212 256.001 123.319C256.52 123.425 256.903 123.521 257.152 123.607L256.385 126.589C256.222 126.54 256.016 126.49 255.767 126.44C255.518 126.384 255.241 126.355 254.936 126.355C254.219 126.355 253.711 126.529 253.413 126.877C253.121 127.218 252.976 127.708 252.976 128.347V146H249.109ZM259.384 146V129.636H263.24V146H259.384ZM261.323 127.314C260.712 127.314 260.186 127.112 259.746 126.707C259.306 126.295 259.086 125.801 259.086 125.226C259.086 124.643 259.306 124.15 259.746 123.745C260.186 123.333 260.712 123.127 261.323 123.127C261.941 123.127 262.466 123.333 262.9 123.745C263.34 124.15 263.56 124.643 263.56 125.226C263.56 125.801 263.34 126.295 262.9 126.707C262.466 127.112 261.941 127.314 261.323 127.314ZM271.063 124.182V146H267.206V124.182H271.063ZM282.273 146.32C280.632 146.32 279.215 145.979 278.022 145.297C276.836 144.608 275.923 143.635 275.284 142.378C274.645 141.114 274.325 139.626 274.325 137.914C274.325 136.231 274.645 134.754 275.284 133.482C275.93 132.204 276.832 131.21 277.99 130.499C279.148 129.782 280.508 129.423 282.07 129.423C283.079 129.423 284.031 129.587 284.925 129.913C285.827 130.233 286.623 130.73 287.312 131.405C288.008 132.08 288.555 132.939 288.952 133.983C289.35 135.02 289.549 136.256 289.549 137.69V138.873H276.136V136.273H285.852C285.845 135.535 285.685 134.878 285.373 134.303C285.06 133.72 284.624 133.262 284.062 132.928C283.509 132.594 282.862 132.428 282.124 132.428C281.335 132.428 280.643 132.619 280.046 133.003C279.45 133.379 278.984 133.876 278.651 134.494C278.324 135.105 278.157 135.776 278.15 136.508V138.777C278.15 139.729 278.324 140.545 278.672 141.227C279.02 141.902 279.506 142.42 280.131 142.783C280.756 143.138 281.488 143.315 282.326 143.315C282.887 143.315 283.395 143.237 283.849 143.081C284.304 142.918 284.698 142.68 285.032 142.367C285.366 142.055 285.618 141.668 285.788 141.206L289.389 141.611C289.162 142.562 288.729 143.393 288.089 144.104C287.457 144.807 286.648 145.354 285.661 145.744C284.673 146.128 283.544 146.32 282.273 146.32Z" fill="#2C2C2C"/>
    </g>
    <defs>
        <filter id="filter0_d_353_2409" x="86" y="36" width="290.127" height="290.127" filterUnits="userSpaceOnUse" colorInterpolationFilters="sRGB">
            <feFlood floodOpacity="0" result="BackgroundImageFix"/>
            <feColorMatrix in="SourceAlpha" type="matrix" values="0 0 0 0 0 0 0 0 0 0 0 0 0 0 0 0 0 0 127 0" result="hardAlpha"/>
            <feOffset/>
            <feGaussianBlur stdDeviation="10"/>
            <feComposite in2="hardAlpha" operator="out"/>
            <feColorMatrix type="matrix" values="0 0 0 0 0.691667 0 0 0 0 0.691667 0 0 0 0 0.691667 0 0 0 0.5 0"/>
            <feBlend mode="normal" in2="BackgroundImageFix" result="effect1_dropShadow_353_2409"/>
            <feBlend mode="normal" in="SourceGraphic" in2="effect1_dropShadow_353_2409" result="shape"/>
        </filter>
        <filter id="filter1_d_353_2409" x="101" y="14" width="312.229" height="312.229" filterUnits="userSpaceOnUse" colorInterpolationFilters="sRGB">
            <feFlood floodOpacity="0" result="BackgroundImageFix"/>
            <feColorMatrix in="SourceAlpha" type="matrix" values="0 0 0 0 0 0 0 0 0 0 0 0 0 0 0 0 0 0 127 0" result="hardAlpha"/>
            <feOffset/>
            <feGaussianBlur stdDeviation="10"/>
            <feComposite in2="hardAlpha" operator="out"/>
            <feColorMatrix type="matrix" values="0 0 0 0 0.691667 0 0 0 0 0.691667 0 0 0 0 0.691667 0 0 0 0.5 0"/>
            <feBlend mode="normal" in2="BackgroundImageFix" result="effect1_dropShadow_353_2409"/>
            <feBlend mode="normal" in="SourceGraphic" in2="effect1_dropShadow_353_2409" result="shape"/>
        </filter>
        <clipPath id="clip0_353_2409">
            <rect width="462" height="326" rx="50" fill="white"/>
        </clipPath>
    </defs>
</svg>
