<svg width="462" height="326" viewBox="0 0 462 326" fill="none" xmlns="http://www.w3.org/2000/svg">
<g clip-path="url(#clip0_535_3069)">
<rect width="462" height="326" rx="163" fill="white"/>
<g opacity="0.5" filter="url(#filter0_d_535_3069)">
<rect x="36" y="104.324" width="198.859" height="191.867" transform="rotate(-13.7672 36 104.324)" fill="#297180"/>
</g>
<g opacity="0.4" filter="url(#filter1_d_535_3069)">
<rect x="449.992" y="169.889" width="199.375" height="189.343" transform="rotate(131.672 449.992 169.889)" fill="#297180"/>
</g>
<path d="M113.902 159.455L117.688 170.903H117.837L121.615 159.455H124.513L119.385 174H116.132L111.012 159.455H113.902ZM129.902 174.213C128.836 174.213 127.913 173.979 127.132 173.51C126.351 173.041 125.745 172.385 125.314 171.543C124.888 170.7 124.675 169.715 124.675 168.588C124.675 167.461 124.888 166.474 125.314 165.626C125.745 164.779 126.351 164.121 127.132 163.652C127.913 163.183 128.836 162.949 129.902 162.949C130.967 162.949 131.89 163.183 132.672 163.652C133.453 164.121 134.057 164.779 134.483 165.626C134.914 166.474 135.129 167.461 135.129 168.588C135.129 169.715 134.914 170.7 134.483 171.543C134.057 172.385 133.453 173.041 132.672 173.51C131.89 173.979 130.967 174.213 129.902 174.213ZM129.916 172.153C130.494 172.153 130.977 171.995 131.365 171.678C131.753 171.356 132.042 170.925 132.231 170.385C132.425 169.845 132.523 169.244 132.523 168.581C132.523 167.913 132.425 167.31 132.231 166.77C132.042 166.225 131.753 165.792 131.365 165.47C130.977 165.148 130.494 164.987 129.916 164.987C129.324 164.987 128.832 165.148 128.439 165.47C128.05 165.792 127.759 166.225 127.565 166.77C127.376 167.31 127.281 167.913 127.281 168.581C127.281 169.244 127.376 169.845 127.565 170.385C127.759 170.925 128.05 171.356 128.439 171.678C128.832 171.995 129.324 172.153 129.916 172.153ZM144.264 169.412V163.091H146.835V174H144.343V172.061H144.229C143.983 172.672 143.578 173.171 143.014 173.56C142.456 173.948 141.767 174.142 140.948 174.142C140.233 174.142 139.601 173.983 139.051 173.666C138.507 173.344 138.081 172.878 137.773 172.267C137.465 171.652 137.311 170.908 137.311 170.037V163.091H139.882V169.639C139.882 170.33 140.072 170.88 140.45 171.287C140.829 171.694 141.326 171.898 141.942 171.898C142.321 171.898 142.688 171.805 143.043 171.621C143.398 171.436 143.689 171.161 143.916 170.797C144.148 170.428 144.264 169.966 144.264 169.412ZM158.101 165.974L155.758 166.23C155.691 165.993 155.575 165.771 155.41 165.562C155.249 165.354 155.031 165.186 154.756 165.058C154.482 164.93 154.145 164.866 153.748 164.866C153.213 164.866 152.763 164.982 152.398 165.214C152.038 165.446 151.861 165.747 151.866 166.116C151.861 166.434 151.977 166.692 152.214 166.891C152.455 167.089 152.853 167.253 153.407 167.381L155.268 167.778C156.3 168.001 157.067 168.354 157.569 168.837C158.075 169.32 158.331 169.952 158.336 170.733C158.331 171.42 158.13 172.026 157.732 172.551C157.339 173.072 156.792 173.479 156.091 173.773C155.391 174.066 154.586 174.213 153.677 174.213C152.341 174.213 151.267 173.934 150.452 173.375C149.638 172.812 149.153 172.028 148.996 171.024L151.503 170.783C151.617 171.275 151.858 171.647 152.228 171.898C152.597 172.149 153.078 172.274 153.67 172.274C154.28 172.274 154.77 172.149 155.14 171.898C155.514 171.647 155.701 171.337 155.701 170.967C155.701 170.655 155.58 170.397 155.339 170.193C155.102 169.99 154.733 169.833 154.231 169.724L152.37 169.334C151.323 169.116 150.549 168.749 150.047 168.233C149.546 167.712 149.297 167.054 149.302 166.259C149.297 165.586 149.479 165.004 149.849 164.511C150.223 164.014 150.741 163.631 151.404 163.361C152.072 163.086 152.841 162.949 153.712 162.949C154.991 162.949 155.997 163.221 156.731 163.766C157.469 164.31 157.926 165.046 158.101 165.974ZM168.556 174.22C167.865 174.22 167.242 174.097 166.688 173.851C166.139 173.6 165.703 173.231 165.381 172.743C165.064 172.255 164.905 171.654 164.905 170.939C164.905 170.323 165.019 169.814 165.246 169.412C165.474 169.009 165.784 168.688 166.177 168.446C166.57 168.205 167.012 168.022 167.505 167.899C168.002 167.771 168.516 167.679 169.046 167.622C169.685 167.556 170.204 167.497 170.601 167.445C170.999 167.388 171.288 167.303 171.468 167.189C171.653 167.071 171.745 166.888 171.745 166.642V166.599C171.745 166.064 171.586 165.65 171.269 165.357C170.952 165.063 170.495 164.916 169.898 164.916C169.269 164.916 168.769 165.054 168.4 165.328C168.035 165.603 167.789 165.927 167.661 166.301L165.26 165.96C165.45 165.297 165.762 164.743 166.198 164.298C166.634 163.848 167.166 163.512 167.796 163.29C168.426 163.062 169.122 162.949 169.884 162.949C170.41 162.949 170.933 163.01 171.454 163.134C171.974 163.257 172.45 163.46 172.881 163.744C173.312 164.024 173.658 164.405 173.918 164.888C174.183 165.371 174.316 165.974 174.316 166.699V174H171.844V172.501H171.759C171.603 172.804 171.383 173.089 171.099 173.354C170.819 173.614 170.466 173.825 170.04 173.986C169.619 174.142 169.124 174.22 168.556 174.22ZM169.224 172.331C169.74 172.331 170.187 172.229 170.566 172.026C170.945 171.817 171.236 171.543 171.439 171.202C171.648 170.861 171.752 170.489 171.752 170.087V168.801C171.671 168.867 171.534 168.929 171.34 168.986C171.151 169.043 170.938 169.092 170.701 169.135C170.464 169.178 170.23 169.215 169.998 169.249C169.766 169.282 169.564 169.31 169.394 169.334C169.01 169.386 168.667 169.471 168.364 169.589C168.061 169.708 167.822 169.874 167.647 170.087C167.472 170.295 167.384 170.565 167.384 170.896C167.384 171.37 167.557 171.727 167.903 171.969C168.248 172.21 168.689 172.331 169.224 172.331ZM186.255 163.091L182.37 174H179.529L175.644 163.091H178.385L180.893 171.195H181.006L183.52 163.091H186.255ZM192.492 174.213C191.399 174.213 190.454 173.986 189.659 173.531C188.868 173.072 188.259 172.423 187.833 171.585C187.407 170.742 187.194 169.75 187.194 168.609C187.194 167.487 187.407 166.502 187.833 165.655C188.264 164.803 188.865 164.14 189.637 163.666C190.409 163.188 191.316 162.949 192.357 162.949C193.03 162.949 193.664 163.058 194.261 163.276C194.862 163.489 195.392 163.82 195.852 164.27C196.316 164.72 196.68 165.293 196.945 165.989C197.211 166.68 197.343 167.504 197.343 168.46V169.249H188.401V167.516H194.879C194.874 167.023 194.767 166.585 194.559 166.202C194.351 165.813 194.06 165.508 193.686 165.286C193.316 165.063 192.885 164.952 192.393 164.952C191.867 164.952 191.406 165.08 191.008 165.335C190.61 165.586 190.3 165.918 190.078 166.33C189.86 166.737 189.749 167.184 189.744 167.672V169.185C189.744 169.819 189.86 170.364 190.092 170.818C190.324 171.268 190.648 171.614 191.065 171.855C191.481 172.092 191.969 172.21 192.528 172.21C192.902 172.21 193.24 172.158 193.544 172.054C193.847 171.945 194.109 171.786 194.332 171.578C194.554 171.37 194.722 171.112 194.836 170.804L197.237 171.074C197.085 171.708 196.796 172.262 196.37 172.736C195.949 173.205 195.409 173.569 194.751 173.83C194.093 174.085 193.34 174.213 192.492 174.213ZM199.376 174V172.366L205.001 165.314V165.222H199.561V163.091H208.148V164.845L202.792 171.777V171.869H208.332V174H199.376ZM219.758 174.192C218.901 174.192 218.134 173.972 217.457 173.531C216.78 173.091 216.245 172.452 215.852 171.614C215.459 170.776 215.262 169.758 215.262 168.56C215.262 167.348 215.461 166.325 215.859 165.491C216.261 164.653 216.803 164.021 217.485 163.595C218.167 163.164 218.927 162.949 219.765 162.949C220.404 162.949 220.93 163.058 221.342 163.276C221.754 163.489 222.08 163.747 222.322 164.05C222.563 164.348 222.75 164.63 222.883 164.895H222.99V159.455H225.568V174H223.039V172.281H222.883C222.75 172.546 222.559 172.828 222.308 173.126C222.057 173.42 221.725 173.671 221.313 173.879C220.901 174.088 220.383 174.192 219.758 174.192ZM220.475 172.082C221.02 172.082 221.484 171.936 221.867 171.642C222.251 171.344 222.542 170.929 222.741 170.399C222.94 169.869 223.039 169.251 223.039 168.545C223.039 167.84 222.94 167.227 222.741 166.706C222.547 166.185 222.258 165.78 221.874 165.491C221.496 165.203 221.029 165.058 220.475 165.058C219.902 165.058 219.424 165.207 219.041 165.506C218.657 165.804 218.368 166.216 218.174 166.741C217.98 167.267 217.883 167.868 217.883 168.545C217.883 169.227 217.98 169.836 218.174 170.371C218.373 170.901 218.664 171.32 219.048 171.628C219.436 171.931 219.912 172.082 220.475 172.082ZM235.26 169.412V163.091H237.831V174H235.339V172.061H235.225C234.979 172.672 234.574 173.171 234.01 173.56C233.452 173.948 232.763 174.142 231.944 174.142C231.229 174.142 230.597 173.983 230.047 173.666C229.503 173.344 229.077 172.878 228.769 172.267C228.461 171.652 228.307 170.908 228.307 170.037V163.091H230.878V169.639C230.878 170.33 231.068 170.88 231.447 171.287C231.825 171.694 232.323 171.898 232.938 171.898C233.317 171.898 233.684 171.805 234.039 171.621C234.394 171.436 234.685 171.161 234.912 170.797C235.144 170.428 235.26 169.966 235.26 169.412ZM250.884 163.091V165.08H244.612V163.091H250.884ZM246.161 160.477H248.732V170.719C248.732 171.064 248.784 171.33 248.888 171.514C248.997 171.694 249.139 171.817 249.314 171.884C249.489 171.95 249.683 171.983 249.896 171.983C250.057 171.983 250.204 171.971 250.337 171.947C250.474 171.924 250.578 171.902 250.649 171.884L251.083 173.893C250.945 173.941 250.749 173.993 250.493 174.05C250.242 174.107 249.934 174.14 249.57 174.149C248.926 174.168 248.346 174.071 247.83 173.858C247.314 173.64 246.904 173.304 246.601 172.849C246.303 172.395 246.156 171.827 246.161 171.145V160.477ZM256.173 174.22C255.482 174.22 254.859 174.097 254.305 173.851C253.756 173.6 253.32 173.231 252.998 172.743C252.681 172.255 252.523 171.654 252.523 170.939C252.523 170.323 252.636 169.814 252.863 169.412C253.091 169.009 253.401 168.688 253.794 168.446C254.187 168.205 254.63 168.022 255.122 167.899C255.619 167.771 256.133 167.679 256.663 167.622C257.302 167.556 257.821 167.497 258.219 167.445C258.616 167.388 258.905 167.303 259.085 167.189C259.27 167.071 259.362 166.888 259.362 166.642V166.599C259.362 166.064 259.203 165.65 258.886 165.357C258.569 165.063 258.112 164.916 257.515 164.916C256.886 164.916 256.386 165.054 256.017 165.328C255.652 165.603 255.406 165.927 255.278 166.301L252.878 165.96C253.067 165.297 253.38 164.743 253.815 164.298C254.251 163.848 254.783 163.512 255.413 163.29C256.043 163.062 256.739 162.949 257.501 162.949C258.027 162.949 258.55 163.01 259.071 163.134C259.592 163.257 260.068 163.46 260.498 163.744C260.929 164.024 261.275 164.405 261.535 164.888C261.8 165.371 261.933 165.974 261.933 166.699V174H259.461V172.501H259.376C259.22 172.804 259 173.089 258.716 173.354C258.436 173.614 258.084 173.825 257.657 173.986C257.236 174.142 256.741 174.22 256.173 174.22ZM256.841 172.331C257.357 172.331 257.804 172.229 258.183 172.026C258.562 171.817 258.853 171.543 259.057 171.202C259.265 170.861 259.369 170.489 259.369 170.087V168.801C259.289 168.867 259.151 168.929 258.957 168.986C258.768 169.043 258.555 169.092 258.318 169.135C258.081 169.178 257.847 169.215 257.615 169.249C257.383 169.282 257.182 169.31 257.011 169.334C256.628 169.386 256.284 169.471 255.981 169.589C255.678 169.708 255.439 169.874 255.264 170.087C255.089 170.295 255.001 170.565 255.001 170.896C255.001 171.37 255.174 171.727 255.52 171.969C255.865 172.21 256.306 172.331 256.841 172.331ZM267.089 159.455V174H264.518V159.455H267.089ZM274.563 174.213C273.469 174.213 272.524 173.986 271.729 173.531C270.938 173.072 270.33 172.423 269.904 171.585C269.477 170.742 269.264 169.75 269.264 168.609C269.264 167.487 269.477 166.502 269.904 165.655C270.334 164.803 270.936 164.14 271.708 163.666C272.479 163.188 273.386 162.949 274.428 162.949C275.1 162.949 275.735 163.058 276.331 163.276C276.932 163.489 277.463 163.82 277.922 164.27C278.386 164.72 278.751 165.293 279.016 165.989C279.281 166.68 279.414 167.504 279.414 168.46V169.249H270.472V167.516H276.949C276.944 167.023 276.838 166.585 276.629 166.202C276.421 165.813 276.13 165.508 275.756 165.286C275.387 165.063 274.956 164.952 274.463 164.952C273.938 164.952 273.476 165.08 273.078 165.335C272.681 165.586 272.37 165.918 272.148 166.33C271.93 166.737 271.819 167.184 271.814 167.672V169.185C271.814 169.819 271.93 170.364 272.162 170.818C272.394 171.268 272.718 171.614 273.135 171.855C273.552 172.092 274.039 172.21 274.598 172.21C274.972 172.21 275.311 172.158 275.614 172.054C275.917 171.945 276.18 171.786 276.402 171.578C276.625 171.37 276.793 171.112 276.906 170.804L279.307 171.074C279.155 171.708 278.867 172.262 278.441 172.736C278.019 173.205 277.479 173.569 276.821 173.83C276.163 174.085 275.41 174.213 274.563 174.213ZM284.16 167.608V174H281.589V163.091H284.046V164.945H284.174C284.425 164.334 284.825 163.848 285.374 163.489C285.928 163.129 286.612 162.949 287.427 162.949C288.18 162.949 288.835 163.11 289.394 163.432C289.957 163.754 290.393 164.22 290.701 164.831C291.013 165.442 291.167 166.183 291.162 167.054V174H288.591V167.452C288.591 166.723 288.402 166.152 288.023 165.74C287.649 165.328 287.131 165.122 286.468 165.122C286.018 165.122 285.618 165.222 285.268 165.42C284.922 165.615 284.65 165.896 284.451 166.266C284.257 166.635 284.16 167.082 284.16 167.608ZM299.224 163.091V165.08H292.952V163.091H299.224ZM294.501 160.477H297.072V170.719C297.072 171.064 297.124 171.33 297.228 171.514C297.337 171.694 297.479 171.817 297.654 171.884C297.829 171.95 298.023 171.983 298.236 171.983C298.397 171.983 298.544 171.971 298.677 171.947C298.814 171.924 298.918 171.902 298.989 171.884L299.422 173.893C299.285 173.941 299.089 173.993 298.833 174.05C298.582 174.107 298.274 174.14 297.91 174.149C297.266 174.168 296.686 174.071 296.17 173.858C295.653 173.64 295.244 173.304 294.941 172.849C294.643 172.395 294.496 171.827 294.501 171.145V160.477ZM316.079 163.091L312.194 174H309.353L305.468 163.091H308.21L310.717 171.195H310.83L313.345 163.091H316.079ZM322.246 174.213C321.18 174.213 320.257 173.979 319.476 173.51C318.694 173.041 318.088 172.385 317.657 171.543C317.231 170.7 317.018 169.715 317.018 168.588C317.018 167.461 317.231 166.474 317.657 165.626C318.088 164.779 318.694 164.121 319.476 163.652C320.257 163.183 321.18 162.949 322.246 162.949C323.311 162.949 324.234 163.183 325.015 163.652C325.797 164.121 326.4 164.779 326.827 165.626C327.257 166.474 327.473 167.461 327.473 168.588C327.473 169.715 327.257 170.7 326.827 171.543C326.4 172.385 325.797 173.041 325.015 173.51C324.234 173.979 323.311 174.213 322.246 174.213ZM322.26 172.153C322.837 172.153 323.32 171.995 323.709 171.678C324.097 171.356 324.386 170.925 324.575 170.385C324.769 169.845 324.866 169.244 324.866 168.581C324.866 167.913 324.769 167.31 324.575 166.77C324.386 166.225 324.097 165.792 323.709 165.47C323.32 165.148 322.837 164.987 322.26 164.987C321.668 164.987 321.175 165.148 320.782 165.47C320.394 165.792 320.103 166.225 319.909 166.77C319.72 167.31 319.625 167.913 319.625 168.581C319.625 169.244 319.72 169.845 319.909 170.385C320.103 170.925 320.394 171.356 320.782 171.678C321.175 171.995 321.668 172.153 322.26 172.153ZM336.608 169.412V163.091H339.179V174H336.686V172.061H336.573C336.326 172.672 335.922 173.171 335.358 173.56C334.799 173.948 334.11 174.142 333.291 174.142C332.576 174.142 331.944 173.983 331.395 173.666C330.851 173.344 330.424 172.878 330.117 172.267C329.809 171.652 329.655 170.908 329.655 170.037V163.091H332.226V169.639C332.226 170.33 332.415 170.88 332.794 171.287C333.173 171.694 333.67 171.898 334.286 171.898C334.664 171.898 335.031 171.805 335.387 171.621C335.742 171.436 336.033 171.161 336.26 170.797C336.492 170.428 336.608 169.966 336.608 169.412ZM350.445 165.974L348.101 166.23C348.035 165.993 347.919 165.771 347.753 165.562C347.592 165.354 347.375 165.186 347.1 165.058C346.825 164.93 346.489 164.866 346.091 164.866C345.556 164.866 345.107 164.982 344.742 165.214C344.382 165.446 344.205 165.747 344.209 166.116C344.205 166.434 344.321 166.692 344.557 166.891C344.799 167.089 345.197 167.253 345.751 167.381L347.611 167.778C348.644 168.001 349.411 168.354 349.912 168.837C350.419 169.32 350.675 169.952 350.68 170.733C350.675 171.42 350.474 172.026 350.076 172.551C349.683 173.072 349.136 173.479 348.435 173.773C347.734 174.066 346.93 174.213 346.02 174.213C344.685 174.213 343.61 173.934 342.796 173.375C341.982 172.812 341.496 172.028 341.34 171.024L343.847 170.783C343.961 171.275 344.202 171.647 344.572 171.898C344.941 172.149 345.421 172.274 346.013 172.274C346.624 172.274 347.114 172.149 347.483 171.898C347.858 171.647 348.045 171.337 348.045 170.967C348.045 170.655 347.924 170.397 347.682 170.193C347.446 169.99 347.076 169.833 346.574 169.724L344.714 169.334C343.667 169.116 342.893 168.749 342.391 168.233C341.889 167.712 341.641 167.054 341.645 166.259C341.641 165.586 341.823 165.004 342.192 164.511C342.566 164.014 343.085 163.631 343.748 163.361C344.415 163.086 345.185 162.949 346.056 162.949C347.334 162.949 348.34 163.221 349.074 163.766C349.813 164.31 350.27 165.046 350.445 165.974ZM121.139 198V187.091H123.632V188.909H123.746C123.945 188.279 124.286 187.794 124.769 187.453C125.256 187.107 125.813 186.935 126.438 186.935C126.58 186.935 126.738 186.942 126.914 186.956C127.093 186.965 127.243 186.982 127.361 187.006V189.371C127.252 189.333 127.079 189.3 126.843 189.271C126.61 189.238 126.386 189.222 126.168 189.222C125.699 189.222 125.278 189.323 124.904 189.527C124.534 189.726 124.243 190.003 124.03 190.358C123.817 190.713 123.71 191.123 123.71 191.587V198H121.139ZM133.449 198.213C132.356 198.213 131.411 197.986 130.616 197.531C129.825 197.072 129.216 196.423 128.79 195.585C128.364 194.742 128.151 193.75 128.151 192.609C128.151 191.487 128.364 190.502 128.79 189.655C129.221 188.803 129.823 188.14 130.594 187.666C131.366 187.188 132.273 186.949 133.314 186.949C133.987 186.949 134.621 187.058 135.218 187.276C135.819 187.489 136.349 187.82 136.809 188.27C137.273 188.72 137.637 189.293 137.903 189.989C138.168 190.68 138.3 191.504 138.3 192.46V193.249H129.358V191.516H135.836C135.831 191.023 135.724 190.585 135.516 190.202C135.308 189.813 135.017 189.508 134.643 189.286C134.273 189.063 133.842 188.952 133.35 188.952C132.824 188.952 132.363 189.08 131.965 189.335C131.567 189.586 131.257 189.918 131.035 190.33C130.817 190.737 130.706 191.184 130.701 191.672V193.185C130.701 193.819 130.817 194.364 131.049 194.818C131.281 195.268 131.605 195.614 132.022 195.855C132.439 196.092 132.926 196.21 133.485 196.21C133.859 196.21 134.198 196.158 134.501 196.054C134.804 195.945 135.066 195.786 135.289 195.578C135.511 195.37 135.68 195.112 135.793 194.804L138.194 195.074C138.042 195.708 137.753 196.262 137.327 196.736C136.906 197.205 136.366 197.569 135.708 197.83C135.05 198.085 134.297 198.213 133.449 198.213ZM145.234 198.213C144.145 198.213 143.21 197.974 142.428 197.496C141.652 197.018 141.053 196.357 140.632 195.514C140.215 194.667 140.007 193.691 140.007 192.588C140.007 191.48 140.22 190.502 140.646 189.655C141.072 188.803 141.673 188.14 142.45 187.666C143.231 187.188 144.154 186.949 145.22 186.949C146.105 186.949 146.889 187.112 147.57 187.439C148.257 187.761 148.804 188.218 149.211 188.81C149.618 189.397 149.85 190.083 149.907 190.869H147.45C147.35 190.344 147.114 189.906 146.74 189.555C146.37 189.2 145.875 189.023 145.255 189.023C144.73 189.023 144.268 189.165 143.87 189.449C143.472 189.728 143.162 190.131 142.94 190.656C142.722 191.182 142.613 191.812 142.613 192.545C142.613 193.289 142.722 193.928 142.94 194.463C143.158 194.993 143.463 195.403 143.856 195.692C144.254 195.976 144.72 196.118 145.255 196.118C145.634 196.118 145.972 196.047 146.271 195.905C146.574 195.758 146.827 195.547 147.031 195.273C147.234 194.998 147.374 194.664 147.45 194.271H149.907C149.846 195.043 149.618 195.727 149.225 196.324C148.832 196.916 148.297 197.38 147.62 197.716C146.943 198.047 146.148 198.213 145.234 198.213ZM154.589 191.608V198H152.018V183.455H154.532V188.945H154.66C154.916 188.329 155.311 187.844 155.846 187.489C156.386 187.129 157.073 186.949 157.906 186.949C158.664 186.949 159.324 187.107 159.888 187.425C160.451 187.742 160.887 188.206 161.194 188.817C161.507 189.428 161.663 190.173 161.663 191.054V198H159.092V191.452C159.092 190.718 158.903 190.147 158.524 189.74C158.15 189.328 157.624 189.122 156.947 189.122C156.493 189.122 156.086 189.222 155.726 189.42C155.371 189.615 155.091 189.896 154.888 190.266C154.689 190.635 154.589 191.082 154.589 191.608ZM169.113 198.213C168.02 198.213 167.075 197.986 166.28 197.531C165.489 197.072 164.881 196.423 164.454 195.585C164.028 194.742 163.815 193.75 163.815 192.609C163.815 191.487 164.028 190.502 164.454 189.655C164.885 188.803 165.487 188.14 166.258 187.666C167.03 187.188 167.937 186.949 168.979 186.949C169.651 186.949 170.285 187.058 170.882 187.276C171.483 187.489 172.014 187.82 172.473 188.27C172.937 188.72 173.301 189.293 173.567 189.989C173.832 190.68 173.964 191.504 173.964 192.46V193.249H165.023V191.516H171.5C171.495 191.023 171.389 190.585 171.18 190.202C170.972 189.813 170.681 189.508 170.307 189.286C169.937 189.063 169.506 188.952 169.014 188.952C168.488 188.952 168.027 189.08 167.629 189.335C167.231 189.586 166.921 189.918 166.699 190.33C166.481 190.737 166.37 191.184 166.365 191.672V193.185C166.365 193.819 166.481 194.364 166.713 194.818C166.945 195.268 167.269 195.614 167.686 195.855C168.103 196.092 168.59 196.21 169.149 196.21C169.523 196.21 169.862 196.158 170.165 196.054C170.468 195.945 170.73 195.786 170.953 195.578C171.175 195.37 171.344 195.112 171.457 194.804L173.858 195.074C173.706 195.708 173.417 196.262 172.991 196.736C172.57 197.205 172.03 197.569 171.372 197.83C170.714 198.085 169.961 198.213 169.113 198.213ZM176.139 198V187.091H178.632V188.909H178.746C178.945 188.279 179.286 187.794 179.769 187.453C180.256 187.107 180.813 186.935 181.438 186.935C181.58 186.935 181.738 186.942 181.914 186.956C182.093 186.965 182.243 186.982 182.361 187.006V189.371C182.252 189.333 182.079 189.3 181.843 189.271C181.61 189.238 181.386 189.222 181.168 189.222C180.699 189.222 180.278 189.323 179.904 189.527C179.534 189.726 179.243 190.003 179.03 190.358C178.817 190.713 178.71 191.123 178.71 191.587V198H176.139ZM188.378 198.213C187.289 198.213 186.354 197.974 185.573 197.496C184.796 197.018 184.198 196.357 183.776 195.514C183.359 194.667 183.151 193.691 183.151 192.588C183.151 191.48 183.364 190.502 183.79 189.655C184.216 188.803 184.818 188.14 185.594 187.666C186.376 187.188 187.299 186.949 188.364 186.949C189.25 186.949 190.033 187.112 190.715 187.439C191.402 187.761 191.948 188.218 192.356 188.81C192.763 189.397 192.995 190.083 193.052 190.869H190.594C190.495 190.344 190.258 189.906 189.884 189.555C189.515 189.2 189.02 189.023 188.4 189.023C187.874 189.023 187.412 189.165 187.015 189.449C186.617 189.728 186.307 190.131 186.084 190.656C185.867 191.182 185.758 191.812 185.758 192.545C185.758 193.289 185.867 193.928 186.084 194.463C186.302 194.993 186.608 195.403 187.001 195.692C187.398 195.976 187.865 196.118 188.4 196.118C188.778 196.118 189.117 196.047 189.415 195.905C189.718 195.758 189.972 195.547 190.175 195.273C190.379 194.998 190.519 194.664 190.594 194.271H193.052C192.99 195.043 192.763 195.727 192.37 196.324C191.977 196.916 191.442 197.38 190.765 197.716C190.088 198.047 189.292 198.213 188.378 198.213ZM197.734 191.608V198H195.163V183.455H197.677V188.945H197.805C198.061 188.329 198.456 187.844 198.991 187.489C199.531 187.129 200.217 186.949 201.051 186.949C201.808 186.949 202.469 187.107 203.032 187.425C203.596 187.742 204.031 188.206 204.339 188.817C204.651 189.428 204.808 190.173 204.808 191.054V198H202.237V191.452C202.237 190.718 202.047 190.147 201.669 189.74C201.294 189.328 200.769 189.122 200.092 189.122C199.637 189.122 199.23 189.222 198.87 189.42C198.515 189.615 198.236 189.896 198.032 190.266C197.833 190.635 197.734 191.082 197.734 191.608ZM212.258 198.213C211.164 198.213 210.22 197.986 209.424 197.531C208.633 197.072 208.025 196.423 207.599 195.585C207.173 194.742 206.96 193.75 206.96 192.609C206.96 191.487 207.173 190.502 207.599 189.655C208.03 188.803 208.631 188.14 209.403 187.666C210.175 187.188 211.081 186.949 212.123 186.949C212.795 186.949 213.43 187.058 214.026 187.276C214.628 187.489 215.158 187.82 215.617 188.27C216.081 188.72 216.446 189.293 216.711 189.989C216.976 190.68 217.109 191.504 217.109 192.46V193.249H208.167V191.516H214.644C214.64 191.023 214.533 190.585 214.325 190.202C214.116 189.813 213.825 189.508 213.451 189.286C213.082 189.063 212.651 188.952 212.159 188.952C211.633 188.952 211.171 189.08 210.774 189.335C210.376 189.586 210.066 189.918 209.843 190.33C209.625 190.737 209.514 191.184 209.509 191.672V193.185C209.509 193.819 209.625 194.364 209.857 194.818C210.089 195.268 210.414 195.614 210.83 195.855C211.247 196.092 211.735 196.21 212.294 196.21C212.668 196.21 213.006 196.158 213.309 196.054C213.612 195.945 213.875 195.786 214.097 195.578C214.32 195.37 214.488 195.112 214.602 194.804L217.002 195.074C216.851 195.708 216.562 196.262 216.136 196.736C215.714 197.205 215.175 197.569 214.517 197.83C213.858 198.085 213.106 198.213 212.258 198.213ZM219.142 198V196.366L224.767 189.314V189.222H219.327V187.091H227.913V188.845L222.558 195.777V195.869H228.098V198H219.142ZM239.524 198.192C238.667 198.192 237.9 197.972 237.222 197.531C236.545 197.091 236.01 196.452 235.617 195.614C235.224 194.776 235.028 193.758 235.028 192.56C235.028 191.348 235.227 190.325 235.624 189.491C236.027 188.653 236.569 188.021 237.251 187.595C237.933 187.164 238.693 186.949 239.531 186.949C240.17 186.949 240.695 187.058 241.107 187.276C241.519 187.489 241.846 187.747 242.088 188.05C242.329 188.348 242.516 188.63 242.649 188.895H242.755V183.455H245.333V198H242.805V196.281H242.649C242.516 196.546 242.324 196.828 242.073 197.126C241.822 197.42 241.491 197.671 241.079 197.879C240.667 198.088 240.149 198.192 239.524 198.192ZM240.241 196.082C240.785 196.082 241.249 195.936 241.633 195.642C242.017 195.344 242.308 194.929 242.507 194.399C242.705 193.869 242.805 193.251 242.805 192.545C242.805 191.84 242.705 191.227 242.507 190.706C242.312 190.185 242.024 189.78 241.64 189.491C241.261 189.203 240.795 189.058 240.241 189.058C239.668 189.058 239.19 189.207 238.806 189.506C238.423 189.804 238.134 190.216 237.94 190.741C237.746 191.267 237.649 191.868 237.649 192.545C237.649 193.227 237.746 193.836 237.94 194.371C238.139 194.901 238.43 195.32 238.813 195.628C239.202 195.931 239.677 196.082 240.241 196.082ZM252.903 198.213C251.809 198.213 250.864 197.986 250.069 197.531C249.278 197.072 248.67 196.423 248.243 195.585C247.817 194.742 247.604 193.75 247.604 192.609C247.604 191.487 247.817 190.502 248.243 189.655C248.674 188.803 249.276 188.14 250.047 187.666C250.819 187.188 251.726 186.949 252.768 186.949C253.44 186.949 254.074 187.058 254.671 187.276C255.272 187.489 255.803 187.82 256.262 188.27C256.726 188.72 257.09 189.293 257.356 189.989C257.621 190.68 257.753 191.504 257.753 192.46V193.249H248.812V191.516H255.289C255.284 191.023 255.178 190.585 254.969 190.202C254.761 189.813 254.47 189.508 254.096 189.286C253.726 189.063 253.296 188.952 252.803 188.952C252.278 188.952 251.816 189.08 251.418 189.335C251.02 189.586 250.71 189.918 250.488 190.33C250.27 190.737 250.159 191.184 250.154 191.672V193.185C250.154 193.819 250.27 194.364 250.502 194.818C250.734 195.268 251.058 195.614 251.475 195.855C251.892 196.092 252.379 196.21 252.938 196.21C253.312 196.21 253.651 196.158 253.954 196.054C254.257 195.945 254.519 195.786 254.742 195.578C254.965 195.37 255.133 195.112 255.246 194.804L257.647 195.074C257.495 195.708 257.206 196.262 256.78 196.736C256.359 197.205 255.819 197.569 255.161 197.83C254.503 198.085 253.75 198.213 252.903 198.213ZM268.551 189.974L266.207 190.23C266.141 189.993 266.025 189.771 265.859 189.562C265.698 189.354 265.48 189.186 265.205 189.058C264.931 188.93 264.595 188.866 264.197 188.866C263.662 188.866 263.212 188.982 262.847 189.214C262.488 189.446 262.31 189.747 262.315 190.116C262.31 190.434 262.426 190.692 262.663 190.891C262.904 191.089 263.302 191.253 263.856 191.381L265.717 191.778C266.749 192.001 267.516 192.354 268.018 192.837C268.525 193.32 268.78 193.952 268.785 194.733C268.78 195.42 268.579 196.026 268.181 196.551C267.788 197.072 267.241 197.479 266.541 197.773C265.84 198.066 265.035 198.213 264.126 198.213C262.791 198.213 261.716 197.934 260.901 197.375C260.087 196.812 259.602 196.028 259.445 195.024L261.953 194.783C262.066 195.275 262.308 195.647 262.677 195.898C263.046 196.149 263.527 196.274 264.119 196.274C264.73 196.274 265.22 196.149 265.589 195.898C265.963 195.647 266.15 195.337 266.15 194.967C266.15 194.655 266.029 194.397 265.788 194.193C265.551 193.99 265.182 193.833 264.68 193.724L262.819 193.334C261.773 193.116 260.999 192.749 260.497 192.233C259.995 191.712 259.746 191.054 259.751 190.259C259.746 189.586 259.928 189.004 260.298 188.511C260.672 188.014 261.19 187.631 261.853 187.361C262.521 187.086 263.29 186.949 264.161 186.949C265.44 186.949 266.446 187.221 267.18 187.766C267.919 188.31 268.375 189.046 268.551 189.974ZM275.866 202.091V187.091H278.394V188.895H278.544C278.676 188.63 278.863 188.348 279.105 188.05C279.346 187.747 279.673 187.489 280.085 187.276C280.497 187.058 281.022 186.949 281.661 186.949C282.504 186.949 283.264 187.164 283.941 187.595C284.623 188.021 285.163 188.653 285.561 189.491C285.963 190.325 286.164 191.348 286.164 192.56C286.164 193.758 285.968 194.776 285.575 195.614C285.182 196.452 284.647 197.091 283.97 197.531C283.293 197.972 282.526 198.192 281.669 198.192C281.044 198.192 280.525 198.088 280.113 197.879C279.701 197.671 279.37 197.42 279.119 197.126C278.873 196.828 278.681 196.546 278.544 196.281H278.437V202.091H275.866ZM278.387 192.545C278.387 193.251 278.487 193.869 278.686 194.399C278.889 194.929 279.18 195.344 279.559 195.642C279.943 195.936 280.407 196.082 280.951 196.082C281.519 196.082 281.995 195.931 282.379 195.628C282.762 195.32 283.051 194.901 283.245 194.371C283.444 193.836 283.544 193.227 283.544 192.545C283.544 191.868 283.446 191.267 283.252 190.741C283.058 190.216 282.769 189.804 282.386 189.506C282.002 189.207 281.524 189.058 280.951 189.058C280.402 189.058 279.936 189.203 279.552 189.491C279.169 189.78 278.877 190.185 278.678 190.706C278.484 191.227 278.387 191.84 278.387 192.545ZM288.366 198V187.091H290.859V188.909H290.972C291.171 188.279 291.512 187.794 291.995 187.453C292.483 187.107 293.039 186.935 293.664 186.935C293.806 186.935 293.965 186.942 294.14 186.956C294.32 186.965 294.469 186.982 294.588 187.006V189.371C294.479 189.333 294.306 189.3 294.069 189.271C293.837 189.238 293.612 189.222 293.394 189.222C292.926 189.222 292.504 189.323 292.13 189.527C291.761 189.726 291.47 190.003 291.257 190.358C291.044 190.713 290.937 191.123 290.937 191.587V198H288.366ZM300.605 198.213C299.54 198.213 298.616 197.979 297.835 197.51C297.054 197.041 296.448 196.385 296.017 195.543C295.591 194.7 295.378 193.715 295.378 192.588C295.378 191.461 295.591 190.474 296.017 189.626C296.448 188.779 297.054 188.121 297.835 187.652C298.616 187.183 299.54 186.949 300.605 186.949C301.67 186.949 302.594 187.183 303.375 187.652C304.156 188.121 304.76 188.779 305.186 189.626C305.617 190.474 305.832 191.461 305.832 192.588C305.832 193.715 305.617 194.7 305.186 195.543C304.76 196.385 304.156 197.041 303.375 197.51C302.594 197.979 301.67 198.213 300.605 198.213ZM300.619 196.153C301.197 196.153 301.68 195.995 302.068 195.678C302.456 195.356 302.745 194.925 302.934 194.385C303.129 193.845 303.226 193.244 303.226 192.581C303.226 191.913 303.129 191.31 302.934 190.77C302.745 190.225 302.456 189.792 302.068 189.47C301.68 189.148 301.197 188.987 300.619 188.987C300.027 188.987 299.535 189.148 299.142 189.47C298.754 189.792 298.462 190.225 298.268 190.77C298.079 191.31 297.984 191.913 297.984 192.581C297.984 193.244 298.079 193.845 298.268 194.385C298.462 194.925 298.754 195.356 299.142 195.678C299.535 195.995 300.027 196.153 300.619 196.153ZM308.014 187.091H310.585V198.625C310.585 199.411 310.436 200.06 310.138 200.571C309.84 201.082 309.409 201.464 308.845 201.714C308.282 201.965 307.598 202.091 306.793 202.091C306.698 202.091 306.61 202.089 306.53 202.084C306.45 202.084 306.362 202.081 306.267 202.077V199.982C306.338 199.986 306.402 199.989 306.459 199.989C306.516 199.993 306.575 199.996 306.637 199.996C307.129 199.996 307.482 199.875 307.695 199.634C307.908 199.397 308.014 199.049 308.014 198.589V187.091ZM309.293 185.543C308.881 185.543 308.528 185.408 308.235 185.138C307.946 184.863 307.801 184.534 307.801 184.151C307.801 183.762 307.946 183.433 308.235 183.163C308.528 182.889 308.881 182.751 309.293 182.751C309.7 182.751 310.048 182.889 310.337 183.163C310.63 183.433 310.777 183.762 310.777 184.151C310.777 184.534 310.63 184.863 310.337 185.138C310.048 185.408 309.7 185.543 309.293 185.543ZM318.059 198.213C316.965 198.213 316.02 197.986 315.225 197.531C314.434 197.072 313.826 196.423 313.4 195.585C312.974 194.742 312.76 193.75 312.76 192.609C312.76 191.487 312.974 190.502 313.4 189.655C313.831 188.803 314.432 188.14 315.204 187.666C315.975 187.188 316.882 186.949 317.924 186.949C318.596 186.949 319.231 187.058 319.827 187.276C320.429 187.489 320.959 187.82 321.418 188.27C321.882 188.72 322.247 189.293 322.512 189.989C322.777 190.68 322.91 191.504 322.91 192.46V193.249H313.968V191.516H320.445C320.44 191.023 320.334 190.585 320.126 190.202C319.917 189.813 319.626 189.508 319.252 189.286C318.883 189.063 318.452 188.952 317.959 188.952C317.434 188.952 316.972 189.08 316.574 189.335C316.177 189.586 315.867 189.918 315.644 190.33C315.426 190.737 315.315 191.184 315.31 191.672V193.185C315.31 193.819 315.426 194.364 315.658 194.818C315.89 195.268 316.215 195.614 316.631 195.855C317.048 196.092 317.536 196.21 318.094 196.21C318.468 196.21 318.807 196.158 319.11 196.054C319.413 195.945 319.676 195.786 319.898 195.578C320.121 195.37 320.289 195.112 320.403 194.804L322.803 195.074C322.652 195.708 322.363 196.262 321.937 196.736C321.515 197.205 320.975 197.569 320.317 197.83C319.659 198.085 318.906 198.213 318.059 198.213ZM330.532 187.091V189.08H324.261V187.091H330.532ZM325.809 184.477H328.38V194.719C328.38 195.064 328.432 195.33 328.536 195.514C328.645 195.694 328.787 195.817 328.963 195.884C329.138 195.95 329.332 195.983 329.545 195.983C329.706 195.983 329.853 195.971 329.985 195.947C330.123 195.924 330.227 195.902 330.298 195.884L330.731 197.893C330.594 197.941 330.397 197.993 330.142 198.05C329.891 198.107 329.583 198.14 329.218 198.149C328.574 198.168 327.994 198.071 327.478 197.858C326.962 197.64 326.552 197.304 326.249 196.849C325.951 196.395 325.804 195.827 325.809 195.145V184.477ZM341.148 189.974L338.805 190.23C338.738 189.993 338.622 189.771 338.456 189.562C338.296 189.354 338.078 189.186 337.803 189.058C337.528 188.93 337.192 188.866 336.795 188.866C336.26 188.866 335.81 188.982 335.445 189.214C335.085 189.446 334.908 189.747 334.912 190.116C334.908 190.434 335.024 190.692 335.26 190.891C335.502 191.089 335.9 191.253 336.454 191.381L338.314 191.778C339.347 192.001 340.114 192.354 340.616 192.837C341.122 193.32 341.378 193.952 341.383 194.733C341.378 195.42 341.177 196.026 340.779 196.551C340.386 197.072 339.839 197.479 339.138 197.773C338.438 198.066 337.633 198.213 336.724 198.213C335.388 198.213 334.314 197.934 333.499 197.375C332.685 196.812 332.199 196.028 332.043 195.024L334.55 194.783C334.664 195.275 334.905 195.647 335.275 195.898C335.644 196.149 336.125 196.274 336.716 196.274C337.327 196.274 337.817 196.149 338.187 195.898C338.561 195.647 338.748 195.337 338.748 194.967C338.748 194.655 338.627 194.397 338.385 194.193C338.149 193.99 337.779 193.833 337.278 193.724L335.417 193.334C334.37 193.116 333.596 192.749 333.094 192.233C332.592 191.712 332.344 191.054 332.349 190.259C332.344 189.586 332.526 189.004 332.895 188.511C333.269 188.014 333.788 187.631 334.451 187.361C335.118 187.086 335.888 186.949 336.759 186.949C338.037 186.949 339.044 187.221 339.778 187.766C340.516 188.31 340.973 189.046 341.148 189.974ZM123.315 211.091V213.08H116.866V211.091H123.315ZM118.479 222V210.061C118.479 209.327 118.63 208.716 118.933 208.229C119.241 207.741 119.653 207.376 120.169 207.135C120.685 206.893 121.258 206.773 121.888 206.773C122.333 206.773 122.728 206.808 123.074 206.879C123.42 206.95 123.675 207.014 123.841 207.071L123.33 209.06C123.221 209.027 123.083 208.993 122.918 208.96C122.752 208.922 122.567 208.903 122.364 208.903C121.885 208.903 121.547 209.019 121.348 209.251C121.154 209.479 121.057 209.805 121.057 210.232V222H118.479ZM125.329 222V211.091H127.822V212.909H127.935C128.134 212.279 128.475 211.794 128.958 211.453C129.446 211.107 130.002 210.935 130.627 210.935C130.769 210.935 130.928 210.942 131.103 210.956C131.283 210.965 131.432 210.982 131.55 211.006V213.371C131.442 213.333 131.269 213.3 131.032 213.271C130.8 213.238 130.575 213.222 130.357 213.222C129.888 213.222 129.467 213.323 129.093 213.527C128.724 213.726 128.433 214.003 128.219 214.358C128.006 214.713 127.9 215.123 127.9 215.587V222H125.329ZM137.639 222.213C136.545 222.213 135.6 221.986 134.805 221.531C134.014 221.072 133.406 220.423 132.98 219.585C132.554 218.742 132.341 217.75 132.341 216.609C132.341 215.487 132.554 214.502 132.98 213.655C133.411 212.803 134.012 212.14 134.784 211.666C135.556 211.188 136.462 210.949 137.504 210.949C138.176 210.949 138.811 211.058 139.407 211.276C140.009 211.489 140.539 211.82 140.998 212.27C141.462 212.72 141.827 213.293 142.092 213.989C142.357 214.68 142.49 215.504 142.49 216.46V217.249H133.548V215.516H140.025C140.02 215.023 139.914 214.585 139.706 214.202C139.497 213.813 139.206 213.508 138.832 213.286C138.463 213.063 138.032 212.952 137.539 212.952C137.014 212.952 136.552 213.08 136.154 213.335C135.757 213.586 135.447 213.918 135.224 214.33C135.006 214.737 134.895 215.184 134.89 215.672V217.185C134.89 217.819 135.006 218.364 135.238 218.818C135.47 219.268 135.795 219.614 136.211 219.855C136.628 220.092 137.116 220.21 137.674 220.21C138.048 220.21 138.387 220.158 138.69 220.054C138.993 219.945 139.256 219.786 139.478 219.578C139.701 219.37 139.869 219.112 139.983 218.804L142.383 219.074C142.232 219.708 141.943 220.262 141.517 220.736C141.095 221.205 140.556 221.569 139.897 221.83C139.239 222.085 138.486 222.213 137.639 222.213ZM149.494 222.213C148.401 222.213 147.456 221.986 146.661 221.531C145.87 221.072 145.261 220.423 144.835 219.585C144.409 218.742 144.196 217.75 144.196 216.609C144.196 215.487 144.409 214.502 144.835 213.655C145.266 212.803 145.867 212.14 146.639 211.666C147.411 211.188 148.318 210.949 149.359 210.949C150.032 210.949 150.666 211.058 151.263 211.276C151.864 211.489 152.394 211.82 152.854 212.27C153.318 212.72 153.682 213.293 153.947 213.989C154.213 214.68 154.345 215.504 154.345 216.46V217.249H145.403V215.516H151.881C151.876 215.023 151.769 214.585 151.561 214.202C151.353 213.813 151.062 213.508 150.688 213.286C150.318 213.063 149.887 212.952 149.395 212.952C148.869 212.952 148.408 213.08 148.01 213.335C147.612 213.586 147.302 213.918 147.08 214.33C146.862 214.737 146.75 215.184 146.746 215.672V217.185C146.746 217.819 146.862 218.364 147.094 218.818C147.326 219.268 147.65 219.614 148.067 219.855C148.483 220.092 148.971 220.21 149.53 220.21C149.904 220.21 150.242 220.158 150.545 220.054C150.848 219.945 151.111 219.786 151.334 219.578C151.556 219.37 151.724 219.112 151.838 218.804L154.239 219.074C154.087 219.708 153.798 220.262 153.372 220.736C152.951 221.205 152.411 221.569 151.753 221.83C151.095 222.085 150.342 222.213 149.494 222.213ZM159.091 207.455V222H156.52V207.455H159.091ZM164.874 222.22C164.183 222.22 163.56 222.097 163.006 221.851C162.457 221.6 162.022 221.231 161.7 220.743C161.382 220.255 161.224 219.654 161.224 218.939C161.224 218.323 161.337 217.814 161.565 217.412C161.792 217.009 162.102 216.688 162.495 216.446C162.888 216.205 163.331 216.022 163.823 215.899C164.32 215.771 164.834 215.679 165.364 215.622C166.004 215.556 166.522 215.497 166.92 215.445C167.317 215.388 167.606 215.303 167.786 215.189C167.971 215.071 168.063 214.888 168.063 214.642V214.599C168.063 214.064 167.905 213.65 167.587 213.357C167.27 213.063 166.813 212.916 166.217 212.916C165.587 212.916 165.087 213.054 164.718 213.328C164.353 213.603 164.107 213.927 163.979 214.301L161.579 213.96C161.768 213.297 162.081 212.743 162.516 212.298C162.952 211.848 163.485 211.512 164.114 211.29C164.744 211.062 165.44 210.949 166.202 210.949C166.728 210.949 167.251 211.01 167.772 211.134C168.293 211.257 168.769 211.46 169.2 211.744C169.63 212.024 169.976 212.405 170.237 212.888C170.502 213.371 170.634 213.974 170.634 214.699V222H168.163V220.501H168.077C167.921 220.804 167.701 221.089 167.417 221.354C167.138 221.614 166.785 221.825 166.359 221.986C165.937 222.142 165.442 222.22 164.874 222.22ZM165.542 220.331C166.058 220.331 166.505 220.229 166.884 220.026C167.263 219.817 167.554 219.543 167.758 219.202C167.966 218.861 168.07 218.489 168.07 218.087V216.801C167.99 216.867 167.853 216.929 167.658 216.986C167.469 217.043 167.256 217.092 167.019 217.135C166.782 217.178 166.548 217.215 166.316 217.249C166.084 217.282 165.883 217.31 165.712 217.334C165.329 217.386 164.986 217.471 164.683 217.589C164.379 217.708 164.14 217.874 163.965 218.087C163.79 218.295 163.702 218.565 163.702 218.896C163.702 219.37 163.875 219.727 164.221 219.969C164.567 220.21 165.007 220.331 165.542 220.331ZM175.79 215.608V222H173.219V211.091H175.677V212.945H175.805C176.056 212.334 176.456 211.848 177.005 211.489C177.559 211.129 178.243 210.949 179.058 210.949C179.81 210.949 180.466 211.11 181.025 211.432C181.588 211.754 182.024 212.22 182.332 212.831C182.644 213.442 182.798 214.183 182.793 215.054V222H180.222V215.452C180.222 214.723 180.033 214.152 179.654 213.74C179.28 213.328 178.762 213.122 178.099 213.122C177.649 213.122 177.249 213.222 176.898 213.42C176.553 213.615 176.281 213.896 176.082 214.266C175.888 214.635 175.79 215.082 175.79 215.608ZM190.165 222.213C189.076 222.213 188.141 221.974 187.36 221.496C186.584 221.018 185.985 220.357 185.563 219.514C185.147 218.667 184.938 217.691 184.938 216.588C184.938 215.48 185.151 214.502 185.577 213.655C186.004 212.803 186.605 212.14 187.381 211.666C188.163 211.188 189.086 210.949 190.151 210.949C191.037 210.949 191.82 211.112 192.502 211.439C193.189 211.761 193.736 212.218 194.143 212.81C194.55 213.397 194.782 214.083 194.839 214.869H192.381C192.282 214.344 192.045 213.906 191.671 213.555C191.302 213.2 190.807 213.023 190.187 213.023C189.661 213.023 189.2 213.165 188.802 213.449C188.404 213.728 188.094 214.131 187.871 214.656C187.654 215.182 187.545 215.812 187.545 216.545C187.545 217.289 187.654 217.928 187.871 218.463C188.089 218.993 188.395 219.403 188.788 219.692C189.185 219.976 189.652 220.118 190.187 220.118C190.566 220.118 190.904 220.047 191.202 219.905C191.505 219.758 191.759 219.547 191.962 219.273C192.166 218.998 192.306 218.664 192.381 218.271H194.839C194.777 219.043 194.55 219.727 194.157 220.324C193.764 220.916 193.229 221.38 192.552 221.716C191.875 222.047 191.079 222.213 190.165 222.213ZM201.779 222.213C200.686 222.213 199.741 221.986 198.946 221.531C198.155 221.072 197.547 220.423 197.12 219.585C196.694 218.742 196.481 217.75 196.481 216.609C196.481 215.487 196.694 214.502 197.12 213.655C197.551 212.803 198.153 212.14 198.924 211.666C199.696 211.188 200.603 210.949 201.645 210.949C202.317 210.949 202.951 211.058 203.548 211.276C204.149 211.489 204.68 211.82 205.139 212.27C205.603 212.72 205.967 213.293 206.233 213.989C206.498 214.68 206.63 215.504 206.63 216.46V217.249H197.689V215.516H204.166C204.161 215.023 204.055 214.585 203.846 214.202C203.638 213.813 203.347 213.508 202.973 213.286C202.603 213.063 202.172 212.952 201.68 212.952C201.154 212.952 200.693 213.08 200.295 213.335C199.897 213.586 199.587 213.918 199.365 214.33C199.147 214.737 199.036 215.184 199.031 215.672V217.185C199.031 217.819 199.147 218.364 199.379 218.818C199.611 219.268 199.935 219.614 200.352 219.855C200.769 220.092 201.256 220.21 201.815 220.21C202.189 220.21 202.528 220.158 202.831 220.054C203.134 219.945 203.396 219.786 203.619 219.578C203.842 219.37 204.01 219.112 204.123 218.804L206.524 219.074C206.372 219.708 206.083 220.262 205.657 220.736C205.236 221.205 204.696 221.569 204.038 221.83C203.38 222.085 202.627 222.213 201.779 222.213ZM213.766 222V211.091H216.337V222H213.766ZM215.059 209.543C214.652 209.543 214.301 209.408 214.008 209.138C213.714 208.863 213.567 208.534 213.567 208.151C213.567 207.762 213.714 207.433 214.008 207.163C214.301 206.889 214.652 206.751 215.059 206.751C215.471 206.751 215.821 206.889 216.11 207.163C216.404 207.433 216.55 207.762 216.55 208.151C216.55 208.534 216.404 208.863 216.11 209.138C215.821 209.408 215.471 209.543 215.059 209.543ZM221.552 215.608V222H218.981V211.091H221.439V212.945H221.566C221.817 212.334 222.217 211.848 222.767 211.489C223.321 211.129 224.005 210.949 224.819 210.949C225.572 210.949 226.228 211.11 226.787 211.432C227.35 211.754 227.786 212.22 228.093 212.831C228.406 213.442 228.56 214.183 228.555 215.054V222H225.984V215.452C225.984 214.723 225.795 214.152 225.416 213.74C225.042 213.328 224.523 213.122 223.86 213.122C223.411 213.122 223.011 213.222 222.66 213.42C222.315 213.615 222.042 213.896 221.843 214.266C221.649 214.635 221.552 215.082 221.552 215.608ZM235.217 222.192C234.36 222.192 233.593 221.972 232.916 221.531C232.239 221.091 231.704 220.452 231.311 219.614C230.918 218.776 230.721 217.758 230.721 216.56C230.721 215.348 230.92 214.325 231.318 213.491C231.72 212.653 232.262 212.021 232.944 211.595C233.626 211.164 234.386 210.949 235.224 210.949C235.863 210.949 236.389 211.058 236.801 211.276C237.213 211.489 237.539 211.747 237.781 212.05C238.022 212.348 238.209 212.63 238.342 212.895H238.449V207.455H241.027V222H238.498V220.281H238.342C238.209 220.546 238.018 220.828 237.767 221.126C237.516 221.42 237.184 221.671 236.772 221.879C236.36 222.088 235.842 222.192 235.217 222.192ZM235.934 220.082C236.479 220.082 236.943 219.936 237.326 219.642C237.71 219.344 238.001 218.929 238.2 218.399C238.399 217.869 238.498 217.251 238.498 216.545C238.498 215.84 238.399 215.227 238.2 214.706C238.006 214.185 237.717 213.78 237.333 213.491C236.955 213.203 236.488 213.058 235.934 213.058C235.361 213.058 234.883 213.207 234.5 213.506C234.116 213.804 233.827 214.216 233.633 214.741C233.439 215.267 233.342 215.868 233.342 216.545C233.342 217.227 233.439 217.836 233.633 218.371C233.832 218.901 234.123 219.32 234.507 219.628C234.895 219.931 235.371 220.082 235.934 220.082ZM248.596 222.213C247.502 222.213 246.558 221.986 245.762 221.531C244.971 221.072 244.363 220.423 243.937 219.585C243.511 218.742 243.298 217.75 243.298 216.609C243.298 215.487 243.511 214.502 243.937 213.655C244.368 212.803 244.969 212.14 245.741 211.666C246.513 211.188 247.419 210.949 248.461 210.949C249.133 210.949 249.768 211.058 250.364 211.276C250.966 211.489 251.496 211.82 251.955 212.27C252.419 212.72 252.784 213.293 253.049 213.989C253.314 214.68 253.447 215.504 253.447 216.46V217.249H244.505V215.516H250.982C250.978 215.023 250.871 214.585 250.663 214.202C250.454 213.813 250.163 213.508 249.789 213.286C249.42 213.063 248.989 212.952 248.496 212.952C247.971 212.952 247.509 213.08 247.112 213.335C246.714 213.586 246.404 213.918 246.181 214.33C245.963 214.737 245.852 215.184 245.847 215.672V217.185C245.847 217.819 245.963 218.364 246.195 218.818C246.427 219.268 246.752 219.614 247.168 219.855C247.585 220.092 248.073 220.21 248.631 220.21C249.005 220.21 249.344 220.158 249.647 220.054C249.95 219.945 250.213 219.786 250.435 219.578C250.658 219.37 250.826 219.112 250.94 218.804L253.34 219.074C253.189 219.708 252.9 220.262 252.474 220.736C252.052 221.205 251.513 221.569 250.854 221.83C250.196 222.085 249.443 222.213 248.596 222.213ZM247.403 209.656L248.994 206.411H251.508L249.327 209.656H247.403ZM255.622 226.091V211.091H258.15V212.895H258.299C258.432 212.63 258.619 212.348 258.86 212.05C259.102 211.747 259.429 211.489 259.841 211.276C260.252 211.058 260.778 210.949 261.417 210.949C262.26 210.949 263.02 211.164 263.697 211.595C264.379 212.021 264.919 212.653 265.316 213.491C265.719 214.325 265.92 215.348 265.92 216.56C265.92 217.758 265.724 218.776 265.331 219.614C264.938 220.452 264.403 221.091 263.725 221.531C263.048 221.972 262.281 222.192 261.424 222.192C260.799 222.192 260.281 222.088 259.869 221.879C259.457 221.671 259.126 221.42 258.875 221.126C258.628 220.828 258.437 220.546 258.299 220.281H258.193V226.091H255.622ZM258.143 216.545C258.143 217.251 258.243 217.869 258.441 218.399C258.645 218.929 258.936 219.344 259.315 219.642C259.699 219.936 260.163 220.082 260.707 220.082C261.275 220.082 261.751 219.931 262.135 219.628C262.518 219.32 262.807 218.901 263.001 218.371C263.2 217.836 263.299 217.227 263.299 216.545C263.299 215.868 263.202 215.267 263.008 214.741C262.814 214.216 262.525 213.804 262.142 213.506C261.758 213.207 261.28 213.058 260.707 213.058C260.158 213.058 259.691 213.203 259.308 213.491C258.924 213.78 258.633 214.185 258.434 214.706C258.24 215.227 258.143 215.84 258.143 216.545ZM272.951 222.213C271.858 222.213 270.913 221.986 270.118 221.531C269.327 221.072 268.718 220.423 268.292 219.585C267.866 218.742 267.653 217.75 267.653 216.609C267.653 215.487 267.866 214.502 268.292 213.655C268.723 212.803 269.324 212.14 270.096 211.666C270.868 211.188 271.775 210.949 272.816 210.949C273.489 210.949 274.123 211.058 274.72 211.276C275.321 211.489 275.851 211.82 276.311 212.27C276.775 212.72 277.139 213.293 277.404 213.989C277.67 214.68 277.802 215.504 277.802 216.46V217.249H268.86V215.516H275.338C275.333 215.023 275.226 214.585 275.018 214.202C274.81 213.813 274.519 213.508 274.145 213.286C273.775 213.063 273.344 212.952 272.852 212.952C272.326 212.952 271.865 213.08 271.467 213.335C271.069 213.586 270.759 213.918 270.537 214.33C270.319 214.737 270.208 215.184 270.203 215.672V217.185C270.203 217.819 270.319 218.364 270.551 218.818C270.783 219.268 271.107 219.614 271.524 219.855C271.94 220.092 272.428 220.21 272.987 220.21C273.361 220.21 273.699 220.158 274.002 220.054C274.306 219.945 274.568 219.786 274.791 219.578C275.013 219.37 275.181 219.112 275.295 218.804L277.696 219.074C277.544 219.708 277.255 220.262 276.829 220.736C276.408 221.205 275.868 221.569 275.21 221.83C274.552 222.085 273.799 222.213 272.951 222.213ZM282.548 215.608V222H279.977V211.091H282.435V212.945H282.562C282.813 212.334 283.214 211.848 283.763 211.489C284.317 211.129 285.001 210.949 285.815 210.949C286.568 210.949 287.224 211.11 287.783 211.432C288.346 211.754 288.782 212.22 289.089 212.831C289.402 213.442 289.556 214.183 289.551 215.054V222H286.98V215.452C286.98 214.723 286.791 214.152 286.412 213.74C286.038 213.328 285.519 213.122 284.857 213.122C284.407 213.122 284.007 213.222 283.656 213.42C283.311 213.615 283.038 213.896 282.839 214.266C282.645 214.635 282.548 215.082 282.548 215.608ZM296.213 222.192C295.356 222.192 294.589 221.972 293.912 221.531C293.235 221.091 292.7 220.452 292.307 219.614C291.914 218.776 291.717 217.758 291.717 216.56C291.717 215.348 291.916 214.325 292.314 213.491C292.716 212.653 293.259 212.021 293.94 211.595C294.622 211.164 295.382 210.949 296.22 210.949C296.859 210.949 297.385 211.058 297.797 211.276C298.209 211.489 298.536 211.747 298.777 212.05C299.018 212.348 299.205 212.63 299.338 212.895H299.445V207.455H302.023V222H299.494V220.281H299.338C299.205 220.546 299.014 220.828 298.763 221.126C298.512 221.42 298.18 221.671 297.768 221.879C297.357 222.088 296.838 222.192 296.213 222.192ZM296.93 220.082C297.475 220.082 297.939 219.936 298.322 219.642C298.706 219.344 298.997 218.929 299.196 218.399C299.395 217.869 299.494 217.251 299.494 216.545C299.494 215.84 299.395 215.227 299.196 214.706C299.002 214.185 298.713 213.78 298.33 213.491C297.951 213.203 297.484 213.058 296.93 213.058C296.357 213.058 295.879 213.207 295.496 213.506C295.112 213.804 294.823 214.216 294.629 214.741C294.435 215.267 294.338 215.868 294.338 216.545C294.338 217.227 294.435 217.836 294.629 218.371C294.828 218.901 295.119 219.32 295.503 219.628C295.891 219.931 296.367 220.082 296.93 220.082ZM307.902 222.22C307.21 222.22 306.588 222.097 306.034 221.851C305.484 221.6 305.049 221.231 304.727 220.743C304.41 220.255 304.251 219.654 304.251 218.939C304.251 218.323 304.365 217.814 304.592 217.412C304.819 217.009 305.129 216.688 305.522 216.446C305.915 216.205 306.358 216.022 306.85 215.899C307.348 215.771 307.861 215.679 308.392 215.622C309.031 215.556 309.549 215.497 309.947 215.445C310.345 215.388 310.634 215.303 310.814 215.189C310.998 215.071 311.091 214.888 311.091 214.642V214.599C311.091 214.064 310.932 213.65 310.615 213.357C310.297 213.063 309.841 212.916 309.244 212.916C308.614 212.916 308.115 213.054 307.745 213.328C307.381 213.603 307.135 213.927 307.007 214.301L304.606 213.96C304.796 213.297 305.108 212.743 305.544 212.298C305.979 211.848 306.512 211.512 307.142 211.29C307.771 211.062 308.467 210.949 309.23 210.949C309.755 210.949 310.279 211.01 310.799 211.134C311.32 211.257 311.796 211.46 312.227 211.744C312.658 212.024 313.003 212.405 313.264 212.888C313.529 213.371 313.662 213.974 313.662 214.699V222H311.19V220.501H311.105C310.949 220.804 310.728 221.089 310.444 221.354C310.165 221.614 309.812 221.825 309.386 221.986C308.965 222.142 308.47 222.22 307.902 222.22ZM308.569 220.331C309.085 220.331 309.533 220.229 309.912 220.026C310.29 219.817 310.582 219.543 310.785 219.202C310.993 218.861 311.098 218.489 311.098 218.087V216.801C311.017 216.867 310.88 216.929 310.686 216.986C310.496 217.043 310.283 217.092 310.047 217.135C309.81 217.178 309.575 217.215 309.343 217.249C309.111 217.282 308.91 217.31 308.74 217.334C308.356 217.386 308.013 217.471 307.71 217.589C307.407 217.708 307.168 217.874 306.993 218.087C306.817 218.295 306.73 218.565 306.73 218.896C306.73 219.37 306.903 219.727 307.248 219.969C307.594 220.21 308.034 220.331 308.569 220.331ZM318.818 215.608V222H316.247V211.091H318.704V212.945H318.832C319.083 212.334 319.483 211.848 320.032 211.489C320.586 211.129 321.27 210.949 322.085 210.949C322.838 210.949 323.493 211.11 324.052 211.432C324.616 211.754 325.051 212.22 325.359 212.831C325.672 213.442 325.825 214.183 325.821 215.054V222H323.25V215.452C323.25 214.723 323.06 214.152 322.681 213.74C322.307 213.328 321.789 213.122 321.126 213.122C320.676 213.122 320.276 213.222 319.926 213.42C319.58 213.615 319.308 213.896 319.109 214.266C318.915 214.635 318.818 215.082 318.818 215.608ZM333.882 211.091V213.08H327.61V211.091H333.882ZM329.159 208.477H331.73V218.719C331.73 219.064 331.782 219.33 331.886 219.514C331.995 219.694 332.137 219.817 332.312 219.884C332.487 219.95 332.681 219.983 332.895 219.983C333.056 219.983 333.202 219.971 333.335 219.947C333.472 219.924 333.576 219.902 333.647 219.884L334.081 221.893C333.943 221.941 333.747 221.993 333.491 222.05C333.24 222.107 332.932 222.14 332.568 222.149C331.924 222.168 331.344 222.071 330.828 221.858C330.312 221.64 329.902 221.304 329.599 220.849C329.301 220.395 329.154 219.827 329.159 219.145V208.477ZM344.498 213.974L342.154 214.23C342.088 213.993 341.972 213.771 341.806 213.562C341.645 213.354 341.427 213.186 341.153 213.058C340.878 212.93 340.542 212.866 340.144 212.866C339.609 212.866 339.159 212.982 338.795 213.214C338.435 213.446 338.257 213.747 338.262 214.116C338.257 214.434 338.373 214.692 338.61 214.891C338.852 215.089 339.249 215.253 339.803 215.381L341.664 215.778C342.696 216.001 343.463 216.354 343.965 216.837C344.472 217.32 344.728 217.952 344.732 218.733C344.728 219.42 344.526 220.026 344.129 220.551C343.736 221.072 343.189 221.479 342.488 221.773C341.787 222.066 340.982 222.213 340.073 222.213C338.738 222.213 337.663 221.934 336.849 221.375C336.034 220.812 335.549 220.028 335.393 219.024L337.9 218.783C338.013 219.275 338.255 219.647 338.624 219.898C338.994 220.149 339.474 220.274 340.066 220.274C340.677 220.274 341.167 220.149 341.536 219.898C341.91 219.647 342.097 219.337 342.097 218.967C342.097 218.655 341.977 218.397 341.735 218.193C341.498 217.99 341.129 217.833 340.627 217.724L338.766 217.334C337.72 217.116 336.946 216.749 336.444 216.233C335.942 215.712 335.693 215.054 335.698 214.259C335.693 213.586 335.876 213.004 336.245 212.511C336.619 212.014 337.138 211.631 337.8 211.361C338.468 211.086 339.237 210.949 340.109 210.949C341.387 210.949 342.393 211.221 343.127 211.766C343.866 212.31 344.323 213.046 344.498 213.974ZM180.107 246.213C179.018 246.213 178.083 245.974 177.301 245.496C176.525 245.018 175.926 244.357 175.505 243.514C175.088 242.667 174.88 241.691 174.88 240.588C174.88 239.48 175.093 238.502 175.519 237.655C175.945 236.803 176.546 236.14 177.323 235.666C178.104 235.188 179.027 234.949 180.093 234.949C180.978 234.949 181.762 235.112 182.444 235.439C183.13 235.761 183.677 236.218 184.084 236.81C184.491 237.397 184.723 238.083 184.78 238.869H182.323C182.223 238.344 181.987 237.906 181.613 237.555C181.243 237.2 180.748 237.023 180.128 237.023C179.603 237.023 179.141 237.165 178.743 237.449C178.346 237.728 178.035 238.131 177.813 238.656C177.595 239.182 177.486 239.812 177.486 240.545C177.486 241.289 177.595 241.928 177.813 242.463C178.031 242.993 178.336 243.403 178.729 243.692C179.127 243.976 179.593 244.118 180.128 244.118C180.507 244.118 180.846 244.047 181.144 243.905C181.447 243.758 181.7 243.547 181.904 243.273C182.107 242.998 182.247 242.664 182.323 242.271H184.78C184.719 243.043 184.491 243.727 184.098 244.324C183.705 244.916 183.17 245.38 182.493 245.716C181.816 246.047 181.021 246.213 180.107 246.213ZM191.65 246.213C190.585 246.213 189.661 245.979 188.88 245.51C188.099 245.041 187.493 244.385 187.062 243.543C186.636 242.7 186.423 241.715 186.423 240.588C186.423 239.461 186.636 238.474 187.062 237.626C187.493 236.779 188.099 236.121 188.88 235.652C189.661 235.183 190.585 234.949 191.65 234.949C192.715 234.949 193.638 235.183 194.42 235.652C195.201 236.121 195.805 236.779 196.231 237.626C196.662 238.474 196.877 239.461 196.877 240.588C196.877 241.715 196.662 242.7 196.231 243.543C195.805 244.385 195.201 245.041 194.42 245.51C193.638 245.979 192.715 246.213 191.65 246.213ZM191.664 244.153C192.242 244.153 192.725 243.995 193.113 243.678C193.501 243.356 193.79 242.925 193.979 242.385C194.174 241.845 194.271 241.244 194.271 240.581C194.271 239.913 194.174 239.31 193.979 238.77C193.79 238.225 193.501 237.792 193.113 237.47C192.725 237.148 192.242 236.987 191.664 236.987C191.072 236.987 190.58 237.148 190.187 237.47C189.799 237.792 189.507 238.225 189.313 238.77C189.124 239.31 189.029 239.913 189.029 240.581C189.029 241.244 189.124 241.845 189.313 242.385C189.507 242.925 189.799 243.356 190.187 243.678C190.58 243.995 191.072 244.153 191.664 244.153ZM201.63 239.608V246H199.059V235.091H201.517V236.945H201.645C201.895 236.334 202.296 235.848 202.845 235.489C203.399 235.129 204.083 234.949 204.897 234.949C205.65 234.949 206.306 235.11 206.865 235.432C207.428 235.754 207.864 236.22 208.172 236.831C208.484 237.442 208.638 238.183 208.633 239.054V246H206.062V239.452C206.062 238.723 205.873 238.152 205.494 237.74C205.12 237.328 204.601 237.122 203.939 237.122C203.489 237.122 203.089 237.222 202.738 237.42C202.393 237.615 202.12 237.896 201.922 238.266C201.727 238.635 201.63 239.082 201.63 239.608ZM219.869 237.974L217.525 238.23C217.459 237.993 217.343 237.771 217.177 237.562C217.016 237.354 216.798 237.186 216.524 237.058C216.249 236.93 215.913 236.866 215.515 236.866C214.98 236.866 214.53 236.982 214.166 237.214C213.806 237.446 213.628 237.747 213.633 238.116C213.628 238.434 213.744 238.692 213.981 238.891C214.223 239.089 214.62 239.253 215.174 239.381L217.035 239.778C218.067 240.001 218.834 240.354 219.336 240.837C219.843 241.32 220.099 241.952 220.103 242.733C220.099 243.42 219.897 244.026 219.5 244.551C219.107 245.072 218.56 245.479 217.859 245.773C217.158 246.066 216.353 246.213 215.444 246.213C214.109 246.213 213.034 245.934 212.22 245.375C211.405 244.812 210.92 244.028 210.764 243.024L213.271 242.783C213.385 243.275 213.626 243.647 213.995 243.898C214.365 244.149 214.845 244.274 215.437 244.274C216.048 244.274 216.538 244.149 216.907 243.898C217.281 243.647 217.468 243.337 217.468 242.967C217.468 242.655 217.348 242.397 217.106 242.193C216.869 241.99 216.5 241.833 215.998 241.724L214.137 241.334C213.091 241.116 212.317 240.749 211.815 240.233C211.313 239.712 211.065 239.054 211.069 238.259C211.065 237.586 211.247 237.004 211.616 236.511C211.99 236.014 212.509 235.631 213.172 235.361C213.839 235.086 214.609 234.949 215.48 234.949C216.758 234.949 217.764 235.221 218.498 235.766C219.237 236.31 219.694 237.046 219.869 237.974ZM229.176 241.412V235.091H231.748V246H229.255V244.061H229.141C228.895 244.672 228.49 245.171 227.926 245.56C227.368 245.948 226.679 246.142 225.86 246.142C225.145 246.142 224.513 245.983 223.963 245.666C223.419 245.344 222.993 244.878 222.685 244.267C222.377 243.652 222.223 242.908 222.223 242.037V235.091H224.794V241.639C224.794 242.33 224.984 242.88 225.363 243.287C225.741 243.694 226.239 243.898 226.854 243.898C227.233 243.898 227.6 243.805 227.955 243.621C228.31 243.436 228.601 243.161 228.828 242.797C229.06 242.428 229.176 241.966 229.176 241.412ZM236.962 231.455V246H234.391V231.455H236.962ZM245.054 235.091V237.08H238.782V235.091H245.054ZM240.331 232.477H242.902V242.719C242.902 243.064 242.954 243.33 243.058 243.514C243.167 243.694 243.309 243.817 243.484 243.884C243.659 243.95 243.853 243.983 244.066 243.983C244.227 243.983 244.374 243.971 244.507 243.947C244.644 243.924 244.748 243.902 244.819 243.884L245.252 245.893C245.115 245.941 244.919 245.993 244.663 246.05C244.412 246.107 244.104 246.14 243.74 246.149C243.096 246.168 242.516 246.071 242 245.858C241.484 245.64 241.074 245.304 240.771 244.849C240.473 244.395 240.326 243.827 240.331 243.145V232.477ZM250.343 246.22C249.652 246.22 249.029 246.097 248.475 245.851C247.926 245.6 247.49 245.231 247.168 244.743C246.851 244.255 246.692 243.654 246.692 242.939C246.692 242.323 246.806 241.814 247.033 241.412C247.261 241.009 247.571 240.688 247.964 240.446C248.357 240.205 248.799 240.022 249.292 239.899C249.789 239.771 250.303 239.679 250.833 239.622C251.472 239.556 251.991 239.497 252.388 239.445C252.786 239.388 253.075 239.303 253.255 239.189C253.44 239.071 253.532 238.888 253.532 238.642V238.599C253.532 238.064 253.373 237.65 253.056 237.357C252.739 237.063 252.282 236.916 251.685 236.916C251.056 236.916 250.556 237.054 250.187 237.328C249.822 237.603 249.576 237.927 249.448 238.301L247.048 237.96C247.237 237.297 247.549 236.743 247.985 236.298C248.421 235.848 248.953 235.512 249.583 235.29C250.213 235.062 250.909 234.949 251.671 234.949C252.197 234.949 252.72 235.01 253.241 235.134C253.762 235.257 254.237 235.46 254.668 235.744C255.099 236.024 255.445 236.405 255.705 236.888C255.97 237.371 256.103 237.974 256.103 238.699V246H253.631V244.501H253.546C253.39 244.804 253.17 245.089 252.886 245.354C252.606 245.614 252.254 245.825 251.827 245.986C251.406 246.142 250.911 246.22 250.343 246.22ZM251.011 244.331C251.527 244.331 251.974 244.229 252.353 244.026C252.732 243.817 253.023 243.543 253.227 243.202C253.435 242.861 253.539 242.489 253.539 242.087V240.801C253.459 240.867 253.321 240.929 253.127 240.986C252.938 241.043 252.725 241.092 252.488 241.135C252.251 241.178 252.017 241.215 251.785 241.249C251.553 241.282 251.352 241.31 251.181 241.334C250.798 241.386 250.454 241.471 250.151 241.589C249.848 241.708 249.609 241.874 249.434 242.087C249.259 242.295 249.171 242.565 249.171 242.896C249.171 243.37 249.344 243.727 249.69 243.969C250.035 244.21 250.476 244.331 251.011 244.331ZM261.259 239.608V246H258.688V235.091H261.146V236.945H261.273C261.524 236.334 261.924 235.848 262.474 235.489C263.028 235.129 263.712 234.949 264.526 234.949C265.279 234.949 265.935 235.11 266.494 235.432C267.057 235.754 267.493 236.22 267.8 236.831C268.113 237.442 268.267 238.183 268.262 239.054V246H265.691V239.452C265.691 238.723 265.502 238.152 265.123 237.74C264.749 237.328 264.23 237.122 263.567 237.122C263.118 237.122 262.718 237.222 262.367 237.42C262.022 237.615 261.749 237.896 261.55 238.266C261.356 238.635 261.259 239.082 261.259 239.608ZM276.323 235.091V237.08H270.052V235.091H276.323ZM271.6 232.477H274.171V242.719C274.171 243.064 274.223 243.33 274.327 243.514C274.436 243.694 274.578 243.817 274.754 243.884C274.929 243.95 275.123 243.983 275.336 243.983C275.497 243.983 275.644 243.971 275.776 243.947C275.914 243.924 276.018 243.902 276.089 243.884L276.522 245.893C276.385 245.941 276.188 245.993 275.933 246.05C275.682 246.107 275.374 246.14 275.009 246.149C274.365 246.168 273.785 246.071 273.269 245.858C272.753 245.64 272.344 245.304 272.04 244.849C271.742 244.395 271.595 243.827 271.6 243.145V232.477ZM286.939 237.974L284.596 238.23C284.529 237.993 284.413 237.771 284.248 237.562C284.087 237.354 283.869 237.186 283.594 237.058C283.319 236.93 282.983 236.866 282.586 236.866C282.051 236.866 281.601 236.982 281.236 237.214C280.876 237.446 280.699 237.747 280.703 238.116C280.699 238.434 280.815 238.692 281.051 238.891C281.293 239.089 281.691 239.253 282.245 239.381L284.105 239.778C285.138 240.001 285.905 240.354 286.407 240.837C286.913 241.32 287.169 241.952 287.174 242.733C287.169 243.42 286.968 244.026 286.57 244.551C286.177 245.072 285.63 245.479 284.929 245.773C284.229 246.066 283.424 246.213 282.515 246.213C281.179 246.213 280.105 245.934 279.29 245.375C278.476 244.812 277.99 244.028 277.834 243.024L280.341 242.783C280.455 243.275 280.696 243.647 281.066 243.898C281.435 244.149 281.916 244.274 282.507 244.274C283.118 244.274 283.608 244.149 283.978 243.898C284.352 243.647 284.539 243.337 284.539 242.967C284.539 242.655 284.418 242.397 284.176 242.193C283.94 241.99 283.57 241.833 283.069 241.724L281.208 241.334C280.161 241.116 279.387 240.749 278.885 240.233C278.383 239.712 278.135 239.054 278.14 238.259C278.135 237.586 278.317 237.004 278.686 236.511C279.06 236.014 279.579 235.631 280.242 235.361C280.909 235.086 281.679 234.949 282.55 234.949C283.828 234.949 284.835 235.221 285.569 235.766C286.307 236.31 286.764 237.046 286.939 237.974Z" fill="#3F3F3F"/>
<path d="M167.152 146V124.182H171.104V134.207H171.371L179.883 124.182H184.709L176.271 133.972L184.783 146H180.032L173.523 136.646L171.104 139.501V146H167.152ZM195.24 133.504V136.678H185.417V133.504H195.24ZM199.466 146V124.182H207.648C209.324 124.182 210.731 124.494 211.867 125.119C213.01 125.744 213.873 126.604 214.456 127.697C215.045 128.784 215.34 130.02 215.34 131.405C215.34 132.804 215.045 134.047 214.456 135.134C213.866 136.22 212.996 137.076 211.846 137.701C210.695 138.319 209.278 138.628 207.595 138.628H202.172V135.379H207.062C208.042 135.379 208.845 135.208 209.47 134.867C210.095 134.526 210.557 134.058 210.855 133.461C211.16 132.864 211.313 132.179 211.313 131.405C211.313 130.631 211.16 129.949 210.855 129.359C210.557 128.77 210.091 128.312 209.459 127.985C208.834 127.651 208.028 127.484 207.041 127.484H203.419V146H199.466ZM218.603 146V129.636H222.342V132.364H222.512C222.811 131.419 223.322 130.691 224.047 130.18C224.778 129.661 225.613 129.402 226.55 129.402C226.763 129.402 227.001 129.413 227.264 129.434C227.534 129.448 227.757 129.473 227.935 129.509V133.056C227.772 132.999 227.512 132.95 227.157 132.907C226.809 132.857 226.472 132.832 226.145 132.832C225.442 132.832 224.81 132.985 224.249 133.29C223.695 133.589 223.258 134.004 222.939 134.537C222.619 135.07 222.459 135.684 222.459 136.38V146H218.603ZM236.961 146.32C235.363 146.32 233.978 145.968 232.806 145.265C231.634 144.562 230.725 143.578 230.079 142.314C229.44 141.05 229.12 139.572 229.12 137.882C229.12 136.192 229.44 134.711 230.079 133.44C230.725 132.168 231.634 131.181 232.806 130.478C233.978 129.775 235.363 129.423 236.961 129.423C238.559 129.423 239.944 129.775 241.116 130.478C242.288 131.181 243.193 132.168 243.833 133.44C244.479 134.711 244.802 136.192 244.802 137.882C244.802 139.572 244.479 141.05 243.833 142.314C243.193 143.578 242.288 144.562 241.116 145.265C239.944 145.968 238.559 146.32 236.961 146.32ZM236.982 143.23C237.849 143.23 238.573 142.992 239.156 142.516C239.738 142.033 240.171 141.387 240.455 140.577C240.747 139.768 240.892 138.866 240.892 137.871C240.892 136.87 240.747 135.964 240.455 135.155C240.171 134.338 239.738 133.688 239.156 133.205C238.573 132.722 237.849 132.481 236.982 132.481C236.095 132.481 235.356 132.722 234.767 133.205C234.184 133.688 233.747 134.338 233.456 135.155C233.172 135.964 233.03 136.87 233.03 137.871C233.03 138.866 233.172 139.768 233.456 140.577C233.747 141.387 234.184 142.033 234.767 142.516C235.356 142.992 236.095 143.23 236.982 143.23ZM256.364 129.636V132.619H246.69V129.636H256.364ZM249.109 146V128.092C249.109 126.991 249.336 126.075 249.79 125.343C250.252 124.612 250.87 124.065 251.644 123.702C252.418 123.34 253.278 123.159 254.222 123.159C254.89 123.159 255.483 123.212 256.001 123.319C256.52 123.425 256.903 123.521 257.152 123.607L256.385 126.589C256.222 126.54 256.016 126.49 255.767 126.44C255.518 126.384 255.241 126.355 254.936 126.355C254.219 126.355 253.711 126.529 253.413 126.877C253.121 127.218 252.976 127.708 252.976 128.347V146H249.109ZM259.384 146V129.636H263.24V146H259.384ZM261.323 127.314C260.712 127.314 260.186 127.112 259.746 126.707C259.306 126.295 259.086 125.801 259.086 125.226C259.086 124.643 259.306 124.15 259.746 123.745C260.186 123.333 260.712 123.127 261.323 123.127C261.941 123.127 262.466 123.333 262.9 123.745C263.34 124.15 263.56 124.643 263.56 125.226C263.56 125.801 263.34 126.295 262.9 126.707C262.466 127.112 261.941 127.314 261.323 127.314ZM271.063 124.182V146H267.206V124.182H271.063ZM282.273 146.32C280.632 146.32 279.215 145.979 278.022 145.297C276.836 144.608 275.923 143.635 275.284 142.378C274.645 141.114 274.325 139.626 274.325 137.914C274.325 136.231 274.645 134.754 275.284 133.482C275.93 132.204 276.832 131.21 277.99 130.499C279.148 129.782 280.508 129.423 282.07 129.423C283.079 129.423 284.031 129.587 284.925 129.913C285.827 130.233 286.623 130.73 287.312 131.405C288.008 132.08 288.555 132.939 288.952 133.983C289.35 135.02 289.549 136.256 289.549 137.69V138.873H276.136V136.273H285.852C285.845 135.535 285.685 134.878 285.373 134.303C285.06 133.72 284.624 133.262 284.062 132.928C283.509 132.594 282.862 132.428 282.124 132.428C281.335 132.428 280.643 132.619 280.046 133.003C279.45 133.379 278.984 133.876 278.651 134.494C278.324 135.105 278.157 135.776 278.15 136.508V138.777C278.15 139.729 278.324 140.545 278.672 141.227C279.02 141.902 279.506 142.42 280.131 142.783C280.756 143.138 281.488 143.315 282.326 143.315C282.887 143.315 283.395 143.237 283.849 143.081C284.304 142.918 284.698 142.68 285.032 142.367C285.366 142.055 285.618 141.668 285.788 141.206L289.389 141.611C289.162 142.562 288.729 143.393 288.089 144.104C287.457 144.807 286.648 145.354 285.661 145.744C284.673 146.128 283.544 146.32 282.273 146.32Z" fill="#2C2C2C"/>
</g>
<defs>
<filter id="filter0_d_535_3069" x="16" y="37" width="278.805" height="273.68" filterUnits="userSpaceOnUse" color-interpolation-filters="sRGB">
<feFlood flood-opacity="0" result="BackgroundImageFix"/>
<feColorMatrix in="SourceAlpha" type="matrix" values="0 0 0 0 0 0 0 0 0 0 0 0 0 0 0 0 0 0 127 0" result="hardAlpha"/>
<feOffset/>
<feGaussianBlur stdDeviation="10"/>
<feComposite in2="hardAlpha" operator="out"/>
<feColorMatrix type="matrix" values="0 0 0 0 0.691667 0 0 0 0 0.691667 0 0 0 0 0.691667 0 0 0 0.5 0"/>
<feBlend mode="normal" in2="BackgroundImageFix" result="effect1_dropShadow_535_3069"/>
<feBlend mode="normal" in="SourceGraphic" in2="effect1_dropShadow_535_3069" result="shape"/>
</filter>
<filter id="filter1_d_535_3069" x="156.004" y="24" width="313.988" height="314.813" filterUnits="userSpaceOnUse" color-interpolation-filters="sRGB">
<feFlood flood-opacity="0" result="BackgroundImageFix"/>
<feColorMatrix in="SourceAlpha" type="matrix" values="0 0 0 0 0 0 0 0 0 0 0 0 0 0 0 0 0 0 127 0" result="hardAlpha"/>
<feOffset/>
<feGaussianBlur stdDeviation="10"/>
<feComposite in2="hardAlpha" operator="out"/>
<feColorMatrix type="matrix" values="0 0 0 0 0.691667 0 0 0 0 0.691667 0 0 0 0 0.691667 0 0 0 0.5 0"/>
<feBlend mode="normal" in2="BackgroundImageFix" result="effect1_dropShadow_535_3069"/>
<feBlend mode="normal" in="SourceGraphic" in2="effect1_dropShadow_535_3069" result="shape"/>
</filter>
<clipPath id="clip0_535_3069">
<rect width="462" height="326" rx="163" fill="white"/>
</clipPath>
</defs>
</svg>
